<svg width="1438" height="582" viewBox="0 0 1438 582" fill="none" xmlns="http://www.w3.org/2000/svg">
<path d="M848.301 464.359C845.436 454.075 859.467 444.15 871.514 439.831C883.488 435.511 893.405 436.9 900.531 440.551C907.583 444.253 911.77 450.321 909.64 459.937C907.509 469.553 899.061 482.717 884.957 484.002C870.853 485.288 851.092 474.644 848.301 464.359Z" fill="url(#paint0_linear_376_28)"/>
<path d="M986.113 529.935C979.796 513.93 987.215 493.04 1003.96 482.113C1020.64 471.25 1046.64 470.35 1060.16 479.992C1073.68 489.698 1074.78 509.881 1068.09 526.271C1061.41 542.726 1046.94 555.453 1029.75 556.225C1012.49 557.06 992.431 545.94 986.113 529.935Z" fill="url(#paint1_linear_376_28)"/>
<path d="M1190.3 463.227C1187.44 448.535 1201.47 434.357 1213.51 428.187C1225.49 422.016 1235.41 424 1242.53 429.215C1249.58 434.504 1253.77 443.173 1251.64 456.91C1249.51 470.647 1241.06 489.452 1226.96 491.289C1212.85 493.125 1193.09 477.919 1190.3 463.227Z" fill="url(#paint2_linear_376_28)"/>
<path d="M91.1498 301.494C89.7173 294.148 96.7328 287.059 102.756 283.973C108.743 280.888 113.702 281.88 117.265 284.488C120.791 287.132 122.885 291.466 121.819 298.335C120.754 305.203 116.53 314.606 109.478 315.525C102.426 316.443 92.5456 308.84 91.1498 301.494Z" fill="url(#paint3_linear_376_28)"/>
<path d="M40.0571 425.084C36.8983 415.938 40.608 404.001 48.9825 397.757C57.3202 391.55 70.3226 391.035 77.0809 396.545C83.8392 402.091 84.3902 413.624 81.0478 422.99C77.7053 432.393 70.4695 439.666 61.8747 440.107C53.2431 440.584 43.2159 434.23 40.0571 425.084Z" fill="url(#paint4_linear_376_28)"/>
<path d="M1335.15 296.29C1333.72 288.944 1340.73 281.855 1346.76 278.77C1352.74 275.684 1357.7 276.676 1361.26 279.284C1364.79 281.928 1366.88 286.263 1365.82 293.131C1364.75 300 1360.53 309.403 1353.48 310.321C1346.43 311.239 1336.55 303.636 1335.15 296.29Z" fill="url(#paint5_linear_376_28)"/>
<path d="M1383.27 390.319C1379.89 380.748 1380.52 369.025 1386.14 365.13C1391.72 361.235 1402.3 365.167 1409.09 370.954C1415.89 376.741 1418.86 384.383 1416.92 391.988C1415.01 399.63 1408.14 407.198 1401.05 407.272C1393.92 407.346 1386.61 399.927 1383.27 390.319Z" fill="url(#paint6_linear_376_28)"/>
<path d="M38.0571 248.337C34.8983 243.856 38.608 238.007 46.9825 234.947C55.3202 231.905 68.3226 231.653 75.0809 234.353C81.8392 237.071 82.3902 242.722 79.0478 247.311C75.7053 251.919 68.4695 255.482 59.8747 255.698C51.2431 255.932 41.2159 252.819 38.0571 248.337Z" fill="url(#paint7_linear_376_28)"/>
<path d="M1348.15 141.281C1346.72 137.682 1353.73 134.208 1359.76 132.696C1365.74 131.184 1370.7 131.67 1374.26 132.948C1377.79 134.244 1379.88 136.368 1378.82 139.733C1377.75 143.099 1373.53 147.706 1366.48 148.156C1359.43 148.606 1349.55 144.881 1348.15 141.281Z" fill="url(#paint8_linear_376_28)"/>
<path d="M1383.27 209.484C1379.89 204.935 1380.52 199.364 1386.14 197.513C1391.72 195.661 1402.3 197.53 1409.09 200.281C1415.89 203.031 1418.86 206.663 1416.92 210.277C1415.01 213.909 1408.14 217.505 1401.05 217.541C1393.92 217.576 1386.61 214.05 1383.27 209.484Z" fill="url(#paint9_linear_376_28)"/>
<path d="M1397.94 29.7513C1401.1 38.8971 1397.39 50.8343 1389.02 57.0784C1380.68 63.2858 1367.68 63.8 1360.92 58.2905C1354.16 52.7443 1353.61 41.2111 1356.95 31.8449C1360.29 22.4421 1367.53 15.1695 1376.13 14.7288C1384.76 14.2513 1394.78 20.6056 1397.94 29.7513Z" fill="url(#paint10_linear_376_28)"/>
<path d="M102.85 155.346C104.283 162.692 97.2672 169.781 91.2435 172.867C85.2565 175.952 80.298 174.96 76.7352 172.352C73.2091 169.708 71.1155 165.374 72.1806 158.505C73.2458 151.637 77.4698 142.234 84.5219 141.316C91.5741 140.397 101.454 148 102.85 155.346Z" fill="url(#paint11_linear_376_28)"/>
<path d="M54.728 61.7347C58.1072 71.211 57.4828 82.8177 51.8631 86.6744C46.2801 90.531 35.7019 86.6376 28.9068 80.9078C22.1118 75.1779 19.1367 67.6115 21.0834 60.0819C22.9933 52.5155 29.8618 45.0226 36.9507 44.9491C44.0763 44.8756 51.3856 52.2216 54.728 61.7347Z" fill="url(#paint12_linear_376_28)"/>
<defs>
<linearGradient id="paint0_linear_376_28" x1="879.06" y1="484.108" x2="879.06" y2="437.151" gradientUnits="userSpaceOnUse">
<stop stop-color="#162C45"/>
<stop offset="1" stop-color="#22446B"/>
</linearGradient>
<linearGradient id="paint1_linear_376_28" x1="1027.98" y1="556.269" x2="1027.98" y2="473.321" gradientUnits="userSpaceOnUse">
<stop stop-color="#162C45"/>
<stop offset="1" stop-color="#22446B"/>
</linearGradient>
<linearGradient id="paint2_linear_376_28" x1="1221.06" y1="491.44" x2="1221.06" y2="424.358" gradientUnits="userSpaceOnUse">
<stop stop-color="#162C45"/>
<stop offset="1" stop-color="#22446B"/>
</linearGradient>
<linearGradient id="paint3_linear_376_28" x1="106.53" y1="315.6" x2="106.53" y2="282.059" gradientUnits="userSpaceOnUse">
<stop stop-color="#162C45"/>
<stop offset="1" stop-color="#22446B"/>
</linearGradient>
<linearGradient id="paint4_linear_376_28" x1="60.992" y1="440.132" x2="60.992" y2="392.733" gradientUnits="userSpaceOnUse">
<stop stop-color="#162C45"/>
<stop offset="1" stop-color="#22446B"/>
</linearGradient>
<linearGradient id="paint5_linear_376_28" x1="1350.53" y1="310.396" x2="1350.53" y2="276.855" gradientUnits="userSpaceOnUse">
<stop stop-color="#162C45"/>
<stop offset="1" stop-color="#22446B"/>
</linearGradient>
<linearGradient id="paint6_linear_376_28" x1="1399.35" y1="407.273" x2="1399.35" y2="363.568" gradientUnits="userSpaceOnUse">
<stop stop-color="#162C45"/>
<stop offset="1" stop-color="#22446B"/>
</linearGradient>
<linearGradient id="paint7_linear_376_28" x1="58.992" y1="255.711" x2="58.992" y2="232.485" gradientUnits="userSpaceOnUse">
<stop stop-color="#162C45"/>
<stop offset="1" stop-color="#22446B"/>
</linearGradient>
<linearGradient id="paint8_linear_376_28" x1="1363.53" y1="148.193" x2="1363.53" y2="131.758" gradientUnits="userSpaceOnUse">
<stop stop-color="#162C45"/>
<stop offset="1" stop-color="#22446B"/>
</linearGradient>
<linearGradient id="paint9_linear_376_28" x1="1399.35" y1="217.541" x2="1399.35" y2="196.77" gradientUnits="userSpaceOnUse">
<stop stop-color="#162C45"/>
<stop offset="1" stop-color="#22446B"/>
</linearGradient>
<linearGradient id="paint10_linear_376_28" x1="1377.01" y1="14.7036" x2="1377.01" y2="62.1021" gradientUnits="userSpaceOnUse">
<stop stop-color="#162C45"/>
<stop offset="1" stop-color="#22446B"/>
</linearGradient>
<linearGradient id="paint11_linear_376_28" x1="87.4705" y1="141.24" x2="87.4705" y2="174.781" gradientUnits="userSpaceOnUse">
<stop stop-color="#162C45"/>
<stop offset="1" stop-color="#22446B"/>
</linearGradient>
<linearGradient id="paint12_linear_376_28" x1="38.6475" y1="44.9485" x2="38.6475" y2="88.221" gradientUnits="userSpaceOnUse">
<stop stop-color="#162C45"/>
<stop offset="1" stop-color="#22446B"/>
</linearGradient>
</defs>
</svg>
