<svg width="25" height="25" viewBox="0 0 25 25" fill="none" xmlns="http://www.w3.org/2000/svg">
<path d="M0.970767 0.970645C1.13042 0.810584 1.32009 0.683592 1.5289 0.596945C1.73771 0.510298 1.96157 0.465698 2.18764 0.465698C2.41372 0.465698 2.63757 0.510298 2.84638 0.596945C3.05519 0.683592 3.24486 0.810584 3.40452 0.970645L12.5001 10.0697L21.5958 0.970645C21.7556 0.810842 21.9453 0.68408 22.1541 0.597596C22.3629 0.511111 22.5866 0.466598 22.8126 0.466598C23.0386 0.466598 23.2624 0.511111 23.4712 0.597596C23.68 0.68408 23.8697 0.810842 24.0295 0.970645C24.1893 1.13045 24.3161 1.32016 24.4026 1.52895C24.4891 1.73774 24.5336 1.96153 24.5336 2.18752C24.5336 2.41351 24.4891 2.6373 24.4026 2.84609C24.3161 3.05488 24.1893 3.24459 24.0295 3.4044L14.9305 12.5L24.0295 21.5956C24.1893 21.7554 24.3161 21.9452 24.4026 22.154C24.4891 22.3627 24.5336 22.5865 24.5336 22.8125C24.5336 23.0385 24.4891 23.2623 24.4026 23.4711C24.3161 23.6799 24.1893 23.8696 24.0295 24.0294C23.8697 24.1892 23.68 24.316 23.4712 24.4024C23.2624 24.4889 23.0386 24.5334 22.8126 24.5334C22.5866 24.5334 22.3629 24.4889 22.1541 24.4024C21.9453 24.316 21.7556 24.1892 21.5958 24.0294L12.5001 14.9303L3.40452 24.0294C3.24472 24.1892 3.055 24.316 2.84621 24.4024C2.63742 24.4889 2.41364 24.5334 2.18764 24.5334C1.96165 24.5334 1.73787 24.4889 1.52907 24.4024C1.32028 24.316 1.13057 24.1892 0.970767 24.0294C0.810964 23.8696 0.684202 23.6799 0.597718 23.4711C0.511233 23.2623 0.46672 23.0385 0.46672 22.8125C0.46672 22.5865 0.511233 22.3627 0.597718 22.154C0.684202 21.9452 0.810964 21.7554 0.970767 21.5956L10.0698 12.5L0.970767 3.4044C0.810706 3.24474 0.683714 3.05507 0.597067 2.84626C0.51042 2.63745 0.46582 2.4136 0.46582 2.18752C0.46582 1.96144 0.51042 1.73759 0.597067 1.52878C0.683714 1.31997 0.810706 1.1303 0.970767 0.970645Z" fill="white"/>
</svg>
