<?xml version="1.0" encoding="utf-8"?>
<!-- Generator: Adobe Illustrator 27.3.1, SVG Export Plug-In . SVG Version: 6.00 Build 0)  -->
<svg version="1.1" id="Réteg_1" xmlns="http://www.w3.org/2000/svg" xmlns:xlink="http://www.w3.org/1999/xlink" x="0px" y="0px"
	 viewBox="0 0 1080.5 1080" style="enable-background:new 0 0 1080.5 1080;" xml:space="preserve">
<style type="text/css">
	.st0{fill:#424242;}
</style>
<g>
	<path class="st0" d="M191.2,540.1c0-14.5,0.1-29,0-43.5c-0.1-15.9,3.2-31.2,7.5-46.3c7-24.5,16.3-48.1,27.7-70.9
		c9-18.1,19.3-35.4,31.9-51.2c12.6-15.7,25.9-30.7,40.7-44.3c18.5-17.1,37.8-33,60-45.5c16-9,32.3-17,49.2-24.1
		c10.5-4.5,21.5-8.2,32.6-11c15.3-4,30.6-7.9,46.3-10.5c14.4-2.4,28.8-1.2,43.1-1.6c14.2-0.3,28.3-0.3,42.5,0.1
		c17.1,0.5,33.8,3.4,50.3,8c13.3,3.8,26.6,7.5,39.6,12.4c20.2,7.7,39.5,17.2,58.1,28.2c22.1,13,42.3,28.5,60.8,45.9
		c18.4,17.4,34.6,36.8,48.6,58c11.6,17.6,21.8,35.9,30.2,55.3c6.8,15.6,11.9,31.6,17,47.8c5,15.6,7.8,31.6,9.9,47.8
		c3.5,26.8,2.1,53.7,1.5,80.5c-0.4,16.9-4.2,33.8-8.8,50.4c-5.4,19.6-11.6,38.8-20,57.3c-10.1,22.4-22.1,43.7-36.6,63.7
		c-14.2,19.7-29.8,37.9-47.7,54.1c-16.3,14.8-34.1,27.8-53,39.3c-16.5,10-33.7,18.7-51.4,26.1c-10.7,4.5-21.8,7.9-33,11.1
		c-7.4,2.1-14.8,4.8-22.3,6.6c-13.4,3.2-26.9,5.2-40.8,5c-25.8-0.3-51.6,0.2-77.5-0.2c-22.2-0.4-43.5-5.9-64.5-12.7
		c-14.4-4.7-28.7-9.9-42.4-16.3c-28.7-13.5-55.3-30.3-79.4-51.1c-15.5-13.4-29.8-27.9-42.9-43.6c-18.3-21.9-33.5-45.9-46-71.5
		c-7.2-14.8-13.2-30-18.5-45.5c-5.1-14.8-8.7-30-11.5-45.4c-1.1-5.9-1.4-12.1-1.3-18.2C191.4,569.7,191.2,554.9,191.2,540.1z
		 M233.9,560.4c-0.2,4.9,2,9.4,2.1,14.1c0.2,8.8,2.1,17.2,3.9,25.7c3.7,17.8,8.9,35.1,15.7,52.1c5.5,13.7,12.3,26.7,18.3,40.1
		c1.7,3.9,2.7,2.5,4.7,0.8c8.3-7.2,16.5-14.7,25.7-20.6c18.1-11.6,37.1-21.5,56.6-30.4c12.4-5.7,25-10.8,37.7-15.9
		c8.7-3.5,17.5-6.9,26.5-9.7c3.6-1.1,7.5-1.7,11.4,1.7c10.8,9.2,21.4,18.6,33.6,26c13.3,8.1,27.2,15.1,42.8,17.8
		c13.2,2.2,26.5,1.1,39.8,1.2c12.1,0.1,23.3-3.7,34.2-8.4c18.6-8,35.1-19.4,50-33.1c5.5-5.1,11-7.5,18.6-4.3
		c13.8,5.8,28,10.8,41.9,16.5c22.3,9.3,44.3,19.4,65,32c13.2,8,26.4,16,36.9,27.6c1.9,2,2.9,1.4,4-0.8c4.9-10.1,10.1-20,14.7-30.2
		c8.3-18.5,15.2-37.4,19.5-57.4c3.7-17.5,4.7-35.1,5.9-52.7c1.1-15.5-0.8-31-1.7-46.6c-1.1-18.2-4.9-35.7-10.1-52.9
		c-6.1-20-14.7-39.1-24.6-57.5c-13-24.1-28.9-46.1-47.7-65.9c-14.2-14.9-30.1-27.8-47-39.5c-16.5-11.4-33.9-21.3-52.1-29.4
		c-16.5-7.3-33.6-13.5-51.5-17.3c-13.5-2.9-27-5.7-40.8-6.3c-6.6-0.3-13.3-0.5-19.9-1c-26.7-2.1-53.2,0.3-79,7.2
		c-15.7,4.2-31.2,9.5-46.5,15.5c-23.3,9-44.4,21.6-64.4,36.2c-19.2,14.1-36.4,30.6-51.8,48.7c-20.8,24.4-37.5,51.1-49.4,80.9
		c-7.7,19.4-14.6,39-17.8,59.7c-2.3,14.9-5.5,29.7-5.1,45C234.1,539.7,233.9,550.1,233.9,560.4z"/>
	<path class="st0" d="M677.8,457.5c0.8,28.2-6.3,54.7-17.6,80.3c-11,24.7-25.6,47.1-45.3,65.7c-13.5,12.8-29.1,22.5-47,28.5
		c-17.6,5.8-35.4,6.4-52.9,1.7c-21.7-5.8-40-17.8-55.9-33.7c-20-20.1-34.4-43.5-45-69.6c-4.7-11.5-8.4-23.3-10.8-35.4
		c-3-14.8-3.3-29.8-3.3-44.8c0-11.1,1.8-22,4.6-32.4c5.3-20.1,14.6-38.4,28.3-54.5c12.9-15.3,27.9-27.6,45.6-36.9
		c14.3-7.5,29.6-11.2,45.4-13.3c16.3-2.2,32.2-0.8,48,3.2c12.3,3.2,24.2,7.7,35.1,14.4c14.1,8.5,27,18.4,37.2,31.5
		c12,15.4,21.2,32.1,27.3,50.8C676.1,427.5,677.6,442.3,677.8,457.5z"/>
</g>
</svg>
