<svg width="12" height="13" viewBox="0 0 12 13" fill="none" xmlns="http://www.w3.org/2000/svg">
<path d="M6.065 6.50002H6H5.935L3.5 5.75793V7.58335C3.5 8.17918 4.62 8.66668 6 8.66668C7.38 8.66668 8.5 8.17918 8.5 7.58335V5.75793L6.065 6.50002Z" fill="white" fill-opacity="0.95"/>
<path d="M10.565 4.07334L6.065 2.71917C6.02294 2.70307 5.97706 2.70307 5.935 2.71917L1.435 4.07334C1.36869 4.07334 1.30511 4.10187 1.25822 4.15267C1.21134 4.20346 1.185 4.27234 1.185 4.34417C1.185 4.416 1.21134 4.48489 1.25822 4.53568C1.30511 4.58647 1.36869 4.61501 1.435 4.61501L5.935 5.96917L6 5.95834H6.065L10.565 4.60417C10.6313 4.60417 10.6949 4.57564 10.7418 4.52485C10.7887 4.47406 10.815 4.40517 10.815 4.33334C10.815 4.26151 10.7887 4.19262 10.7418 4.14183C10.6949 4.09104 10.6313 4.06251 10.565 4.06251V4.07334Z" fill="white" fill-opacity="0.95"/>
<path d="M9.75 6.77081C9.74861 6.67721 9.72485 6.58559 9.68103 6.5049C9.63722 6.42421 9.57485 6.35719 9.5 6.3104V4.33331H9V6.3104C8.92515 6.35719 8.86278 6.42421 8.81897 6.5049C8.77515 6.58559 8.75139 6.67721 8.75 6.77081C8.75205 6.85819 8.77358 6.94372 8.81276 7.02012C8.85194 7.09653 8.9076 7.16152 8.975 7.20956L8.75 8.66665C8.75 8.86706 8.975 9.02956 9.25 9.02956C9.525 9.02956 9.75 8.86706 9.75 8.66665L9.525 7.20956C9.5924 7.16152 9.64806 7.09653 9.68724 7.02012C9.72642 6.94372 9.74795 6.85819 9.75 6.77081Z" fill="white" fill-opacity="0.95"/>
</svg>
