<svg width="8" height="8" viewBox="0 0 8 8" fill="none" xmlns="http://www.w3.org/2000/svg">
<path d="M4.53124 0.666687L4.43749 0.75002C4.3476 0.833001 4.02332 0.916687 3.71874 0.916687C3.41416 0.916687 3.15624 0.87502 3.15624 0.87502L3.04166 1.53127C3.04166 1.53127 3.34832 1.58335 3.71874 1.58335C4.00655 1.58335 4.33666 1.52947 4.63541 1.37502C4.93459 1.6721 5.32293 1.82645 5.66666 1.87502C5.89486 1.90727 5.94633 1.88849 6.09374 1.88544C6.07854 2.03446 6.05036 2.07958 6.07291 2.31252C6.10758 2.67075 6.28454 3.08863 6.61457 3.41669C6.17599 4.13386 6.44791 5.00002 6.44791 5.00002L7.08332 4.8021C7.08332 4.8021 6.87419 4.01324 7.23957 3.62502L7.33332 3.53127V3.39585V3.3646V3.1771L7.16666 3.08335C6.87273 2.907 6.7717 2.58203 6.73957 2.25002C6.70744 1.91801 6.76041 1.63544 6.76041 1.63544L6.85416 1.18752L6.39582 1.2396C6.39582 1.2396 6.09847 1.26654 5.76041 1.21877C5.42234 1.171 5.1059 1.03691 4.98957 0.833354L4.89582 0.666687H4.69791H4.66666H4.53124ZM3.74999 2.21877C3.69986 2.22554 3.65416 2.24585 3.60416 2.27085C3.40416 2.37085 3.22916 2.63544 3.22916 2.63544C3.46249 2.83544 4.02916 3.20419 4.22916 3.43752C4.39582 3.67085 4.43749 4.13127 4.10416 4.3646C3.90416 4.63127 4.23749 5.09585 4.60416 5.06252C4.57082 5.26252 4.63749 5.3646 4.77082 5.53127C4.83749 5.59794 5.16874 5.63127 5.30207 5.53127C5.50207 5.3646 5.62916 5.23335 5.72916 5.16669C6.06249 4.90002 5.69999 4.33127 5.49999 4.3646C5.83332 3.93127 5.30416 3.46669 5.10416 3.50002C5.33749 3.20002 4.87082 2.60419 4.43749 2.77085C4.43749 2.53752 4.1009 2.17137 3.74999 2.21877ZM2.21874 2.52085C2.03541 2.52502 1.86249 2.57919 1.72916 2.72919C1.46249 3.06252 1.13124 3.46877 0.864574 3.8021C0.664574 4.03544 0.666657 4.13335 0.666657 5.50002C0.666657 5.70002 0.731241 5.89585 0.864574 6.06252L1.77082 7.06252C1.93749 7.26252 2.20207 7.36669 2.46874 7.33335C3.10207 7.23335 3.59999 6.80419 4.83332 5.93752C4.83332 5.93752 4.16874 5.96877 4.30207 5.3021C3.66874 5.33544 3.63124 4.83127 3.69791 4.53127C3.43124 4.49794 3.23332 4.33752 2.33332 3.60419C2.3639 3.55832 2.41436 3.47252 2.46874 3.38544L3.43749 4.06252C3.60416 4.16252 3.83749 4.10419 3.93749 3.93752C4.03749 3.77085 3.96874 3.53752 3.80207 3.43752L2.83332 2.66669C2.83048 2.66526 2.82581 2.66806 2.82291 2.66669C2.82098 2.64942 2.81596 2.63891 2.80207 2.63544C2.60207 2.56877 2.40207 2.51669 2.21874 2.52085Z" fill="white" fill-opacity="0.95"/>
</svg>
