<svg width="7" height="8" viewBox="0 0 7 8" fill="none" xmlns="http://www.w3.org/2000/svg">
<path d="M0.777778 0C0.35 0 0 0.36 0 0.8V3.6C0 6.44 3.5 8 3.5 8C3.5 8 7 6.4 7 3.6V0.8C7 0.36 6.65 0 6.22222 0H3.5H0.777778ZM0.777778 0.8H3.5V4.725C2.91667 4.725 2.21181 4.4 2.21181 4.4C2.21181 4.4 2.68333 5.6 3.5 5.6V7.125C2.72222 6.685 0.777778 5.44 0.777778 3.6V0.8ZM2.13889 2C1.71111 2 1.16667 2.2 1.16667 2.2C1.16667 2.2 1.51667 3.0375 2.13889 3.0375C2.76111 3.0375 3.11111 2.2 3.11111 2.2C3.11111 2.2 2.56667 2 2.13889 2ZM4.86111 2C5.28889 2 5.83333 2.2 5.83333 2.2C5.83333 2.2 5.48333 3.0375 4.86111 3.0375C4.23889 3.0375 3.88889 2.2 3.88889 2.2C3.88889 2.2 4.43333 2 4.86111 2Z" fill="white" fill-opacity="0.95"/>
</svg>
