<svg width="8" height="8" viewBox="0 0 8 8" fill="none" xmlns="http://www.w3.org/2000/svg">
<path d="M2.9625 0C2.24964 0 1.87882 1.52016 1.6 2.6375C0.633345 2.85655 0 3.20857 0 3.6C0 3.86937 0.312957 4.11224 0.8125 4.3125C0.810161 4.3421 0.8 4.37008 0.8 4.4C0.8 4.67667 0.897065 4.922 1.05 5.1375C1.15449 5.28474 1.3087 5.41185 1.4875 5.5C1.63976 6.08556 1.8887 6.66098 2.275 7.1125C2.7119 7.62316 3.31185 8 4 8C4.68815 8 5.2881 7.62316 5.725 7.1125C6.1113 6.66098 6.36024 6.08556 6.5125 5.5C6.6913 5.41185 6.84551 5.28474 6.95 5.1375C7.10294 4.922 7.2 4.67667 7.2 4.4C7.2 4.37008 7.18984 4.3421 7.1875 4.3125C7.68704 4.11224 8 3.86937 8 3.6C8 3.20691 7.36114 2.85638 6.3875 2.6375C6.07084 1.48244 5.74989 0 5.0375 0C4.6375 0 4.44 0.1625 4 0.1625C3.56 0.1625 3.4025 0 2.9625 0ZM5.8375 4.9625L5.8125 5.125C5.70591 5.65795 5.4456 6.19816 5.1125 6.5875C4.7794 6.97684 4.39185 7.2 4 7.2C3.88101 7.2 3.76679 7.17706 3.65 7.1375C3.87543 6.8413 4.4 6.69545 4.4 6.4H3.8C3.68 6.4 3.6 6.32 3.6 6.2C3.6 6.08 3.68 6 3.8 6H4.4375C4.5575 6 4.6375 5.92 4.6375 5.8C4.6375 5.68 4.5575 5.6 4.4375 5.6H3.5625C3.5625 5.6 3.8375 5.24 4.0375 5C4.80835 5.38543 5.45009 5.09923 5.8375 4.9625Z" fill="white" fill-opacity="0.95"/>
</svg>
