<svg width="7" height="8" viewBox="0 0 7 8" fill="none" xmlns="http://www.w3.org/2000/svg">
<path d="M0.777778 0C0.35 0 0 0.36 0 0.8V3.6C0 6.44 3.5 8 3.5 8C3.5 8 7 6.4 7 3.6V0.8C7 0.36 6.65 0 6.22222 0H3.5H0.777778ZM0.777778 0.8H3.5V4.4C2.64444 4.4 2.21181 5.6 2.21181 5.6C2.21181 5.6 2.91667 5.275 3.5 5.275V7.125C2.72222 6.685 0.777778 5.44 0.777778 3.6V0.8ZM3.11111 2C3.11111 2 2.49375 2.0425 2.06597 2.1625C1.52153 2.3225 1.16667 2.6375 1.16667 2.6375C1.16667 2.6375 1.71111 3.3225 2.33333 3.1625C3.03333 3.0025 3.11111 2 3.11111 2ZM3.88889 2C3.88889 2 4.50625 2.0425 4.93403 2.1625C5.47847 2.3625 5.83333 2.6375 5.83333 2.6375C5.83333 2.6375 5.28889 3.3225 4.66667 3.1625C3.96667 3.0025 3.88889 2 3.88889 2Z" fill="white" fill-opacity="0.95"/>
</svg>
