<svg width="11" height="10" viewBox="0 0 11 10" fill="none" xmlns="http://www.w3.org/2000/svg">
<g clip-path="url(#clip0_16_161)">
<path d="M5.48691 9.99677C5.13343 10.0064 4.76257 9.99355 4.39343 9.94987C3.76868 9.87561 3.15552 9.74731 2.58614 9.44613C2.40715 9.35141 2.24876 9.22335 2.09574 9.08287C1.92683 8.92814 1.91245 8.74559 1.94744 8.53545C1.95924 8.46464 1.95473 8.39061 1.95645 8.31796C1.96847 7.8041 1.98907 7.29209 2.10389 6.78835C2.25262 6.13541 2.6267 5.69995 3.19694 5.4482C3.57595 5.28082 3.9745 5.18357 4.37562 5.09942C4.43335 5.08724 4.47627 5.09942 4.52714 5.1438C4.77974 5.36474 5.06883 5.47901 5.39956 5.4928C5.75131 5.50729 6.08934 5.45878 6.36748 5.22335C6.51922 5.09506 6.65228 5.10356 6.81646 5.14196C7.22402 5.23737 7.62278 5.35233 7.99771 5.55741C8.50528 5.83514 8.79137 6.28186 8.91263 6.86468C8.98002 7.18863 9.00255 7.51763 9.02573 7.84825C9.04676 8.14966 9.01865 8.45245 9.06308 8.7518C9.07853 8.85641 9.03217 8.93343 8.96886 9.00654C8.74051 9.27025 8.45871 9.44751 8.14988 9.57488C7.69317 9.76295 7.21801 9.86756 6.73212 9.93078C6.3237 9.98389 5.91528 10.0021 5.48691 9.99631V9.99677Z" fill="#959595" fill-opacity="0.95"/>
<path d="M7.3661 2.34807C7.39851 2.93251 7.26931 3.482 6.96563 3.97378C6.59005 4.58189 6.06874 4.93642 5.3693 4.88653C4.89242 4.8525 4.50332 4.60006 4.19599 4.21082C3.90626 3.84388 3.73113 3.41624 3.66074 2.94447C3.60708 2.58511 3.62146 2.22162 3.64743 1.85905C3.6646 1.61857 3.70516 1.38475 3.77319 1.15483C3.92622 0.637303 4.23312 0.276572 4.72202 0.12483C5.27144 -0.0457641 5.82773 -0.0480632 6.37028 0.158627C6.80509 0.324393 7.07766 0.667651 7.21995 1.13529C7.33949 1.52821 7.37855 1.93124 7.36632 2.34807H7.3661Z" fill="#959595" fill-opacity="0.95"/>
<path d="M7.43327 4.23154C8.04965 3.03393 7.99772 1.80575 7.56719 0.54882C8.01489 0.47157 8.45979 0.44444 8.88838 0.641474C9.19271 0.78149 9.38736 1.03692 9.49639 1.37098C9.59662 1.67769 9.61228 1.99519 9.62688 2.31638C9.64147 2.6332 9.61035 2.93967 9.51528 3.23717C9.3732 3.68136 9.12532 4.0375 8.74201 4.28051C8.35484 4.52606 7.75563 4.50928 7.43327 4.23154Z" fill="#959595" fill-opacity="0.95"/>
<path d="M3.56866 4.23821C3.38924 4.37018 3.1905 4.44353 2.97932 4.45226C2.34041 4.47847 1.91096 4.12441 1.61264 3.55377C1.45897 3.25971 1.38579 2.94036 1.37355 2.60216C1.35917 2.20442 1.37484 1.81058 1.48537 1.42824C1.64397 0.879898 2.00346 0.59067 2.5282 0.521696C2.83038 0.482151 3.13084 0.478473 3.4298 0.555493C2.99992 1.80414 2.94927 3.03256 3.56866 4.23821Z" fill="#959595" fill-opacity="0.95"/>
<path d="M2.92827 4.96952C2.66601 5.10149 2.44495 5.24818 2.25351 5.439C1.89016 5.80088 1.69894 6.26369 1.59249 6.77295C1.53025 7.07068 1.506 7.37348 1.47981 7.67696C1.45749 7.93584 1.48475 8.19702 1.43024 8.46326C1.24374 8.4336 1.0568 8.38233 0.875023 8.31083C0.616194 8.20921 0.367882 8.08712 0.159059 7.88664C0.0622669 7.79376 -0.00962993 7.69857 0.00131556 7.54545C0.0343666 7.07873 0.0242796 6.61017 0.104332 6.14506C0.215289 5.49901 0.557818 5.08701 1.12634 4.86905C1.412 4.75961 1.70581 4.68857 2.00219 4.62512C2.02838 4.6196 2.04855 4.6196 2.07216 4.63638C2.47306 4.91871 2.50697 4.93205 2.92848 4.96975L2.92827 4.96952Z" fill="#959595" fill-opacity="0.95"/>
<path d="M8.07047 4.96606C8.33037 4.94974 8.57803 4.9341 8.75488 4.76972C8.92657 4.61016 9.08539 4.6366 9.26932 4.68396C9.60927 4.77133 9.9445 4.86835 10.2488 5.06331C10.6229 5.30311 10.8021 5.67557 10.8877 6.11355C10.9528 6.44669 10.9811 6.78397 10.9753 7.1247C10.9727 7.27368 10.9959 7.42129 11 7.5705C11.0034 7.69787 10.9511 7.78386 10.8732 7.85812C10.5667 8.14965 10.1988 8.30828 9.80629 8.40899C9.72731 8.42922 9.65134 8.46715 9.5627 8.46187C9.5509 8.29656 9.54016 8.12987 9.53373 7.96227C9.51291 7.42887 9.46784 6.89916 9.3043 6.38806C9.1105 5.78317 8.74951 5.33875 8.21877 5.04975C8.17777 5.02745 8.13721 5.004 8.07047 4.96629V4.96606Z" fill="#959595" fill-opacity="0.95"/>
</g>
<defs>
<clipPath id="clip0_16_161">
<rect width="11" height="10" fill="white"/>
</clipPath>
</defs>
</svg>
