<?xml version="1.0" encoding="utf-8"?>
<!-- Generator: Adobe Illustrator 27.3.1, SVG Export Plug-In . SVG Version: 6.00 Build 0)  -->
<svg version="1.1"
	 id="svg8" xmlns:inkscape="http://www.inkscape.org/namespaces/inkscape" xmlns:cc="http://creativecommons.org/ns#" xmlns:svg="http://www.w3.org/2000/svg" xmlns:rdf="http://www.w3.org/1999/02/22-rdf-syntax-ns#" xmlns:sodipodi="http://sodipodi.sourceforge.net/DTD/sodipodi-0.dtd" xmlns:dc="http://purl.org/dc/elements/1.1/"
	 xmlns="http://www.w3.org/2000/svg" xmlns:xlink="http://www.w3.org/1999/xlink" x="0px" y="0px" viewBox="0 0 595.3 595.6"
	 style="enable-background:new 0 0 595.3 595.6;" xml:space="preserve">
<style type="text/css">
	.st0{fill:#CC8375;}
</style>
<sodipodi:namedview  bordercolor="#666666" borderopacity="1.0" id="base" inkscape:current-layer="layer1" inkscape:cx="222.34209" inkscape:cy="587.01686" inkscape:document-rotation="0" inkscape:document-units="mm" inkscape:pageopacity="0.0" inkscape:pageshadow="2" inkscape:snap-global="true" inkscape:window-height="1017" inkscape:window-maximized="1" inkscape:window-width="1920" inkscape:window-x="-8" inkscape:window-y="-8" inkscape:zoom="0.7" pagecolor="#ffffff" showgrid="false">
	</sodipodi:namedview>
<path id="path2" class="st0" d="M297.1,11.5v0.2C288.4,12.8,287,21,283.6,24l-3.5,3.3h0.1c-4.6,4.3-12.3,10.9-14.9,22.2
	c-3,12.8,2.2,22.1,12.3,30.2c6.9,5.6,13.1,8.6,11.1,24.1c-0.9,6.7-2.7,6.1-6.6,4.7c-19.4-7.4-31.7-37-102.9,4.8l0.1,0.1
	c-12.7,8-32.7,19-46.2,22.6c-4.7,1.2-9.8,3.1-14.7,2.1c-8.6-1.9-15.9-11.9-15.2-18.1c0,0.1,2.7-1.3,3-1.6c5.7-5.5,0.7-17.8-11-15.2
	c-25.2,5.6-10.7,60.2,29,63.6c-0.6,5.5-53,130.7-91.6,202.6c-1.2,3.2-2.9,4.3-1.9,7.4c1.4,4.2,7.8,8,12,9.5c0.6,0,0.6,0,0.6,0
	c6.4,24.7,25.1,47.2,41.6,58.2c22.9,15.3,57,15.3,71.8,12.7c27.6-4.7,65.8-28.6,76.5-60.7c1.4-4.3,1.5-4.4,3.3-9.2
	c7.1,0,10.4-8.1,11.4-9.5c0.4-4.8-1.4-8-6.2-9.5c-13.9-31.1-16.9-23.9-47.1-100c-34.4-87.1-24.4-77.8-39.2-105.8
	c14.5-8.6,25.7-24.6,44.6-28.4c10.4-1.5,40-9.2,65.5,32l0.4,0.8c2.2,4.3,8.9,21.2,9.9,25.3c-13.5,5-13,20-10.6,30.9
	c1.7,6.1,5.5,10.1,8.7,13.9l0.9,3c1.8,6.2-5.8,10.2-6.8,21.5c-1,11.7,4.4,16.4,4,22.6c-0.6,8.3-4.1,10.7-0.7,20.3
	c0.8,2.1,1.7,4.4,2.3,6c0.9,2.3,2.5,3.6,2.5,6.4c0,2.2-0.9,4.3-1.5,6.4c-9.2,30.5,13.5,40.9-27.9,117.6l-0.1-0.1
	c-8.1,15.5-12.9,21.3-6.3,42.5c5.9,19.2,1.6,19.8-17.4,36.3c-14.1,12.9-24,23.5-34.7,35.3c-0.4,5.9,10.4,12.6,15.6,14.6
	c26.4,10.2,60,15.1,94,14.6c34,0.5,67.6-4.4,94-14.6c5.2-1.9,16-8.7,15.6-14.6c-10.7-11.9-20.6-22.5-34.7-35.3
	c-19-16.5-23.3-17.1-17.4-36.3c6.6-21.3,1.8-27.1-6.3-42.5l-0.1,0.1c-41.4-76.7-18.8-87.1-27.9-117.6c-0.6-2.1-1.6-4.2-1.5-6.4
	c0-2.8,1.6-4.1,2.5-6.4c0.6-1.6,1.5-3.9,2.3-6c3.4-9.7-0.1-12-0.7-20.3c-0.5-6.2,5-10.9,4-22.6c-1-11.3-8.6-15.3-6.8-21.5l0.9-3
	c3.2-3.7,7-7.8,8.7-13.9c2.4-10.9,2.9-25.9-10.6-30.9c1-4,7.7-20.9,9.9-25.3l0.4-0.8c25.6-41.2,55.2-33.5,65.5-32
	c18.9,3.7,30.1,19.8,44.6,28.4c-14.8,28-4.8,18.7-39.2,105.8c-30.2,76.2-33.2,69-47.1,100c-4.8,1.5-6.6,4.7-6.2,9.5
	c1,1.4,4.3,9.5,11.4,9.5c1.8,4.8,1.8,4.8,3.3,9.2c10.7,32,48.9,56,76.5,60.7c14.8,2.6,48.8,2.6,71.8-12.7
	c16.5-11,35.2-33.5,41.6-58.2c0,0,0,0,0.6,0c4.1-1.5,10.6-5.3,12-9.5c1-3.1-0.7-4.2-1.9-7.4c-38.6-71.9-91-197.1-91.6-202.6
	c39.7-3.4,54.2-57.9,29-63.6c-11.7-2.6-16.7,9.7-11,15.2c0.3,0.2,3,1.7,3,1.6c0.7,6.1-6.6,16.2-15.2,18.1c-4.9,1.1-10-0.9-14.7-2.1
	c-13.4-3.6-33.4-14.6-46.2-22.6l0.1-0.1c-71.2-41.9-83.5-12.3-102.9-4.8c-3.9,1.5-5.8,2-6.6-4.7c-2-15.6,4.1-18.6,11.1-24.1
	c10.1-8.1,15.3-17.3,12.3-30.2c-2.6-11.3-10.3-17.9-14.9-22.2h0.1L312,24c-3.4-3-4.8-11.2-13.5-12.3v-0.2c-0.2,0-0.4,0.1-0.5,0.1
	C297.5,11.6,297.4,11.6,297.1,11.5L297.1,11.5z M144.2,166.8c5.9,7.2,24.8,65.5,27.7,74.3c14.4,45.6,49.2,121.2,53.3,126.8
	c-8.4,0.6-8.7,0.8-28.6,0.2c-65.9-2.2-19.3,3.1-145.9-1.1c4.7-15.9,14.6-28.5,21.7-43.6c9-18.9,16.8-38.4,25.3-57.3
	c15.6-34.7,28.8-62.6,37.2-98.4C137.8,167.7,140.6,167.6,144.2,166.8L144.2,166.8z M451,166.8c3.7,0.8,6.4,0.9,9.3,1
	c8.4,35.8,21.7,63.7,37.2,98.4c8.6,18.9,16.4,38.4,25.3,57.3c7.2,15.1,17,27.7,21.7,43.6c-126.6,4.2-80-1.1-145.9,1.1
	c-19.9,0.7-20.2,0.4-28.6-0.2c4-5.6,38.8-81.2,53.3-126.8C426.3,232.3,445.2,174,451,166.8L451,166.8z"/>
</svg>
