<svg width="10" height="12" viewBox="0 0 10 12" fill="none" xmlns="http://www.w3.org/2000/svg">
<path d="M0.0820836 4.56078C0.0959564 1.83246 2.62775 -0.315518 5.30867 0.122632C6.64971 0.342285 7.71099 1.00818 8.45549 2.14113C9.03815 3.02783 9.27284 4.01512 9.16648 5.07523C9.13526 5.38159 9.10867 5.69142 9.03469 5.98737C8.93295 6.39893 8.77226 6.792 8.57226 7.17119C8.25781 7.76541 7.83584 8.28101 7.44278 8.81859C7.28093 9.04055 7.13642 9.27523 7.04625 9.54113C6.95376 9.81396 7.21734 10.4521 7.43815 10.6764C7.64625 10.8868 7.96995 10.9932 8.06012 11.3145C8.10521 11.4775 8.07399 11.6325 7.95376 11.7538C7.79422 11.9157 7.60694 11.9434 7.40231 11.8359C7.03237 11.6417 6.74798 11.3481 6.51561 11.0151C6.22428 10.5978 6.05549 10.1342 6.11099 9.60471C6.13526 9.3735 6.17804 9.15616 6.2844 8.95153C6.30867 8.90529 6.29596 8.8683 6.26127 8.88101C6.2185 8.89604 6.17457 8.90991 6.13179 8.92494C5.24509 9.23477 4.34798 9.26598 3.44278 9.01627C2.18266 8.6683 1.24509 7.90992 0.620812 6.76888C0.242777 6.08333 0.072835 5.34229 0.0820836 4.56078ZM4.63584 0.955002C4.46821 0.975811 4.30058 1.00356 4.13179 1.01743C3.76995 1.04518 3.49018 1.57581 3.65203 1.90067C3.78613 2.17119 3.97226 2.38853 4.21966 2.55038C4.37573 2.65211 4.54336 2.80934 4.74336 2.71801C5.12948 2.54113 5.45318 2.28679 5.62197 1.87292C5.68902 1.70992 5.60232 1.26945 5.48208 1.18044C5.22775 0.993152 4.93873 0.966563 4.63584 0.955002ZM1.11561 4.13304C1.08324 4.54807 1.4474 4.77466 1.77688 4.78506C2.07977 4.79546 2.33526 4.65905 2.56416 4.48217C2.73295 4.35269 2.9526 4.24055 2.9237 3.96887C2.89018 3.63939 2.76879 3.34229 2.56763 3.07986C2.34451 2.78853 1.8185 2.61396 1.52833 2.98159C1.26474 3.31916 1.16994 3.71916 1.11561 4.13304ZM5.3896 7.14229C5.40347 7.21281 5.42659 7.31454 5.44509 7.41627C5.49133 7.67523 5.92948 7.95616 6.1526 7.88333C6.55376 7.75269 6.87746 7.50992 7.16879 7.21396C7.38266 6.99662 7.37688 6.60702 7.17341 6.38275C6.95607 6.14228 6.67168 6.0683 6.37573 6.04171C6.14567 6.0209 5.8763 5.97581 5.70521 6.17003C5.47399 6.42899 5.42197 6.76887 5.3896 7.14229ZM3.06359 6.08101C2.86821 6.06252 2.66359 6.12494 2.45781 6.19546C2.15723 6.29951 1.99653 6.52841 1.93758 6.81859C1.89364 7.03015 2.0289 7.21049 2.17573 7.34575C2.42197 7.57466 2.70983 7.74807 3.02197 7.88101C3.31214 8.00356 3.73526 7.78853 3.83237 7.49373C3.91561 7.24055 3.8659 7.01049 3.83122 6.76425C3.77226 6.33535 3.51561 6.08101 3.06359 6.08101ZM7.36532 4.78622C7.87399 4.78622 8.15954 4.51107 8.14682 4.10876C8.13642 3.81049 8.03122 3.53188 7.90983 3.2602C7.8 3.01512 7.65781 2.79778 7.36648 2.77928C6.95145 2.75269 6.70636 3.00587 6.53411 3.34807C6.4185 3.57697 6.32255 3.81396 6.35029 4.07639C6.36763 4.24286 6.50752 4.32957 6.62428 4.4209C6.87052 4.61743 7.13873 4.77581 7.36532 4.78622ZM4.63122 5.22552C4.91677 5.25096 5.27746 4.95963 5.24162 4.54691C5.22081 4.31801 4.93873 4.02321 4.70289 4.02321C4.25318 4.02321 4.03584 4.24402 4.03584 4.70298C4.03469 4.96078 4.33642 5.22552 4.63122 5.22552ZM6.30405 8.88217C6.31099 8.87639 6.31677 8.87408 6.31792 8.86945C6.31908 8.86714 6.3133 8.86252 6.31099 8.85789C6.30752 8.86136 6.30174 8.86367 6.29943 8.8683C6.29827 8.87177 6.30174 8.87639 6.30405 8.88217Z" fill="#242424"/>
</svg>
