<svg width="18" height="24" viewBox="0 0 18 24" fill="none" xmlns="http://www.w3.org/2000/svg">
<path d="M2.27646 14.1682C2.37705 13.9379 2.53852 13.8076 2.72852 13.7194C3.04469 13.5727 3.36469 13.4346 3.68734 13.3037C3.93646 13.2024 3.94705 13.1827 3.75558 12.9397C4.04175 12.8237 4.31116 12.6912 4.59411 12.6064C4.83205 12.5352 5.04058 12.4294 5.21793 12.257C5.39264 12.0873 5.56469 11.9146 5.73116 11.7367C5.89646 11.5603 6.08911 11.4797 6.32675 11.5188C6.73969 11.5867 7.0694 11.4346 7.38793 11.1615C7.94028 10.6873 8.54263 10.2809 9.17528 9.89032C9.23087 9.98577 9.27234 10.07 9.32528 10.1458C9.53911 10.4521 9.74911 10.7621 9.97587 11.0582C10.0812 11.1958 10.2138 11.2843 10.412 11.183C10.4735 11.1518 10.6162 11.2155 10.6806 11.2794C10.8132 11.4112 10.9182 11.5724 11.0341 11.7218C11.1594 11.8834 11.2732 12.0558 11.4115 12.204C11.6047 12.4109 11.76 12.3997 11.9718 12.214C12.1203 12.0837 12.2744 11.9564 12.4412 11.853C12.6491 11.724 12.7985 11.7615 12.962 11.9491C13.0112 12.0052 13.0603 12.063 13.0982 12.1273C13.3679 12.5824 13.7782 12.8937 14.1747 13.2112C14.3162 13.3246 14.5282 13.3421 14.7062 13.4088C15.0362 13.5327 15.365 13.6594 15.6932 13.7882C15.7273 13.8015 15.7535 13.8358 15.7835 13.86C15.7809 13.8737 15.7779 13.8873 15.7753 13.9009C15.675 13.8876 15.5665 13.8949 15.4756 13.8573C15.0859 13.6967 14.7768 13.7727 14.5562 14.1546C14.552 14.1615 14.5397 14.1634 14.5197 14.1727C14.5056 14.1509 14.4876 14.1294 14.4762 14.1046C14.3365 13.8052 14.1168 13.59 13.8226 13.4588C13.6162 13.3667 13.4565 13.2415 13.3338 13.0312C13.0759 12.5888 12.6373 12.5303 12.2426 12.8564C12.2035 12.8888 12.175 12.9409 12.1541 12.9897C12.077 13.1694 12.0038 13.3512 11.9323 13.5333C11.8991 13.6179 11.8485 13.6479 11.7553 13.6521C11.5847 13.6597 11.4153 13.693 11.2309 13.7176C11.2606 13.6733 11.2926 13.6106 11.3379 13.5603C11.5144 13.3643 11.6979 13.1746 11.8729 12.977C11.9323 12.91 11.9747 12.827 12.0465 12.7188C11.9406 12.7188 11.8794 12.71 11.8218 12.7209C11.7503 12.7349 11.6809 12.763 11.612 12.7888C11.2829 12.9121 11.2141 12.8988 10.9753 12.627C10.877 12.5155 10.7944 12.3891 10.7053 12.2691C10.6288 12.1661 10.5838 12.1658 10.522 12.2779C10.4726 12.3676 10.4309 12.4618 10.3859 12.554C10.3712 12.5537 10.3565 12.5533 10.3418 12.553C10.3068 12.4355 10.27 12.3185 10.237 12.2003C10.2059 12.0891 10.1829 11.9755 10.1488 11.8655C10.1179 11.7655 10.0544 11.713 9.94675 11.7537C9.82469 11.7997 9.74028 11.7464 9.66969 11.6467C9.59764 11.5449 9.52705 11.4412 9.44558 11.3479C9.4144 11.3121 9.34499 11.2761 9.31028 11.2891C9.27528 11.3021 9.24028 11.3764 9.24146 11.4227C9.24764 11.6694 9.27087 11.9158 9.27558 12.1627C9.27764 12.2685 9.24881 12.3746 9.23499 12.4806C9.22234 12.5788 9.19705 12.6782 9.20234 12.7758C9.21381 12.9791 9.24175 13.1812 9.26322 13.384C9.24764 13.3924 9.23234 13.4006 9.21675 13.4091C9.13175 13.273 9.04028 13.1409 8.96352 13.0003C8.85499 12.8015 8.84411 12.5503 8.65028 12.3946C8.62234 12.3721 8.62558 12.2994 8.62646 12.2503C8.62822 12.1243 8.63793 11.9982 8.64234 11.8721C8.64881 11.6906 8.63822 11.5221 8.53764 11.3521C8.45205 11.2079 8.43264 11.0224 8.38175 10.8476C8.26264 10.9949 8.14146 11.127 8.04175 11.2746C7.98881 11.3527 7.94764 11.4567 7.9444 11.5503C7.93822 11.7203 7.95852 11.8924 7.97852 12.0624C8.00381 12.2779 7.94028 12.4667 7.82411 12.6903C7.82411 12.6021 7.82146 12.5555 7.82469 12.5088C7.83352 12.38 7.79852 12.2794 7.69558 12.1909C7.52381 12.0433 7.46793 11.8449 7.51352 11.6179C7.52234 11.5746 7.52822 11.5306 7.54322 11.4403C7.27852 11.5927 7.03587 11.7118 6.81616 11.8655C6.60793 12.0112 6.54646 12.26 6.56793 12.4985C6.59175 12.7646 6.48234 12.9094 6.2744 13.0221C6.15352 13.0876 6.04175 13.1706 5.89969 13.263C5.98528 13.1121 6.05646 12.9867 6.12764 12.8612C6.11528 12.8461 6.10322 12.8309 6.09087 12.8155C5.91734 12.9258 5.74352 13.0361 5.56999 13.1464C5.56264 13.1352 5.55558 13.124 5.54822 13.1127C5.68234 12.9788 5.81646 12.8452 5.95058 12.7112C5.9444 12.7003 5.93852 12.6897 5.93234 12.6788C5.89763 12.6833 5.85822 12.6788 5.82852 12.694C5.62616 12.7961 5.41116 12.8194 5.18911 12.8321C5.07881 12.8385 4.95234 12.8824 4.86646 12.9524C4.34116 13.3794 3.76411 13.6915 3.11558 13.8706C2.83881 13.9479 2.57205 14.0624 2.27646 14.1682Z" fill="white" fill-opacity="0.95"/>
</svg>
