<?xml version="1.0" encoding="utf-8"?>
<!-- Generator: Adobe Illustrator 27.3.1, SVG Export Plug-In . SVG Version: 6.00 Build 0)  -->
<svg version="1.1" id="Réteg_1" xmlns="http://www.w3.org/2000/svg" xmlns:xlink="http://www.w3.org/1999/xlink" x="0px" y="0px"
	 viewBox="0 0 751.9 751.9" style="enable-background:new 0 0 751.9 751.9;" xml:space="preserve">
<style type="text/css">
	.st0{fill:#CC8375;}
</style>
<path class="st0" d="M0,408.1c0.2-134.4,35-221.2,104.6-293.2C185.2,31.4,284.7-5.7,400.2,0.7c91.6,5.1,170.4,40.6,236.3,104.1
	c77.7,74.9,116.3,167.7,115.4,274.8c-0.9,101.4-38,189.9-110.3,262C564.8,718,470.8,755,363.3,751.8c-97.4-2.9-183-39.3-252.4-108.8
	C37.1,569-0.5,479.4,0,408.1z M626.5,468.4c0-17-0.2-29.8,0.1-42.6c0.1-5.4-2.2-8.6-6.9-10.1c-14.8-4.7-26.5-14.4-38.3-23.8
	c-15.1-12.3-28.2-26.7-40.2-42c-11.4-14.6-22.8-29.1-33.3-44.3c-10-14.3-21.4-27.4-36.1-37c-16.5-10.8-34.3-17.4-54.4-11.9
	c-8.3,2.3-17.3,4.2-22,12.6c-11.9,21.3-20.6,43.8-27.8,67c-0.9,2.9-2.3,6.6-0.2,8.5c2.2,2,5.5-0.7,8.1-1.8c18.6-7.9,36.5-6,53,5
	c24.8,16.5,44.6,38.2,61.3,62.7c20.2,29.6,41.8,57.9,67.5,82.9c6.4,6.2,13.2,12.2,20,18c12.1,10.3,25,19.2,40.7,23.4
	c5,1.3,7.6-0.6,7.6-5.8C625.4,507.5,627.3,485.9,626.5,468.4L626.5,468.4z M628.5,302.6c0-8.2,0-16.3,0-24.5c0-3.3-0.9-6.5-3.5-8.3
	c-14.1-9.7-26.4-21.4-37.8-34.1c-5.8-6.4-12.3-12.4-16.9-19.6c-10.9-17.2-25.7-29.5-44.3-37.2c-13-5.4-26.5-8.3-40.7-4.6
	c-30.5,8-50,29.5-66.4,54.7c-1.1,1.7-2.2,4-1,5.6c1.4,1.8,4,1.9,6.3,1.6c27.4-4.1,49.5,7.2,69.7,24.1c16.7,14,28.7,32.1,41.6,49.2
	c15.7,20.7,31.8,41,51.2,58.5c9.7,8.8,19.9,16.9,31.8,22.4c6.3,2.9,9,1,9-5.8C627.3,357.2,627.5,329.9,628.5,302.6L628.5,302.6z
	 M232.3,205.4c-3.5-0.2-6.6,0.9-9.5,2.5c-12.4,6.8-19.4,18.1-25,30.4c-1.6,3.6,0.4,5.8,4.4,6.2c5.8,0.6,11,3.1,15.6,6.6
	c10.1,7.7,18.4,17.1,25.1,27.8c15.8,25.1,29.8,51.1,43.5,77.3c13.6,26.1,26.6,52.5,39.6,78.9c14.5,29.5,28.6,59.2,48.9,85.4
	c7.3,9.4,14.8,18.8,25.8,24.3c6.4,3.2,10.6,2.8,14.6-3c6.7-9.5,13-19.4,19.1-29.3c3.7-5.9,3.1-8.2-2.8-12.4
	c-19.4-13.5-33.3-32-46.1-51.3c-18.8-28.4-34.8-58.5-50-89c-13.5-27.2-27.4-54.2-42.5-80.6c-11.5-20.1-21.4-41.1-35.8-59.4
	C250.8,212.1,242.9,206.4,232.3,205.4L232.3,205.4z M184.8,319.5c1.7,0,3.3,0,5,0c0.6,0,1.2,0.3,1.9,0.5c14.1,3.4,23.4,13.3,31.8,24
	c16.5,21.1,29.4,44.5,42,68c16.7,31.3,30.5,63.9,44.2,96.6c8.2,19.6,17.1,38.9,31.4,55.1c14,16,33.4,18.8,50.3,7
	c4.6-3.2,4.8-6.5,0.6-10.4c-5.5-5.1-11.4-9.7-16.3-15.4c-18.5-21.2-32.4-45.4-44.9-70.4c-15.2-30.4-29.5-61.2-44.7-91.6
	c-14.4-28.8-29.5-57.3-45.8-85c-7.6-12.8-16-25.1-28.8-33.5c-10.3-6.7-22-4.4-26.5,5.9c-6.4,14.5-10.3,29.9-13.5,45.5
	c-0.9,4.4,1.6,5.5,5.1,4.6C179.3,319.6,182,319.5,184.8,319.5L184.8,319.5z M394.5,358.5c-8.9,0-16.6,3.2-23.9,7.9
	c-10.2,6.6-11.4,9.6-5.4,20c16.5,28.7,32.7,57.6,55.3,82.2c6,6.6,12.9,12.2,21.2,15.9c6.1,2.7,11.4,2,16.4-2.3
	c9.9-8.3,20.8-15.1,33.9-16.8c12.4-1.6,12.5-1.6,5.4-11.9c-18.8-27.5-36.4-55.9-62.2-78C423.4,365.5,410.6,358.3,394.5,358.5
	L394.5,358.5z M188.8,459.6c1.8,0.2,4.2-1.4,5.7-4.2c2.1-3.9,4-7.9,6.3-11.7c3.4-5.6,2.4-10.2-2.3-14.5c-6.8-6.2-11.7-13.8-16-21.8
	c-11-20.4-18.6-42.4-28-63.5c-4.3-9.6-7-19.8-12.1-29c-5.1-9.1-11-17.7-20.8-22.5c-5.8-2.8-8.8-0.8-9,5.6c-0.3,11.6,0.2,23.3,1,34.9
	c0.2,3,1.6,5.2,4.4,6.5c8.6,4,14.1,11.1,18.7,19.1c7.2,12.6,9.8,26.9,14.8,40.2c6.8,18.2,12.9,36.7,24.4,52.7
	C178.7,455.5,181.7,459.5,188.8,459.6L188.8,459.6z M185.2,335.5c-1.6,0-2.7,0-3.9,0c-11.8,0.1-17.6,8.5-13.1,19.3
	c2.4,5.9,4.8,11.9,7.6,17.7c6.6,13.8,12.8,27.9,22.6,39.9c6.2,7.6,14.1,9.8,20,4.6c6.6-5.8,13.6-10.4,22.4-11.2
	c5.8-0.5,5.4-3.6,3.7-7.5c-0.6-1.5-1.5-2.9-2.3-4.3c-8.8-14.7-17.4-29.6-28.6-42.6C206.1,342.5,197.7,334.6,185.2,335.5L185.2,335.5
	z M182.6,477.9c0.5-2-1.1-3.2-2.4-4.4c-8.1-7.4-13.2-16.7-17.6-26.5c-9.1-20.1-15.1-41.4-22.3-62.1c-3.5-10-8.7-19.3-16.5-26.8
	c-1.8-1.8-4.1-4.1-6.7-3.2c-3,1-2.8,4.5-3.3,7.2c-0.2,1.3-0.1,2.7,0,4c0.3,6,1,12,0.8,17.9c-0.3,8.7,1,16,7.3,23.1
	c10.4,11.8,13.8,27.2,18.8,41.6c4.2,12,7.9,24.2,15.2,34.7c3.5,5.1,7.7,10.3,15.2,8.9C175.4,491.5,182.5,482.5,182.6,477.9
	L182.6,477.9z"/>
</svg>
