<svg width="9" height="9" viewBox="0 0 9 9" fill="none" xmlns="http://www.w3.org/2000/svg">
<path d="M3.31641 0.738283C2.88047 0.733595 2.5125 0.862501 2.25 1.125C1.425 1.9875 1.9875 3.89766 3.5625 5.47266C5.1 7.01016 7.05 7.575 7.875 6.75C8.35734 6.23056 8.39555 5.26774 7.85156 4.23047C8.00289 3.50029 7.8029 2.55291 7.125 1.875C6.5625 1.35 5.8875 1.125 5.25 1.125C5.09315 1.125 4.94615 1.13338 4.80469 1.16016C4.26094 0.878908 3.75234 0.74297 3.31641 0.738283ZM5.25 1.875C5.7375 1.875 6.26016 2.0625 6.59766 2.4375C7.31016 3.15 7.2375 4.2 6.9375 4.5C6.7125 4.725 6.52266 4.75781 6.41016 4.75781C6.07266 4.75781 5.5875 4.46016 5.0625 3.97266C3.8625 2.77266 4.3125 2.32031 4.5 2.13281C4.6125 1.98281 4.875 1.875 5.25 1.875ZM1.57031 2.77735L0.867188 3.49219L1.38281 4.00781L1.80469 3.59766C1.76719 3.44766 1.68984 3.30235 1.65234 3.15235C1.61484 3.03984 1.57031 2.92735 1.57031 2.77735ZM3 5.4375L1.94531 6.49219L2.47266 7.00781L3.52734 5.96485C3.45234 5.88984 3.37031 5.81719 3.25781 5.74219C3.18281 5.62969 3.1125 5.55 3 5.4375ZM5.40234 7.19531L4.99219 7.61719L5.50781 8.13281L6.22266 7.42969C5.96016 7.39219 5.70234 7.30781 5.40234 7.19531Z" fill="white" fill-opacity="0.95"/>
</svg>
