<svg width="5" height="11" viewBox="0 0 5 11" fill="none" xmlns="http://www.w3.org/2000/svg">
<path opacity="0.9" d="M3.40366 0.0151672C3.39906 0.0240889 3.38159 0.0704823 3.36596 0.117767L3.33561 0.2052H3.30251C3.27216 0.2052 3.26572 0.209661 3.24274 0.244456C3.21791 0.28282 3.21699 0.283712 3.18297 0.275682C3.13423 0.264977 3.09101 0.265869 3.08365 0.278359C3.07998 0.283712 3.0717 0.31137 3.06526 0.338135C3.05331 0.386312 3.05423 0.388989 3.07538 0.419323C3.08825 0.437167 3.09837 0.455902 3.09837 0.461255C3.09837 0.466609 3.12228 0.473746 3.1517 0.477315C3.22986 0.486237 3.23354 0.489805 3.21423 0.538875C3.19308 0.593298 3.19952 0.609357 3.2409 0.604896C3.25929 0.603111 3.27308 0.604896 3.27308 0.611141C3.27308 0.615602 3.26297 0.65575 3.25101 0.700359L3.22986 0.780655L3.18664 0.777978C3.13055 0.774409 3.10756 0.792253 3.10756 0.837754C3.10756 0.882363 3.11768 0.893069 3.16182 0.898422C3.18848 0.901991 3.19952 0.907344 3.19584 0.915374C3.19308 0.921618 3.18848 0.941247 3.1848 0.958199C3.18205 0.976042 3.17653 0.990316 3.17285 0.990316C3.17009 0.990316 3.114 0.981395 3.04779 0.970689C2.954 0.955522 2.92549 0.947492 2.91262 0.933217C2.89974 0.917158 2.89423 0.916265 2.8786 0.925188C2.84733 0.943923 2.83997 0.939463 2.84549 0.906452C2.85469 0.86095 2.84457 0.841323 2.79951 0.81545C2.70204 0.760135 2.56687 0.803851 2.51813 0.90556C2.49606 0.951953 2.49698 0.993885 2.51997 1.04385C2.56043 1.13039 2.61836 1.16429 2.71859 1.15805C2.79492 1.15269 2.81331 1.14199 2.81331 1.10273C2.81331 1.08756 2.81699 1.06972 2.82158 1.06258C2.82802 1.05277 2.8317 1.05455 2.83997 1.06972C2.85193 1.09024 2.8694 1.09381 2.89423 1.07864C2.90526 1.0724 2.9402 1.07418 3.02296 1.08667C3.08457 1.09559 3.13699 1.10541 3.13975 1.10808C3.14159 1.10987 3.14067 1.12325 3.13607 1.13842C3.12963 1.16251 3.12595 1.16429 3.08273 1.16429C3.01837 1.16429 3.00457 1.17767 3.00825 1.23923L3.01101 1.2892L3.05055 1.29187C3.09377 1.29455 3.09561 1.30079 3.07906 1.35789C3.07446 1.37663 3.06526 1.3918 3.05975 1.3918C3.05331 1.3918 3.00917 1.38466 2.96135 1.37663C2.89883 1.36592 2.86848 1.35611 2.85837 1.34451C2.84641 1.33024 2.84089 1.32845 2.82434 1.33737C2.79676 1.35165 2.79584 1.35076 2.80503 1.30972C2.81331 1.27671 2.81147 1.27046 2.7894 1.24816C2.71308 1.17054 2.57422 1.1857 2.4979 1.27849C2.42802 1.36146 2.47124 1.50599 2.57882 1.55328C2.62112 1.57202 2.65606 1.5738 2.72043 1.56042C2.76549 1.5515 2.76641 1.5506 2.77285 1.51135C2.77836 1.4712 2.78848 1.46139 2.79859 1.48547C2.80411 1.50064 2.83262 1.50332 2.84733 1.48904C2.85377 1.4828 2.88319 1.48369 2.94756 1.4944C2.99814 1.50332 3.03952 1.51046 3.04044 1.51135C3.04135 1.51135 3.034 1.55417 3.02388 1.60503C3.00825 1.68889 3.00825 1.6996 3.02112 1.72101C3.034 1.74242 3.02848 1.77454 2.93837 2.22598C2.88503 2.49096 2.78848 2.97452 2.72411 3.29927L2.60641 3.89168L2.56595 3.88632C2.54388 3.88365 2.47583 3.88097 2.41422 3.88097L2.30296 3.88008L2.16135 3.53481C1.69882 2.40709 1.29238 1.58897 0.860189 0.915374C0.741567 0.730693 0.73605 0.726233 0.629383 0.734262C0.564095 0.738723 0.450991 0.762812 0.438117 0.775302C0.434439 0.778871 0.435358 0.794038 0.440876 0.808312C0.447312 0.822587 0.454669 0.852029 0.458347 0.874333C0.462945 0.896638 0.73605 1.58897 1.06617 2.41334C1.39629 3.23771 1.67583 3.93718 1.68778 3.96751L1.70985 4.02283L1.66571 4.04781C1.34479 4.22714 1.10755 4.60007 1.05605 5.00779C1.0395 5.14072 1.04962 5.40749 1.07812 5.57165C1.091 5.6448 1.10295 5.71975 1.10571 5.7367C1.11123 5.77863 1.08824 5.83573 1.03398 5.91424C0.994443 5.97134 0.989845 5.98383 0.990765 6.02309C0.990765 6.04807 0.998121 6.0784 1.0064 6.09089C1.02571 6.11855 1.07168 6.13729 1.10847 6.13193C1.16088 6.1239 1.23996 6.14621 1.27766 6.17922C1.3218 6.21847 1.37422 6.31483 1.39353 6.39334C1.4156 6.48524 1.4064 6.69847 1.37514 6.82962C1.32824 7.02233 1.23904 7.25251 1.15904 7.38544C1.08456 7.51035 0.977891 7.62098 0.891454 7.6638C0.816051 7.70216 0.734211 7.70216 0.620187 7.6638C0.590762 7.65399 0.556738 7.64596 0.544784 7.64596C0.508003 7.64596 0.47214 7.67005 0.454669 7.70484C0.439036 7.73607 0.439036 7.74053 0.453749 7.78603C0.480416 7.86722 0.481336 7.91183 0.459267 7.97606C0.439956 8.03138 0.419726 8.07688 0.24961 8.4284C0.117195 8.7014 0.0445508 8.91553 0.0123666 9.12876C-0.00970249 9.27507 -0.00142656 9.48295 0.0307576 9.60429C0.0436312 9.65336 0.0546658 9.70332 0.0546658 9.7167C0.0546658 9.79967 0.200874 10.0584 0.346162 10.2333C0.490531 10.4064 0.789384 10.591 1.06709 10.6803C1.1949 10.7204 1.45054 10.7846 1.65928 10.8275C1.7402 10.8444 1.78341 10.856 1.75491 10.8533C1.70341 10.848 1.44962 10.8676 1.36226 10.8846C1.20134 10.914 1.28042 10.9434 1.58847 10.9693C2.3048 11.0282 3.80458 10.997 3.88274 10.9211C3.89653 10.9078 3.89102 10.9051 3.82849 10.8899C3.73377 10.8667 3.42848 10.8426 3.16641 10.8382L3.05423 10.8364L3.12871 10.8114C3.51952 10.6803 3.89469 10.3707 4.0547 10.0477C4.07217 10.0129 4.08872 9.98346 4.09148 9.98346C4.09424 9.98346 4.12274 10.0522 4.15493 10.1351C4.18711 10.219 4.21654 10.2868 4.22021 10.2868C4.22297 10.2868 4.27079 10.3956 4.32596 10.5277C4.38113 10.6606 4.43079 10.7686 4.43631 10.7686C4.44183 10.7686 4.50803 10.7445 4.58344 10.715C4.65884 10.6856 4.72137 10.6615 4.72229 10.6615C4.72413 10.6615 4.74436 10.7195 4.76918 10.7909C4.79309 10.8623 4.81516 10.9202 4.81884 10.9202C4.8262 10.9202 4.99723 10.7953 4.99999 10.7873C5.00275 10.7784 4.42251 9.21797 4.14849 8.49977L4.08412 8.33204L4.1209 8.291C4.18343 8.22052 4.18803 8.17502 4.1347 8.1313C4.10895 8.10989 4.10067 8.10811 4.0547 8.11257L4.0032 8.11792L3.78895 7.56655L3.57561 7.01519L3.59032 6.94471C3.62435 6.78768 3.6878 6.63601 3.74849 6.56642C3.80826 6.49862 3.8763 6.47899 3.9747 6.50129C4.03447 6.51557 4.03998 6.51557 4.06849 6.5004C4.11723 6.47453 4.13286 6.41743 4.10527 6.37014C4.08688 6.33892 4.08872 6.27468 4.10895 6.21758C4.11814 6.19082 4.15677 6.09892 4.19447 6.01327C4.35079 5.65908 4.38941 5.51276 4.38941 5.27723C4.38941 5.12734 4.37654 5.05151 4.32504 4.89894C4.19631 4.51709 3.93883 4.2423 3.56826 4.09152C3.4809 4.05584 3.30159 3.99874 3.23354 3.98446C3.21055 3.97911 3.20871 3.97643 3.21331 3.94521C3.21883 3.90863 3.45699 1.81915 3.45699 1.80755C3.45699 1.80398 3.46527 1.80398 3.47538 1.80666C3.48917 1.81112 3.49377 1.80844 3.49469 1.79595C3.49561 1.76116 3.52044 1.55417 3.52871 1.51492C3.53331 1.49172 3.53423 1.46942 3.53055 1.46585C3.5278 1.46228 3.52596 1.4373 3.52871 1.41142C3.53147 1.37663 3.53607 1.36503 3.54435 1.3686C3.5517 1.37128 3.58205 1.37574 3.61239 1.37931C3.64826 1.38287 3.66941 1.39001 3.67308 1.39804C3.67676 1.40786 3.68596 1.41053 3.70527 1.40696L3.73285 1.40161L3.72734 1.43997C3.72182 1.47566 3.72366 1.48012 3.75216 1.50153C3.84964 1.5738 3.97653 1.55506 4.04366 1.4596C4.06757 1.42391 4.07309 1.40786 4.07309 1.36771C4.07309 1.28652 4.01699 1.20979 3.93607 1.18213C3.8855 1.16518 3.86159 1.16518 3.81561 1.18303C3.78343 1.19552 3.77699 1.20265 3.7678 1.23834C3.75768 1.2776 3.75676 1.27849 3.74389 1.25975C3.72826 1.23656 3.7117 1.23477 3.69607 1.25351C3.68964 1.26065 3.67584 1.26511 3.66481 1.26243C3.65469 1.26065 3.62251 1.2544 3.59492 1.24905L3.54343 1.23923L3.5517 1.18392C3.55538 1.15358 3.5609 1.09292 3.56274 1.0492C3.56458 1.00638 3.56826 0.968904 3.57009 0.96712C3.57929 0.958199 3.71079 0.984072 3.71722 0.995669C3.72642 1.01084 3.75308 1.01173 3.7678 0.997454C3.78435 0.981395 3.78803 0.992101 3.77883 1.03046C3.77148 1.06169 3.77239 1.06794 3.79079 1.08132C3.88734 1.15626 4.00596 1.14912 4.08136 1.06526C4.11814 1.026 4.12826 1.00013 4.12826 0.952845C4.12826 0.844892 4.00688 0.744076 3.90113 0.762812C3.8478 0.771733 3.82757 0.788685 3.82021 0.829724C3.81377 0.866303 3.80826 0.872549 3.79079 0.855597C3.78619 0.851137 3.74297 0.844892 3.69515 0.843107C3.58021 0.839539 3.57837 0.838647 3.58297 0.786901C3.59308 0.670918 3.59308 0.670025 3.62527 0.667349C3.65469 0.664672 3.65469 0.663779 3.65745 0.612926L3.66021 0.560287L3.70619 0.566532C3.74205 0.570993 3.75125 0.570101 3.75125 0.560287C3.75125 0.551366 3.75952 0.548689 3.77791 0.551366C3.80366 0.554935 3.80366 0.554935 3.81837 0.479991C3.83217 0.408617 3.83217 0.405048 3.81469 0.390774C3.79814 0.377391 3.79722 0.371145 3.80642 0.338135C3.81194 0.317615 3.81377 0.297987 3.80918 0.294418C3.8055 0.29085 3.77148 0.283712 3.73377 0.277467C3.69607 0.272114 3.66205 0.264977 3.65745 0.2623C3.65377 0.259624 3.65009 0.210554 3.65009 0.152562C3.65009 0.0517464 3.64918 0.0472851 3.62895 0.0383635C3.61699 0.0330105 3.59676 0.0303335 3.58481 0.0330105C3.57009 0.0356874 3.55722 0.0321178 3.54986 0.0231962C3.53515 0.00624561 3.5186 0.00535297 3.49285 0.0196276C3.47722 0.0294418 3.47262 0.0285492 3.46527 0.0151672C3.45975 0.0071373 3.44596 0 3.434 0C3.42205 0 3.40825 0.0071373 3.40366 0.0151672ZM0.772832 1.00727C0.793062 1.02779 0.953063 1.31685 1.08364 1.57023C1.34663 2.08234 1.64272 2.73363 2.02526 3.64454L2.13008 3.89435L2.03721 3.91309C1.94525 3.93182 1.8202 3.97019 1.7733 3.99338L1.74939 4.00498L1.67491 3.8203C1.32272 2.9424 0.576049 1.0724 0.572371 1.0608C0.569612 1.05098 0.585244 1.04117 0.631222 1.02333C0.665245 1.01084 0.702027 0.998346 0.712142 0.996562C0.732372 0.992101 0.763637 0.997454 0.772832 1.00727ZM3.66481 7.7441C3.72274 7.89844 3.76964 8.0287 3.76964 8.03405C3.76872 8.03852 3.74757 8.02067 3.72274 7.99391C3.62527 7.89041 3.55262 7.69503 3.54435 7.51213C3.53791 7.39793 3.52963 7.38187 3.66481 7.7441ZM4.51907 10.0896C4.52275 10.103 4.52183 10.1084 4.51631 10.1048C4.50895 10.1003 4.4501 10.1146 4.4501 10.1209C4.4501 10.1217 4.46481 10.1574 4.48229 10.2003C4.49976 10.2431 4.51447 10.2886 4.51447 10.302C4.51447 10.3368 4.4832 10.3832 4.4547 10.3903C4.39309 10.4055 4.34987 10.3689 4.30849 10.269C4.28826 10.2208 4.27171 10.194 4.26435 10.1967C4.25792 10.1985 4.24688 10.2003 4.24044 10.2012C4.23217 10.202 4.20642 10.1494 4.17056 10.0584C4.11447 9.91833 4.11355 9.91387 4.1255 9.87997C4.17608 9.74079 4.19631 9.57306 4.19079 9.34288L4.18619 9.15998L4.34895 9.6141C4.43815 9.86391 4.51447 10.078 4.51907 10.0896ZM4.58435 10.4813C4.66068 10.5411 4.62022 10.6553 4.52366 10.6553C4.43539 10.6553 4.39217 10.5616 4.45102 10.4965C4.47585 10.4688 4.48504 10.4652 4.52275 10.4652C4.54849 10.4652 4.5724 10.4715 4.58435 10.4813Z" fill="white"/>
</svg>
