<svg width="7" height="9" viewBox="0 0 7 9" fill="none" xmlns="http://www.w3.org/2000/svg">
<path d="M3.5 0.75C2.825 0.75 2.37031 0.857813 2.25781 1.38281C2.25781 1.38281 1.99294 2.94023 2 4.875H1.96484C1.70234 4.9125 1.62969 4.84219 1.55469 4.61719C1.55469 4.61719 1.3625 3.6 1.25 3.1875C1.175 2.85 1.06484 2.625 0.839844 2.625C0.577344 2.6625 0.5 2.88984 0.5 3.33984C0.5375 3.86484 0.617188 4.875 0.617188 4.875C0.654687 5.8875 1.175 6.0375 1.8125 6L2.03516 5.97656C2.06971 6.5171 2.12408 7.07216 2.22266 7.61719C1.07825 7.82604 0.5 8.25 0.5 8.25H6.5C6.5 8.25 5.89983 7.8103 4.71875 7.60547C5.29669 4.67057 4.66016 1.38281 4.66016 1.38281C4.51016 0.782812 4.1375 0.75 3.5 0.75ZM6.07812 1.875C5.88689 1.91909 5.81563 2.2125 5.75 2.50781C5.675 2.80781 5.52734 3.44531 5.52734 3.44531C5.48984 3.55781 5.44766 3.60469 5.41016 3.67969C5.44766 4.05469 5.44531 4.4625 5.44531 4.875C5.93281 4.875 6.35234 4.6125 6.46484 3.75C6.46484 3.375 6.5 2.92734 6.5 2.40234C6.5 2.06484 6.42266 1.9125 6.16016 1.875C6.12734 1.87031 6.10544 1.8687 6.07812 1.875Z" fill="white" fill-opacity="0.95"/>
</svg>
