<svg width="1438" height="605" viewBox="0 0 1438 605" fill="none" xmlns="http://www.w3.org/2000/svg">
<path d="M91.1498 401.494C89.7173 394.148 96.7328 387.059 102.756 383.973C108.743 380.888 113.702 381.88 117.265 384.488C120.791 387.132 122.885 391.466 121.819 398.335C120.754 405.203 116.53 414.606 109.478 415.524C102.426 416.443 92.5456 408.84 91.1498 401.494Z" fill="url(#paint0_linear_396_2)"/>
<path d="M40.0571 575.089C36.8983 565.943 40.608 554.006 48.9825 547.762C57.3202 541.554 70.3226 541.04 77.0809 546.55C83.8392 552.096 84.3902 563.629 81.0478 572.995C77.7053 582.398 70.4695 589.671 61.8747 590.111C53.2431 590.589 43.2159 584.235 40.0571 575.089Z" fill="url(#paint1_linear_396_2)"/>
<path d="M1335.15 396.294C1333.72 388.948 1340.73 381.859 1346.76 378.773C1352.74 375.688 1357.7 376.68 1361.26 379.288C1364.79 381.932 1366.88 386.266 1365.82 393.135C1364.75 400.003 1360.53 409.406 1353.48 410.324C1346.43 411.243 1336.55 403.64 1335.15 396.294Z" fill="url(#paint2_linear_396_2)"/>
<path d="M1383.27 540.318C1379.89 530.747 1380.52 519.024 1386.14 515.129C1391.72 511.234 1402.3 515.166 1409.09 520.953C1415.89 526.74 1418.86 534.382 1416.92 541.987C1415.01 549.629 1408.14 557.197 1401.05 557.271C1393.92 557.346 1386.61 549.926 1383.27 540.318Z" fill="url(#paint3_linear_396_2)"/>
<path d="M38.0571 323.342C34.8983 318.86 38.608 313.011 46.9825 309.952C55.3202 306.91 68.3226 306.658 75.0809 309.358C81.8392 312.075 82.3902 317.727 79.0478 322.316C75.7053 326.923 68.4695 330.487 59.8747 330.703C51.2431 330.937 41.2159 327.823 38.0571 323.342Z" fill="url(#paint4_linear_396_2)"/>
<path d="M1348.15 191.286C1346.72 187.686 1353.73 184.213 1359.76 182.701C1365.74 181.189 1370.7 181.675 1374.26 182.953C1377.79 184.249 1379.88 186.372 1378.82 189.738C1377.75 193.103 1373.53 197.711 1366.48 198.161C1359.43 198.611 1349.55 194.885 1348.15 191.286Z" fill="url(#paint5_linear_396_2)"/>
<path d="M1383.27 284.487C1379.89 279.939 1380.52 274.367 1386.14 272.516C1391.72 270.665 1402.3 272.534 1409.09 275.284C1415.89 278.035 1418.86 281.666 1416.92 285.281C1415.01 288.913 1408.14 292.509 1401.05 292.544C1393.92 292.58 1386.61 289.054 1383.27 284.487Z" fill="url(#paint6_linear_396_2)"/>
<path d="M1397.94 29.7513C1401.1 38.897 1397.39 50.8343 1389.02 57.0784C1380.68 63.2858 1367.68 63.8 1360.92 58.2905C1354.16 52.7442 1353.61 41.211 1356.95 31.8449C1360.29 22.442 1367.53 15.1695 1376.13 14.7287C1384.76 14.2512 1394.78 20.6055 1397.94 29.7513Z" fill="url(#paint7_linear_396_2)"/>
<path d="M102.85 205.346C104.283 212.692 97.2672 219.781 91.2435 222.867C85.2565 225.952 80.298 224.96 76.7352 222.352C73.2091 219.708 71.1155 215.374 72.1806 208.505C73.2458 201.637 77.4698 192.234 84.5219 191.316C91.5741 190.397 101.454 198 102.85 205.346Z" fill="url(#paint8_linear_396_2)"/>
<path d="M54.728 61.7348C58.1072 71.2111 57.4828 82.8178 51.8631 86.6744C46.2801 90.5311 35.7019 86.6377 28.9068 80.9078C22.1118 75.1779 19.1367 67.6116 21.0834 60.0819C22.9933 52.5155 29.8618 45.0226 36.9507 44.9492C44.0763 44.8757 51.3856 52.2217 54.728 61.7348Z" fill="url(#paint9_linear_396_2)"/>
<defs>
<linearGradient id="paint0_linear_396_2" x1="106.53" y1="415.6" x2="106.53" y2="382.059" gradientUnits="userSpaceOnUse">
<stop stop-color="#162C45"/>
<stop offset="1" stop-color="#22446B"/>
</linearGradient>
<linearGradient id="paint1_linear_396_2" x1="60.992" y1="590.137" x2="60.992" y2="542.738" gradientUnits="userSpaceOnUse">
<stop stop-color="#162C45"/>
<stop offset="1" stop-color="#22446B"/>
</linearGradient>
<linearGradient id="paint2_linear_396_2" x1="1350.53" y1="410.4" x2="1350.53" y2="376.859" gradientUnits="userSpaceOnUse">
<stop stop-color="#162C45"/>
<stop offset="1" stop-color="#22446B"/>
</linearGradient>
<linearGradient id="paint3_linear_396_2" x1="1399.35" y1="557.272" x2="1399.35" y2="513.567" gradientUnits="userSpaceOnUse">
<stop stop-color="#162C45"/>
<stop offset="1" stop-color="#22446B"/>
</linearGradient>
<linearGradient id="paint4_linear_396_2" x1="58.992" y1="330.715" x2="58.992" y2="307.49" gradientUnits="userSpaceOnUse">
<stop stop-color="#162C45"/>
<stop offset="1" stop-color="#22446B"/>
</linearGradient>
<linearGradient id="paint5_linear_396_2" x1="1363.53" y1="198.198" x2="1363.53" y2="181.763" gradientUnits="userSpaceOnUse">
<stop stop-color="#162C45"/>
<stop offset="1" stop-color="#22446B"/>
</linearGradient>
<linearGradient id="paint6_linear_396_2" x1="1399.35" y1="292.545" x2="1399.35" y2="271.774" gradientUnits="userSpaceOnUse">
<stop stop-color="#162C45"/>
<stop offset="1" stop-color="#22446B"/>
</linearGradient>
<linearGradient id="paint7_linear_396_2" x1="1377.01" y1="14.7035" x2="1377.01" y2="62.1021" gradientUnits="userSpaceOnUse">
<stop stop-color="#162C45"/>
<stop offset="1" stop-color="#22446B"/>
</linearGradient>
<linearGradient id="paint8_linear_396_2" x1="87.4705" y1="191.24" x2="87.4705" y2="224.781" gradientUnits="userSpaceOnUse">
<stop stop-color="#162C45"/>
<stop offset="1" stop-color="#22446B"/>
</linearGradient>
<linearGradient id="paint9_linear_396_2" x1="38.6475" y1="44.9486" x2="38.6475" y2="88.2211" gradientUnits="userSpaceOnUse">
<stop stop-color="#162C45"/>
<stop offset="1" stop-color="#22446B"/>
</linearGradient>
</defs>
</svg>
