<svg width="932" height="514" viewBox="0 0 932 514" fill="none" xmlns="http://www.w3.org/2000/svg">
<path d="M114.877 422.434C111.718 415.351 115.428 406.104 123.803 401.268C132.141 396.46 145.144 396.062 151.903 400.329C158.662 404.625 159.213 413.558 155.87 420.813C152.528 428.096 145.291 433.729 136.696 434.07C128.064 434.44 118.036 429.518 114.877 422.434Z" fill="url(#paint0_linear_257_3)"/>
<path d="M795.785 416.585C794.352 410.613 801.368 404.85 807.392 402.342C813.38 399.834 818.339 400.64 821.902 402.76C825.428 404.91 827.522 408.433 826.456 414.017C825.391 419.601 821.167 427.246 814.114 427.992C807.062 428.739 797.181 422.558 795.785 416.585Z" fill="url(#paint1_linear_257_3)"/>
<path d="M876.769 487.67C873.389 479.966 874.014 470.53 879.634 467.395C885.217 464.26 895.796 467.425 902.592 472.083C909.387 476.741 912.362 482.893 910.416 489.014C908.506 495.165 901.637 501.257 894.547 501.317C887.421 501.376 880.111 495.404 876.769 487.67Z" fill="url(#paint2_linear_257_3)"/>
<path d="M804.123 23.6598C807.282 30.7793 803.572 40.0719 795.197 44.9326C786.859 49.7647 773.856 50.165 767.097 45.8761C760.338 41.5587 759.787 32.5807 763.13 25.2896C766.472 17.9699 773.709 12.3087 782.304 11.9655C790.936 11.5938 800.964 16.5403 804.123 23.6598Z" fill="url(#paint3_linear_257_3)"/>
<path d="M123.215 103.408C124.648 109.41 117.632 115.202 111.608 117.723C105.62 120.244 100.661 119.433 97.0984 117.303C93.5721 115.142 91.4784 111.601 92.5436 105.989C93.6089 100.377 97.8331 92.6939 104.886 91.9436C111.938 91.1934 121.819 97.4056 123.215 103.408Z" fill="url(#paint4_linear_257_3)"/>
<path d="M54.7312 35.4692C58.1106 43.212 57.4862 52.6954 51.8661 55.8465C46.2828 58.9976 35.7039 55.8165 28.9084 51.1348C22.1129 46.4531 19.1376 40.2709 21.0844 34.1187C22.9945 27.9365 29.8634 21.8144 36.9528 21.7544C44.0788 21.6943 51.3886 27.6965 54.7312 35.4692Z" fill="url(#paint5_linear_257_3)"/>
<defs>
<linearGradient id="paint0_linear_257_3" x1="135.813" y1="434.09" x2="135.813" y2="397.377" gradientUnits="userSpaceOnUse">
<stop stop-color="#162C45"/>
<stop offset="1" stop-color="#22446B"/>
</linearGradient>
<linearGradient id="paint1_linear_257_3" x1="811.166" y1="428.054" x2="811.166" y2="400.785" gradientUnits="userSpaceOnUse">
<stop stop-color="#162C45"/>
<stop offset="1" stop-color="#22446B"/>
</linearGradient>
<linearGradient id="paint2_linear_257_3" x1="892.85" y1="501.317" x2="892.85" y2="466.138" gradientUnits="userSpaceOnUse">
<stop stop-color="#162C45"/>
<stop offset="1" stop-color="#22446B"/>
</linearGradient>
<linearGradient id="paint3_linear_257_3" x1="783.187" y1="11.9459" x2="783.187" y2="48.8433" gradientUnits="userSpaceOnUse">
<stop stop-color="#162C45"/>
<stop offset="1" stop-color="#22446B"/>
</linearGradient>
<linearGradient id="paint4_linear_257_3" x1="107.834" y1="91.8818" x2="107.834" y2="119.287" gradientUnits="userSpaceOnUse">
<stop stop-color="#162C45"/>
<stop offset="1" stop-color="#22446B"/>
</linearGradient>
<linearGradient id="paint5_linear_257_3" x1="38.6496" y1="21.7539" x2="38.6496" y2="57.1102" gradientUnits="userSpaceOnUse">
<stop stop-color="#162C45"/>
<stop offset="1" stop-color="#22446B"/>
</linearGradient>
</defs>
</svg>
