<?xml version="1.0" encoding="UTF-8"?>
<svg id="Layer_1" data-name="Layer 1" xmlns="http://www.w3.org/2000/svg" viewBox="0 0 426.58 344.25">
  <defs>
    <style>
      .cls-1 {
        fill: #615f5f;
        stroke-width: 0px;
      }

      .cls-2 {
        opacity: .95;
      }
    </style>
  </defs>
  <g class="cls-2">
    <path class="cls-1" d="M352.1,193.29h-5.98c-107.29,0-214.59-.03-321.88.07-8.02,0-14.81-2-19.74-8.53-4.93-6.53-5.85-13.81-2.53-21.2,3.46-7.72,9.58-12.19,18.23-12.74,1.99-.13,4-.06,6-.06,106.79,0,213.59,0,320.38,0,1.93,0,3.86,0,5.95,0-.41-2.58-2.18-3.48-3.4-4.7-35.9-35.96-71.85-71.87-107.76-107.81-8.66-8.67-10.53-17.97-5.6-27.08,6.3-11.64,21.2-14.81,31.7-6.74.92.71,1.84,1.44,2.66,2.26,49.96,49.94,99.92,99.87,149.83,149.86,6.45,6.47,8.21,14.28,5.21,22.99-1.22,3.54-3.61,6.34-6.21,8.95-49.35,49.36-98.69,98.73-148.08,148.05-7.89,7.88-16.78,9.65-25.45,5.43-8.36-4.07-12.97-12.27-12.08-21.63.59-6.17,4.09-10.72,8.31-14.93,35.83-35.79,71.63-71.62,107.48-107.39,1.25-1.24,2.96-2.01,4.46-3-.5-.6-.99-1.19-1.49-1.79Z"/>
  </g>
</svg>