<?xml version="1.0" encoding="UTF-8"?>
<svg id="Réteg_1" data-name="Réteg 1" xmlns="http://www.w3.org/2000/svg" viewBox="0 0 228.54 228.52">
  <defs>
    <style>
      .cls-1 {
        fill: #880409;
      }

      .cls-2 {
        fill: #c3c3c3;
      }
    </style>
  </defs>
  <path class="cls-2" d="M.04,114.17C.04,87.15,.08,60.14,0,33.13c-.01-3.64,.79-7.02,2.1-10.31,1.81-4.56,4.49-8.6,7.96-12.08C15.17,5.62,21.26,2.28,28.32,.74,30.46,.27,32.61,0,34.81,0c52.75,.02,105.49,.02,158.24,0,4.32,0,8.42,1.05,12.39,2.63,4.88,1.94,9.13,4.87,12.71,8.7,5.02,5.36,7.93,11.71,9.56,18.89,1.02,4.52,.8,8.97,.8,13.45,.05,48.11,.04,96.22,.01,144.33,0,3.17,.24,6.33-.65,9.52-.99,3.56-1.7,7.19-3.39,10.51-5.47,10.75-14.17,17.36-25.93,19.92-1.81,.39-3.67,.56-5.56,.56-52.47-.02-104.93-.03-157.4,0-4.57,0-8.92-.88-13.13-2.52-4.5-1.75-8.47-4.38-11.93-7.76-5.26-5.14-8.67-11.32-10.26-18.51-.16-.71-.23-1.4-.23-2.12,0-27.81,0-55.62,0-83.43Zm52.27-.31c0,14.74,.06,29.49-.04,44.23-.03,3.86,1.04,7.23,3.37,10.2,3.6,4.57,8.12,7.27,14.18,7.26,29.53-.06,59.05-.04,88.58,0,2.29,0,4.46-.4,6.44-1.42,6.85-3.54,10.82-9.08,10.84-16.93,.06-28.85,.01-57.69,.04-86.54,0-4.19-1.2-7.96-3.76-11.2-3.69-4.67-8.4-7.43-14.58-7.42-28.93,.04-57.85,.05-86.78-.03-3.21,0-6.14,.62-8.83,2.2-5.82,3.42-9.5,8.19-9.47,15.31,.06,14.78,.02,29.57,.02,44.35Z"/>
  <path class="cls-1" d="M52.31,113.86c0-14.78,.04-29.57-.02-44.35-.03-7.13,3.65-11.89,9.47-15.31,2.69-1.58,5.62-2.21,8.83-2.2,28.93,.08,57.85,.07,86.78,.03,6.18,0,10.89,2.75,14.58,7.42,2.56,3.24,3.77,7.01,3.76,11.2-.03,28.85,.02,57.69-.04,86.54-.02,7.86-3.99,13.39-10.84,16.93-1.98,1.02-4.15,1.43-6.44,1.42-29.53-.04-59.05-.06-88.58,0-6.06,.01-10.58-2.69-14.18-7.26-2.34-2.97-3.4-6.33-3.37-10.2,.11-14.74,.04-29.49,.04-44.23Z"/>
</svg>