<?xml version="1.0" encoding="UTF-8"?>
<svg id="Réteg_1" data-name="Réteg 1" xmlns="http://www.w3.org/2000/svg" viewBox="0 0 228.56 228.5">
  <defs>
    <style>
      .cls-1 {
        fill: #880409;
      }

      .cls-2 {
        fill: #c3c3c3;
      }
    </style>
  </defs>
  <path class="cls-2" d="M.03,114.22C.03,87.69,.06,61.15,0,34.62c-.01-4.7,1.16-9.04,3.03-13.26,1.72-3.86,4.05-7.35,7.03-10.33C15.66,5.42,22.34,1.77,30.24,.45,32.34,.11,34.43,0,36.54,0c51.94,0,103.89,0,155.83,0,7.72,0,14.64,2.45,20.83,6.92,7.4,5.35,12.11,12.57,14.21,21.44,.69,2.91,1.14,5.86,1.14,8.91-.05,51.31-.05,102.61-.02,153.92,0,4.95-1.04,9.66-2.78,14.24-1.74,4.61-4.4,8.7-7.88,12.16-5.59,5.57-12.25,9.17-20.12,10.46-1.9,.31-3.79,.44-5.7,.44-52.22,0-104.45,0-156.67-.01-7.66,0-14.53-2.53-20.68-7.02-6.99-5.09-11.54-11.9-13.79-20.23-.55-2.03-.92-4.09-.92-6.23,.03-26.93,.02-53.86,.02-80.79Zm173.34-16.74c0-11.22,0-22.45,0-33.67,0-2.69-.65-5.22-1.98-7.55-1.56-2.72-3.67-4.31-7.09-4.27-12.7,.12-25.4,.08-38.11,.02-1.82,0-3.23,.68-4.42,1.86-2.91,2.88-3.93,6.59-3.94,10.49-.08,21.97-.06,43.94-.01,65.91,0,2.76,.64,5.46,1.99,7.91,1.56,2.84,3.78,4.47,7.25,4.45,12.58-.09,25.16-.04,37.75-.03,1.89,0,3.47-.71,4.79-2.02,2.72-2.69,3.73-6.09,3.75-9.78,.06-11.1,.02-22.21,.02-33.31Zm-118.44-17.64c0,6.83,0,13.66,0,20.49,0,.77,.09,1.51,.35,2.23,1.14,3.17,4.12,5.23,7.69,5.23,8.75,.02,17.5,0,26.25,0,4.43,0,8.87,.04,13.3-.01,4.34-.05,7.94-3.45,7.96-7.66,.05-13.46,.07-26.93,0-40.39-.02-4.22-3.65-7.68-7.91-7.69-13.18-.04-26.37-.01-39.55-.02-.88,0-1.71,.12-2.56,.38-3.26,1.01-5.63,4.27-5.56,7.54,.14,6.63,.04,13.26,.04,19.89Zm90.89,95.19c7.19,0,14.38,0,21.56,0,3.32,0,5.98-2.69,5.99-6.01,0-4.79,0-9.58,0-14.38,0-3.31-2.69-5.98-6.02-5.98-14.38,0-28.75,0-43.13,0-3.31,0-5.98,2.69-5.99,6.01,0,4.75,0,9.5,0,14.26,0,3.47,2.65,6.1,6.14,6.1,7.15,0,14.3,0,21.44,0Z"/>
  <path class="cls-1" d="M173.37,97.48c0,11.1,.04,22.21-.02,33.31-.02,3.69-1.04,7.09-3.75,9.78-1.32,1.31-2.9,2.02-4.79,2.02-12.58,0-25.16-.06-37.75,.03-3.46,.02-5.69-1.6-7.25-4.45-1.35-2.46-1.99-5.15-1.99-7.91-.04-21.97-.06-43.94,.01-65.91,.01-3.9,1.03-7.61,3.94-10.49,1.2-1.18,2.6-1.87,4.42-1.86,12.7,.06,25.4,.11,38.11-.02,3.42-.03,5.53,1.56,7.09,4.27,1.33,2.32,1.98,4.85,1.98,7.55,0,11.22,0,22.45,0,33.67Z"/>
  <path class="cls-1" d="M54.93,79.84c0-6.63,.1-13.26-.04-19.89-.07-3.27,2.3-6.52,5.56-7.54,.85-.27,1.68-.38,2.56-.38,13.18,0,26.37-.02,39.55,.02,4.27,.01,7.89,3.48,7.91,7.69,.08,13.46,.06,26.92,0,40.39-.02,4.21-3.62,7.61-7.96,7.66-4.43,.05-8.87,.01-13.3,.01-8.75,0-17.5,0-26.25,0-3.57,0-6.55-2.06-7.69-5.23-.26-.72-.35-1.46-.35-2.23,.01-6.83,0-13.66,0-20.49Z"/>
  <path class="cls-1" d="M145.82,175.03c-7.15,0-14.3,0-21.44,0-3.49,0-6.14-2.63-6.14-6.1,0-4.75,0-9.5,0-14.26,0-3.32,2.68-6.01,5.99-6.01,14.38,0,28.75,0,43.13,0,3.33,0,6.02,2.67,6.02,5.98,0,4.79,0,9.58,0,14.38,0,3.32-2.67,6.01-5.99,6.01-7.19,0-14.38,0-21.56,0Z"/>
</svg>