<?xml version="1.0" encoding="utf-8"?>
<!-- Generator: Adobe Illustrator 28.2.0, SVG Export Plug-In . SVG Version: 6.00 Build 0)  -->
<svg version="1.1" id="Capa_1" xmlns="http://www.w3.org/2000/svg" xmlns:xlink="http://www.w3.org/1999/xlink" x="0px" y="0px"
	 viewBox="0 0 800 800" style="enable-background:new 0 0 800 800;" xml:space="preserve">
<style type="text/css">
	.st0{display:none;fill:#982525;}
	.st1{fill:#982525;}
</style>
<path class="st0" d="M633.3,0H169.2c-37.8,0-71,31.1-71,67.9v686.6c0,12.3,3.4,22.6,9,30.5c6.6,9.5,17.3,14.9,28.7,14.9
	c10.8,0,22.3-4.8,32.9-13.9l207.7-176.3c6.4-5.5,15.6-8.6,25.2-8.6s18.8,3.1,25.2,8.6l207,176.3c10.6,9.1,21.3,13.9,32.1,13.9
	c18.2,0,36-14,36-45.4V67.9C701.8,31.1,671.1,0,633.3,0z"/>
<g>
	<path class="st1" d="M701.68,411.96c0,114.29-0.01,228.58,0.02,342.86c0,7.68-0.97,15.16-3.88,22.29
		c-4.42,10.83-11.87,18.49-23.44,21.52c-8.99,2.35-17.59,0.84-25.87-3.04c-5.55-2.6-10.45-6.16-15.09-10.11
		c-26.65-22.72-53.31-45.43-79.96-68.14c-41.87-35.68-83.75-71.33-125.59-107.04c-7.96-6.8-17.22-9.57-27.48-9.24
		c-3.17,0.1-6.37,0.59-9.47,1.31c-5.69,1.32-10.69,4.07-15.16,7.87c-57.08,48.52-114.19,97-171.3,145.49
		c-11.88,10.09-23.77,20.18-35.65,30.27c-6.6,5.6-13.86,10.03-22.28,12.29c-18.01,4.84-34.66-2.95-42.8-19.91
		c-3.52-7.34-4.98-15.14-5.19-23.22c-0.02-0.96,0-1.92,0-2.88c0-227.22,0.02-454.43-0.02-681.65c0-25.42,11.21-44.64,31.89-58.63
		c11.97-8.1,25.38-11.88,39.83-11.88c154.28,0,308.57-0.01,462.85,0c30.94,0,58.33,21.03,66.4,50.93c1.53,5.66,2.22,11.42,2.22,17.3
		C701.67,182.91,701.68,297.43,701.68,411.96z M653.97,402.14c0-101.49,0-202.98,0-304.47c0-6.08-0.51-12.12-1.54-18.12
		c-1.55-9-5.37-16.65-12.6-22.47c-3.03-2.44-6.26-4.33-9.98-5.54c-8.39-2.73-17.04-3.57-25.76-3.57
		c-129.58-0.05-259.16-0.04-388.74-0.02c-7.59,0-15.18,0.2-22.76,0.31c-5.29,0.07-10.51,0.78-15.64,2.07
		c-5.75,1.45-11.35,3.2-16.02,7.19c-6.19,5.29-10.66,11.52-12.43,19.67c-1.46,6.76-2.18,13.58-2.18,20.45
		c-0.04,205.14-0.03,410.27-0.03,615.41c0,0.56-0.01,1.12,0,1.68c0.09,6.21,3.18,9.95,9.2,11.46c2.06,0.52,3.55,0.14,5.19-1.27
		c18.29-15.64,36.65-31.19,55-46.77c42.17-35.81,84.33-71.63,126.53-107.41c3.65-3.1,7.46-6.03,11.35-8.83
		c4.97-3.58,10.42-6.23,16.49-7.41c4.48-0.87,9.02-1.22,13.58-1.23c11.59-0.01,23.18-0.04,34.77,0.02c3.19,0.02,6.38,0.26,9.56,0.46
		c7.43,0.47,14.27,2.83,20.34,7.09c4.77,3.34,9.43,6.89,13.86,10.66c51.34,43.67,102.62,87.39,153.92,131.11
		c8.03,6.84,16.06,13.7,24.11,20.52c0.64,0.54,1.46,1.15,2.22,1.2c5.07,0.31,10.01-3.39,11.15-8.38c0.34-1.46,0.37-3.01,0.37-4.52
		C653.97,608.32,653.97,505.23,653.97,402.14z"/>
</g>
</svg>
