<?xml version="1.0" encoding="utf-8"?>
<!-- Generator: Adobe Illustrator 27.3.1, SVG Export Plug-In . SVG Version: 6.00 Build 0)  -->
<svg version="1.1" id="Capa_1" xmlns="http://www.w3.org/2000/svg" xmlns:xlink="http://www.w3.org/1999/xlink" x="0px" y="0px"
	 viewBox="0 0 800 800" style="enable-background:new 0 0 800 800;" xml:space="preserve">
<style type="text/css">
	.st0{fill:#CC8375;}
</style>
<path class="st0" d="M633.3,0H169.2c-37.8,0-71,31.1-71,67.9v686.6c0,12.3,3.4,22.6,9,30.5c6.6,9.5,17.3,14.9,28.7,14.9
	c10.8,0,22.3-4.8,32.9-13.9l207.7-176.3c6.4-5.5,15.6-8.6,25.2-8.6c9.6,0,18.8,3.1,25.2,8.6l207,176.3c10.6,9.1,21.3,13.9,32.1,13.9
	c18.2,0,36-14,36-45.4V67.9C701.8,31.1,671.1,0,633.3,0z"/>
</svg>
