<?xml version="1.0" encoding="UTF-8"?>
<svg id="Capa_1" data-name="Capa 1" xmlns="http://www.w3.org/2000/svg" viewBox="0 0 395.55 799.84">
  <defs>
    <style>
      .cls-1 {
        fill: #008300;
        stroke-width: 0px;
      }
    </style>
  </defs>
  <path class="cls-1" d="M380,277.68c-1.68-20.19-10.94-37.85-26.08-49.63l27.76-136.27c8.41-41.22-17.66-80.75-58.04-90.01-31.12-6.73-63.93,5.89-81.59,33.65L107.46,244.88c-27.76,42.9-39.54,94.21-32.81,144.68l17.66,142.16-84.12,84.12c-10.94,10.94-10.94,28.6,0,39.54l136.27,136.27c10.94,10.94,28.6,10.94,39.54,0l97.58-98.42,88.32-118.61c18.51-25.24,27.76-56.36,25.24-87.48l-15.14-209.45ZM163.82,731.92l-96.73-96.73,53.84-53.84,96.73,96.73-53.84,53.84ZM324.48,540.97l-69.82,95.05-106.83-106.83-18.51-146.36c-5.05-37.85,4.21-75.71,24.39-108.51l133.75-209.45c5.05-7.57,14.3-10.94,22.71-9.25,10.94,2.52,18.51,13.46,15.98,25.24l-26.92,132.91c-27.76,4.21-50.47,24.39-56.36,52.99l-11.78,51.31c-5.89,24.39-7.57,49.63-6.73,74.86l2.52,59.72c.84,15.14,13.46,26.92,29.44,26.08,15.14-.84,26.92-13.46,26.08-29.44l-2.52-59.72c-.84-20.19.84-40.38,5.05-59.72l11.78-51.31c1.68-6.73,7.57-10.94,14.3-10.94,6.73.84,12.62,5.89,12.62,12.62l14.3,209.45c2.52,19.35-2.52,37.01-13.46,51.31Z"/>
</svg>