<?xml version="1.0" encoding="utf-8"?>
<!-- Generator: Adobe Illustrator 27.3.1, SVG Export Plug-In . SVG Version: 6.00 Build 0)  -->
<svg version="1.1" id="Réteg_1" xmlns="http://www.w3.org/2000/svg" xmlns:xlink="http://www.w3.org/1999/xlink" x="0px" y="0px"
	 viewBox="0 0 512.5 435" style="enable-background:new 0 0 512.5 435;" xml:space="preserve">
<style type="text/css">
	.st0{fill:#982525;}
</style>
<path class="st0" d="M255.7,434.8c-16.5,0.4-33.8-0.1-50.9-2c-29.1-3.2-57.7-8.8-84.2-21.9c-8.3-4.1-15.7-9.7-22.8-15.8
	c-7.9-6.7-8.5-14.7-6.9-23.8c0.6-3.1,0.3-6.3,0.4-9.5c0.6-22.4,1.5-44.6,6.9-66.5c6.9-28.4,24.4-47.3,50.9-58.3
	c17.7-7.3,36.2-11.5,54.9-15.2c2.7-0.5,4.7,0,7.1,1.9c11.8,9.6,25.2,14.6,40.6,15.2c16.4,0.6,32.1-1.5,45.1-11.7
	c7.1-5.6,13.3-5.2,20.9-3.5c19,4.1,37.6,9.1,55,18.1c23.6,12.1,37,31.5,42.6,56.9c3.1,14.1,4.2,28.4,5.3,42.8
	c1,13.1-0.3,26.3,1.7,39.3c0.7,4.5-1.4,7.9-4.4,11.1c-10.6,11.5-23.8,19.2-38.2,24.7c-21.3,8.2-43.4,12.7-66.1,15.5
	C294.6,434.2,275.6,435,255.7,434.8L255.7,434.8z"/>
<path class="st0" d="M343.2,102.1c1.5,25.4-4.5,49.3-18.7,70.7c-17.5,26.4-41.8,41.9-74.4,39.7c-22.2-1.5-40.4-12.5-54.7-29.4
	c-13.5-16-21.7-34.6-24.9-55.1c-2.5-15.6-1.8-31.4-0.6-47.2c0.8-10.5,2.7-20.6,5.9-30.6C182.9,27.7,197.2,12,220,5.4
	c25.6-7.4,51.5-7.5,76.8,1.5c20.3,7.2,33,22.1,39.6,42.5C342,66.5,343.8,84,343.2,102.1L343.2,102.1z"/>
<path class="st0" d="M346.4,184.1c28.7-52.1,26.3-105.5,6.2-160.2c20.9-3.4,41.6-4.5,61.6,4c14.2,6.1,23.2,17.2,28.3,31.7
	c4.7,13.3,5.4,27.2,6.1,41.1c0.7,13.8-0.8,27.1-5.2,40.1c-6.6,19.3-18.2,34.8-36,45.4C389.3,196.9,361.4,196.1,346.4,184.1
	L346.4,184.1z"/>
<path class="st0" d="M166.3,184.3c-8.4,5.7-17.6,8.9-27.5,9.3c-29.8,1.1-49.8-14.3-63.7-39.1C68,141.8,64.6,127.9,64,113.2
	c-0.7-17.3,0.1-34.4,5.2-51.1c7.4-23.9,24.1-36.4,48.6-39.4c14.1-1.7,28.1-1.9,42,1.5C139.8,78.5,137.4,131.9,166.3,184.3
	L166.3,184.3z"/>
<path class="st0" d="M136.4,216.1c-12.2,5.7-22.5,12.1-31.4,20.4c-16.9,15.7-25.8,35.9-30.8,58c-2.9,13-4,26.1-5.2,39.3
	c-1,11.3,0.2,22.6-2.3,34.2c-8.7-1.3-17.4-3.5-25.9-6.6c-12.1-4.4-23.6-9.7-33.4-18.5c-4.5-4-7.9-8.2-7.3-14.8
	c1.5-20.3,1.1-40.7,4.8-60.9c5.2-28.1,21.1-46,47.6-55.5c13.3-4.8,27-7.9,40.8-10.6c1.2-0.2,2.2-0.2,3.3,0.5
	C115.2,213.9,116.8,214.5,136.4,216.1L136.4,216.1z"/>
<path class="st0" d="M376,216c12.1-0.7,23.6-1.4,31.9-8.5c8-6.9,15.4-5.8,24-3.7c15.8,3.8,31.5,8,45.6,16.5
	c17.4,10.4,25.8,26.6,29.8,45.7c3,14.5,4.4,29.2,4.1,44c-0.1,6.5,1,12.9,1.2,19.4c0.2,5.5-2.3,9.3-5.9,12.5
	c-14.3,12.7-31.4,19.6-49.7,24c-3.7,0.9-7.2,2.5-11.4,2.3c-0.5-7.2-1-14.4-1.4-21.7c-1-23.2-3.1-46.2-10.7-68.5
	c-9-26.3-25.9-45.6-50.6-58.2C381,218.7,379.1,217.7,376,216L376,216z"/>
</svg>
