<?xml version="1.0" encoding="UTF-8"?>
<svg id="Réteg_1" data-name="Réteg 1" xmlns="http://www.w3.org/2000/svg" viewBox="0 0 161.39 160.19">
  <defs>
    <style>
      .cls-1 {
        fill: #89070c;
      }
    </style>
  </defs>
  <path class="cls-1" d="M80.78,73.32c3.86,0,6.62,2.8,6.64,6.74,.02,4.09-2.76,6.81-6.93,6.81-3.75,0-6.5-2.86-6.52-6.74-.02-4.04,2.75-6.81,6.81-6.81Z"/>
  <path class="cls-1" d="M25.27,31.74c-3.57,.31-6.83-3.05-6.76-6.63,.07-3.78,2.97-6.8,6.68-6.83,3.93-.03,6.96,3.35,6.83,7.04-.11,3.29-3.06,6.68-6.75,6.42Z"/>
  <path class="cls-1" d="M136.12,31.74c-3.51,.29-6.93-3.01-6.74-6.9,.18-3.65,3.04-6.56,6.81-6.56,3.7,0,6.61,3.04,6.68,6.82,.07,3.59-3.19,6.94-6.75,6.63Z"/>
  <path class="cls-1" d="M25.28,128.45c3.55-.28,6.88,3.06,6.72,6.79-.16,3.76-3,6.67-6.82,6.66-3.7-.01-6.6-3.05-6.67-6.83-.06-3.57,3.18-6.93,6.77-6.62Z"/>
  <path class="cls-1" d="M129.42,135.07c-.25-3.46,3.04-6.84,6.86-6.66,3.74,.17,6.58,2.91,6.58,6.7,0,3.77-2.98,6.78-6.7,6.79-3.85,0-6.74-2.93-6.74-6.83Z"/>
  <path class="cls-1" d="M6.77,.03c3.42-.34,6.78,2.85,6.77,6.65-.01,3.81-2.93,6.76-6.68,6.81C3.04,13.54-.16,10.19,0,6.33,.13,3.36,3.15-.36,6.77,.03Z"/>
  <path class="cls-1" d="M154.74,.03c3.95,0,6.57,2.81,6.57,7.02,0,3.55-3.05,6.44-6.77,6.43-3.75-.01-6.67-3-6.68-6.8-.01-3.74,3.29-7.03,6.88-6.65Z"/>
  <path class="cls-1" d="M55.58,61.68c0-3.74,2.98-6.74,6.71-6.74,3.76,0,6.76,3.04,6.72,6.88-.05,4.06-2.97,6.7-6.73,6.71-4.02,.01-6.86-3.11-6.7-6.85Z"/>
  <path class="cls-1" d="M105.81,61.85c.07,3.7-2.78,6.73-6.74,6.68-3.86-.05-6.66-2.78-6.69-6.76-.03-3.82,3.01-6.89,6.77-6.82,3.88,.07,6.94,3.29,6.66,6.89Z"/>
  <path class="cls-1" d="M69.01,98.48c0,3.73-3.02,6.79-6.72,6.76-3.77-.04-6.95-3.15-6.75-7.08,.18-3.44,2.66-6.49,6.72-6.49,3.77,0,6.72,2.69,6.74,6.82Z"/>
  <path class="cls-1" d="M105.81,98.51c0,3.74-2.98,6.74-6.71,6.74-3.76,0-6.76-3.04-6.71-6.88,.05-4.06,2.97-6.7,6.73-6.71,4.02,0,6.86,3.11,6.69,6.85Z"/>
  <path class="cls-1" d="M6.74,160.16c-4.06,0-6.67-2.76-6.67-7.05,0-3.54,3.06-6.43,6.79-6.4,3.75,.02,6.66,3.01,6.66,6.83,0,3.78-3.34,6.98-6.79,6.63Z"/>
  <path class="cls-1" d="M154.62,160.16c-3.41,.34-6.78-2.85-6.76-6.65,.01-3.81,2.93-6.76,6.68-6.81,3.81-.05,7.01,3.3,6.84,7.16-.13,2.97-3.14,6.7-6.76,6.3Z"/>
  <path class="cls-1" d="M43.82,36.71c3.19-.32,6.76,2.51,6.72,6.68-.03,3.94-2.86,6.77-6.81,6.75-3.88-.01-6.73-2.88-6.74-6.73,0-4.28,3.51-7.02,6.83-6.7Z"/>
  <path class="cls-1" d="M117.59,123.47c-3.36,.32-6.85-2.69-6.74-6.78,.11-4.02,2.99-6.66,6.79-6.65,3.84,0,6.73,2.82,6.75,6.71,.03,4.25-3.47,7.03-6.81,6.72Z"/>
  <path class="cls-1" d="M117.59,50.15c-3.85-.02-6.67-2.75-6.74-6.7-.08-4.05,3.37-6.91,6.91-6.78,3.6,.13,6.7,2.83,6.63,6.83-.07,3.99-3.04,6.69-6.8,6.66Z"/>
  <path class="cls-1" d="M43.87,123.47c-3.83,.23-6.94-2.78-6.88-6.77,.06-3.98,3.03-6.69,6.8-6.66,3.84,.03,6.67,2.74,6.74,6.7,.08,4.15-3.47,7.02-6.67,6.73Z"/>
</svg>