<?xml version="1.0" encoding="UTF-8"?>
<svg id="Réteg_1" data-name="Réteg 1" xmlns="http://www.w3.org/2000/svg" viewBox="0 0 286.36 152.24">
  <defs>
    <style>
      .cls-1 {
        fill: #424242;
      }
    </style>
  </defs>
  <path class="cls-1" d="M252.75,0c.73,3.54,1.71,7,3.38,10.23,5.42,10.44,13.91,16.84,25.42,19.28,1.52,.32,3.08,.36,4.81,.72-47.79,40.72-95.45,81.33-143.19,122.01-2.24-1.91-4.49-3.81-6.73-5.71-10.7-9.11-21.4-18.23-32.09-27.34-10.57-9.01-21.14-18.03-31.72-27.04-11.64-9.92-23.28-19.83-34.92-29.75-11.12-9.48-22.24-18.97-33.37-28.43-1.42-1.21-2.73-2.55-4.34-3.53v-.24c1.56-.3,3.15-.35,4.71-.68,11.87-2.51,20.5-9.17,25.84-20.05,1.48-3,2.32-6.21,3.01-9.46h.24c2.22,2.51,4.77,4.69,7.19,6.99,31.53,30.02,63.08,60.03,94.62,90.03,2.48,2.36,4.97,4.71,7.5,7.1,.36-.32,.67-.57,.95-.84,8.89-8.45,17.78-16.89,26.67-25.34,24.83-23.62,49.67-47.23,74.48-70.87,2.45-2.33,5.03-4.54,7.28-7.08h.24Z"/>
</svg>