<?xml version="1.0" encoding="utf-8"?>
<!-- Generator: Adobe Illustrator 27.3.1, SVG Export Plug-In . SVG Version: 6.00 Build 0)  -->
<svg version="1.1" id="Réteg_1" xmlns="http://www.w3.org/2000/svg" xmlns:xlink="http://www.w3.org/1999/xlink" x="0px" y="0px"
	 viewBox="0 0 24 24" style="enable-background:new 0 0 24 24;" xml:space="preserve">
<style type="text/css">
	.st0{fill:#982525;}
</style>
<path class="st0" d="M24,23h-2.78l-1.07-3h-4.88l-1.08,3h-2.7l4.94-13h2.6L24,23z M19.43,17.93l-1.7-4.9l-1.71,4.9H19.43z
	 M10.18,7.13c0.13-0.49,0.2-0.85,0.27-1.21l-2.2-0.43c-0.04,0.18-0.1,0.53-0.22,1C7.28,6.38,6.49,6.36,5.69,6.45
	c0.02-0.54,0.05-1.06,0.1-1.57h2.46V2.79H6.09c0.11-0.53,0.2-0.85,0.29-1.15L4.23,1C4.07,1.53,3.94,2.04,3.81,2.79H1.36v2.08h2.18
	c-0.06,0.67-0.09,1.37-0.1,2.08C1.02,7.84,0,9.53,0,11.06c0,1.81,1.43,3.4,3.68,3.19c2.8-0.26,4.67-2.37,5.77-4.97
	c1.13,0.65,1.61,1.75,1.18,2.77c-0.4,0.94-1.56,1.84-3.78,1.79v2.24c2.47,0.04,4.9-0.9,5.85-3.17C13.63,10.71,12.57,8.28,10.18,7.13
	z M7.28,8.66c-0.35,0.77-0.81,1.54-1.39,2.15C5.8,10.16,5.74,9.45,5.7,8.7C6.24,8.63,6.78,8.62,7.28,8.66z M3.49,9.38
	c0.06,0.95,0.17,1.82,0.32,2.6C1.82,12.34,1.74,10.38,3.49,9.38z"/>
</svg>
