<?xml version="1.0" encoding="utf-8"?>
<!-- Generator: Adobe Illustrator 27.3.1, SVG Export Plug-In . SVG Version: 6.00 Build 0)  -->
<svg version="1.1" id="Réteg_1" xmlns="http://www.w3.org/2000/svg" xmlns:xlink="http://www.w3.org/1999/xlink" x="0px" y="0px"
	 viewBox="0 0 295.33 257.47" style="enable-background:new 0 0 295.33 257.47;" xml:space="preserve">
<style type="text/css">
	.st0{fill:#982525;}
	.st1{fill:#CC8375;}
</style>
<g>
	<path class="st0" d="M68.8,224.32c0.01,5.68,0.14,11.36-0.01,17.03c-0.1,3.9-4.02,8.55-8.75,8.47
		c-14.03-0.24-28.07-0.14-42.11-0.05c-3.44,0.02-5.43-1.83-7.17-4.38c-1.02-1.5-1.23-3.12-1.23-4.9
		c0.03-66.02,0.03-132.04,0.03-198.06c0-0.48,0.02-0.96,0.03-1.44c14.95-0.01,29.91-0.01,44.86-0.02c1.77,0,2.86-1.1,2.86-2.88
		c0-1.78-1.09-2.88-2.86-2.88C39.5,35.2,24.55,35.19,9.59,35.19c-0.01-6.08-0.17-12.16,0.03-18.23c0.08-2.53,3.65-7.22,7.38-7.21
		C31.8,9.79,46.6,9.76,61.39,9.78c2.37,0,3.91,1.51,5.29,3.22c1.04,1.3,1.84,2.7,2.02,4.41c0.07,0.72,0.46,0.89,1.23,0.65
		c5.19-1.61,10.39-3.17,15.59-4.73c4.27-1.28,8.55-2.53,12.82-3.81c0.59-0.18,1.15-0.48,1.73-0.68c4.18-1.42,6.18-0.77,8.95,2.65
		c1.9,2.35,2.3,5.24,3.13,7.98c1.12,3.71,2.65,7.31,3.26,11.17c-0.96,0.34-1.92,0.71-2.89,1.01c-10.68,3.28-21.36,6.55-32.05,9.81
		c-0.43,0.13-0.67,0.4-0.81,0.79c-0.54,1.52,0.04,3.52,1.34,4.48c0.37,0.28,0.72,0.44,1.29,0.27c10.03-3.11,20.06-6.2,30.11-9.22
		c1.66-0.5,3.25-1.32,5.04-1.32c1.38,4.52,2.77,9.03,4.15,13.55c2.04,6.65,4.08,13.29,6.12,19.93c1.03,3.37,2.09,6.73,3.09,10.12
		c0.23,0.78,0.44,0.8,1.05,0.32c5.19-4.05,10.36-8.13,15.63-12.08c4.08-3.05,8.09-6.18,12.16-9.23c1.54-1.15,3.57-0.75,5.35-0.13
		c4.04,1.39,5.66,5.27,8.16,8.21c2.38,2.8,4.43,5.87,6.65,8.8c3.25,4.3,6.41,8.67,9.83,12.83c3.51,4.27,6.76,8.74,10.16,13.09
		c5.26,6.73,10.4,13.55,15.6,20.34c3.24,4.23,6.5,8.46,9.73,12.7c3.69,4.83,7.35,9.67,11.04,14.49
		c9.78,12.76,19.57,25.52,29.35,38.28c2.62,3.41,5.23,6.82,7.84,10.24c0.16,0.21,0.26,0.47,0.39,0.71c-0.54-0.02-0.86,0.4-1.22,0.68
		c-8.85,6.74-17.67,13.51-26.55,20.21c-0.84,0.63-1.15,1.25-1,2.18c0.18,1.11,0.85,1.91,1.87,2.28c0.47,0.17,1.04,0.31,1.64-0.17
		c3.22-2.57,6.43-5.15,9.78-7.55c6.27-4.49,12.27-9.32,18.45-13.92c2.08,2.68,4.2,5.34,6.24,8.06c1.43,1.9,3.19,3.6,3.83,6
		c0.95,3.57,0.13,5.49-2.73,7.85c-3.57,2.95-7.32,5.66-10.97,8.5c-4.26,3.31-8.57,6.57-12.94,9.74c-0.57,0.41-0.96,0.97-1.61,1.33
		c-4.59,2.54-7.92,1.88-11.1-2.27c-4.22-5.5-8.5-10.97-12.7-16.48c-4.51-5.91-8.94-11.88-13.46-17.79
		c-8.51-11.12-17.07-22.21-25.59-33.32c-6.31-8.23-12.6-16.48-18.91-24.72c-8.09-10.56-16.18-21.12-24.29-31.67
		c-2.81-3.66-5.65-7.28-8.46-10.94c-0.31-0.4-0.5-0.88-0.74-1.33c0.11-0.04,0.24-0.06,0.33-0.13c9.43-7.19,18.86-14.39,28.3-21.57
		c0.43-0.33,0.59-0.71,0.59-1.23c-0.02-1.28-0.61-2.19-1.73-2.79c-1.05-0.56-1.8-0.02-2.59,0.59c-7.04,5.39-14.11,10.74-21.13,16.15
		c-2.27,1.75-4.69,3.3-6.73,5.33c-1.32-1.74-2.64-3.47-3.96-5.2c-0.14-0.18-0.35-0.29-0.52-0.44c0.04,0.23,0.05,0.46,0.12,0.68
		c2.05,6.69,4.09,13.38,6.15,20.06c3.31,10.77,6.63,21.53,9.94,32.3c2.55,8.28,5.11,16.56,7.64,24.84
		c2.69,8.82,5.32,17.65,8.02,26.46c2.05,6.7,4.24,13.35,6.23,20.06c0.86,2.9,2.1,5.7,2.54,8.72c0.41,2.83-0.9,7.73-3.66,8.52
		c-2.42,0.7-4.82,1.43-7.22,2.17c-3.4,1.05-6.78,2.14-10.18,3.17c-4.3,1.31-8.61,2.57-12.92,3.86c-1.39,0.41-2.76,1.04-4.18,1.18
		c-2.62,0.26-4.25-1.6-5.9-3.27c-1.4-1.42-1.85-3.3-2.4-5.13c-0.76-2.54-1.56-5.06-2.33-7.59c-0.66-2.17-1.31-4.35-1.96-6.52
		c0.52-0.2,1.03-0.43,1.56-0.59c10.75-3.29,21.49-6.6,32.26-9.82c1.17-0.35,1.52-1.02,1.63-2.02c0.24-2.08-1.52-4.09-3.13-3.6
		c-9.29,2.83-18.57,5.69-27.87,8.48c-2.08,0.62-4.08,1.53-6.28,1.73c-1.58-5.09-3.21-10.17-4.77-15.27
		c-1.43-4.66-2.86-9.33-4.24-14.01c-1.41-4.79-2.91-9.55-4.38-14.32c-1.88-6.1-3.75-12.2-5.65-18.29
		c-1.74-5.57-3.63-11.1-5.24-16.71c-1.31-4.55-2.72-9.07-4.21-13.57c-1.37-4.15-2.46-8.39-3.75-12.56
		c-3.72-12.12-7.49-24.22-11.22-36.34c-1.8-5.86-3.55-11.73-5.34-17.59c-1.9-6.23-3.82-12.45-5.74-18.67
		c-0.11-0.35-0.06-0.78-0.47-0.98c-0.02,0.35-0.07,0.69-0.07,1.04c0,50.74,0,101.48,0,152.22c0,7.96-0.02,15.91-0.03,23.87
		c-14.71,0.01-29.42,0.01-44.14,0.02c-1.87,0-2.83,0.95-2.86,2.82c-0.03,1.93,0.95,2.94,2.86,2.94
		C39.37,224.3,54.08,224.31,68.8,224.32z"/>
	<path class="st1" d="M9.59,35.19c14.95,0.01,29.91,0.01,44.86,0.02c1.77,0,2.86,1.1,2.86,2.88c0,1.78-1.09,2.88-2.86,2.88
		c-14.95,0.01-29.91,0.01-44.86,0.02C9.59,39.05,9.59,37.12,9.59,35.19z"/>
	<path class="st1" d="M68.8,224.32c-14.71-0.01-29.42-0.01-44.14-0.02c-1.91,0-2.89-1.01-2.86-2.94c0.03-1.87,0.99-2.82,2.86-2.82
		c14.71-0.01,29.42-0.01,44.14-0.02C68.8,220.45,68.8,222.38,68.8,224.32z"/>
	<path class="st1" d="M117.45,36.45c-1.8,0-3.39,0.82-5.04,1.32c-10.05,3.03-20.09,6.11-30.11,9.22C81.72,47.17,81.38,47,81,46.72
		c-1.3-0.97-1.88-2.97-1.34-4.48c0.14-0.4,0.39-0.66,0.81-0.79c10.68-3.26,21.37-6.53,32.05-9.81c0.98-0.3,1.93-0.67,2.89-1.01
		C116.62,32.38,116.74,34.52,117.45,36.45z"/>
	<path class="st1" d="M123.91,219.68c2.2-0.2,4.2-1.11,6.28-1.73c9.3-2.78,18.58-5.64,27.87-8.48c1.61-0.49,3.37,1.51,3.13,3.6
		c-0.11,1-0.46,1.68-1.63,2.02c-10.77,3.22-21.51,6.53-32.26,9.82c-0.53,0.16-1.04,0.39-1.56,0.59
		C125.13,223.57,124.52,221.62,123.91,219.68z"/>
	<path class="st1" d="M140.34,101.65c2.04-2.03,4.47-3.59,6.73-5.33c7.02-5.41,14.09-10.76,21.13-16.15
		c0.79-0.61,1.54-1.15,2.59-0.59c1.12,0.6,1.71,1.51,1.73,2.79c0.01,0.52-0.16,0.9-0.59,1.23c-9.44,7.19-18.87,14.38-28.3,21.57
		c-0.09,0.07-0.22,0.09-0.33,0.13C142.26,104.13,141.17,103,140.34,101.65z"/>
	<path class="st1" d="M276.72,202.34c-6.18,4.6-12.18,9.44-18.45,13.92c-3.35,2.4-6.56,4.98-9.78,7.55
		c-0.6,0.48-1.18,0.34-1.64,0.17c-1.01-0.37-1.69-1.17-1.87-2.28c-0.15-0.93,0.16-1.55,1-2.18c8.88-6.7,17.7-13.47,26.55-20.21
		c0.36-0.28,0.68-0.7,1.22-0.68C274.99,199.66,275.74,201.09,276.72,202.34z"/>
</g>
</svg>
