<?xml version="1.0" encoding="UTF-8"?>
<svg id="Layer_1" data-name="Layer 1" xmlns="http://www.w3.org/2000/svg" viewBox="0 0 469 470">
  <defs>
    <style>
      .cls-1 {
        fill: #424242;
        stroke-width: 0px;
      }
    </style>
  </defs>
  <path class="cls-1" d="M210,0c1.67,1.23,3.58,1.68,5.61,1.88,59.71,5.79,105.87,50.98,113.53,111.09,1.53,12.04,1.83,23.83-4.06,35.09-8.45,16.16-26.92,24.89-45.54,21.13-18.27-3.69-31.4-18.44-32.56-36.88-.84-13.34-3.96-25.61-14.25-35.14-8.44-7.82-18.21-12.16-29.76-12.17-21.49-.02-42.99-.04-64.48.08-29.01.16-53.31,24.26-53.36,53.2-.11,64.32-.09,128.63,0,192.95.04,29.13,24.44,53.51,53.55,53.68,21.33.12,42.66.08,63.98.03,23.56-.05,42.61-18.6,43.35-42.11.68-21.52,13.73-37.87,33.7-42.24,25.76-5.63,50.16,14.04,50.3,40.37.18,33.31-10.8,62.32-33.27,86.91-21.21,23.21-47.63,36.33-78.74,40.18-1.88.23-3.6.6-5,1.95h-85c-1.09-1.5-2.67-1.75-4.39-1.93-3.63-.37-7.29-.71-10.86-1.43-60.7-12.35-103.67-59.16-110.88-120.75-.18-1.56-.49-2.95-1.86-3.89v-212c2.84-2.86,1.69-6.65,2.21-10C7.64,85.21,23.07,55.92,50.21,33.23,71.88,15.11,96.86,4.52,125.09,1.91c1.86-.17,3.68-.22,4.91-1.91h80Z"/>
  <path class="cls-1" d="M469,239c-13.25,12.43-28.07,22.93-42.09,34.42-16.09,13.18-32.48,26-48.62,39.11-7.51,6.1-15.53,8.23-24.56,4.03-8.77-4.07-10.79-12.15-11.56-20.7-.37-4.13-.3-8.33-.06-12.48.27-4.74-1.63-6.49-6.4-6.46-20.99.16-41.98.04-62.96.05-40.98.02-81.95.09-122.93.08-18.47,0-34.13-11.34-40.17-28.93-5.57-16.22.39-35.86,14.45-46.59,7.94-6.06,17.16-8.59,27.13-8.58,60.63.04,121.27.05,181.9.07,8.97,0,8.92,0,9-8.77.04-4.82.16-9.62.54-14.45,1.27-16.41,20.89-24.23,34.41-13.23,22.59,18.38,45.26,36.67,68,54.87,8.05,6.44,16.3,12.64,23.96,19.57v8Z"/>
</svg>