<?xml version="1.0" encoding="UTF-8"?>
<svg id="Réteg_1" data-name="Réteg 1" xmlns="http://www.w3.org/2000/svg" viewBox="0 0 751.88 751.94">
  <defs>
    <style>
      .cls-1 {
        fill: #424242;
      }
    </style>
  </defs>
  <path class="cls-1" d="M0,408.06C.26,273.7,35.05,186.9,104.62,114.86,185.22,31.41,284.69-5.67,400.21,.7c91.62,5.06,170.44,40.57,236.29,104.05,77.71,74.91,116.32,167.69,115.37,274.84-.9,101.42-37.99,189.85-110.35,261.96-76.76,76.5-170.7,113.43-278.21,110.2-97.41-2.92-182.99-39.29-252.37-108.77C37.09,569.02-.51,479.35,0,408.06Zm626.49,60.32c0-16.95-.19-29.78,.09-42.6,.12-5.36-2.24-8.65-6.9-10.12-14.83-4.67-26.55-14.35-38.27-23.83-15.14-12.26-28.19-26.68-40.18-42.03-11.37-14.56-22.77-29.09-33.34-44.26-9.99-14.33-21.4-27.44-36.13-37.04-16.53-10.77-34.34-17.45-54.44-11.85-8.27,2.3-17.28,4.18-22,12.63-11.85,21.26-20.59,43.83-27.81,67.02-.9,2.88-2.34,6.57-.24,8.45,2.25,2.02,5.52-.7,8.11-1.79,18.59-7.87,36.49-5.97,52.98,4.97,24.84,16.47,44.6,38.23,61.3,62.73,20.16,29.56,41.82,57.87,67.54,82.86,6.42,6.24,13.15,12.19,19.98,17.98,12.11,10.27,25.03,19.24,40.66,23.44,4.98,1.34,7.62-.56,7.61-5.77-.03-21.64,1.9-43.25,1.03-60.78h.01Zm2-165.76c0-8.16-.02-16.33,.01-24.49,.01-3.31-.86-6.49-3.53-8.33-14.12-9.71-26.41-21.43-37.84-34.09-5.78-6.41-12.34-12.37-16.9-19.58-10.91-17.23-25.72-29.54-44.27-37.24-12.97-5.38-26.55-8.34-40.73-4.61-30.54,8.03-49.98,29.52-66.39,54.7-1.1,1.68-2.22,3.99-1.04,5.55,1.36,1.8,4.02,1.92,6.34,1.57,27.43-4.1,49.54,7.25,69.67,24.13,16.67,13.99,28.65,32.07,41.62,49.16,15.74,20.73,31.84,41.03,51.18,58.54,9.68,8.76,19.9,16.89,31.85,22.42,6.27,2.9,9.03,1.04,9-5.84-.13-27.31,.09-54.61,1.03-81.91v.02ZM232.34,205.45c-3.46-.17-6.59,.92-9.48,2.5-12.36,6.77-19.39,18.08-25,30.38-1.62,3.55,.36,5.81,4.36,6.22,5.84,.6,10.97,3.11,15.58,6.6,10.13,7.68,18.42,17.13,25.15,27.84,15.75,25.06,29.78,51.08,43.49,77.3,13.64,26.09,26.56,52.53,39.57,78.93,14.53,29.47,28.6,59.25,48.87,85.39,7.27,9.37,14.77,18.78,25.76,24.34,6.4,3.24,10.57,2.78,14.6-2.95,6.72-9.55,12.98-19.43,19.15-29.35,3.67-5.91,3.09-8.23-2.81-12.35-19.37-13.54-33.32-31.98-46.13-51.32-18.83-28.43-34.84-58.47-50.05-88.98-13.54-27.17-27.38-54.22-42.48-80.58-11.49-20.06-21.42-41.09-35.82-59.38-6.29-7.99-14.22-13.65-24.77-14.61v.02Zm-47.48,114.07c1.67,0,3.33-.05,5,.02,.63,.03,1.24,.34,1.87,.5,14.08,3.38,23.35,13.26,31.76,24.01,16.52,21.09,29.38,44.49,41.96,68.01,16.73,31.27,30.46,63.93,44.17,96.61,8.2,19.56,17.07,38.86,31.35,55.08,14.05,15.96,33.4,18.8,50.28,6.95,4.6-3.23,4.79-6.53,.62-10.44-5.45-5.11-11.39-9.71-16.33-15.38-18.49-21.21-32.36-45.44-44.89-70.4-15.24-30.36-29.46-61.23-44.66-91.6-14.41-28.79-29.47-57.28-45.82-85.03-7.55-12.82-16-25.15-28.8-33.48-10.33-6.73-21.98-4.39-26.49,5.9-6.37,14.53-10.33,29.91-13.47,45.46-.89,4.42,1.64,5.52,5.09,4.59,2.81-.75,5.55-.79,8.36-.82v.02Zm209.71,38.96c-8.85-.04-16.65,3.25-23.93,7.92-10.21,6.56-11.41,9.58-5.4,20.05,16.48,28.7,32.73,57.6,55.26,82.23,6.05,6.61,12.9,12.19,21.24,15.89,6.12,2.72,11.36,1.97,16.41-2.27,9.94-8.33,20.75-15.07,33.93-16.79,12.38-1.62,12.49-1.56,5.43-11.86-18.84-27.49-36.42-55.93-62.2-77.97-11.89-10.17-24.65-17.37-40.75-17.21h.01Zm-205.74,101.16c1.82,.19,4.17-1.35,5.74-4.21,2.12-3.88,4.03-7.89,6.33-11.66,3.41-5.6,2.35-10.2-2.33-14.49-6.77-6.19-11.69-13.76-16.02-21.79-11-20.42-18.57-42.35-28.01-63.46-4.27-9.56-6.99-19.78-12.14-28.96-5.13-9.13-10.99-17.7-20.8-22.45-5.82-2.82-8.82-.81-8.97,5.56-.27,11.65,.25,23.28,1.02,34.9,.2,2.99,1.57,5.2,4.42,6.54,8.62,4.03,14.08,11.07,18.72,19.14,7.24,12.59,9.76,26.85,14.75,40.23,6.8,18.21,12.9,36.72,24.39,52.71,2.75,3.83,5.79,7.8,12.9,7.94h0Zm-3.65-124.12h-3.9c-11.79,.09-17.56,8.52-13.15,19.3,2.43,5.93,4.82,11.89,7.57,17.68,6.58,13.84,12.76,27.9,22.63,39.91,6.21,7.57,14.08,9.82,19.96,4.64,6.57-5.79,13.57-10.43,22.45-11.25,5.75-.53,5.41-3.62,3.72-7.52-.65-1.5-1.49-2.93-2.34-4.34-8.79-14.7-17.42-29.56-28.56-42.63-7.47-8.77-15.81-16.71-28.38-15.79h0Zm-2.57,142.43c.54-2.02-1.08-3.16-2.4-4.36-8.11-7.35-13.2-16.68-17.65-26.49-9.13-20.12-15.12-41.35-22.34-62.15-3.49-10.05-8.66-19.29-16.47-26.76-1.85-1.77-4.12-4.06-6.7-3.2-2.98,1-2.84,4.49-3.33,7.18-.23,1.29-.08,2.66-.01,3.98,.29,5.97,1.04,11.95,.81,17.9-.32,8.67,1.02,16.01,7.26,23.09,10.35,11.75,13.79,27.19,18.8,41.65,4.16,12,7.95,24.19,15.21,34.74,3.48,5.07,7.73,10.3,15.2,8.86,4.47-.86,11.53-9.9,11.62-14.46v.02Z"/>
</svg>