<?xml version="1.0" encoding="utf-8"?>
<!-- Generator: Adobe Illustrator 27.3.1, SVG Export Plug-In . SVG Version: 6.00 Build 0)  -->
<svg version="1.1" id="Réteg_1" xmlns="http://www.w3.org/2000/svg" xmlns:xlink="http://www.w3.org/1999/xlink" x="0px" y="0px"
	 viewBox="0 0 120.87 33.9" style="enable-background:new 0 0 120.87 33.9;" xml:space="preserve">
<style type="text/css">
	.st0{fill:#982626;}
	.st1{fill:#982727;}
</style>
<path class="st0" d="M73.3,23.6c-1.9,0-3.8,0.1-5.8,0c-1.2,0-1.1,0.4-0.6,1.1c1,1.8,3.1,2.9,5.5,2.6c1.4-0.1,2.7-0.4,3.9-1.1
	c0.6-0.3,0.9-0.2,1.2,0.4c0.6,1.2,1.2,2.3,1.8,3.5c0.4,0.7,0.2,1-0.4,1.3c-1.7,1-3.6,1.5-5.4,2c-6.3,1.8-13.4-2.9-14.7-8.7
	C57.3,18,60.4,11,66.5,9.2c6.6-2,13.3,0.9,14,9.7c0.1,1.3,0.1,2.7-0.1,4c-0.1,0.7-0.4,0.8-1,0.8C77.3,23.6,75.4,23.6,73.3,23.6
	L73.3,23.6z M69.9,18.1c0.8,0,1.7-0.1,2.5,0c1.1,0.1,1.1-0.4,0.9-1.2c-0.4-1.3-1.3-1.9-2.6-2.1c-1.6-0.2-3,0.6-3.7,2
	c-0.4,0.8-0.5,1.3,0.7,1.2C68.3,18.1,69.1,18.2,69.9,18.1L69.9,18.1z"/>
<path class="st0" d="M48.2,23.6c-2,0-4,0-6,0c-0.8,0-0.8,0.2-0.5,0.9c1,2.3,3.9,3.4,7.1,2.6c0.3-0.1,0.6-0.2,0.9-0.3
	c1.5-0.5,2.7-0.1,3.4,1.4c0,0.1,0.1,0.1,0.1,0.2c1.5,2.8,1.5,2.9-1.5,4c-2.2,0.8-4.3,1.6-6.7,1.5c-5.9-0.1-11.3-5.1-11.7-10.9
	c-0.3-5,0.8-9.3,5.1-12.4c5.5-3.9,15.5-2.6,16.8,7.1c0.2,1.7,0.2,3.4,0,5.1c-0.1,0.7-0.3,0.8-1,0.8C52.2,23.6,50.2,23.6,48.2,23.6
	L48.2,23.6z M44.7,18.1c0.9,0,1.8,0,2.6,0c0.9,0.1,1-0.3,0.8-1c-0.4-1.5-1.5-2.3-3.2-2.2s-3.1,1.2-3.4,2.6c-0.1,0.5,0,0.6,0.5,0.6
	C42.8,18.1,43.8,18.1,44.7,18.1L44.7,18.1z"/>
<path class="st0" d="M112.9,23.6c-2,0-3.9,0-5.9,0c-1,0-0.9,0.3-0.6,1c0.9,1.9,3.1,3,5.5,2.7c1.4-0.1,2.7-0.5,3.9-1.1
	c0.5-0.3,0.8-0.3,1.1,0.3c0.6,1.2,1.3,2.5,1.9,3.7c0.3,0.5,0.2,0.8-0.3,1.1c-1.5,0.9-3.2,1.4-4.8,2c-6.5,2.2-13.6-2.5-15.1-7.4
	c-2-6.6,0.4-13.6,6.1-16.2c6.1-2.8,14.7-0.7,15.3,9.5c0.3,4.5,0.2,4.5-4.2,4.5C114.8,23.6,113.8,23.6,112.9,23.6L112.9,23.6z
	 M109.5,18.1c0.9,0,1.8,0,2.6,0c0.8,0,0.9-0.3,0.7-0.9c-0.3-1.4-1.2-2.2-2.6-2.3c-1.7-0.2-3.1,0.6-3.8,2c-0.4,0.8-0.5,1.3,0.7,1.2
	C107.9,18.1,108.7,18.2,109.5,18.1L109.5,18.1z"/>
<path class="st0" d="M84.9,13.1c0-4,0-8,0-12C84.8,0.1,85.1,0,86,0c2.1,0.1,4.2,0.1,6.2,0c0.9,0,1.1,0.2,1.1,1.1c0,7.7,0,15.3,0,23
	c0,1.3-0.3,3,1.9,2.9c0.3,0,0.3,0.3,0.3,0.5c0.2,1.5,0.5,3,0.7,4.4c0.2,1.1-0.8,1.9-2.6,1.9c-6.2,0.3-8.7-3-8.8-8.8
	C84.8,21,84.9,17.1,84.9,13.1z"/>
<path class="st1" d="M14.9,21.1c0-3.6,0-7.2,0-10.8c0-1,0.3-1.3,1.3-1.2c1.5,0.1,3,0.1,4.6,0c0.8,0,1.2,0.1,1.2,1
	c0,0.8,0.2,1.6,0.4,2.5c0,0.2,0.1,0.4,0.1,0.5c0.1-0.1,0.3-0.2,0.4-0.4c0.8-1.1,1.6-2.1,2.8-2.9c1.8-1.2,3.8-1.3,5.8-1
	c0.7,0.1,1,0.3,0.8,1.2c-0.5,1.6-0.8,3.2-1,4.8c-0.2,1.1-0.6,1.4-1.7,1.2c-2.5-0.4-4.3,0.5-5.6,2.7c-0.4,0.6-0.5,1.3-0.5,2
	c0,3.7,0,7.5,0,11.2c0,0.9-0.1,1.3-1.2,1.2c-2-0.1-4.1-0.1-6.1,0c-0.9,0-1.2-0.2-1.2-1.2C15,28.3,14.9,24.7,14.9,21.1L14.9,21.1z"/>
<path class="st1" d="M0,28.6c0-3.2,1.6-5,4.6-5c2.8,0,4.6,2.1,4.8,5.1c0.1,2.8-2.6,5.2-4.9,5.2C1.9,33.8,0,31.7,0,28.6z"/>
</svg>
