<?xml version="1.0" encoding="utf-8"?>
<!-- Generator: Adobe Illustrator 27.3.1, SVG Export Plug-In . SVG Version: 6.00 Build 0)  -->
<svg version="1.1" id="Réteg_1" xmlns="http://www.w3.org/2000/svg" xmlns:xlink="http://www.w3.org/1999/xlink" x="0px" y="0px"
	 viewBox="0 0 1038.9 1038" style="enable-background:new 0 0 1038.9 1038;" xml:space="preserve">
<style type="text/css">
	.st0{fill:#CC8375;}
	.st1{fill:#C71618;}
</style>
<path class="st0" d="M125.5,396c1.2-236,220.2-421.8,452.1-383.9c116,19,207.8,76.6,272.2,174.6c50.4,76.7,70.7,162.1,61.5,253.8
	c-2.7,26.5-5,53.3-11.4,78.9c-8.8,35.6-22.7,69.6-40,102.4c-27.2,51.4-63.7,96-97.7,142.5c-14,19.2-26.5,39.5-34.3,62.5
	c-8,23.6,14.8,78.8,33.9,98.2c18,18.2,46,27.4,53.8,55.2c3.9,14.1,1.2,27.5-9.2,38c-13.8,14-30,16.4-47.7,7.1
	c-32-16.8-56.6-42.2-76.7-71c-25.2-36.1-39.8-76.2-35-122c2.1-20,5.8-38.8,15-56.5c2.1-4,1-7.2-2-6.1c-3.7,1.3-7.5,2.5-11.2,3.8
	c-76.7,26.8-154.3,29.5-232.6,7.9c-109-30.1-190.1-95.7-244.1-194.4C139.4,527.7,124.7,463.6,125.5,396z M519.4,84.1
	c-14.5,1.8-29,4.2-43.6,5.4c-31.3,2.4-55.5,48.3-41.5,76.4c11.6,23.4,27.7,42.2,49.1,56.2c13.5,8.8,28,22.4,45.3,14.5
	c33.4-15.3,61.4-37.3,76-73.1c5.8-14.1-1.7-52.2-12.1-59.9C570.6,87.4,545.6,85.1,519.4,84.1L519.4,84.1z M214.9,359
	c-2.8,35.9,28.7,55.5,57.2,56.4c26.2,0.9,48.3-10.9,68.1-26.2c14.6-11.2,33.6-20.9,31.1-44.4c-2.9-28.5-13.4-54.2-30.8-76.9
	c-19.3-25.2-64.8-40.3-89.9-8.5C227.8,288.6,219.6,323.2,214.9,359L214.9,359z M584.6,619.3c1.2,6.1,3.2,14.9,4.8,23.7
	c4,22.4,41.9,46.7,61.2,40.4c34.7-11.3,62.7-32.3,87.9-57.9c18.5-18.8,18-52.5,0.4-71.9c-18.8-20.8-43.4-27.2-69-29.5
	c-19.9-1.8-43.2-5.7-58,11.1C591.9,557.6,587.4,587,584.6,619.3L584.6,619.3z M383.4,527.5c-16.9-1.6-34.6,3.8-52.4,9.9
	c-26,9-39.9,28.8-45,53.9c-3.8,18.3,7.9,33.9,20.6,45.6c21.3,19.8,46.2,34.8,73.2,46.3c25.1,10.6,61.7-8,70.1-33.5
	c7.2-21.9,2.9-41.8-0.1-63.1C444.7,549.5,422.5,527.5,383.4,527.5L383.4,527.5z M755.5,415.5c44,0,68.7-23.8,67.6-58.6
	c-0.9-25.8-10-49.9-20.5-73.4c-9.5-21.2-21.8-40-47-41.6c-35.9-2.3-57.1,19.6-72,49.2c-10,19.8-18.3,40.3-15.9,63
	c1.5,14.4,13.6,21.9,23.7,29.8C712.7,400.9,735.9,414.6,755.5,415.5z M519,453.5c24.7,2.2,55.9-23,52.8-58.7
	c-1.8-19.8-26.2-45.3-46.6-45.3c-38.9,0-57.7,19.1-57.7,58.8C467.4,430.6,493.5,453.5,519,453.5L519,453.5z M663.7,769.8
	c0.6-0.5,1.1-0.7,1.2-1.1c0.1-0.2-0.4-0.6-0.6-1c-0.3,0.3-0.8,0.5-1,0.9C663.2,768.9,663.5,769.3,663.7,769.8L663.7,769.8z"/>
<path class="st1" d="M545.3,768.4c-0.2-0.5-0.5-1-0.4-1.2c0.2-0.4,0.7-0.6,1-0.9c0.2,0.3,0.7,0.8,0.6,1
	C546.4,767.6,545.9,767.9,545.3,768.4L545.3,768.4z"/>
</svg>
