<?xml version="1.0" encoding="utf-8"?>
<!-- Generator: Adobe Illustrator 27.3.1, SVG Export Plug-In . SVG Version: 6.00 Build 0)  -->
<svg version="1.1" id="Réteg_1" xmlns="http://www.w3.org/2000/svg" xmlns:xlink="http://www.w3.org/1999/xlink" x="0px" y="0px"
	 viewBox="0 0 1920 1920" style="enable-background:new 0 0 1920 1920;" xml:space="preserve">
<style type="text/css">
	.st0{fill:#C20000;}
</style>
<g>
	<path class="st0" d="M984.1,958.6c-15.3-6-30.4-11.9-45.6-17.8c-19.8-7.7-39.6-15.3-59.4-23c-38.3-14.9-76.7-29.7-115-44.6
		c-43.7-16.9-87.3-34.2-131.2-50.7c-16-6-32.1-12-48.1-18.2c-14.1-5.4-28.2-11-42.2-16.5c-12.2-4.8-24.5-9.6-36.9-14.1
		c-9.5-3.4-18.8-7.4-28.2-11c-12.8-4.9-25.5-9.8-38.2-14.8c-9.6-3.8-19.3-7.5-28.9-11.5c-12.2-5-24.7-9.3-37-14.1
		c-8.1-3.1-16.1-6.4-24.1-9.6c-8-3.1-16.2-5.9-24.2-9.3c-9-3.8-18.2-6.9-27.3-10.5c-9-3.5-17.6-7.9-25.6-13.3
		c-9.9-6.8-19-14.6-26.8-24c-4.5-5.4-8.8-11-12.2-16.9c-4.6-8.1-8.8-16.5-11.5-25.7c-2.6-9.1-3.6-18.2-4.3-27.6
		c-0.7-9.4,0.4-18.7,1.5-27.9c0.7-6.3,3.1-12.5,5.4-18.5c3.6-9.2,6.9-18.6,10.9-27.6c6.3-14.3,11.7-28.9,17.7-43.4
		c5.8-14.1,11.1-28.5,16.9-42.7c7.6-18.5,17.9-35.3,33-48.7c14.5-13,31.1-22.4,49.6-28.6c20.6-6.9,41.9-8.6,63.4-6.8
		c14.8,1.3,28.9,5.7,42.8,11.3c28.6,11.7,57.4,22.6,86,34.3c8.4,3.4,16.8,7,25.2,10.2c23.6,8.8,46.7,18.8,70.3,27.7
		c16.9,6.3,33.5,13.4,50.3,20.1c21.7,8.7,43.4,17.3,65.1,26c16.9,6.7,33.8,13.4,50.7,20.1c16.3,6.5,32.6,13,49,19.5
		c19.9,7.9,39.8,15.9,59.7,23.8c19.2,7.6,38.3,15.3,57.5,22.9c18.1,7.2,36.3,14.4,54.4,21.6c21.7,8.6,43.5,17.2,65.2,25.8
		c23.4,9.3,46.8,18.5,70.2,27.8c20.7,8.2,41.3,16.5,62,24.8c23.1,9.2,46.2,18.4,69.3,27.6c20.1,8,40.2,15.9,60.3,23.9
		c21.4,8.5,42.8,17.1,64.2,25.6c20.8,8.3,41.7,16.6,62.5,24.8c23.2,9.2,46.5,18.5,69.7,27.7c6.9,2.8,14,5.3,20.8,8.3
		c7.1,3.1,14.4,5.5,21.5,8.5c7.2,3.1,14.4,6.1,21.8,8.7c14.7,5.1,28.7,11.9,40.8,21.6c20.6,16.6,35.9,36.9,43.1,62.9
		c3.1,11.3,4.8,22.6,4.7,34.4c-0.2,20-0.1,40-0.1,59.9c0,20.7-5.4,39.9-15.6,57.9c-6.4,11.2-14.3,21.2-23.7,29.9
		c-8.4,7.8-17.8,14.2-28,19.7c-11.3,6.1-23.4,10.1-35.3,14.8c-8.8,3.5-17.5,7.2-26.3,10.7c-8.9,3.5-17.8,6.7-26.7,10.2
		c-8.6,3.4-17,7.1-25.6,10.4c-12.3,4.8-24.5,10.1-37,14.5c-9.2,3.2-18,7.3-27.1,11c-10.4,4.2-20.8,8.3-31.2,12.5
		c-7.2,2.9-14.3,5.8-21.5,8.6c-9,3.5-18.1,6.9-27.1,10.5c-8.6,3.4-17,7.1-25.6,10.5c-10.6,4.1-21,8.6-31.7,12.4
		c-9.3,3.3-18.3,7.6-27.5,11.2c-12,4.8-24.1,9.4-36.2,14.2c-7.2,2.9-14.3,5.9-21.5,8.7c-8.9,3.5-17.8,6.7-26.6,10.3
		c-8.7,3.5-17.3,7.3-26,10.6c-10.4,4-20.7,8.5-31.2,12.2c-7.4,2.5-14.6,5.7-21.8,8.7c-7.2,3-14.4,5.9-21.7,8.9
		c-7.4,3.1-14.9,6.1-22.4,8.9c-8.9,3.3-17.4,7.2-26.4,10.2c-7.4,2.5-14.5,5.8-21.8,8.7c-10.6,4.3-21.1,8.6-31.7,12.8
		c-7.2,2.9-14.3,5.7-21.5,8.5c-9,3.5-18.1,6.9-27.1,10.5c-8.4,3.3-16.8,6.9-25.2,10.2c-14,5.6-27.9,11.6-42.2,16.6
		c-9.2,3.3-18,7.3-27,11c-10.4,4.2-20.8,8.3-31.2,12.5c-7,2.8-14.1,5.5-21.1,8.3c-10.1,4-20.1,8-30.1,12.1
		c-13.7,5.7-27.8,10.6-41.5,16.4c-12,5.1-24.2,9.6-36.2,14.5c-18,7.3-36,14.8-54.2,21.7c-15.2,5.8-30.2,11.9-45.3,17.7
		c-15.6,6-30.8,13-46.5,18.8c-17,6.2-33.7,13.4-50.7,19.7c-12.4,4.6-24.6,9.7-36.9,14.8c-12.7,5.2-25.3,10.5-38.9,13.1
		c-6.7,1.3-13.5,2-20.3,2.4c-10.2,0.7-20.4-0.1-30.5-1c-9.6-0.9-19.2-3.2-28.3-6.9c-5.4-2.2-11.1-3.7-16.1-6.8
		c-5.4-3.3-11-6.3-16.3-10c-3.9-2.7-7.4-5.9-11.1-8.8c-3.7-3-7.3-6.1-10.4-9.6c-6.2-7-11.9-14.3-16.9-22.3
		c-6.4-10.3-9.9-21.8-14.7-32.7c-3.5-8.2-6.7-16.6-10-24.9c-5.6-14.1-11.2-28.2-16.8-42.2c-4.2-10.4-8.2-20.8-12.6-31
		c-3-6.9-5.4-14.1-6.8-21.3c-1-5.2-1.5-10.7-1.6-16.1c-0.2-9.6,0.3-19.1,1.4-28.6c0.4-3.1,1.7-6.1,2.5-9.2
		c3.7-13.4,10-25.6,18.2-36.8c6.2-8.6,13.5-16.2,21.8-23c9.5-7.9,19.7-14.5,30.8-19.6c6.2-2.9,12.8-5,19.2-7.4
		c12.9-5,25.8-10,38.8-15.1c10.8-4.2,21.6-8.5,32.4-12.7c14-5.4,27.9-10.8,41.9-16.1c9.5-3.6,18.9-7.4,28.5-10.9
		c7.8-2.8,15.4-6.1,23.1-9.1c9.8-3.7,19.6-7.6,29.4-11.5c13.1-5.1,26.1-10.3,39.2-15.4c13.2-5.1,26.4-10.2,39.7-15.3
		c13.1-5.1,26.2-10.1,39.2-15.2c13.2-5.2,26.4-10.3,39.6-15.5c12.8-5,25.5-9.9,38.3-14.9c13.3-5.2,26.6-10.5,39.9-15.8
		c10.3-4,20.5-8,30.8-11.9c12-4.6,24.1-9.2,36.1-13.8c9.8-3.8,19.6-7.7,29.5-11.5c9.5-3.7,19-7.5,28.6-11.2c11-4.3,22-8.5,33-12.7
		c11.2-4.3,22.3-8.7,33.4-13c11.3-4.4,22.6-8.7,33.9-13c5.1-2,10.3-3.9,15.4-5.8C982.7,960.1,983.6,960.1,984.1,958.6z"/>
</g>
</svg>
