<?xml version="1.0" encoding="utf-8"?>
<!-- Generator: Adobe Illustrator 27.3.1, SVG Export Plug-In . SVG Version: 6.00 Build 0)  -->
<svg version="1.1" id="Réteg_1" xmlns="http://www.w3.org/2000/svg" xmlns:xlink="http://www.w3.org/1999/xlink" x="0px" y="0px"
	 viewBox="0 0 995.82 1073" style="enable-background:new 0 0 995.82 1073;" xml:space="preserve">
<style type="text/css">
	.st0{fill:#C4C4C4;}
	.st1{fill:#880409;}
</style>
<g>
	<path class="st0" d="M8.12,450.26c0-77.98-0.05-155.97,0.03-233.95c0.02-22.44,6.66-43,20.89-60.27
		c15.78-19.14,34.89-33.99,59.96-39.49c7.17-1.57,14.38-2.45,21.67-2.46c257.12-0.04,514.25-0.06,771.37,0.05
		c9.95,0,19.9,1.52,29.31,4.93c42.53,15.42,66.74,46.06,74.59,90.22c1.78,10.02,2,20.1,2,30.24
		c-0.05,144.64,0.26,289.28-0.26,433.91c-0.12,34.22-12.43,64.32-38.49,87.66c-14.12,12.65-30.57,20.84-49.17,25.05
		c-9.49,2.15-19.01,2.69-28.56,2.7c-143.48,0.12-286.95,0.1-430.43,0.12c-5.5,0-11,0.18-16.49-0.01c-2.92-0.1-4.96,0.9-7.01,2.93
		c-22.37,22.15-44.62,44.43-67.31,66.25c-22.22,21.36-43.54,43.65-65.98,64.75c-12.48,11.73-23.61,24.89-37.16,35.46
		c-7.32,5.71-14.84,11.09-24.74,11.65c-8.95,0.51-14.98-4.66-20.69-10.22c-8.83-8.59-10.58-19.75-10.57-31.44
		c0.02-44.32-0.07-88.65,0.09-132.97c0.02-4.8-0.82-6.56-6.18-6.49c-22.66,0.32-45.33,0.33-67.99,0
		c-30.1-0.43-56.31-10.46-77.78-32.17c-15.99-16.17-26.4-35.11-29.95-57.63c-0.75-4.73-1.13-9.57-1.13-14.36
		C8.08,606.56,8.1,528.41,8.1,450.26C8.11,450.26,8.11,450.26,8.12,450.26z M497.95,363.03c-92.29,0-184.58,0.1-276.86-0.07
		c-21.39-0.04-34.35,21.57-28.53,39.68c4.86,15.11,14.97,22.18,30.5,22.2c183.24,0.28,366.48,0.2,549.73,0.11
		c6.19,0,12.39-1.4,17.62-4.96c11.72-7.96,16.32-18.96,13.62-33.05c-2.47-12.92-14.65-23.94-27.71-23.93
		C683.52,363.05,590.73,363.03,497.95,363.03z M590.01,540c-61.97,0-123.93-0.02-185.9,0.01c-21.12,0.01-33.37,22.49-27.43,39.98
		c5.15,15.15,16.35,21.89,31.79,21.91c121.43,0.15,242.87,0.1,364.3,0.05c11.8,0,21.43-4.81,27.56-14.99
		c6.16-10.22,6.61-21.08,0.65-31.64c-5.66-10.03-14.33-15.35-26.07-15.34C713.27,540.01,651.64,540,590.01,540z"/>
	<path class="st1" d="M497.95,363.03c92.79,0,185.57,0.02,278.36-0.03c13.07-0.01,25.24,11.01,27.71,23.93
		c2.7,14.09-1.9,25.09-13.62,33.05c-5.23,3.55-11.43,4.95-17.62,4.96c-183.24,0.09-366.48,0.17-549.73-0.11
		c-15.52-0.02-25.64-7.09-30.5-22.2c-5.82-18.11,7.14-39.72,28.53-39.68C313.37,363.13,405.66,363.03,497.95,363.03z"/>
	<path class="st1" d="M590.01,540c61.63,0,123.27,0.01,184.9-0.01c11.75,0,20.41,5.32,26.07,15.34c5.96,10.56,5.51,21.42-0.65,31.64
		c-6.13,10.18-15.76,14.98-27.56,14.99c-121.43,0.04-242.87,0.09-364.3-0.05c-15.44-0.02-26.64-6.76-31.79-21.91
		c-5.94-17.49,6.31-39.97,27.43-39.98C466.08,539.97,528.04,540,590.01,540z"/>
</g>
</svg>
