<?xml version="1.0" encoding="UTF-8"?>
<svg id="Réteg_1" data-name="Réteg 1" xmlns="http://www.w3.org/2000/svg" viewBox="0 0 178.57 194.11">
  <defs>
    <style>
      .cls-1 {
        fill: #3b3d42;
      }
    </style>
  </defs>
  <path class="cls-1" d="M178.47,89.3c.11,4.78-2.16,7.71-5.74,9.58-4.75,2.47-8.83,1.08-12.48-2.57-19.44-19.46-38.53-39.29-58.51-58.18-13.43-12.7-11.51-12.5-24.73,.02-19.96,18.91-39.08,38.71-58.47,58.22-4.84,4.87-9.75,6.42-14.98,1-5.05-5.24-4.58-10.47,.56-15.59C30.09,55.88,56.07,30,81.9,3.96c5.18-5.22,9.57-5.3,14.74-.11,25.99,26.12,52.1,52.11,78.14,78.17,2.1,2.11,4.29,4.28,3.69,7.27Z"/>
  <path class="cls-1" d="M79.32,80.04c0-8-.19-16,.06-23.99,.18-5.94,3.66-9.12,9.61-8.96,6.14,.17,10.89,3.18,11.08,9.55,.46,15.31,.34,30.65,.14,45.98-.09,7.06-4.61,10.33-11.28,10.41-6.48,.08-9.6-3.6-9.61-9.99-.01-7.67,0-15.33,0-23Z"/>
  <path class="cls-1" d="M99.28,161.35c0,7.66,.12,15.31-.04,22.97-.14,6.72-3.92,9.95-10.51,9.79-6.19-.16-9.39-3.56-9.41-9.7-.06-15.64-.07-31.29,.03-46.93,.04-5.93,3.29-9.17,9.24-9.36,6.33-.19,10.25,2.95,10.53,9.29,.36,7.97,.09,15.97,.09,23.95,.02,0,.04,0,.06,0Z"/>
</svg>