<?xml version="1.0" encoding="UTF-8"?>
<svg id="Layer_1" data-name="Layer 1" xmlns="http://www.w3.org/2000/svg" viewBox="0 0 236.05 236.05">
  <defs>
    <style>
      .cls-1 {
        fill: #982525;
        stroke-width: 0px;
      }
    </style>
  </defs>
  <path class="cls-1" d="M208.63,4.73l-90.6,90.6L27.43,4.73C21.13-1.58,11.03-1.58,4.73,4.73s-6.3,16.4,0,22.7l90.6,90.6L4.73,208.63c-6.3,6.3-6.3,16.4,0,22.7,6.3,6.3,16.4,6.3,22.7,0l90.6-90.6,90.6,90.6c6.3,6.3,16.4,6.3,22.7,0s6.3-16.4,0-22.7l-90.6-90.6L231.32,27.43c6.3-6.3,6.3-16.4,0-22.7-6.3-6.3-16.4-6.3-22.7,0h0Z"/>
</svg>