<?xml version="1.0" encoding="UTF-8"?>
<svg id="Réteg_1" data-name="Réteg 1" xmlns="http://www.w3.org/2000/svg" viewBox="0 0 226.45 155.6">
  <defs>
    <style>
      .cls-1 {
        fill: #880409;
      }

      .cls-2 {
        fill: #c3c3c3;
      }
    </style>
  </defs>
  <path class="cls-2" d="M21.03,155.39c-4.68-.43-8.66-2.85-12.3-5.73-3.97-3.13-6.62-7.2-8.13-12.01-.36-1.14-.57-2.31-.57-3.52C.04,96.73,.07,59.34,0,21.96c0-4.64,1.6-8.59,4.17-12.23,.26-.37,.53-.73,.8-1.08C8.8,3.79,17.24,0,23.43,0,60.52,0,97.61,0,134.7,.02c2.95,0,5.54,1.39,8.08,2.75,1.37,.74,2.65,1.63,3.79,2.71,.37,.35,.77,.71,1.32,.77-.17,.46,.24,.64,.46,.88,4.55,4.92,6.75,10.73,6.74,17.44-.02,16.19,0,32.39,0,48.58,0,2.82,0,5.65,0,8.47,0,16.24,0,32.47,0,48.71,0,6.52-2.23,12.18-6.63,17-.24,.27-.72,.44-.54,.96-1.22,.34-1.91,1.4-2.89,2.07-3.4,2.36-7.18,3.58-11.2,4.54-4.66,1.11-9.28,.54-13.89,.56-31.55,.1-63.11,.05-94.67,.05-.88,0-1.76,0-2.64-.01-.55-.03-1.05-.04-1.58-.12Z"/>
  <path class="cls-1" d="M147.9,148.29c-.18-.52,.3-.7,.54-.96,4.4-4.81,6.63-10.47,6.63-17,0-16.24,0-32.47,0-48.71,.24,0,.48-.05,.72,0,1.85,.3,2.76-1.03,3.61-2.24,.75-1.06,.08-4-.68-5.03-.98-1.33-2.3-1.21-3.64-1.19,0-16.19-.03-32.39,0-48.58,0-6.7-2.18-12.51-6.74-17.44-.22-.24-.64-.42-.46-.88,2.94-.18,5.87-.34,8.82-.27,9.12,.22,17.85,2.12,26.26,5.67,10.19,4.31,18.88,10.66,26.12,18.99,5.73,6.6,9.96,14.07,13.02,22.26,3.46,9.29,4.82,18.88,4.19,28.71-.99,15.46-6.47,29.23-16.33,41.22-5.53,6.73-12.11,12.22-19.67,16.48-7.75,4.36-16.02,7.26-24.86,8.54-5.83,.85-11.67,.86-17.53,.43Z"/>
</svg>