<?xml version="1.0" encoding="UTF-8"?>
<svg id="Réteg_1" data-name="Réteg 1" xmlns="http://www.w3.org/2000/svg" viewBox="0 0 285.91 152.14">
  <defs>
    <style>
      .cls-1 {
        fill: #424242;
      }
    </style>
  </defs>
  <path class="cls-1" d="M143.08,0c.69,1.04,1.76,1.69,2.68,2.48,37.36,31.85,74.73,63.68,112.09,95.52,8.94,7.62,17.88,15.23,26.82,22.84,.36,.3,.7,.63,1.23,1.1-8.45,.74-15.8,3.68-21.99,9.24-6.22,5.58-9.93,12.58-11.51,20.95-36.59-34.8-73.05-69.48-109.57-104.21-36.52,34.74-72.98,69.41-109.44,104.1-4.26-17.77-15.4-27.73-33.4-30.19,.1-.42,.57-.61,.91-.91C47.82,80.95,94.74,40.98,141.65,1c.35-.29,.83-.49,.95-1h.48Z"/>
</svg>