<?xml version="1.0" encoding="UTF-8"?>
<svg id="Réteg_1" data-name="Réteg 1" xmlns="http://www.w3.org/2000/svg" viewBox="0 0 286.29 152.18">
  <defs>
    <style>
      .cls-1 {
        fill: #880308;
      }
    </style>
  </defs>
  <path class="cls-1" d="M252.73,0c2.62,13.41,10.18,22.77,22.9,27.89,3.31,1.33,6.8,2.01,10.67,2.32-47.83,40.75-95.47,81.34-143.17,121.97C95.44,111.56,47.81,70.98,0,30.25c2.53-.32,4.85-.57,7.09-1.23C21.29,24.8,30.02,15.47,33.31,1.04c.08-.35,.14-.7,.21-1.04,.08,0,.16,0,.24,0-.02,.44,.38,.57,.62,.8,35.97,34.23,71.94,68.45,107.92,102.66,.25,.24,.52,.47,.83,.74,.3-.27,.57-.5,.83-.74C179.93,69.25,215.9,35.03,251.87,.8c.24-.23,.64-.36,.62-.8h.24Z"/>
</svg>