<?xml version="1.0" encoding="UTF-8"?>
<svg id="Réteg_1" data-name="Réteg 1" xmlns="http://www.w3.org/2000/svg" viewBox="0 0 512.54 434.95">
  <defs>
    <style>
      .cls-1 {
        fill: #c3c3c3;
      }
    </style>
  </defs>
  <path class="cls-1" d="M255.66,434.81c-16.47,.42-33.75-.14-50.95-2.04-29.11-3.23-57.68-8.81-84.21-21.91-8.34-4.12-15.72-9.69-22.85-15.8-7.87-6.73-8.54-14.67-6.91-23.81,.55-3.08,.34-6.3,.42-9.46,.56-22.35,1.52-44.62,6.87-66.53,6.93-28.4,24.36-47.34,50.93-58.29,17.66-7.28,36.23-11.51,54.92-15.17,2.69-.53,4.69,0,7.06,1.93,11.77,9.61,25.24,14.58,40.65,15.18,16.39,.63,32.14-1.48,45.1-11.72,7.07-5.58,13.27-5.21,20.92-3.54,18.99,4.15,37.57,9.15,55.04,18.07,23.65,12.08,36.98,31.51,42.63,56.86,3.14,14.09,4.19,28.4,5.27,42.78,.98,13.11-.33,26.28,1.74,39.3,.72,4.55-1.44,7.9-4.39,11.08-10.64,11.47-23.77,19.18-38.16,24.72-21.28,8.18-43.42,12.73-66.06,15.48-19.03,2.31-38.06,3.1-58.02,2.85Z"/>
  <path class="cls-1" d="M343.22,102.13c1.51,25.42-4.51,49.32-18.66,70.71-17.5,26.45-41.79,41.87-74.38,39.7-22.22-1.48-40.35-12.46-54.67-29.39-13.5-15.96-21.66-34.56-24.94-55.08-2.5-15.63-1.83-31.44-.62-47.21,.8-10.46,2.69-20.63,5.86-30.63,7.13-22.51,21.43-38.2,44.21-44.8,25.6-7.42,51.52-7.52,76.8,1.47,20.26,7.21,32.96,22.14,39.59,42.48,5.57,17.09,7.39,34.62,6.82,52.75Z"/>
  <path class="cls-1" d="M346.35,184.05c28.72-52.09,26.3-105.51,6.24-160.18,20.86-3.36,41.59-4.54,61.56,4.03,14.18,6.09,23.25,17.2,28.33,31.73,4.67,13.34,5.4,27.15,6.08,41.12,.68,13.78-.77,27.11-5.2,40.05-6.62,19.32-18.17,34.81-36.03,45.38-18.04,10.68-45.96,9.95-60.98-2.13Z"/>
  <path class="cls-1" d="M166.28,184.34c-8.36,5.74-17.62,8.93-27.46,9.31-29.77,1.14-49.78-14.26-63.68-39.08-7.16-12.79-10.57-26.68-11.14-41.39-.67-17.3,.06-34.43,5.21-51.06,7.39-23.85,24.14-36.43,48.59-39.43,14.08-1.72,28.08-1.88,42.01,1.47-20.03,54.31-22.39,107.74,6.47,160.18Z"/>
  <path class="cls-1" d="M136.44,216.15c-12.22,5.74-22.52,12.12-31.44,20.42-16.93,15.74-25.84,35.87-30.8,58.02-2.9,12.95-4.03,26.12-5.25,39.32-1.04,11.26,.23,22.62-2.31,34.2-8.69-1.29-17.4-3.52-25.87-6.63-12.06-4.42-23.63-9.73-33.36-18.45-4.51-4.04-7.86-8.18-7.35-14.84,1.54-20.3,1.07-40.68,4.8-60.91,5.17-28.1,21.13-46.02,47.62-55.5,13.31-4.76,27-7.85,40.81-10.61,1.22-.24,2.16-.24,3.26,.49,18.68,12.28,20.26,12.86,39.9,14.5Z"/>
  <path class="cls-1" d="M376.04,216c12.11-.71,23.65-1.39,31.89-8.54,8-6.94,15.4-5.79,23.97-3.73,15.84,3.8,31.46,8.02,45.64,16.5,17.43,10.43,25.78,26.63,29.77,45.68,3.03,14.49,4.35,29.16,4.08,43.98-.12,6.48,.96,12.9,1.15,19.39,.16,5.54-2.28,9.28-5.91,12.51-14.28,12.68-31.42,19.58-49.71,23.96-3.68,.88-7.22,2.53-11.35,2.3-.55-7.19-1.05-14.44-1.35-21.73-.97-23.2-3.07-46.24-10.69-68.47-9.03-26.31-25.85-45.64-50.58-58.21-1.91-.97-3.8-1.99-6.91-3.63Z"/>
</svg>