<?xml version="1.0" encoding="UTF-8"?>
<svg id="Réteg_1" data-name="Réteg 1" xmlns="http://www.w3.org/2000/svg" viewBox="0 0 358.76 401.29">
  <defs>
    <style>
      .cls-1 {
        fill: #3a3c41;
      }
    </style>
  </defs>
  <path class="cls-1" d="M179.96,105.16c0,11.56,0,22.51,0,33.47,0,2,.17,4.03-.14,5.99-.67,4.29-4.3,5.63-7.72,2.95-.91-.72-1.69-1.61-2.51-2.43-21.69-21.69-43.38-43.38-65.06-65.07-4.9-4.9-4.92-6.19-.14-10.98C126.18,47.26,147.98,25.44,169.79,3.64c1.95-1.95,3.72-4.69,7.14-3.23,3.28,1.39,3.02,4.44,3.02,7.29,0,11.49,0,22.98,0,34.96,8.87,.44,17.48,.67,25.98,2.14,65.43,11.34,112.53,47.13,138.5,108.04,41.17,96.58-9.79,206.7-109.48,239.54C133.53,425.79,23.6,361.89,3.61,257.26c-10.64-55.71,2.29-106.03,38.17-150.2,6.24-7.68,11.85-7.85,18.82-.93,8.63,8.58,17.23,17.19,25.82,25.81,6.66,6.68,6.85,10.59,.97,18.21-50.01,64.71-21.01,158.36,56.75,183.25,70.98,22.72,145.59-27.22,151.44-101.4,4.96-62.81-38.84-117.24-101.22-125.71-4.45-.6-8.96-.72-14.39-1.13Z"/>
</svg>