<?xml version="1.0" encoding="UTF-8"?>
<svg id="Réteg_1" data-name="Réteg 1" xmlns="http://www.w3.org/2000/svg" viewBox="0 0 1717 1063">
  <defs>
    <style>
      .cls-1 {
        fill: #272727;
      }

      .cls-2 {
        fill: #1d1d1d;
      }
    </style>
  </defs>
  <path class="cls-1" d="M559.05,1062.88c-184.76,0-369.52-.02-554.28,.12-4.27,0-4.75-1.13-4.74-4.97C.13,707.04,.14,356.06,0,5.07,0,.67,1.13,.03,5.19,.04c77.97,.14,155.94,.1,233.91,.1,2.76,30.22,19.13,76.68,27.23,80.99,1.36-2.94,.52-5.89,.07-8.81-1.9-12.26-6.28-23.81-10.39-35.42-4.27-12.06-9.66-23.8-10.91-36.76h193.97c.01,7.91-2.3,15.46-3.77,23.13-1.45,7.55-2.66,15.09-2.18,22.8,.07,1.11-.25,2.63,1.16,3.01,1.36,.37,2.01-.98,2.59-1.94,3.58-5.91,5.74-12.34,7.06-19.1,1.81-9.25,.88-18.6,1.13-27.9h80.99c.12,2.73,1.14,5.17,2.29,7.6,7.09,15.02,19.3,25.24,32.4,34.61,1.12,.8,2.46,2.55,3.84,1.16,1.18-1.19-.14-2.85-.77-4.13-3.98-8.07-9.92-14.55-16.77-20.24-6.47-5.38-11.86-11.66-16-19h354.95c-1.77,6.06-.69,11.89,1.47,17.61,1.36,3.6,2.48,7.27,2.78,11.12,.57,7.37-1.99,11.29-8.84,13.62-6.31,2.14-12.62,4.3-18.98,6.3-12.58,3.96-25.36,7.05-38.54,8.26-4.05,.37-7.43-.43-9.97-4.15-3.02-4.41-6.94-8.07-11.16-11.37-7.38-5.76-15.48-9.94-25.52-11.98,1.38,3.62,3.3,5.68,5.33,7.58,7.95,7.46,16.59,13.9,26.91,17.83,1.59,.61,4.04,.81,3.97,3.15-.06,1.94-2.22,2.25-3.7,2.9-8.25,3.61-16.6,6.93-25.15,9.78-29.6,9.88-60.49,14.97-90.28,24.15-4.13,1.27-5.23-.03-4.08-4.37,1.4-5.31,3.14-10.54,4.67-15.82,.3-1.05,1-2.4-.4-3.11-1.02-.52-1.89,.43-2.55,1.14-2.25,2.44-4.76,4.74-6.59,7.48-4.77,7.14-10.71,13.22-17.05,18.87-7.45,6.65-16.2,10.21-26.44,10.04-9.35-.15-17.48-3.75-25.54-7.86-1.14-.58-2.48-1.73-3.69-.77-1.32,1.04-.12,2.47,.21,3.69,2.52,9.32-.19,14.58-9.35,17.8-2.35,.83-4.8,1.38-7.22,2.01-30.97,8-61.9,16.13-92.47,25.6-27.23,8.44-54.61,16.35-82.97,20.13-10.11,1.34-10.94,.25-8.01-9.56,8.68-29.08,16.92-58.26,19.78-88.64,.43-4.54,1.14-9.12-.41-13.77-2.66,.98-2.86,3.19-3.55,4.94-5.51,14.02-9.03,28.58-11.58,43.39-3.48,20.19-6.49,40.47-11.57,60.36-1.8,7.04-5.87,11.78-12.46,14.57-6.19,2.62-12.69,4-19.29,5.03-16.19,2.53-32.56,1.93-48.84,2.85-13.74,.77-20.9-4.46-26.32-17.11-4.28-10-6.88-20.52-9.59-31.01-4.16-16.15-8.44-32.26-16.6-47-1.05-1.9-1.62-4.32-4.07-5.1-1.11,1.36-.61,2.55-.53,3.68,.93,14.47,5.41,28.08,10.23,41.6,4.92,13.79,11.34,27.09,14.19,41.57,1.8,9.15-2.93,14.17-12.24,13.09-3.29-.38-6.56-1.17-9.78-1.97-5.98-1.48-11.93-3.01-18.11-3.6-22.81-2.18-45.64-.19-68.38,.52-22.56,.71-44.96-.15-67.34-1.84-28.58-2.16-57.12-4.33-85.81-3.66-5.11,.12-10.12,.76-15.51,1.59,1.64,1.93,3.43,1.35,4.97,1.51,18.05,1.92,33.67,8.98,44.62,23.65,7,9.38,15.25,17.07,24.3,24.21,3.38,2.67,6.55,5.71,9.38,8.96,5.73,6.56,8.59,14.18,7.27,23.05-.97,6.49-.6,7.19,5.87,6.94,9.64-.36,17.3,3.78,24.59,9.45,5.45,4.23,9.63,9.64,14.44,14.46,38.84,38.93,77.73,77.8,116.65,116.65,3.77,3.76,7.84,7.22,11.8,10.78,.83,.75,1.76,1.92,3,1.01,1.14-.84,.55-2.17,.22-3.26-.99-3.21-2.65-6.07-4.44-8.91-3.46-5.49-8.97-8.88-13.39-13.38-23.48-23.88-46.88-47.82-70.57-71.49-16.03-16.01-31.49-32.6-48.48-47.62-5.55-4.91-9.5-10.74-9.16-18.62l-.02,.02c14.71-.95,28.99-4.3,43.19-7.95,28.89-7.43,57-17.61,86.02-24.57,12.15-2.91,24.4-5.4,36.87-6.59,3.26-.31,5.5,.31,5.86,4.21,.89,9.72,3.82,19.16,7.96,27.7,4.97,10.27,7.5,21.01,10.9,31.69,7.86,24.71,13.26,50.29,24.67,73.84,6.86,14.17,7.53,28.87,4.23,44.34-6.86,32.11-15.63,63.78-22.35,95.88-6.7,32.05-43.29,46.81-65.75,39.31-6-2.01-12.19-3.44-18.22-5.34-24.63-7.76-48.74-17.08-73.49-24.52-20.49-6.16-41.7-9.3-61.56-18.37-29.97-13.69-62.43-20-94.35-27.62-.66-.16-1.62-.66-2.1,.81,3.26,1.26,6.51,2.52,9.75,3.77,26.28,10.1,52.15,21.62,79.67,27.85,18.8,4.26,36.62,10.41,54.24,18.06,18.96,8.24,39.37,12.44,59.16,18.36,13.26,3.96,26.38,8.34,38.69,14.79,4.46,2.34,4.62,3.95,.87,7.38-3.64,3.33-8.03,5.26-12.63,6.88-5.32,1.88-10.94,3.24-15.23,7.24-1.5,1.39-4.12,2.77-2.97,5.19,1.13,2.38,3.84,1.45,5.89,1.09,9.36-1.66,17.85-5.72,25.57-10.95,15.88-10.74,31.75-11.41,48.39-1.98,9.21,5.22,11.57,10.51,8.09,20.65-1.67,4.88-3.65,9.64-4.71,14.74-6.56,31.48-13.22,62.94-19.86,94.4-2.51,11.9-4.96,23.81-7.66,35.67-1.3,5.72-2.76,11.53-9.89,13.02-2.22,.46-1.71,2.19-.93,3.56,4.54,7.99,1.73,15.16-2.56,22.05-3.52,5.65-7.43,11.07-11.01,16.69-3.76,5.92-7,12.13-8.93,18.92-.49,1.7-1.45,3.95,.48,5.04,2.24,1.27,3.59-.99,4.85-2.43,1.2-1.38,2.17-2.95,3.17-4.48,2.37-3.63,4.64-7.31,7.07-10.9,.8-1.18,1.74-3.09,3.31-2.54,1.85,.66,.77,2.62,.52,3.97-1.44,8.04-2.82,16.07-3.7,24.2-.49,4.48-1.55,8.89-4.31,12.64-3.13,4.26-9.2,5.42-13.87,2.63-4.74-2.82-2.97-6.74-1.7-10.58,.67-2.01,2.4-3.9,1.32-6.33-1.94,.36-2.58,1.62-3.39,2.64-14.2,17.89-32.88,27.35-55.49,28.77-19,1.19-37.81,3.14-56.23,8.26-16.72,4.65-33.74,7.82-50.94,10.16-22.78,3.1-45.64,5.9-67.41,13.94-2.55,.94-5.27,1.62-7.71,3.87,1.09,.33,1.56,.63,2,.59,4.15-.37,8.29-.74,12.43-1.2,40.77-4.59,81.09-11.9,121.29-19.99,20.09-4.04,40.14-8.32,60.47-11.07,8.65-1.17,12.16,1.64,13.01,10.04,.15,1.42-.29,3.35,1.57,3.82,1.7,.43,2.64-1.2,3.53-2.35,3.38-4.37,7.35-8.19,11.38-11.91,5.23-4.82,11.36-7.49,18.66-6.85,4.54,.39,6.81,2.57,6.85,7.4,.12,14.07-6.57,24.11-18.16,31.25-7.4,4.56-15.45,7.84-23.54,10.95-2.87,1.1-6.39,4.44-8.58,2.4-2.48-2.3,.7-6.11,1.45-9.24,.9-3.76,2.71-7.32,2.71-11.57-2.5,.89-3.33,2.82-4.48,4.37-9.13,12.24-19.88,22.82-32.11,31.97-17.78,13.3-37.39,23.07-58.17,30.62-5.52,2-10.91,4.07-14.88,8.74-2.05,2.41-5.03,3.21-8.03,3.67-11.15,1.74-20.95,6.43-29.77,13.34-3.43,2.69-7.19,4.83-11.15,6.61-15.49,6.98-31.02,13.88-46.46,20.97-2.73,1.26-7.7,2.03-5.46,6.56,2,4.03,5.62,.96,8.28-.23,20.83-9.33,41.58-18.83,62.4-28.18,9.86-4.43,20.2-7.98,27.44-16.73,1.43-1.73,3.72-2.13,5.86-2.55,10.08-1.96,19.3-6.04,28.35-10.83,9.99-5.3,19.85-10.99,30.84-14.15,1.85-.53,4.06-2.12,5.64-.49,1.85,1.9-.13,4.1-.93,5.96-3.64,8.45-8.63,16.15-13.59,23.85-7.23,11.23-14.03,22.68-17.99,35.56-.49,1.59-1.61,3.27-.26,5.08,2.3-.89,3.02-2.89,4.13-4.48,10.15-14.68,18.73-30.33,28.16-45.45,11.82-18.95,24.95-36.67,45.05-47.85,8.54-4.75,17.59-7.99,27.25-9.42,5.27-.78,6.53,.68,6.31,5.95-.36,8.74-2.53,17.12-4.86,25.47-3.76,13.47-8.14,26.8-7.02,41.13,.13,1.69-.79,3.55-1.51,5.21-4.85,11.24-7.84,23-9.96,35.01-3.43,19.36-4.96,39.01-8.97,58.28-.12,.57-.37,1.34,.82,1.61,.45-.81,.99-1.64,1.39-2.53,7.41-16.38,11.3-33.78,14.56-51.33,5.5-29.64,13.4-58.79,17.9-88.63,.32-2.13,1.01-4.21,1.55-6.31,7.39-29.07,23.7-49.96,53.59-58.4,1.76-.5,3.51-1.12,4.83-2.5,.58-.61,1.21-1.38,.53-2.15-.33-.37-1.23-.46-1.81-.34-1.3,.26-2.57,.7-3.83,1.12-10.44,3.46-20.9,6.86-31.29,10.45-3.84,1.32-5.83,.14-7.24-3.57-4.37-11.42,6.6-27.37,17.77-26.02,10.3,1.24,20.59-.77,30.78-2.59,7.87-1.41,15.76-2.78,23.76-3.17,1.37-.07,3.39-.56,3.8,1.37,.31,1.46-1.45,2.08-2.52,2.79-7.1,4.67-14.25,9.25-21.32,13.97-1.39,.93-3.48,1.43-3.48,4.04,3.49,.48,6.64-.64,9.75-1.64,14.86-4.79,28.38-12.34,41.63-20.42,4.87-2.97,9.75-5.81,15.81-5.31,1.67,.14,3.44-.27,4.69-1.44,5.68-5.31,12.86-5.82,20.01-6.48,8.53-.79,16.81-2.48,24.44-6.58,1.14-.61,2.61-1.12,2.45-2.8-.09-.94-1.09-1.1-1.86-1.43-4.47-1.97-4.7-2.99-.99-6.2,2-1.73,4.28-3.16,6.56-4.54,10.17-6.15,21.34-10.16,32.15-14.93,1.99-.88,4.11-1.4,6.33-1.16,4.16,.45,7.37,4.08,8.49,9.33,.66,3.11-.45,5.15-3.3,6.42-7.77,3.46-15.46,6.93-24.41,6.04-4.64-.46-9.31,.49-13.66,2.39-1.05,.46-2.29,1.11-2,2.52,.28,1.39,1.66,1.51,2.81,1.59,3.59,.26,6.87-1.15,10.24-2.01,21.62-5.53,37.31,1.93,46.54,22.16,1.28,2.81,2.53,5.64,3.8,8.46,2.32-5.76,.47-10.82-1.31-15.91-4.31-12.29-1.34-18.56,11.43-21.29,24.76-5.3,49.66-9.97,74.5-14.85,1.19-.23,2.85-1.06,3.55,.57,.51,1.19-.84,2.05-1.62,2.86-12.95,13.65-25.95,27.25-38.83,40.96-1.76,1.87-5.96,4-3.47,6.58,2.28,2.37,4.95-1.46,6.81-3.22,14.67-13.81,29.98-26.95,43.8-41.64,8.31-8.83,17.74-12.78,29.61-7.81,2.29,.96,4.19,.66,5.57-1.65,3-5.01,7.76-6.91,13.28-7.81,11.84-1.92,23.65-4.04,35.46-6.14,49.05-8.71,98.18-16.97,147.4-24.67,19.61-3.07,37.7-.45,55.45,7.69,11.52,5.28,23.41,9.59,35.55,13.31,31.86,9.74,63.66,19.71,95.46,29.66,7.61,2.38,8.28,5.51,2.44,11.01-4.29,4.03-9.49,6.74-14.76,9.26-3.19,1.53-6.1,3.42-8.38,6.17-.53,.64-1.15,1.36-.77,2.22,.52,1.17,1.64,.96,2.6,.73,1.3-.3,2.56-.72,3.84-1.1,6.08-1.78,12.11-3.72,18.39-4.71,10.25-1.62,15.38,1.32,18.57,11.25,1.47,4.58,2.44,9.36,3.16,14.12,6.33,41.86,13.63,83.53,22.95,124.83,1.91,8.45,4.04,16.86,5.53,25.39,1.68,9.66-1.92,15.2-11.19,18.38-1.89,.65-3.83,1.16-5.78,1.58-27.35,5.98-54.7,11.91-82.04,17.91-21.16,4.64-42.3,9.34-63.44,14.08-7.64,1.71-13.85-.12-19.48-5.84-17.29-17.57-34.68-35.04-52.68-51.91-12.4-11.62-23.61-24.42-35.01-37-3.68-4.07-6.76-8.64-10.89-12.34-9.31-8.32-18.7-16.57-27.68-25.23-12.82-12.36-25.73-24.6-37.97-37.59-17.59-18.67-36.19-36.38-54.26-54.59-9.04-9.11-18.35-17.91-28.21-26.13-1.03-.86-1.79-2.57-3.88-1.61,.43,6.27,3.91,11.09,8.31,14.82,13.41,11.34,24.48,24.96,36.96,37.2,10.59,10.38,20.91,21.04,31.5,31.41,14.27,13.99,27.85,28.68,42.8,41.99,5.2,4.63,10.32,9.48,14.3,15.32,4.68,6.86,3.71,11.88-3.37,16.35-2.1,1.32-4.43,2.3-6.69,3.35-1.82,.85-3.74,1.56-5.07,3.11-1.25,1.46-3.56,2.97-2.39,5.02,1.3,2.28,3.68,.77,5.37,0,5.16-2.32,10.17-4.99,15.33-7.33,7.81-3.55,14.94-2.5,21.11,3.64,4.84,4.82,9.73,9.59,14.4,14.57,19.03,20.3,38.66,39.99,59.02,58.96,3.8,3.55,7.34,7.29,9.84,11.87,2.07,3.8,1.09,6.92-2.88,8.58-3.05,1.28-6.28,2.28-9.53,2.91-20.79,4.01-41.28,9.32-61.89,14.12-2.58,.6-5.29,.98-7.13,3.24h-219.97c4.57-3.37,9.13-6.71,11.43-12.22,1.42-3.4,1.01-5.8-2.99-6.79-5.7-1.41-9.01-5.43-11.02-10.64-1.13-2.94-1.95-6.01-2.89-9.02-1.1-3.51-2.47-6.91-4.79-9.8-1.02-1.27-2.19-2.95-4.07-2.22-1.94,.76-1.63,2.81-1.28,4.38,.93,4.22,1.85,8.46,3.17,12.57,3.9,12.22,3.46,23.33-7.42,32.11-.49,.4-.76,1.08-1.13,1.63Zm-50.41-228.88c-.4,.09-.8,.19-1.2,.28,0,.95-.07,1.91,.01,2.85,.82,10.02,2.88,19.77,6.26,29.24,3.02,8.47,6.08,16.93,9.04,25.43,2.6,7.47,1.67,10.75-4.54,14.76-2.67,1.73-1.69,3.05-.29,4.77,4.42,5.42,9.12,10.6,12.72,16.66,6.15,10.35,10.96,21.32,15.46,32.45,1.69,4.17,3.56,8.26,5.46,12.33,.52,1.13,1.03,2.84,2.74,2.36,1.5-.43,1.48-2.07,1.6-3.38,.27-2.87-.2-5.66-1.27-8.33-1.36-3.4-2.87-6.75-4.16-10.18-1.65-4.38-2.26-8.87,.87-12.84,2.24-2.83,1.7-4.92-.53-7.41-5.52-6.15-9.47-13.3-12.28-21.03-2.96-8.14-5.33-16.51-8.55-24.54-4.4-10.98-6.57-21.49,2.76-31.12,.11-.12,.17-.28,.25-.43,.76-1.56,1.21-3.19,.21-4.76-1.04-1.64-2.64-1.03-4.08-.69-5.85,1.37-10.02-1.04-13.21-5.76-2.41-3.57-4.85-7.11-7.27-10.66ZM9.55,669.92c.27,.48,.53,.96,.8,1.44,19.87-6.63,39.69-13.41,58.21-23.42,7.75-4.19,14.76-10.17,22.9-13.13,10.27-3.74,21.39-5.2,32.49-3.21,3.19,.57,4.91,.19,4.39-3.54-.52-3.69,1.35-6.36,3.94-8.7,4.35-3.94,9.76-5.63,15.22-7.19,4.35-1.24,8.66-2.59,12.17-5.57,1.74-1.48,4.07-3.34,3.13-5.78-1.08-2.78-4.03-1.7-6.21-1.3-5.26,.98-10.31,2.64-14.94,5.44-3.42,2.07-6.87,4.1-10.41,5.94-10.04,5.21-20.07,5.48-30.06-.24-1.2-.69-2.58-2.27-3.98-.82-1.2,1.24-.06,2.84,.33,4.24,2.84,10.13-.43,16.43-10.66,19.36-19.02,5.45-36.84,13.61-54.03,23.26-7.78,4.37-15.51,8.81-23.27,13.21Zm698.85,376.61c-1.54-4.17-3.53-6.38-5.68-8.38-6.75-6.27-13.93-12.25-22.81-14.89-8.41-2.49-11.92-12.57-8.11-19.31,.62-1.1,1.7-2.41,.71-3.67-1-1.27-2.49-.43-3.74-.16-10.6,2.31-20.13,.24-28.49-6.83-2.54-2.15-5.15-4.21-7.72-6.33-10.02-8.32-20.38-16.11-32.83-20.54-1.51-.54-3.48-1.89-4.64-.47-1.53,1.87,.77,3.28,1.77,4.6,6.05,7.98,14.36,13.26,22.66,18.54,5.19,3.3,10.49,6.46,15.55,9.96,3.9,2.7,6.21,6.35,5.35,11.49-.53,3.18-5.08,6.31-2.53,8.77,2.24,2.16,6.53-.79,9.98-1.03,1.49-.1,2.98-.3,4.48-.35,10.4-.36,19.33,1.71,26.4,10.77,7.06,9.05,17.15,14.41,29.66,17.83Zm92.34-119.85c15.16-.43,103.84-51.23,107.47-61.56-21.65,5.01-99.57,49.64-107.47,61.56Zm-320.82-46.11c-.6-.02-1.75-.36-2.36,.66-.84,1.42,.3,2.49,.96,3.61,5.14,8.72,4.93,13.95-1.38,21.86-2.79,3.49-6.08,6.6-9.2,9.82-2.67,2.76-5.22,5.63-6.96,9.07-.93,1.84-2.59,4.25-.47,5.89,1.9,1.47,3.77-.62,5.14-1.92,5.18-4.93,10.41-9.83,15.24-15.09,7.59-8.25,16.25-12.53,27.6-8.9,1.05,.33,2.4,.93,3.2-.31,.74-1.14-.13-2.27-.71-3.23-7.08-11.63-17.77-18.09-31.06-21.45Zm-83.91-56.83c3.34,5.56,8.13,9.32,12.69,13.32,16.86,14.77,35.1,27.52,55.1,37.69,1.4,.71,3.3,2.36,4.49,.89,1.34-1.67-.96-2.87-2.02-3.93-18.03-18.03-38.11-33.26-61.24-44.23-2.94-1.39-6.01-2.49-9.03-3.73Zm353.11,130.64c-10.37,3.66-21.62,7.47-30.19,16.22-3.49,3.56-7.4,5.89-12.19,7.36-10.59,3.26-20.58,7.81-28.34,16.12-.94,1.01-2.76,2.03-1.58,3.69,.9,1.26,2.51,.44,3.72,.02,7.07-2.5,14.85-4.31,20.3-9.38,10.78-10.03,24.01-15.16,37.02-20.93,1.06-.47,2.14-.98,3.07-1.66,3.48-2.56,6.93-5.18,10.34-7.84,.77-.6,1.55-1.44,1.26-2.55-.34-1.29-1.5-1.08-3.4-1.05ZM167.67,597.27c.21,.41,.43,.82,.64,1.23,.8,0,1.62,.14,2.38-.02,18.21-3.72,34.44-11.83,49.54-22.41,1-.7,2.72-1.47,1.9-3.03-.72-1.37-2.41-.83-3.65-.54-11.54,2.72-22.51,6.97-32.8,12.86-6.26,3.59-12.35,7.45-18.02,11.9ZM572.53,53.44c-.07,5.54,2.52,9.83,5.53,13.98,6.03,8.32,14.57,13.99,21.98,20.85,1.04,.96,2.42,2.68,3.76,1.84,1.79-1.11,.34-3.05-.13-4.49-5.1-15.81-19.6-22.5-31.14-32.19Z"/>
  <path class="cls-1" d="M1716.89,251.08v319.92c-12.61,1.22-25.14,2.93-37.58,5.37-18.96,3.72-37.76,8.28-57.07,10.1-28.86,2.72-54.98-3.32-76.89-23.4-1.38-1.26-2.66-3.02-5.38-2.59,2.12,6.89,7.54,10.44,12.92,13.98,6.95,4.57,14.26,8.66,19.5,15.41,3.61,4.66,3.2,5.94-2.68,6.97-13.62,2.38-27.26,4.69-40.9,6.95-4.93,.81-9.88,1.58-14.92,1.05-4.62-.49-7.46-3-7.75-7.66-.74-11.82,1.41-23.26,5.48-34.28,2.11-5.7,6.23-7.8,12.29-7.22,2.97,.29,5.89,1.09,8.84,1.62,.98,.18,2.19,.44,2.57-.74,.2-.62-.23-1.62-.67-2.23-2.24-3.11-4.63-6.11-6.89-9.2-10.17-13.98-8.76-21.41,6.06-30.51,11.78-7.24,23.84-13.98,36.19-20.25,11.28-5.72,22.55-11.58,31.99-20.26,1.15-1.06,3.21-2.02,2.08-3.98-.85-1.47-2.71-.93-4.16-.67-1.31,.23-2.59,.63-3.86,1.02-10.68,3.28-20.44,8.49-28.55,16.03-9.12,8.48-20.02,12.91-31.54,16.48-6.23,1.93-7.65,.88-6.72-5.56,1.24-8.59,3.46-16.98,5.66-25.35,2.47-9.38,4.14-18.88,4.67-28.55,.12-2.21,.6-5.57-1.77-6.17-2.08-.52-2.85,2.79-3.81,4.62-5.71,10.83-7.35,22.74-9.1,34.62-1.73,11.72-3.75,23.38-8.59,34.32-3.2,7.22-8.52,11.23-16.73,11.13-4.53-.06-8.96-.59-13.39-1.4-1.55-.28-3.51-.89-4.05,1.55-1.09,4.87,6.09,14.41,11.11,14.83,11.36,.95,15.67,6.36,13.65,17.72-1.45,8.2-3.36,16.31-5.14,24.45-1.42,6.52-2.77,13.09-6.02,19-5,9.12-11.87,17.05-22.49,18.13-11.66,1.18-23.48,2.74-35.35,.78-12.52-2.07-21.71-11.93-22.95-24.68-.69-7.15,1.64-12.28,7.95-15.75,3.65-2,7.27-4.1,10.05-7.32,.74-.86,1.95-1.78,1.24-3-.76-1.3-2.15-.53-3.17-.16-5.97,2.12-11.91,4.31-17.85,6.49-3.12,1.15-6.4,2.03-9.31,3.59-3.86,2.07-6.38,5.76-6.74,9.96-.3,3.51,3.87,3.55,6.16,4.92,7.92,4.75,12.17,11.68,12.58,20.86,.53,11.7-3.33,15.96-15.06,15.88-9.07-.06-17.91,1.19-26.76,2.93-14.88,2.92-29.8,5.62-44.71,8.35-6.32,1.16-7.33,.36-7.35-5.9,0-1.91-.68-2.48-2.34-2.01-1.44,.41-2.84,.96-4.22,1.54-24.27,10.1-49.47,16.8-75.29,21.55-30.64,5.64-61.52,9.95-91.87,17.17-9.76,2.32-19.52,2.26-28.93-1.86-2.72-1.19-4.46-.42-5.53,2.27-1.97,4.95-5.83,6.82-10.97,7.15-12.63,.81-25.2,2.03-37.6,4.86-8.92,2.03-18,3.36-27.25,3.04-8.4-.3-14.21-4.05-17.33-11.92-1.97-4.97-3.49-10.07-4.42-15.34-6.44-36.59-12.89-73.17-19.32-109.76-.25-1.42-1.18-3.32,.3-4.2,1.86-1.11,2.88,1.05,4.08,2.04,7.83,6.48,15.6,13.02,23.41,19.51,.84,.7,1.8,1.95,3.01,1.05,1.13-.85,.41-2.19,.03-3.24-2.22-6.1-6.18-10.92-10.91-15.28-5.26-4.83-11.07-9.07-15.48-14.82-6.31-8.24-5.6-14.3,2.99-20.15,5.94-4.04,12.57-6.84,19.08-9.83,13.15-6.04,26.84-11.06,38.48-19.98,1.33-1.02,3.11-1.76,3.5-4.42-9.96,1.39-18.83,4.64-27.31,8.89-13.55,6.78-26.85,14.06-40.45,20.74-7.2,3.54-7.92,2.92-9.49-4.87-6.9-34.13-13.47-68.33-20.81-102.37-4.29-19.87,1.71-35.3,17.23-47.71,5.46-4.36,10.71-9,15.04-14.56,2.96-3.8,5.39-7.81,5.51-13.25-2.71,.55-4.13,2.21-5.7,3.63-10.72,9.73-21.42,19.5-32.18,29.19-4.53,4.08-5.76,3.72-6.92-2.16-6.54-33.35-12.96-66.73-19.55-100.07-.99-5.02-.17-9.21,3.51-12.8,3.06-2.98,3.14-5.05-1.45-6.71-4.44-1.61-5.59-4.82-3.93-9.24,1.7-4.51,5.06-6.86,9.87-7.16,4.98-.31,10.01,.36,14.94-.83,.94-.23,2.13-.69,2.8,.28,.84,1.21-.2,2.22-.91,3.09-2.8,3.46-6.9,5.16-10.42,7.65-1.79,1.27-5.05,2.46-3.79,5.05,1.28,2.63,4.21,.66,6.29,.06,12.82-3.66,25.25-8.49,38.04-12.28,21.06-6.25,41.54-4.15,61.8,3.01,10.24,3.62,14.21,10.61,12.87,21.4-.23,1.82-.3,3.65-.44,5.48,0,0,0,0,0,0,13.13-7.11,24.23-4,34.18,6.41,2.85,2.99,6.55,5.17,10.69,6.23,1.2,.31,2.76,1.23,3.6-.29,.63-1.14-.61-2.14-1.3-3.03-4.75-6.13-10.38-11.22-17.26-14.92-3.82-2.05-6.13-5.22-5.66-9.74,.5-4.84,2.93-8.51,7.6-10.25,2-.74,4.2-1.22,6.32-1.28,16.81-.44,33.64-1.31,50.44-.95,17.62,.37,34.34,4.3,48.22,16.39,3.86,3.37,6.33,8.02,11.11,11.73-.58-5.35-2.59-9.36-3.95-13.52-2.21-6.72-1.67-7.62,5.26-7.75,1.83-.03,3.67-.01,5.5-.01,46.66,0,93.32,.04,139.98-.05,7.39-.01,14.55,.67,21.69,2.77,8.01,2.36,16.29,3.22,24.69,3.31,14.67,.17,29.3-.77,43.95-.96,24.16-.32,48.32-.07,72.49-.06,1.67,0,3.33-.02,5,.05,2.36,.1,4.87,.13,5.82,2.88,.9,2.63-.01,4.94-1.92,6.83-.94,.93-2.07,1.66-3.12,2.48-1.39,1.08-3.89,1.88-3.08,3.97,.97,2.5,3.5,1.28,5.29,.79,7.4-2.01,14.81-3.96,22.37-5.29,10.92-1.92,15.21,1.83,14.27,12.75-1.47,16.98-4.71,33.64-9.25,50.06-3.51,12.7-6.55,25.5-7.65,38.67-.13,1.61-.94,4.05,.65,4.59,2.35,.79,2.46-2.11,3.29-3.52,1.17-2,2.06-4.19,2.92-6.35,5.77-14.48,8.87-29.66,11.8-44.88,2.52-13.09,4.54-26.3,8.88-38.95,4.19-12.22,11.25-17.96,22.96-17.96,14.98,0,29.96,.55,44.94,1.12,22.12,.85,44.27,1.29,66.21,4.73Zm-681.9,326.91h-.01c.71,5.51,3.9,9.81,6.91,14.19,5.92,8.63,14.51,14.51,22.16,21.35,1.03,.92,2.1,2.9,3.62,1.76,1.4-1.05,.08-2.79-.44-4.1-6.18-15.48-18.04-25.48-32.23-33.19Zm250.98-195.23c4.4,.41,6.78-.68,7.81-3.91,.81-2.54,1.61-5.08,2.3-7.65,.82-3.09-.46-4.83-3.62-5.14-5.24-.51-8.82-3.46-11.75-7.6-1.63-2.3-3.54-4.41-5.49-6.46-.99-1.04-2.25-2.39-3.88-1.43-1.39,.82-.81,2.4-.58,3.67,.34,1.97,.85,3.91,1.2,5.87,.31,1.75,1.44,3.78-.15,5.21-1.85,1.67-3.8,.11-5.52-.72-3.29-1.59-6.23-3.9-9.87-4.77-.96-.23-2.09-.59-2.78,.38-.73,1.02,.13,1.87,.72,2.65,.61,.79,1.3,1.52,1.9,2.32,6.52,8.58,5.53,14.32-3.51,20.34-1.52,1.01-3.06,2.06-4.72,2.8-21.91,9.76-43.66,19.87-65.32,30.16-31.14,14.79-61.38,31.46-93.36,44.5-6.03,2.46-11.02,6.83-15.8,11.27-.83,.77-1.85,1.84-1.22,3.03,.74,1.38,2.07,.47,3.13,.2,1.29-.33,2.55-.77,3.81-1.22,23.28-8.21,45.83-18.15,68.05-28.87,38.12-18.39,74.91-39.34,112.68-58.41,8.62-4.36,17.22-8.14,25.99-6.21Zm235.89-125.51c-3.24,.19-6.12,1.47-8.98,2.86-36.09,17.54-72.16,35.1-108.27,52.6-14.38,6.97-28.85,13.75-43.24,20.7-13.19,6.37-26.36,12.8-39.47,19.34-2.3,1.15-5.64,2.91-4.32,5.73,1.23,2.62,4.2,.18,6.18-.56,30.96-11.49,60.55-26.04,90.05-40.77,32.77-16.37,65.24-33.35,99.21-47.2,4.33-1.77,8.46-4,11.39-7.84,.8-1.04,1.76-2.19,1.02-3.61-.75-1.43-2.24-1.19-3.55-1.23Zm-228.55,135.77c1.66,7.66,4.63,15.13,11.25,20.61,1.74,1.44,3.88,2.56,5.56-.03,2.84-4.4,6.36-3.59,9.88-1.34,3.35,2.14,6.51,4.6,9.69,6.99,3.99,3,7.96,6.04,12.75,7.68,1.52,.52,3.47,1.58,4.65,.06,1.39-1.78-.72-2.98-1.71-4.11-13.29-15-30.27-24.67-48.1-33.09-2.74-1.29-4.13-.3-3.97,3.24Zm-279.85-76.33c6.18-2.89,11.28-7.13,16.21-11.47,11.38-10.02,22.47-20.38,29.58-34.12,.87-1.67,3.11-3.74,1.37-5.26-1.6-1.4-3.05,1.26-4.37,2.31-10.44,8.31-19.99,17.61-29.01,27.39-5.69,6.17-11.02,12.77-13.78,21.16Zm526.52,114.19c10.84-13.19,10.48-28.67,9.01-44.38-7.63,13.85-11.53,28.46-9.01,44.38Zm-271.81-87.7c-1.65-7.31-4.46-14.38-8.28-21.06-2.43-4.24-5.61-7.82-9.71-10.52-.91-.6-1.97-1.71-3.08-.65-.82,.78-.13,1.88,.24,2.78,2.33,5.68,4.47,11.46,7.11,17,2.5,5.26,5.74,10.12,10.35,13.87,.76,.61,1.59,1.38,2.66,.95,.94-.38,.78-1.33,.7-2.37Zm131.97,228.63c-3.12-11.58-7.46-22.95-17.29-31.31-.74-.63-1.58-1.6-2.59-.88-1.16,.82-.56,2.16-.3,3.23,2.28,9.29,6.01,17.91,12.04,25.4,1.65,2.05,3.69,3.79,5.64,5.58,.42,.38,1.27,.64,1.79,.5,1.01-.28,.8-1.27,.71-2.52Zm-41.86-72.41c-1.75,.1-1.76,1.19-1.55,2.16,2.74,12.42,8.01,23.47,17.63,32.12,.61,.55,1.42,1.12,2.23,.61,1.05-.66,.68-1.79,.43-2.71-3.05-11.52-7.31-22.39-16.58-30.53-.73-.64-1.55-1.19-2.17-1.66Zm-4.16-7.7c-3.13-11.55-7.48-22.91-17.33-31.25-.74-.62-1.57-1.54-2.59-.77-.93,.7-.53,1.85-.31,2.79,1.37,5.84,3.49,11.42,6.23,16.73,2.75,5.33,6.33,10.1,10.81,14.14,.72,.65,1.55,1.45,2.62,.99,.94-.4,.68-1.37,.58-2.63Zm-22.73-39.07c-.03-.24-.04-.41-.08-.57-3.28-11.82-7.52-23.11-17.26-31.38-.74-.63-1.53-1.69-2.54-1.1-1.26,.75-.57,2.12-.33,3.18,2.38,10.57,6.78,20.13,14.24,28.12,1.12,1.2,2.45,2.27,3.85,3.12,1.39,.84,2.17,.15,2.13-1.37Z"/>
  <path class="cls-1" d="M1641.9,.14c23.46,0,46.92,.15,70.38-.14,4.34-.05,4.71,1.23,4.71,5.01-.12,78.36-.09,156.71-.09,235.07-10.82,.36-21.55-1.66-32.43-.69-16.61,1.48-33.3,1.02-49.93,.3-12.63-.54-25.26-1.66-37.7-4.2-1.42-.29-3.27-.35-3.63-2.13-.38-1.84,1.38-2.49,2.6-3.26,8.61-5.42,17.6-10.16,26.72-14.63,14.96-7.33,30.1-14.27,44.95-21.81,8.53-4.33,16.45-9.78,24.21-16.09-2.55-1.38-4.26-.34-5.9,.16-10.24,3.09-20.22,6.97-29.45,12.32-14.57,8.45-30.53,14.15-44.83,23.11-3.91,2.45-8.24,2.67-12.16-.44-4.09-3.25-3.87-7.55-2.42-11.85,2.23-6.65,3.94-13.41,5.37-20.26,2.92-14.02,7.98-27.54,9.98-41.78,.79-5.6,1.82-11.19,1.6-16.89-.06-1.43,.44-3.49-1.24-3.99-2.05-.61-2.6,1.65-3.43,2.96-.88,1.4-1.54,2.95-2.18,4.48-3.72,8.81-5.83,18.06-7.12,27.5-2.69,19.67-6.29,39.14-11.85,58.22-3.86,13.26-12.29,21.02-26.4,22.01-3.49,.24-6.96,.89-10.44,.91-19.16,.09-38.32,.04-57.48,.05-2.84,0-5.69-.08-8.38-1.11-10.28-3.92-20.94-5.23-31.89-4.89-16.47,.51-32.94,1.7-49.43,.86-30.91-1.58-61.8-3.78-92.74-4.64-24.29-.67-48.6-1.88-72.92-1.22-7.89,.21-15.64-1.03-23.23-3.01-13.84-3.61-24.79-11.33-31.93-23.86-5.89-10.33-9.99-21.46-12.98-32.92-2.81-10.76-.34-16.3,8.86-22.59,14.71-10.05,30.84-17.06,47.66-22.7,5.55-1.86,10.76-4.57,14.8-9,1.24-1.36,3.94-2.54,2.53-4.78-1.15-1.84-3.73-1.2-5.61-.72-6.48,1.64-12.71,3.98-18.53,7.32-2.35,1.35-4.75,2.79-7.4,.82-2.83-2.11-2.23-4.91-1.27-7.71,.22-.63,.47-1.25,.64-1.89,.65-2.5-.36-3.32-2.53-2.09-2.6,1.47-5.25,2.99-7.47,4.95-5.62,4.95-11,10.17-16.49,15.27-4.4,4.09-8.92,8.03-14.29,10.83-5.87,3.06-11.47,2.67-16.92-1.2-5.08-3.6-9.1-8.29-13.59-12.5-1.22-1.15-2.17-2.94-4.37-2.76-.42,2.4,1.04,4,1.75,5.8,5.27,13.41,2.48,24.55-8.52,33.55-4.3,3.52-9.38,5.69-14.37,7.99-1.58,.73-3.63,.86-4.49,3.47,4.9,1.49,9.2-.35,13.42-1.95,5.91-2.25,11.64-5,17.57-7.18,2.68-.99,6.37-3.37,8.35-.85,2.2,2.8-1.15,5.79-2.8,8.32-5.79,8.88-14.06,15.53-21.36,23.04-3.64,3.74-6.76,7.8-9.19,12.39-.75,1.42-1.88,3.19-.28,4.57,1.58,1.37,3.16,0,4.51-.89,5.24-3.44,9.18-8.17,12.79-13.21,3.9-5.45,8.16-10.53,13.82-14.28,6.59-4.37,13.79-4.16,19.88,.92,5.48,4.56,9.53,10.22,11.83,17.02,1.5,4.43,3.31,8.7,5.3,12.93,4.96,10.53,1.86,15.84-9.65,16.77-1.66,.13-3.33,.1-4.99,.14-8.33,.18-16.63-.46-24.95-.87-10.71-.53-20.81-2.88-29.99-8.39-3.83-2.3-7.26-2.49-11.32-.84-19.52,7.94-38.84,5.78-57.97-1.58-4.44-1.71-4.65-3.2-1.51-6.89,5.93-6.96,13.9-10.76,22.05-14.23,5.71-2.43,11.13-5.31,16.01-9.13,1.15-.9,2.87-1.91,2.26-3.53-.78-2.08-2.85-1.2-4.4-.93-8.18,1.43-15.48,4.95-22.46,9.34-9.78,6.14-20.14,10.15-32.09,9.1-5.76-.51-10.92-2.9-16.45-4.04,0,0,0,0,0,0,.33,.77,.63,1.54,.99,2.29,4.97,10.38,2.57,15.12-8.71,17.11-1.15,.2-2.31,.37-3.47,.46-18.63,1.31-37.26,1.13-55.89,.06-4.46-.26-8.24-1.83-9.96-6.27-7.38-19.02-10.49-38.84-10.79-59.15-.05-3.47,1.54-6.25,5.16-7.07,4.26-.98,3.64-2.85,1.42-5.46-5.42-6.39-10.11-13.23-12.87-21.25-5.48-15.98-8.87-32.46-11.42-49.1-1.35-8.79,3.2-15.9,11.27-19.89,4.84-2.4,10.1-3.36,15.29-4.57,5.86-1.37,11.7-2.79,16.73-6.3,3.22-2.25,6.79-3.35,10.63-4.06,29.21-5.37,58.18-11.63,85.61-23.52,2.3-1,4.67-1.86,6.01-4.22h242.97c-1.83,6.23-6.71,10.17-11.03,14.5-4.24,4.25-8.31,8.62-10.73,14.23-.51,1.18-1.34,2.6,0,3.66,1.09,.85,2.28-.01,3.2-.65,12.19-8.39,22.27-18.77,29.54-31.74,110.99,0,221.97,0,332.96,0-2.62,10.49-5.32,20.96-7.84,31.47-2.4,10.04-4.37,20.17-4.08,30.58,.03,1.13-.15,2.63,1.12,3.08,1.74,.6,2.2-1.13,2.77-2.21,3.11-5.91,5.38-12.14,7.21-18.57,4.12-14.5,4.9-29.5,6.82-44.34Zm-326.19,71.5c44.36-14.02,87.01-31.59,125.43-58.21-43.65,15.47-86.52,32.62-125.43,58.21Zm-311.71,116.08c-7.12-13.87-41.97-37.49-54.51-36.79,15.66,16.21,33.11,28.51,54.51,36.79Zm250.44-85.92c.61-.11,1.43-.23,2.24-.42,17.29-3.99,32.55-12.21,46.88-22.4,.88-.63,2.38-1.27,1.63-2.65-.66-1.22-2.1-.66-3.2-.46-18.25,3.31-33.85,12.35-48.9,22.58-.8,.54-1.8,1.2-1.42,2.35,.39,1.18,1.58,.98,2.77,.99Zm-28.43-17.95c.56-.25,.89-.35,1.16-.53,12.57-8.24,23.08-18.42,30.07-31.91,.44-.86,1.1-1.97,.25-2.76-1.09-1.02-2.18,0-3.12,.58-5.67,3.5-11.02,7.49-15.87,12.03-5.74,5.37-10.32,11.71-13.19,19.12-.46,1.19-1.5,2.84,.69,3.46Zm-117.91-19.8c-.83-2.77-1.67-6.17-2.86-9.43-3.06-8.36-7.2-16.06-14.26-21.82-1-.82-2.12-2.08-3.49-1.24-1.47,.89-.66,2.41-.22,3.6,1.31,3.58,2.6,7.18,4.13,10.68,3.21,7.35,7.06,14.3,13.37,19.54,.75,.63,1.45,1.54,2.54,1.31,1.06-.23,.93-1.2,.8-2.63Zm22.84,39.64c-1.08-3.17-2.38-7.1-3.76-11.01-2.65-7.48-6.77-14.03-12.63-19.42-.93-.86-1.91-2.35-3.35-1.44-1.35,.86-.69,2.47-.32,3.68,1.12,3.64,2.22,7.31,3.62,10.85,2.92,7.36,7.29,13.76,13.26,19.02,.73,.64,1.43,1.6,2.52,1.28,1.01-.3,.73-1.32,.66-2.95Z"/>
  <path class="cls-2" d="M1008.99,191.09c5.53,1.13,10.69,3.53,16.45,4.04,11.94,1.05,22.31-2.96,32.09-9.1,6.98-4.39,14.28-7.91,22.46-9.34,1.55-.27,3.62-1.15,4.4,.93,.61,1.62-1.12,2.64-2.26,3.53-4.89,3.82-10.31,6.7-16.01,9.13-8.15,3.47-16.11,7.27-22.05,14.23-3.15,3.69-2.94,5.19,1.51,6.89,19.13,7.36,38.45,9.52,57.97,1.58,4.06-1.65,7.49-1.46,11.32,.84,9.18,5.51,19.28,7.86,29.99,8.39,8.32,.41,16.61,1.05,24.95,.87,1.67-.04,3.34,0,4.99-.14,11.52-.93,14.61-6.24,9.65-16.77-1.99-4.23-3.8-8.51-5.3-12.93-2.3-6.8-6.35-12.46-11.83-17.02-6.09-5.07-13.28-5.29-19.88-.92-5.66,3.75-9.92,8.83-13.82,14.28-3.6,5.03-7.55,9.77-12.79,13.21-1.35,.88-2.92,2.27-4.51,.89-1.6-1.38-.47-3.15,.28-4.57,2.43-4.59,5.55-8.65,9.19-12.39,7.3-7.51,15.57-14.16,21.36-23.04,1.65-2.52,5-5.51,2.8-8.32-1.98-2.51-5.67-.13-8.35,.85-5.93,2.19-11.66,4.93-17.57,7.18-4.21,1.61-8.52,3.45-13.42,1.95,.86-2.61,2.91-2.75,4.49-3.47,4.99-2.3,10.07-4.47,14.37-7.99,11-9,13.78-20.15,8.52-33.55-.71-1.8-2.17-3.39-1.75-5.8,2.2-.18,3.14,1.61,4.37,2.76,4.49,4.21,8.51,8.9,13.59,12.5,5.45,3.86,11.05,4.26,16.92,1.2,5.37-2.8,9.89-6.74,14.29-10.83,5.49-5.1,10.87-10.32,16.49-15.27,2.22-1.96,4.87-3.49,7.47-4.95,2.18-1.23,3.19-.41,2.53,2.09-.17,.64-.42,1.26-.64,1.89-.96,2.8-1.56,5.61,1.27,7.71,2.65,1.97,5.05,.53,7.4-.82,5.82-3.34,12.05-5.68,18.53-7.32,1.87-.47,4.45-1.12,5.61,.72,1.4,2.24-1.29,3.42-2.53,4.78-4.04,4.42-9.25,7.14-14.8,9-16.82,5.64-32.95,12.65-47.66,22.7-9.21,6.29-11.67,11.83-8.86,22.59,2.99,11.46,7.09,22.59,12.98,32.92,7.15,12.53,18.09,20.25,31.93,23.86,7.59,1.98,15.34,3.22,23.23,3.01,24.32-.65,48.63,.55,72.92,1.22,30.93,.85,61.82,3.05,92.74,4.64,16.49,.84,32.96-.35,49.43-.86,10.95-.34,21.61,.97,31.89,4.89,2.69,1.02,5.54,1.11,8.38,1.11,19.16,0,38.32,.05,57.48-.05,3.48-.02,6.96-.66,10.44-.91,14.11-.99,22.54-8.74,26.4-22.01,5.56-19.08,9.17-38.55,11.85-58.22,1.29-9.44,3.4-18.68,7.12-27.5,.65-1.53,1.3-3.09,2.18-4.48,.83-1.31,1.38-3.57,3.43-2.96,1.68,.5,1.19,2.55,1.24,3.99,.22,5.7-.81,11.29-1.6,16.89-2,14.24-7.06,27.76-9.98,41.78-1.43,6.86-3.14,13.62-5.37,20.26-1.44,4.3-1.67,8.6,2.42,11.85,3.92,3.11,8.25,2.9,12.16,.44,14.3-8.97,30.26-14.66,44.83-23.11,9.24-5.36,19.21-9.23,29.45-12.32,1.64-.5,3.35-1.54,5.9-.16-7.77,6.31-15.68,11.76-24.21,16.09-14.85,7.54-30,14.49-44.95,21.81-9.12,4.47-18.11,9.21-26.72,14.63-1.22,.77-2.98,1.42-2.6,3.26,.37,1.78,2.21,1.84,3.63,2.13,12.44,2.54,25.07,3.65,37.7,4.2,16.63,.72,33.32,1.18,49.93-.3,10.89-.97,21.62,1.05,32.43,.69v11c-21.94-3.44-44.09-3.89-66.21-4.73-14.97-.57-29.96-1.12-44.94-1.12-11.72,0-18.77,5.74-22.96,17.96-4.34,12.65-6.36,25.87-8.88,38.95-2.93,15.23-6.03,30.41-11.8,44.88-.86,2.16-1.75,4.35-2.92,6.35-.83,1.41-.94,4.31-3.29,3.52-1.59-.54-.79-2.98-.65-4.59,1.1-13.18,4.14-25.97,7.65-38.67,4.53-16.42,7.78-33.08,9.25-50.06,.94-10.92-3.34-14.67-14.27-12.75-7.56,1.33-14.97,3.28-22.37,5.29-1.79,.49-4.32,1.71-5.29-.79-.81-2.09,1.69-2.89,3.08-3.97,1.05-.82,2.18-1.55,3.12-2.48,1.91-1.88,2.82-4.2,1.92-6.83-.94-2.75-3.46-2.79-5.82-2.88-1.66-.07-3.33-.05-5-.05-24.16-.01-48.33-.26-72.49,.06-14.65,.2-29.28,1.13-43.95,.96-8.4-.09-16.68-.95-24.69-3.31-7.14-2.1-14.3-2.78-21.69-2.77-46.66,.09-93.32,.05-139.98,.05-1.83,0-3.67-.02-5.5,.01-6.93,.13-7.47,1.02-5.26,7.75,1.37,4.16,3.37,8.17,3.95,13.52-4.78-3.71-7.24-8.36-11.11-11.73-13.87-12.09-30.6-16.02-48.22-16.39-16.8-.35-33.63,.51-50.44,.95-2.12,.06-4.33,.54-6.32,1.28-4.67,1.74-7.1,5.41-7.6,10.25-.47,4.52,1.84,7.69,5.66,9.74,6.88,3.69,12.51,8.79,17.26,14.92,.69,.89,1.93,1.89,1.3,3.03-.84,1.52-2.4,.6-3.6,.29-4.14-1.06-7.84-3.24-10.69-6.23-9.95-10.41-21.05-13.52-34.18-6.41,0,0,0,0,0,0,.14-1.83,.21-3.66,.44-5.48,1.34-10.79-2.63-17.78-12.87-21.4-20.26-7.16-40.73-9.26-61.8-3.01-12.79,3.8-25.22,8.62-38.04,12.28-2.08,.59-5.01,2.57-6.29-.06-1.26-2.58,2-3.77,3.79-5.05,3.52-2.49,7.62-4.2,10.42-7.65,.71-.88,1.75-1.88,.91-3.09-.67-.97-1.86-.5-2.8-.28-4.93,1.19-9.96,.53-14.94,.83-4.82,.3-8.18,2.65-9.87,7.16-1.66,4.42-.51,7.63,3.93,9.24,4.59,1.67,4.51,3.73,1.45,6.71-3.68,3.59-4.51,7.78-3.51,12.8,6.59,33.34,13.01,66.72,19.55,100.07,1.15,5.88,2.39,6.24,6.92,2.16,10.76-9.69,21.46-19.46,32.18-29.19,1.57-1.42,2.99-3.08,5.7-3.63-.11,5.44-2.55,9.44-5.51,13.25-4.33,5.56-9.58,10.19-15.04,14.56-15.53,12.41-21.52,27.84-17.23,47.71,7.34,34.04,13.9,68.24,20.81,102.37,1.57,7.79,2.29,8.41,9.49,4.87,13.6-6.68,26.9-13.96,40.45-20.74,8.48-4.24,17.35-7.49,27.31-8.89-.39,2.66-2.18,3.41-3.5,4.42-11.65,8.92-25.33,13.94-38.48,19.98-6.51,2.99-13.14,5.79-19.08,9.83-8.59,5.85-9.3,11.91-2.99,20.15,4.41,5.76,10.22,9.99,15.48,14.82,4.74,4.35,8.69,9.18,10.91,15.28,.38,1.05,1.1,2.4-.03,3.24-1.21,.9-2.17-.36-3.01-1.05-7.82-6.49-15.59-13.03-23.41-19.51-1.2-.99-2.22-3.14-4.08-2.04-1.47,.88-.54,2.78-.3,4.2,6.42,36.59,12.87,73.18,19.32,109.76,.93,5.27,2.45,10.37,4.42,15.34,3.11,7.87,8.92,11.62,17.33,11.92,9.25,.33,18.33-1,27.25-3.04,12.4-2.83,24.97-4.05,37.6-4.86,5.15-.33,9-2.19,10.97-7.15,1.07-2.69,2.82-3.46,5.53-2.27,9.41,4.12,19.16,4.18,28.93,1.86,30.35-7.22,61.23-11.52,91.87-17.17,25.82-4.75,51.03-11.45,75.29-21.55,1.38-.58,2.79-1.13,4.22-1.54,1.67-.47,2.34,.09,2.34,2.01,.02,6.26,1.02,7.06,7.35,5.9,14.91-2.73,29.84-5.42,44.71-8.35,8.85-1.74,17.69-3,26.76-2.93,11.73,.08,15.59-4.18,15.06-15.88-.42-9.18-4.66-16.11-12.58-20.86-2.29-1.37-6.46-1.41-6.16-4.92,.36-4.2,2.88-7.89,6.74-9.96,2.91-1.56,6.19-2.44,9.31-3.59,5.94-2.19,11.88-4.38,17.85-6.49,1.02-.36,2.41-1.14,3.17,.16,.71,1.21-.5,2.14-1.24,3-2.77,3.22-6.4,5.32-10.05,7.32-6.31,3.46-8.65,8.6-7.95,15.75,1.24,12.75,10.42,22.61,22.95,24.68,11.86,1.96,23.69,.4,35.35-.78,10.62-1.07,17.49-9.01,22.49-18.13,3.24-5.91,4.6-12.48,6.02-19,1.77-8.14,3.68-16.26,5.14-24.45,2.02-11.36-2.3-16.77-13.65-17.72-5.02-.42-12.2-9.97-11.11-14.83,.55-2.44,2.5-1.83,4.05-1.55,4.44,.8,8.87,1.34,13.39,1.4,8.21,.11,13.53-3.9,16.73-11.13,4.84-10.94,6.86-22.59,8.59-34.32,1.75-11.88,3.39-23.8,9.1-34.62,.96-1.83,1.74-5.14,3.81-4.62,2.37,.59,1.89,3.96,1.77,6.17-.52,9.68-2.2,19.18-4.67,28.55-2.2,8.38-4.42,16.77-5.66,25.35-.93,6.45,.49,7.5,6.72,5.56,11.52-3.57,22.42-8.01,31.54-16.48,8.11-7.54,17.87-12.75,28.55-16.03,1.27-.39,2.55-.79,3.86-1.02,1.46-.26,3.32-.8,4.16,.67,1.13,1.96-.93,2.92-2.08,3.98-9.43,8.68-20.7,14.54-31.99,20.26-12.35,6.26-24.41,13.01-36.19,20.25-14.82,9.1-16.23,16.53-6.06,30.51,2.25,3.1,4.64,6.1,6.89,9.2,.44,.61,.87,1.61,.67,2.23-.38,1.18-1.59,.92-2.57,.74-2.95-.54-5.87-1.34-8.84-1.62-6.06-.58-10.18,1.52-12.29,7.22-4.08,11.01-6.23,22.46-5.48,34.28,.29,4.66,3.13,7.16,7.75,7.66,5.03,.54,9.99-.23,14.92-1.05,13.64-2.25,27.28-4.57,40.9-6.95,5.88-1.03,6.29-2.31,2.68-6.97-5.23-6.75-12.55-10.84-19.5-15.41-5.38-3.54-10.8-7.09-12.92-13.98,2.72-.43,4,1.33,5.38,2.59,21.91,20.08,48.03,26.12,76.89,23.4,19.3-1.82,38.11-6.37,57.07-10.1,12.44-2.44,24.97-4.15,37.58-5.37v11c-8.15,.22-16.31-.28-24.47,.52-24.26,2.38-47.81,8.89-71.95,12-7.46,.96-9.35,3.54-9.29,10.93,.03,3.06-.81,4.09-3.76,2.81-16.88-7.32-34.13-5.92-51.53-2.29-14.51,3.03-28.61,7.91-43.41,9.57-8.55,.96-12.97,6-14.89,13.89-2.96,12.14-6.05,24.25-8.84,36.42-3.55,15.46-6.55,30.98-3.83,46.99,.99,5.8,2.87,11.29,4.78,16.79,.32,.92,.89,2.07-.12,2.76-1.03,.71-1.84-.31-2.6-.92-1.95-1.55-3.83-3.21-5.84-4.68-2.02-1.48-3.96-1.16-4.89,1.2-4.45,11.35-12.18,21.55-11.58,34.67,.19,4.27-.5,8.69-1.48,12.88-6.45,27.73-11.01,55.89-18.99,83.27-4.39,15.07-7.8,30.33-9.13,45.99-.7,8.31,.84,9.65,8.77,7.91,21.31-4.69,42.66-9.22,63.93-14.12,13.95-3.21,28.03-6.14,41.49-11.11,12.98-4.79,15.52-10.09,12.43-23.5-.48-2.11-1.76-4.27-.53-6.68,2.51,.86,3.58,2.89,4.97,4.45,8.68,9.72,19.81,13.67,32.48,14.18,9.36,.37,18.62-.63,27.9-1.66,2.21-.24,5.79-1.35,6.31,.96,.66,2.95-3.19,3.21-5.36,3.88-7.8,2.43-15.64,4.71-23.07,8.15-8.66,4-10.9,8.48-8.44,17.61,1.73,6.43,3.95,12.72,5.94,19.08-4.77-.75-7.52-4.13-9.74-7.92-2.27-3.87-4.14-7.98-6.23-11.96-6.28-11.94-11.27-14.3-24.19-11.07-31.01,7.77-62,15.64-93,23.48-.48,.12-.99,.19-1.45,.39-1.29,.55-3.46,.27-3.41,2.22,.04,1.47,1.93,1.6,3.15,1.99,3.8,1.23,7.67,2.25,11.44,3.58,37.7,13.24,76.35,23.66,113.65,38.12,7.8,3.02,15.95,4.85,24.45,3.92,1.76-.19,4.01-.05,4.73-2.09,.66-1.87-1.29-2.87-2.3-4.1-8.83-10.73-15.27-22.57-17.12-36.57,8.71,6.89,15.42,15.56,18.24,26.16,3.35,12.58,11.41,20.12,22.41,25.53,1.49,.73,2.93,1.57,4.41,2.33,22.04,11.23,46.05,15.89,69.93,20.97v11c-1.64-.29-3.33-.4-4.9-.9-17.77-5.66-35.83-10.42-53.33-16.95-2.81-1.05-5.65-2.06-8.72-1.99-3.14,.08-4.82,1.45-3.76,4.75,1.73,5.36,3.42,10.55,7.73,14.83,7.29,7.24,10.02,16.81,12.65,27.39-4.11-1.23-5.68-3.65-7.33-5.82-4.05-5.34-7.63-11.1-9.43-17.52-3.56-12.71-12.41-21.04-22.44-28.44-13.16-9.7-28.64-13.86-44.1-18.14-39.36-10.89-77.93-24.26-116.66-37.13-9.36-3.11-18.85-5.26-28.87-5.21-5.66,.03-8.61,2.18-10.1,7.43-2.09,7.37-4.7,14.59-6.72,21.98-4.38,16.06-7.21,32.23-1.93,48.7,.84,2.61-.54,4.43-2.23,6.19-6.25,6.52-10.21,14.34-12.69,22.95-1.34,4.64-2.63,9.3-3.9,13.96-1.06,3.9-2.92,7.43-4.86,10.93-.62,1.11-1.29,2.88-2.78,2.37-1.74-.59-.67-2.3-.39-3.47,.96-4.05,2.04-8.07,3.06-12.11,2.26-8.92,3.6-18.03,3.44-27.19-.4-21.56-9.15-39.26-25.84-53-1.03-.84-2.81-1.38-2.14-3.62,3.94-.16,7.07,1.62,9.78,4.14,3.77,3.52,7.31,7.29,11.05,10.86,3.65,3.48,7.72,6.35,12.63,7.82,2.19,.66,4.4,.62,4.03-2.43-1.15-9.35,3.13-17.17,6.66-25.24,5.38-12.33-.63-23.16-13.97-24.86-14.33-1.83-27.83,2.75-32.97,19.17-.85,2.71-2.13,3.78-4.59,1.72-9.52-7.94-20.37-7.12-31.34-4.53-11.34,2.68-22.57,5.88-33.91,8.54-34.21,8.03-68.24,16.95-103.23,21.24-2.45,.3-5.04,.81-7.2,1.92-14.64,7.53-30.57,10.17-46.56,12.69-13.33,2.1-26.73,3.96-39.29,9.26-13.37,5.64-18.95,15.87-14.01,29.29,4.06,11.03,4.48,22.05,4.27,33.37h-2c-2.48-2.86-3.57-6.26-4.32-9.92-2.02-9.76-3.21-19.75-7.11-29.04-4.27-10.17-10.88-13.96-21.71-12.47-4.28,.59-8.58,1.21-12.78,2.23-66.31,16.06-132.8,31.38-199.36,46.37-2.13,.48-4.23,1.01-5.68,2.83h-38.99c1.84-2.26,4.55-2.64,7.13-3.24,20.61-4.8,41.1-10.11,61.89-14.12,3.25-.63,6.48-1.63,9.53-2.91,3.97-1.66,4.95-4.78,2.88-8.58-2.5-4.59-6.03-8.33-9.84-11.87-20.36-18.97-39.99-38.66-59.02-58.96-4.67-4.98-9.57-9.75-14.4-14.57-6.17-6.14-13.3-7.19-21.11-3.64-5.16,2.34-10.16,5.01-15.33,7.33-1.68,.76-4.07,2.27-5.37,0-1.16-2.05,1.15-3.56,2.39-5.02,1.33-1.56,3.25-2.27,5.07-3.11,2.26-1.05,4.59-2.03,6.69-3.35,7.08-4.47,8.06-9.48,3.37-16.35-3.98-5.84-9.09-10.68-14.3-15.32-14.95-13.31-28.53-28-42.8-41.99-10.59-10.38-20.91-21.03-31.5-31.41-12.48-12.24-23.55-25.86-36.96-37.2-4.41-3.73-7.88-8.55-8.31-14.82,2.09-.95,2.85,.75,3.88,1.61,9.86,8.22,19.17,17.02,28.21,26.13,18.07,18.22,36.68,35.93,54.26,54.59,12.24,12.99,25.15,25.23,37.97,37.59,8.98,8.66,18.37,16.91,27.68,25.23,4.13,3.7,7.21,8.27,10.89,12.34,11.4,12.59,22.61,25.38,35.01,37,17.99,16.87,35.38,34.34,52.68,51.91,5.62,5.71,11.84,7.55,19.48,5.84,21.14-4.74,42.28-9.44,63.44-14.08,27.34-6,54.7-11.93,82.04-17.91,1.95-.43,3.9-.93,5.78-1.58,9.26-3.19,12.87-8.73,11.19-18.38-1.48-8.53-3.62-16.94-5.53-25.39-9.32-41.3-16.62-82.98-22.95-124.83-.72-4.76-1.69-9.55-3.16-14.12-3.19-9.93-8.31-12.88-18.57-11.25-6.28,.99-12.31,2.93-18.39,4.71-1.28,.37-2.55,.8-3.84,1.1-.96,.22-2.08,.43-2.6-.73-.39-.86,.24-1.58,.77-2.22,2.28-2.75,5.19-4.64,8.38-6.17,5.27-2.53,10.47-5.23,14.76-9.26,5.85-5.5,5.18-8.63-2.44-11.01-31.8-9.96-63.6-19.92-95.46-29.66-12.14-3.71-24.03-8.03-35.55-13.31-17.75-8.14-35.84-10.75-55.45-7.69-49.23,7.7-98.35,15.95-147.4,24.67-11.81,2.1-23.62,4.22-35.46,6.14-5.52,.9-10.28,2.8-13.28,7.81-1.38,2.3-3.28,2.61-5.57,1.65-11.87-4.98-21.3-1.02-29.61,7.81-13.82,14.69-29.14,27.83-43.8,41.64-1.87,1.76-4.53,5.59-6.81,3.22-2.49-2.58,1.72-4.71,3.47-6.58,12.88-13.72,25.88-27.31,38.83-40.96,.78-.82,2.13-1.67,1.62-2.86-.7-1.63-2.36-.81-3.55-.57-24.85,4.88-49.74,9.56-74.5,14.85-12.77,2.73-15.74,9-11.43,21.29,1.78,5.08,3.63,10.15,1.31,15.91-1.27-2.82-2.52-5.64-3.8-8.46-9.24-20.23-24.93-27.69-46.54-22.16-3.38,.86-6.65,2.27-10.24,2.01-1.15-.08-2.52-.21-2.81-1.59-.29-1.41,.95-2.06,2-2.52,4.35-1.91,9.02-2.86,13.66-2.39,8.94,.89,16.63-2.58,24.41-6.04,2.85-1.27,3.96-3.3,3.3-6.42-1.11-5.25-4.33-8.88-8.49-9.33-2.22-.24-4.33,.28-6.33,1.16-10.82,4.76-21.98,8.78-32.15,14.93-2.27,1.37-4.56,2.81-6.56,4.54-3.71,3.21-3.49,4.23,.99,6.2,.77,.34,1.77,.49,1.86,1.43,.16,1.67-1.32,2.19-2.45,2.8-7.63,4.1-15.92,5.79-24.44,6.58-7.15,.66-14.34,1.17-20.01,6.48-1.25,1.17-3.02,1.58-4.69,1.44-6.06-.49-10.94,2.35-15.81,5.31-13.25,8.08-26.77,15.63-41.63,20.42-3.11,1-6.26,2.11-9.75,1.64,0-2.62,2.09-3.12,3.48-4.04,7.07-4.72,14.22-9.3,21.32-13.97,1.07-.71,2.83-1.33,2.52-2.79-.41-1.93-2.43-1.43-3.8-1.37-8.01,.38-15.89,1.75-23.76,3.17-10.19,1.83-20.48,3.84-30.78,2.59-11.18-1.35-22.14,14.6-17.77,26.02,1.42,3.71,3.41,4.89,7.24,3.57,10.4-3.59,20.86-6.99,31.29-10.45,1.26-.42,2.53-.86,3.83-1.12,.58-.12,1.48-.03,1.81,.34,.68,.77,.05,1.55-.53,2.15-1.32,1.38-3.07,2.01-4.83,2.5-29.89,8.44-46.2,29.33-53.59,58.4-.53,2.1-1.23,4.18-1.55,6.31-4.5,29.84-12.4,58.99-17.9,88.63-3.26,17.54-7.15,34.94-14.56,51.33-.4,.89-.94,1.72-1.39,2.53-1.19-.27-.94-1.05-.82-1.61,4.01-19.27,5.55-38.92,8.97-58.28,2.13-12.01,5.12-23.77,9.96-35.01,.72-1.66,1.64-3.52,1.51-5.21-1.12-14.33,3.26-27.66,7.02-41.13,2.33-8.35,4.49-16.73,4.86-25.47,.22-5.27-1.05-6.73-6.31-5.95-9.65,1.43-18.7,4.66-27.25,9.42-20.1,11.19-33.23,28.91-45.05,47.85-9.43,15.12-18.01,30.77-28.16,45.45-1.1,1.6-1.82,3.59-4.13,4.48-1.35-1.81-.23-3.49,.26-5.08,3.96-12.88,10.77-24.33,17.99-35.56,4.96-7.71,9.95-15.41,13.59-23.85,.8-1.86,2.78-4.05,.93-5.96-1.58-1.63-3.78-.04-5.64,.49-10.99,3.15-20.85,8.85-30.84,14.15-9.04,4.79-18.27,8.87-28.35,10.83-2.14,.42-4.43,.82-5.86,2.55-7.24,8.75-17.58,12.3-27.44,16.73-20.82,9.35-41.57,18.85-62.4,28.18-2.66,1.19-6.29,4.26-8.28,.23-2.24-4.52,2.73-5.3,5.46-6.56,15.44-7.1,30.97-14,46.46-20.97,3.96-1.79,7.72-3.92,11.15-6.61,8.81-6.91,18.62-11.61,29.77-13.34,3-.47,5.97-1.26,8.03-3.67,3.97-4.66,9.36-6.73,14.88-8.74,20.79-7.54,40.4-17.32,58.17-30.62,12.23-9.15,22.98-19.73,32.11-31.97,1.15-1.55,1.98-3.48,4.48-4.37,0,4.25-1.81,7.81-2.71,11.57-.75,3.13-3.92,6.94-1.45,9.24,2.19,2.04,5.72-1.3,8.58-2.4,8.09-3.11,16.14-6.39,23.54-10.95,11.59-7.14,18.28-17.18,18.16-31.25-.04-4.82-2.32-7-6.85-7.4-7.3-.63-13.43,2.03-18.66,6.85-4.04,3.72-8,7.54-11.38,11.91-.89,1.15-1.83,2.78-3.53,2.35-1.85-.47-1.42-2.39-1.57-3.82-.85-8.39-4.36-11.21-13.01-10.04-20.33,2.75-40.38,7.02-60.47,11.07-40.19,8.09-80.52,15.4-121.29,19.99-4.14,.47-8.28,.84-12.43,1.2-.44,.04-.91-.26-2-.59,2.43-2.25,5.15-2.93,7.71-3.87,21.77-8.04,44.63-10.84,67.41-13.94,17.2-2.34,34.22-5.52,50.94-10.16,18.41-5.12,37.23-7.07,56.23-8.26,22.61-1.41,41.29-10.88,55.49-28.77,.81-1.02,1.45-2.28,3.39-2.64,1.07,2.43-.66,4.32-1.32,6.33-1.28,3.84-3.04,7.76,1.7,10.58,4.68,2.79,10.75,1.63,13.87-2.63,2.76-3.75,3.82-8.16,4.31-12.64,.88-8.13,2.26-16.16,3.7-24.2,.24-1.35,1.32-3.32-.52-3.97-1.57-.56-2.51,1.35-3.31,2.54-2.43,3.59-4.7,7.27-7.07,10.9-1,1.53-1.98,3.11-3.17,4.48-1.26,1.45-2.61,3.7-4.85,2.43-1.93-1.09-.97-3.33-.48-5.04,1.93-6.79,5.17-13,8.93-18.92,3.57-5.62,7.49-11.03,11.01-16.69,4.29-6.89,7.1-14.06,2.56-22.05-.78-1.37-1.29-3.1,.93-3.56,7.13-1.49,8.59-7.29,9.89-13.02,2.69-11.86,5.14-23.77,7.66-35.67,6.64-31.46,13.3-62.92,19.86-94.4,1.06-5.1,3.04-9.86,4.71-14.74,3.48-10.14,1.12-15.43-8.09-20.65-16.64-9.43-32.5-8.76-48.39,1.98-7.72,5.22-16.21,9.28-25.57,10.95-2.05,.36-4.77,1.29-5.89-1.09-1.15-2.43,1.48-3.8,2.97-5.19,4.29-3.99,9.91-5.36,15.23-7.24,4.61-1.63,9-3.55,12.63-6.88,3.74-3.43,3.59-5.04-.87-7.38-12.31-6.45-25.43-10.83-38.69-14.79-19.79-5.92-40.19-10.12-59.16-18.36-17.62-7.66-35.44-13.8-54.24-18.06-27.51-6.24-53.39-17.75-79.67-27.85-3.25-1.25-6.49-2.51-9.75-3.77,.48-1.47,1.44-.96,2.1-.81,31.93,7.62,64.39,13.93,94.35,27.62,19.86,9.07,41.07,12.21,61.56,18.37,24.75,7.44,48.85,16.77,73.49,24.52,6.04,1.9,12.22,3.33,18.22,5.34,22.46,7.51,59.05-7.26,65.75-39.31,6.71-32.1,15.49-63.77,22.35-95.88,3.31-15.48,2.64-30.18-4.23-44.34-11.41-23.56-16.81-49.13-24.67-73.84-3.4-10.68-5.93-21.42-10.9-31.69-4.14-8.55-7.06-17.98-7.96-27.7-.36-3.9-2.6-4.52-5.86-4.21-12.47,1.19-24.72,3.67-36.87,6.59-29.02,6.96-57.13,17.14-86.02,24.57-14.2,3.65-28.48,7-43.19,7.95,4.37-5.96,11.07-7.72,17.64-9.6,20.66-5.91,41.36-11.69,62.02-17.59,26.43-7.56,52.84-15.18,79.25-22.81,1.86-.54,4.31-.63,4.81-2.98,.51-2.4-1.35-4.04-2.95-5.45-3.67-3.21-8.11-4.57-12.92-4.5-5.65,.07-11.5,1.4-16.9,.34-14.69-2.87-29.29-.63-43.84,.06-13.92,.65-27.8,.86-41.2-2.49-10.89-2.73-21.69-2.99-32.66-2.98-7.5,0-14.99,.09-22.49,0-19.65-.25-39.31,.63-58.95-.49-1.13-.06-2.54-.48-3.12,.84-.67,1.52,.71,2.45,1.6,3.34,11.94,11.9,21.6,25.78,33.17,37.99,10.49,11.07,22.06,20.79,36.59,26.31-.34,7.87,3.6,13.71,9.16,18.62,16.99,15.03,32.45,31.62,48.48,47.62,23.69,23.66,47.09,47.61,70.57,71.49,4.42,4.5,9.93,7.89,13.39,13.38,1.79,2.84,3.45,5.7,4.44,8.91,.33,1.08,.92,2.42-.22,3.26-1.24,.91-2.17-.27-3-1.01-3.96-3.56-8.03-7.02-11.8-10.78-38.92-38.84-77.81-77.72-116.65-116.65-4.81-4.82-8.99-10.23-14.44-14.46-7.3-5.66-14.95-9.81-24.59-9.45-6.47,.24-6.84-.45-5.87-6.94,1.32-8.87-1.53-16.49-7.27-23.05-2.84-3.25-6-6.29-9.38-8.96-9.05-7.14-17.3-14.83-24.3-24.21-10.95-14.67-26.56-21.73-44.62-23.65-1.54-.16-3.32,.42-4.97-1.51,5.39-.83,10.4-1.48,15.51-1.59,28.69-.67,57.23,1.5,85.81,3.66,22.38,1.69,44.78,2.55,67.34,1.84,22.74-.71,45.57-2.69,68.38-.52,6.18,.59,12.13,2.12,18.11,3.6,3.23,.8,6.49,1.59,9.78,1.97,9.31,1.08,14.04-3.94,12.24-13.09-2.86-14.48-9.27-27.78-14.19-41.57-4.82-13.52-9.3-27.12-10.23-41.6-.07-1.13-.57-2.31,.53-3.68,2.45,.78,3.02,3.2,4.07,5.1,8.15,14.74,12.43,30.85,16.6,47,2.7,10.49,5.3,21.01,9.59,31.01,5.42,12.66,12.58,17.89,26.32,17.11,16.28-.92,32.65-.32,48.84-2.85,6.61-1.03,13.1-2.41,19.29-5.03,6.59-2.79,10.66-7.53,12.46-14.57,5.09-19.89,8.09-40.17,11.57-60.36,2.55-14.81,6.08-29.37,11.58-43.39,.69-1.75,.88-3.96,3.55-4.94,1.55,4.65,.84,9.23,.41,13.77-2.86,30.38-11.09,59.56-19.78,88.64-2.93,9.81-2.09,10.91,8.01,9.56,28.37-3.77,55.74-11.69,82.97-20.13,30.57-9.47,61.5-17.6,92.47-25.6,2.42-.62,4.87-1.18,7.22-2.01,9.16-3.23,11.87-8.48,9.35-17.8-.33-1.21-1.53-2.65-.21-3.69,1.21-.96,2.55,.19,3.69,.77,8.05,4.12,16.19,7.71,25.54,7.86,10.24,.16,18.99-3.39,26.44-10.04,6.33-5.65,12.27-11.73,17.05-18.87,1.83-2.74,4.33-5.03,6.59-7.48,.66-.71,1.53-1.65,2.55-1.14,1.4,.7,.7,2.06,.4,3.11-1.53,5.28-3.26,10.51-4.67,15.82-1.15,4.34-.04,5.64,4.08,4.37,29.79-9.18,60.68-14.27,90.28-24.15,8.55-2.85,16.9-6.18,25.15-9.78,1.48-.65,3.64-.96,3.7-2.9,.07-2.33-2.38-2.54-3.97-3.15-10.32-3.93-18.95-10.37-26.91-17.83-2.03-1.91-3.95-3.96-5.33-7.58,10.04,2.05,18.14,6.22,25.52,11.98,4.22,3.3,8.14,6.96,11.16,11.37,2.55,3.72,5.92,4.52,9.97,4.15,13.18-1.21,25.96-4.29,38.54-8.26,6.36-2,12.67-4.16,18.98-6.3,6.85-2.33,9.41-6.25,8.84-13.62-.3-3.85-1.42-7.52-2.78-11.12-2.16-5.72-3.24-11.55-1.47-17.61h5c1.45,6.98,1.17,14.24,3.84,21.03,3.56,9.01,9.47,13.13,19.08,12.93,3.19-.07,6.28-.67,9.31-1.61,11.63-3.59,24.02-4.74,34.73-11.34,2.59-1.6,5.96-2.01,9.03-2.74,10.18-2.44,20.45-4.57,30.57-7.24,9-2.37,17.99-4.97,25.42-11.03h26c-1.33,2.36-3.7,3.22-6.01,4.22-27.42,11.89-56.4,18.15-85.61,23.52-3.84,.7-7.41,1.81-10.63,4.06-5.03,3.51-10.88,4.93-16.73,6.3-5.19,1.21-10.45,2.17-15.29,4.57-8.07,3.99-12.61,11.11-11.27,19.89,2.55,16.63,5.93,33.12,11.42,49.1,2.75,8.02,7.45,14.86,12.87,21.25,2.22,2.62,2.85,4.48-1.42,5.46-3.62,.83-5.21,3.61-5.16,7.07,.3,20.31,3.41,40.13,10.79,59.15,1.72,4.43,5.5,6.01,9.96,6.27,18.63,1.08,37.26,1.26,55.89-.06,1.16-.08,2.32-.25,3.47-.46,11.28-1.99,13.68-6.72,8.71-17.11-.36-.75-.66-1.53-.99-2.29h0Zm-351.95,487.88h0c-1.35,2.41-3.55,3.93-5.73,5.47-7.8,5.52-16.34,9.61-25.13,13.29-14.62,6.13-29.21,12.37-40.12,24.6-1.63,1.83-3.91,2.48-6.29,2.7-12.41,1.19-23.36,6.28-34.03,12.34-7.97,4.53-16.12,8.77-25.15,10.87-1.56,.36-3.67,1.28-4.61-.42-1.13-2.05,1.04-3.31,2.36-4.4,6.08-5.07,13.16-8.44,20.38-11.52,7.05-3.01,14.21-5.8,20.26-10.69,5.75-4.64,6.18-8.6,.99-13.75-24.35-24.17-46.89-50.11-71.76-73.78-10.38-9.88-21.24-19.21-32.69-27.84-2.29-1.73-4.73-3.08-7.56-3.73-5.56-1.27-7.22,.03-6.65,5.65,.67,6.65,2.17,13.16,4.36,19.47,3.92,11.33,8.04,22.6,11.91,33.95,2.42,7.11,4.12,14.43,4.4,21.98,.06,1.7,.85,4.25-1.3,4.84-1.79,.49-2.38-1.96-3.25-3.3-5.2-8.07-8.25-17.06-10.97-26.18-4.14-13.89-6.66-28.22-11.66-41.87-2.42-6.62-5.29-13.02-10.08-18.26-9.26-10.13-20.86-13.06-34.13-10.62-2.53,.46-6.07,2.24-7.48-.37-3.32-6.12-8.61-9.51-14.32-12.69-.85-.47-1.88-1.16-1.72-2.26,.23-1.57,1.73-1.42,2.8-1.36,9.16,.5,16.83-3.34,24.23-8.08,1.08-.69,2.24-1.99,3.57-1.25,1.69,.94,.7,2.7,.6,4.1-.72,10.77,5.01,16.25,15.74,14.98,6.14-.72,9.23-6.28,6.32-11.7-2.3-4.28-5.27-8.1-9-11.26-2.11-1.79-4.51-3.29-7.28-2.21-3.32,1.29-4.13-.34-4.57-3.05-1.16-7.03-4.84-12.66-9.85-17.56-3.93-3.84-7.77-7.78-11.68-11.65-10.18-10.09-19.85-11.05-31.76-3.1-8.2,5.47-13.17,12.94-14.47,22.87-1,7.65,1.66,12.48,8.94,15.17,4.37,1.61,9.09,2.47,12.95,5.19,2.68,1.88,8.12,3.45,6.77,6.48-1.18,2.65-6.35,.4-9.61-.77-16.66-6.03-24.11-1.85-27.77,15.66-.1,.49-.2,.98-.29,1.47-6.98,36.46-15.71,72.52-25.27,108.38-1.79,6.72-2.6,13.54,1.1,19.91,1.95,3.36,1.98,6.35,.42,9.89-4.31,9.79-3.31,19.17,3.1,27.84,1.28,1.74,2.72,3.36,4.04,5.08,.97,1.26,3.34,2.44,2.34,3.96-1.26,1.92-3.32,0-4.91-.53-3.63-1.22-7.22-2.58-10.74-4.1-3.63-1.57-5.7-.64-6.5,3.29-.99,4.9-2.12,9.77-3.16,14.66-2.91,13.69-5.75,27.39-8.75,41.06-.96,4.38,.43,6.4,4.96,6.11,2.99-.19,6-.19,8.97-.54,21.86-2.55,43.09-8.89,65.06-10.73,1.14-.1,2.29-.47,3.37-.9,4.06-1.63,4.88-4.22,2.37-7.84-1.23-1.77-2.84-3.27-4.12-5.01-.44-.59-.74-1.63-.53-2.28,.37-1.19,1.58-.99,2.56-.82,4.47,.82,8.12,3.04,10.72,6.75,2.23,3.17,5.2,4.4,8.98,4.39,4.35,0,8.63-.3,12.88-1.35,9.62-2.4,18.77-5.81,26.93-11.58,12.51-8.83,27.19-13.3,40.64-20.2,16.56-8.5,21.87-20.09,18.27-38.3-.32-1.64-1.34-3.4,.23-5.39,3.83,3.76,4.61,8.65,6.31,13.05,2.65,6.85,6.6,11.96,14.84,11.83,4.19-.07,4.38,1.92,2.49,5.04-1.98,3.27-4.09,6.52-5.58,10.02-3.16,7.39-.27,12.19,7.75,12.7,6.81,.44,13.65,.45,20.47-.28,27.1-2.9,53.32-10.18,79.87-15.82,3.92-.83,6.74-2.97,7.65-6.98,.77-3.38,2.82-5.51,5.72-7.14,7.23-4.06,12.99-9.77,18.28-16.08,3.85-4.6,8-8.94,12.83-12.55,.91-.68,2.06-1.44,3.22-.68,1.45,.94,.91,2.37,.42,3.6-1.76,4.39-4.49,8.11-7.75,11.53-4.83,5.05-9.77,10.05-13.29,16.16-1.29,2.23-3.56,4.82-1.87,7.33,1.81,2.67,4.96,.91,7.44,.48,44.34-7.6,88.67-15.28,132.99-22.95,17.07-2.95,34.15-5.9,51.21-8.92,1.51-.27,3.75-.13,3.9-2.33,.12-1.75-1.79-2.24-3.08-2.89-5.06-2.54-10.1-5.09-15.39-7.16-14.01-5.47-28.81-8.31-42.97-13.24-6.78-2.36-13.4-5.08-19.51-8.9-.94-.59-2.33-1.23-1.87-2.6,.48-1.42,1.95-.94,3.06-.85,5.83,.49,11.56,1.54,17.14,3.33,21.09,6.78,42.24,13.4,63.24,20.44,22,7.37,44.01,9.61,66.78,3.42,12.35-3.36,25.06-5.48,37.69-7.75,25.42-4.57,50.91-8.73,76.32-13.31,9.54-1.72,11.73-5.35,9.89-14.74-9.77-49.87-19.56-99.73-29.35-149.59-1.12-5.7-1.97-6.12-7.39-4.12-11.15,4.12-21.34,10.18-31.67,15.93-10.98,6.11-22.4,11.05-34.6,14.14-1.55,.39-3.82,1.44-4.64-.15-1.09-2.11,1.5-2.99,2.82-4.02,5.27-4.13,11.13-7.27,17.26-9.98,11.11-4.92,22.66-8.91,33.11-15.23,7.36-4.45,9.22-9.68,6.51-17.81-1.43-4.28-3.46-8.29-5.72-12.2-1.25-2.16-2.48-4.35-3.53-6.61-.66-1.42-2.1-3.23-.41-4.52,1.42-1.09,2.73,.65,3.88,1.48,4.74,3.39,9.41,6.89,14.14,10.3,1.04,.75,2.16,2.25,3.43,1.58,1.7-.91,.57-2.71,.33-4.07-2-11.49-4.08-22.96-6.12-34.45-3.85-21.65-7.66-43.31-11.55-64.95-1.5-8.34-1.69-8.44-8.23-2.81-7.32,6.3-14.31,12.98-21.68,19.2-4.62,3.9-8.62,8.63-14.97,12.39,.6-5.26,2.56-8.62,4.74-11.9,5.08-7.62,12.42-12.97,19.17-18.86,10.95-9.56,16.89-21.18,14.23-35.81-3.16-17.36-5.5-34.92-10.33-51.94-2.76-9.7-4.53-19.44-4.32-29.53,.11-5.1-1.01-9.93-3.61-14.36-3.91-6.68-10.85-9.15-18.01-6.37-3.89,1.52-7.52,3.56-10.99,5.9-2.93,1.97-6.02,3.66-9.55,4.16-2.57,.37-6.38,1.68-7.43-.63-1.21-2.66,2.55-4.16,4.64-5.49,2.94-1.86,6.16-3.27,9.32-4.76,4.82-2.27,9.79-4.23,14.52-6.69,8.59-4.46,11.2-10.77,8.83-20.43-2.13-8.68-6.96-12.43-16.75-12.46-4.98-.02-9.96,.7-14.95,.87-20.01,.65-39.99-.53-59.87-2.26-33.72-2.93-67.46-4.33-101.29-3.66-3.16,.06-7.67-1.7-9.15,1.71-1.39,3.2,2,6.37,3.91,9.24,2.49,3.73,5.74,6.97,7.26,11.31,.37,1.05,1.02,2.35-.26,3.17-.97,.63-1.92-.16-2.73-.71-4.01-2.73-7.69-5.8-10.75-9.63-5.22-6.53-11.83-11.15-19.75-13.89-5.72-1.98-11.57-3-17.62-3.27-19.88-.88-39.97,2.41-59.64-3.41-4.79-1.42-8.62,1.93-11.41,5.71-2.47,3.34-4.56,6.97-6.83,10.45-1.47,2.26-3.14,4.33-5.81,5.27h-.01c.49-3.13,1.03-6.25,1.47-9.38,.86-6.17-1.67-10.33-7.54-12.39-5.02-1.76-10.19-1.38-15.34-.81-8.15,.91-16.3,.83-24.45,.19-12.15-.94-24.26-.74-36.42-.05-12.63,.72-25.28,.92-37.93-.37-8.83-.9-17.07-4.86-25.95-5.05-12.32-.27-24.66-.06-36.98-.12-6.93-.03-11.42,3.39-13.45,9.8-1.71,5.39-2.94,10.93-4.32,16.42-6.57,26.19-9.74,53.08-16.25,79.29-4.9,19.73-9.51,39.52-12.21,59.7-1.49,11.1-1.72,22.23-1.63,33.4,.02,2.7,.06,5.61-3.9,5.65-4.88,.05-6.59,3.11-7.08,7.4-1.77,15.55-3.18,31.17-7.83,46.23-1.23,4-2.01,8.07-2.51,12.22-1.28,10.56,3.66,20.51,13.01,25.51,3.36,1.8,6.99,3.1,10.55,4.51,2.29,.9,4.27,2.05,4.69,4.69,2.06,12.95,11.96,18.95,21.94,24.9,3.11,1.85,3.75,.36,3.57-2.57-.24-3.82-.43-7.65-.39-11.48,.08-8-3.51-13.76-10.54-17.29-2.59-1.3-3.64-2.61-2.1-5.38,2.97-5.35,2.5-10.91,.62-16.46-3.14-9.31-6.17-18.66-9.53-27.89-3.99-10.97-8.27-21.84-9.33-33.59-.18-2.03-1.17-5.15,1.04-5.9,2.28-.77,3.17,2.38,4.27,4.1,6.07,9.45,8.44,20.19,10.73,30.98,1.76,8.3,3.05,16.75,6.76,24.5,5.8,12.11,12.34,14.76,25.06,10.31,11.46-4.01,21.67-10.23,31.06-17.82,4.79-3.87,9.39-7.97,14.07-11.98,1.41-1.2,2.5-2.58,4.48-.35,4.78,5.4,5.05,4.98,11.77,1.98,11.25-5.01,21.77-11.64,33.59-15.35,2.53-.8,5.2-2.03,8.68-.65-2.6,2.77-5.25,4.41-7.89,6.08-11.72,7.42-24.58,12.62-36.83,19.01-15.79,8.24-30.64,17.66-40.25,33.39-.31,.5-.73,1.18-1.73,.45,.22-.71,.4-1.51,.71-2.26,1.13-2.78,1.65-5.53-.82-7.86-2.37-2.24-5.32-3.03-8.34-1.93-8.45,3.06-16.35,7.44-20.94,15.31-3.78,6.5,1.27,12.4,3.6,18.32,.43,1.08,.88,2.16,1.34,3.23,1.05,2.42,2.76,2.59,4.89,1.44,2.45-1.32,3.93-3.57,5.48-5.72,2.04-2.83,3.91-5.79,6.04-8.55,.88-1.14,2.27-2.36,3.87-1.3,1.31,.87,.83,2.43,.49,3.7-1.9,7.03-4.83,13.66-10.14,18.67-4.62,4.36-5.44,9.26-4.22,14.98,2.7,12.7,9.72,23.03,18.77,31.81,15.1,14.66,32.93,25.33,52.14,33.8,5.54,2.44,10.98,5.09,17.53,8.14-4.9,1.99-8.87,.76-12.46,1.95-2.7,.89-5.78,1.59-6.64,4.67-.82,2.93,1.98,4.37,3.67,6.04,25.34,25.06,51.75,49.02,76.58,74.6,.35,.36,.71,.7,1.07,1.05,5.58,5.34,11.83,6.97,19.24,4.02,10.09-4.01,19.63-9.1,29.11-14.34,12.6-6.97,25.46-13.19,40.06-14.73Zm787.12-30.96c-.3,.21-.6,.41-.9,.62-.51-.35-1.12-.62-1.51-1.07-11.77-13.85-27.11-17.81-44.24-14.73-23.44,4.21-46.73,9.22-70.07,13.97-26.01,5.29-51.64,11.86-75.59,23.73-2.97,1.47-4.55,1.57-4.3-2.67,.36-6.15-2.61-8.49-8.73-7.24-3.91,.8-7.7,2.23-11.62,2.92-26.26,4.63-52.35,10.04-78.41,15.65-3.86,.83-9.53-.22-10.82,4.51-1.29,4.76,3.36,7.92,6.41,11.13,3.44,3.62,7.24,6.95,9.14,11.74,.59,1.49,1.8,3.36,.3,4.63-1.61,1.37-3.08-.43-4.37-1.3-6.26-4.25-11.12-10.04-16.34-15.39-9.04-9.27-19.6-12.11-31.94-8.41-17.45,5.23-35.18,8.8-53.4,10.12-12.91,.93-18.98,7.67-18.71,20.5,.44,20.66,6.77,40.32,10.9,60.35,.72,3.5,3.63,4.06,6.71,3.5,4.98-.9,9.51-3,13.82-5.6,2.86-1.73,5.78-3.34,9.03-4.21,.96-.26,2.07-.59,2.79,.35,.76,.98,.04,1.92-.54,2.7-2.01,2.66-4.08,5.27-6.13,7.89-4.27,5.44-3.89,7.53,2.33,10.63,6.45,3.22,13.51,4.72,20.38,6.7,5.48,1.58,10.8,3.46,15.43,6.87,1.26,.93,3.33,1.75,2.46,3.78-.7,1.63-2.63,1.21-4.05,1-4.28-.63-8.56-1.31-12.8-2.16-12.66-2.56-24.21-8.4-36.38-12.42-5.11-1.69-6.23-1.14-5.9,4.13,.5,7.97,1.41,15.92,2.44,23.84,4.18,32.26,11.74,63.87,18.3,95.68,3.94,19.09,7.63,38.22,10.45,57.52,1.94,13.24,8.8,18.02,22.12,15.66,5.73-1.01,11.38-2.53,17.01-4.04,15.93-4.25,31.61-9.98,48.09-11.36,16.38-1.38,31.91-5.06,47.44-10.37,25.58-8.75,52.47-12.47,78.81-18.3,14.34-3.17,28.45-7.1,42.22-12.21,6.32-2.35,6.92-4.31,3.11-9.95-1.58-2.34-3.53-4.42-5.23-6.68-2.05-2.74-4.1-5.51-4.24-9.35,2.57,.24,3.5,2.01,4.76,3.22,4.24,4.06,8.84,7.61,14.09,10.25,16.25,8.18,32.93,6.99,49.61,1.78,9.08-2.84,18.05-5.94,27.59-6.79,3.82-.34,4.61-2.1,2.72-5.27-2.79-4.67-2.5-9.38-.89-14.42,1.81-5.7,3.16-11.57,4.48-17.41,3.9-17.21,6.77-34.71,13.23-51.23,2.76-7.06,4.36-14.26,5.24-21.75,2.36-20.08,6.06-39.85,14.15-58.57,.77-1.79,1-3.86,1.28-5.82,1.09-7.75,1.94-15.53,3.16-23.26,1.65-10.43,3.03-20.8-.88-31.07-.97-2.55,0-3.82,2.78-3.7,4.76,.21,6.89-2.79,7.93-6.81,4.46-17.26,8.86-34.53,13.23-51.8,.79-3.13,1.28-6.36-1.62-8.79-3.07-2.58-6.45-2.3-9.82-.58-6.47,3.29-13.45,4.85-20.5,6.19-4.58,.87-9.14,1.84-13.56,3.41-3.66,1.3-4.97,3.62-3.9,7.35,1.18,4.13,2.3,8.28,3.45,12.42ZM663.04,136.98c-.11,3.08,.3,6.68,1.53,10.2,3.58,10.25,10.26,18.22,18.53,24.94,5.42,4.4,10.04,9.45,12.23,16.09,1.63,4.93,4.73,6.98,9.54,8.18,36.14,9.04,72.98,11.36,110.01,11.64,26.8,.21,53.59,.66,80.36,1.98,6.15,.3,12.29,.89,18.44,.92,6.48,.03,9.09-3.05,7.61-9.17-3.18-13.15-4.65-26.56-6.53-39.92-2.6-18.41-7.4-35.93-20.55-50.01-1.94-2.08-1.76-3.06,1.13-4.04,7.36-2.51,8.31-4.56,6.06-11.92-1.27-4.16-1.99-8.41-2.53-12.72-1.09-8.73-.88-17.66-4.11-26.07-1.32-3.42-2.98-5.86-7.31-4.96-10.44,2.17-20.98,3.87-31.34,6.33-11.31,2.68-12.97,6.58-8.18,17.1,.48,1.05,1.35,2.11,.56,3.26-.94,1.35-2.39,.93-3.66,.59-4.55-1.23-8.58-3.64-12.73-5.75-7.69-3.91-15.37-4.26-23.69-1.79-16.92,5.03-34,9.53-51.04,14.16-23.62,6.41-47.44,12.16-70.66,19.96-15.29,5.14-23.63,15.92-23.67,31Zm-30.1,36.16c1.52,4-.17,6.27-1.26,8.59-1.77,3.78-3.64,7.53-4.22,11.7-.64,4.55,1.33,6.8,5.87,6.3,8.2-.9,16.26,.51,24.38,.97,11.34,.65,22.68,1.25,33.47-3.35,4.54-1.93,4.81-3.41,1.11-6.62-8.67-7.52-16.97-15.31-24.56-24.03-10.1-11.59-18.86-11.09-29.47,.04-.86,.9-1.62,2.62-3.15,1.54-1.29-.91-.66-2.53-.09-3.69,2.18-4.49,4.73-8.81,6.7-13.38,3.22-7.51,1.57-13.85-4.49-19.34-6.08-5.5-13.15-6.98-20.92-4.93-25.92,6.81-51.99,13.02-77.67,20.76-36.98,11.15-73.95,22.44-112.16,28.85-3.67,.62-6.26,2.91-8.91,5.21-2.61,2.27-3.96,5.04-2.95,8.43,1.09,3.62,4.34,3.88,7.36,3.81,14.33-.33,28.61,.69,42.92,1.09,24.65,.69,49.25-1.08,73.89-1.03,7.26,.01,14.3,1.08,21.07,3.54,13.83,5.02,27.8,4.44,41.82,1.27,8.3-1.87,15.4-5.95,21.4-12.16,3.73-3.85,6.62-8.24,9.88-13.56Zm-271.47,187.09c.51-.08,1.01-.15,1.52-.23,2.87-7.44,4.56-15.24,5.95-23.04,6.95-39.15,17.26-77.54,25.82-116.33,3.59-16.24-.99-22.97-17.72-23.48-1.99-.06-4.01-.08-5.99,.11-13.38,1.31-26.2,4.68-38.34,10.52-5.56,2.68-11,5.57-15.54,9.86-3.02,2.85-3.93,5.72-1.23,9.61,4.95,7.12,6.94,15.39,8.23,23.87,.97,6.38,1.19,12.81,3.59,19.04,8.38,21.75,16.29,43.68,24.41,65.52,3.05,8.2,6.19,16.37,9.3,24.55Zm668.5,407.88c-.99-15.26-4.91-32.77-9.71-50.14-3.48-12.61-8.11-15.78-21.12-13.29-37.3,7.15-74.76,13.4-112.21,19.66-3.08,.52-7.64,0-7.9,4.43-.25,4.2,4.28,4.06,7.05,4.97,44.75,14.79,89.55,29.46,134.33,44.17,9.59,3.15,9.64,3.14,9.57-9.81Zm-705.36-226.06c.03-5.94-5.97-9.88-12.12-7.88-4.91,1.6-8.35,5.33-12.11,8.57-1.59,1.38-1,2.68,.73,3.46,3.78,1.7,7.48,3.72,11.42,4.91,5.99,1.81,12.05-2.97,12.08-9.05Z"/>
  <path class="cls-1" d="M1601.92,923.92c-2-6.35-4.22-12.65-5.94-19.08-2.46-9.14-.22-13.61,8.44-17.61,7.43-3.43,15.28-5.72,23.07-8.15,2.17-.68,6.02-.93,5.36-3.88-.52-2.31-4.11-1.2-6.31-.96-9.28,1.03-18.54,2.03-27.9,1.66-12.67-.51-23.8-4.46-32.48-14.18-1.39-1.55-2.45-3.58-4.97-4.45-1.24,2.41,.04,4.58,.53,6.68,3.09,13.41,.55,18.7-12.43,23.5-13.46,4.97-27.54,7.9-41.49,11.11-21.26,4.9-42.61,9.43-63.93,14.12-7.93,1.75-9.47,.41-8.77-7.91,1.32-15.67,4.73-30.92,9.13-45.99,7.98-27.38,12.54-55.54,18.99-83.27,.98-4.19,1.67-8.61,1.48-12.88-.6-13.13,7.14-23.33,11.58-34.67,.93-2.37,2.87-2.68,4.89-1.2,2.01,1.48,3.89,3.13,5.84,4.68,.76,.6,1.57,1.62,2.6,.92,1.01-.69,.44-1.84,.12-2.76-1.92-5.51-3.8-11-4.78-16.79-2.72-16.01,.28-31.53,3.83-46.99,2.79-12.18,5.88-24.28,8.84-36.42,1.92-7.88,6.34-12.93,14.89-13.89,14.79-1.65,28.9-6.54,43.41-9.57,17.4-3.63,34.65-5.03,51.53,2.29,2.95,1.28,3.79,.26,3.76-2.81-.06-7.39,1.83-9.96,9.29-10.93,24.13-3.11,47.69-9.62,71.95-12,8.16-.8,16.31-.31,24.47-.52v91.98c-8.2-1.07-15-5.08-21.42-10.02-5.92-4.56-11.78-9.29-18.96-11.83-1.35-.48-3.08-1.35-4.11,.22-1.02,1.56,.4,2.84,1.4,3.89,12.21,12.8,25.99,23.25,43.08,28.73v165.96c-16.29,4.97-33.19,7.02-49.79,10.5-7.34,1.54-14.54,3.69-21.4,6.73-2.26,1-6.44,1.63-5.73,4.37,.67,2.6,4.68,1.38,7.2,1.18,12.5-.99,24.57-4.25,36.69-7.24,10.84-2.68,21.76-4.95,33.03-4.54v136.97c-23.89-5.08-47.89-9.74-69.93-20.97-1.48-.75-2.92-1.59-4.41-2.33-11-5.41-19.06-12.95-22.41-25.53-2.83-10.6-9.53-19.27-18.24-26.16l.02,.02Zm50.26-286.79c-.32-.56-.57-1.19-.98-1.69-8.68-10.47-19.65-17.67-32.27-22.48-.91-.35-2.06-.54-2.65,.56-.55,1.02,.04,2,.72,2.71,2.96,3.13,5.84,6.36,9.03,9.25,6.62,6.02,14.58,9.74,22.97,12.57,1.07,.36,2.59,1.25,3.19-.92Z"/>
  <path class="cls-1" d="M1091.98,1062.88c.21-11.33-.22-22.34-4.27-33.37-4.94-13.42,.64-23.65,14.01-29.29,12.57-5.3,25.96-7.16,39.29-9.26,15.98-2.52,31.92-5.16,46.56-12.69,2.16-1.11,4.75-1.62,7.2-1.92,34.99-4.29,69.02-13.21,103.23-21.24,11.35-2.66,22.57-5.86,33.91-8.54,10.98-2.59,21.82-3.42,31.34,4.53,2.46,2.05,3.74,.99,4.59-1.72,5.14-16.42,18.64-21,32.97-19.17,13.34,1.7,19.35,12.54,13.97,24.86-3.52,8.07-7.81,15.89-6.66,25.24,.38,3.05-1.84,3.09-4.03,2.43-4.9-1.47-8.98-4.34-12.63-7.82-3.73-3.57-7.27-7.34-11.05-10.86-2.7-2.52-5.84-4.3-9.78-4.14-.66,2.24,1.12,2.78,2.14,3.62,16.69,13.74,25.45,31.43,25.84,53,.17,9.15-1.18,18.26-3.44,27.19-1.02,4.04-2.1,8.06-3.06,12.11-.28,1.18-1.35,2.88,.39,3.47,1.49,.5,2.16-1.26,2.78-2.37,1.94-3.5,3.8-7.04,4.86-10.93,1.27-4.66,2.56-9.31,3.9-13.96,2.48-8.61,6.44-16.43,12.69-22.95,1.69-1.77,3.07-3.58,2.23-6.19-5.28-16.47-2.45-32.64,1.93-48.7,2.01-7.39,4.63-14.61,6.72-21.98,1.49-5.25,4.44-7.4,10.1-7.43,10.02-.05,19.5,2.1,28.87,5.21,38.73,12.87,77.3,26.24,116.66,37.13,15.45,4.27,30.94,8.44,44.1,18.14,10.03,7.39,18.88,15.73,22.44,28.44,1.8,6.42,5.38,12.18,9.43,17.52,1.65,2.17,3.22,4.59,7.33,5.82-2.63-10.58-5.37-20.15-12.65-27.39-4.31-4.28-6-9.47-7.73-14.83-1.06-3.3,.62-4.67,3.76-4.75,3.07-.07,5.91,.94,8.72,1.99,17.5,6.53,35.56,11.29,53.33,16.95,1.57,.5,3.27,.61,4.9,.9,0,16.33-.13,32.66,.1,48.99,.05,3.43-.68,4.1-4.1,4.1-119.82-.11-239.63-.1-359.45-.1h-261.47Z"/>
  <path class="cls-1" d="M839.01,1062.88c1.46-1.82,3.55-2.35,5.68-2.83,66.56-14.99,133.05-30.31,199.36-46.37,4.19-1.02,8.5-1.64,12.78-2.23,10.83-1.5,17.44,2.3,21.71,12.47,3.9,9.29,5.09,19.28,7.11,29.04,.76,3.66,1.84,7.06,4.32,9.92h-250.97Z"/>
  <path class="cls-1" d="M1022.99,.14c-7.44,6.06-16.43,8.66-25.42,11.03-10.12,2.66-20.39,4.79-30.57,7.24-3.07,.74-6.44,1.15-9.03,2.74-10.71,6.6-23.1,7.75-34.73,11.34-3.03,.93-6.11,1.54-9.31,1.61-9.61,.2-15.52-3.91-19.08-12.93-2.68-6.79-2.4-14.05-3.84-21.03h131.98Z"/>
  <path class="cls-2" d="M559.05,1062.88c.37-.55,.64-1.23,1.13-1.63,10.88-8.77,11.32-19.89,7.42-32.11-1.31-4.11-2.24-8.35-3.17-12.57-.35-1.57-.66-3.62,1.28-4.38,1.88-.73,3.05,.95,4.07,2.22,2.33,2.89,3.69,6.29,4.79,9.8,.94,3.01,1.76,6.08,2.89,9.02,2.01,5.21,5.31,9.23,11.02,10.64,4.01,.99,4.41,3.39,2.99,6.79-2.3,5.51-6.87,8.85-11.43,12.22h-21Z"/>
  <path class="cls-2" d="M245.09,.14c1.24,12.96,6.63,24.7,10.91,36.76,4.12,11.62,8.49,23.16,10.39,35.42,.45,2.92,1.29,5.86-.07,8.81-8.1-4.31-24.47-50.77-27.23-80.99h6Z"/>
  <path class="cls-2" d="M1716.89,861.93c-11.28-.41-22.19,1.86-33.03,4.54-12.12,2.99-24.19,6.25-36.69,7.24-2.52,.2-6.53,1.42-7.2-1.18-.71-2.74,3.47-3.37,5.73-4.37,6.86-3.04,14.05-5.19,21.4-6.73,16.6-3.48,33.51-5.53,49.79-10.5v11Z"/>
  <path class="cls-2" d="M1641.9,.14c-1.92,14.83-2.7,29.83-6.82,44.34-1.83,6.43-4.1,12.66-7.21,18.57-.57,1.09-1.03,2.81-2.77,2.21-1.28-.44-1.09-1.95-1.12-3.08-.29-10.41,1.68-20.53,4.08-30.58,2.52-10.51,5.22-20.98,7.84-31.47,2,0,4,0,6,0Z"/>
  <path class="cls-2" d="M1716.89,684.97c-17.09-5.48-30.88-15.94-43.08-28.73-1-1.04-2.42-2.33-1.4-3.89,1.03-1.57,2.75-.7,4.11-.22,7.18,2.54,13.04,7.27,18.96,11.83,6.41,4.94,13.21,8.95,21.42,10.02v11Z"/>
  <path class="cls-2" d="M531.05,.14c4.14,7.34,9.53,13.62,16,19,6.85,5.7,12.79,12.17,16.77,20.24,.63,1.28,1.95,2.94,.77,4.13-1.38,1.39-2.72-.36-3.84-1.16-13.11-9.37-25.32-19.59-32.4-34.61-1.15-2.43-2.17-4.87-2.29-7.6h5Z"/>
  <path class="cls-2" d="M445.06,.14c-.25,9.3,.68,18.65-1.13,27.9-1.33,6.77-3.48,13.19-7.06,19.1-.58,.96-1.23,2.31-2.59,1.94-1.41-.39-1.09-1.9-1.16-3.01-.48-7.71,.73-15.26,2.18-22.8,1.47-7.67,3.78-15.21,3.77-23.13h6Z"/>
  <path class="cls-2" d="M1302.95,.14c-7.27,12.98-17.35,23.35-29.54,31.74-.92,.63-2.11,1.49-3.2,.65-1.35-1.05-.52-2.48,0-3.66,2.42-5.61,6.48-9.98,10.73-14.23,4.32-4.33,9.2-8.27,11.03-14.5h11Z"/>
  <path class="cls-2" d="M508.64,834c2.42,3.55,4.86,7.1,7.27,10.66,3.19,4.72,7.36,7.13,13.21,5.76,1.44-.34,3.04-.95,4.08,.69,1,1.57,.54,3.2-.21,4.76-.07,.15-.13,.32-.25,.43-9.33,9.64-7.16,20.15-2.76,31.12,3.22,8.03,5.58,16.4,8.55,24.54,2.81,7.73,6.76,14.88,12.28,21.03,2.24,2.49,2.77,4.58,.53,7.41-3.14,3.97-2.53,8.45-.87,12.84,1.29,3.43,2.8,6.77,4.16,10.18,1.07,2.67,1.53,5.45,1.27,8.33-.12,1.31-.1,2.96-1.6,3.38-1.72,.49-2.22-1.23-2.74-2.36-1.9-4.07-3.78-8.17-5.46-12.33-4.5-11.13-9.31-22.1-15.46-32.45-3.6-6.06-8.3-11.25-12.72-16.66-1.4-1.72-2.38-3.04,.29-4.77,6.21-4.01,7.13-7.29,4.54-14.76-2.95-8.5-6.01-16.96-9.04-25.43-3.38-9.47-5.44-19.22-6.26-29.24-.08-.95-.01-1.9-.01-2.85,.4-.09,.8-.19,1.2-.28Z"/>
  <path class="cls-2" d="M9.55,669.92c7.75-4.41,15.49-8.85,23.27-13.21,17.19-9.65,35.01-17.81,54.03-23.26,10.23-2.93,13.5-9.23,10.66-19.36-.39-1.4-1.53-3-.33-4.24,1.4-1.45,2.78,.13,3.98,.82,9.99,5.72,20.03,5.45,30.06,.24,3.54-1.84,7-3.87,10.41-5.94,4.63-2.81,9.68-4.46,14.94-5.44,2.18-.41,5.13-1.48,6.21,1.3,.95,2.44-1.38,4.3-3.13,5.78-3.5,2.98-7.82,4.33-12.17,5.57-5.46,1.56-10.87,3.25-15.22,7.19-2.59,2.35-4.46,5.01-3.94,8.7,.52,3.73-1.19,4.12-4.39,3.54-11.1-1.99-22.22-.52-32.49,3.21-8.14,2.96-15.15,8.94-22.9,13.13-18.52,10.01-38.34,16.79-58.21,23.42-.27-.48-.53-.96-.8-1.44Z"/>
  <path class="cls-2" d="M708.4,1046.53c-12.51-3.41-22.6-8.78-29.66-17.83-7.07-9.06-16-11.13-26.4-10.77-1.49,.05-2.98,.25-4.48,.35-3.45,.24-7.74,3.19-9.98,1.03-2.55-2.46,2.01-5.59,2.53-8.77,.85-5.15-1.46-8.79-5.35-11.49-5.05-3.5-10.35-6.66-15.55-9.96-8.29-5.28-16.6-10.55-22.66-18.54-1-1.32-3.3-2.73-1.77-4.6,1.16-1.42,3.13-.07,4.64,.47,12.45,4.44,22.8,12.22,32.83,20.54,2.56,2.12,5.18,4.18,7.72,6.33,8.35,7.07,17.88,9.14,28.49,6.83,1.25-.27,2.74-1.12,3.74,.16,1,1.26-.08,2.56-.71,3.67-3.8,6.75-.29,16.82,8.11,19.31,8.88,2.63,16.06,8.62,22.81,14.89,2.15,2,4.14,4.21,5.68,8.38Z"/>
  <path class="cls-2" d="M800.74,926.68c7.9-11.92,85.82-56.55,107.47-61.56-3.63,10.32-92.32,61.12-107.47,61.56Z"/>
  <path class="cls-2" d="M479.92,880.57c13.28,3.36,23.98,9.82,31.06,21.45,.59,.97,1.45,2.09,.71,3.23-.8,1.24-2.15,.65-3.2,.31-11.34-3.63-20,.65-27.6,8.9-4.84,5.26-10.06,10.16-15.24,15.09-1.36,1.3-3.24,3.39-5.14,1.92-2.12-1.64-.46-4.05,.47-5.89,1.74-3.43,4.29-6.31,6.96-9.07,3.12-3.22,6.41-6.32,9.2-9.82,6.31-7.91,6.52-13.14,1.38-21.86-.66-1.12-1.8-2.19-.96-3.61,.6-1.02,1.75-.68,2.36-.66Z"/>
  <path class="cls-2" d="M396.01,823.74c3.01,1.24,6.09,2.34,9.03,3.73,23.13,10.97,43.21,26.19,61.24,44.23,1.06,1.07,3.36,2.27,2.02,3.93-1.18,1.48-3.09-.17-4.49-.89-20-10.17-38.25-22.92-55.1-37.69-4.56-4-9.35-7.76-12.69-13.32Z"/>
  <path class="cls-2" d="M749.11,954.38c1.9-.03,3.06-.23,3.4,1.05,.29,1.1-.49,1.95-1.26,2.55-3.41,2.66-6.85,5.28-10.34,7.84-.93,.68-2.01,1.19-3.07,1.66-13.01,5.77-26.24,10.9-37.02,20.93-5.45,5.07-13.22,6.89-20.3,9.38-1.21,.43-2.82,1.25-3.72-.02-1.18-1.66,.64-2.68,1.58-3.69,7.76-8.31,17.75-12.86,28.34-16.12,4.79-1.47,8.7-3.79,12.19-7.36,8.57-8.76,19.82-12.56,30.19-16.22Z"/>
  <path class="cls-2" d="M167.67,597.27c5.67-4.45,11.76-8.31,18.02-11.9,10.29-5.89,21.26-10.14,32.8-12.86,1.25-.29,2.93-.83,3.65,.54,.82,1.56-.91,2.33-1.9,3.03-15.11,10.57-31.33,18.69-49.54,22.41-.76,.16-1.59,.02-2.38,.02-.21-.41-.43-.82-.64-1.23Z"/>
  <path class="cls-2" d="M572.53,53.44c11.54,9.69,26.04,16.38,31.14,32.19,.47,1.45,1.92,3.38,.13,4.49-1.35,.83-2.72-.88-3.76-1.84-7.41-6.86-15.95-12.54-21.98-20.85-3.01-4.15-5.6-8.44-5.53-13.98Z"/>
  <path class="cls-2" d="M1285.97,382.76c-8.78-1.93-17.37,1.85-25.99,6.21-37.77,19.07-74.56,40.02-112.68,58.41-22.22,10.72-44.77,20.66-68.05,28.87-1.26,.44-2.52,.89-3.81,1.22-1.05,.27-2.39,1.18-3.13-.2-.64-1.19,.39-2.25,1.22-3.03,4.77-4.44,9.77-8.82,15.8-11.27,31.98-13.04,62.22-29.71,93.36-44.5,21.67-10.29,43.41-20.4,65.32-30.16,1.66-.74,3.2-1.79,4.72-2.8,9.05-6.01,10.03-11.75,3.51-20.34-.6-.8-1.3-1.52-1.9-2.32-.59-.78-1.45-1.62-.72-2.65,.69-.97,1.82-.61,2.78-.38,3.64,.87,6.57,3.18,9.87,4.77,1.73,.83,3.67,2.39,5.52,.72,1.59-1.44,.46-3.46,.15-5.21-.35-1.97-.86-3.91-1.2-5.87-.22-1.27-.81-2.85,.58-3.67,1.63-.96,2.9,.39,3.88,1.43,1.94,2.05,3.86,4.16,5.49,6.46,2.93,4.14,6.51,7.09,11.75,7.6,3.16,.31,4.45,2.06,3.62,5.14-.69,2.57-1.49,5.11-2.3,7.65-1.03,3.23-3.41,4.32-7.81,3.91Z"/>
  <path class="cls-2" d="M1521.86,257.25c1.32,.05,2.8-.19,3.55,1.24,.74,1.42-.22,2.57-1.02,3.61-2.94,3.85-7.06,6.08-11.39,7.84-33.97,13.85-66.44,30.83-99.21,47.2-29.5,14.74-59.08,29.28-90.05,40.77-1.98,.73-4.95,3.17-6.18,.56-1.32-2.81,2.02-4.58,4.32-5.73,13.11-6.53,26.28-12.97,39.47-19.34,14.39-6.95,28.86-13.73,43.24-20.7,36.11-17.5,72.18-35.06,108.27-52.6,2.86-1.39,5.74-2.67,8.98-2.86Z"/>
  <path class="cls-2" d="M1293.3,393.02c-.16-3.54,1.23-4.53,3.97-3.24,17.83,8.42,34.81,18.09,48.1,33.09,1,1.13,3.1,2.33,1.71,4.11-1.18,1.52-3.13,.47-4.65-.06-4.79-1.64-8.76-4.68-12.75-7.68-3.18-2.39-6.34-4.86-9.69-6.99-3.53-2.25-7.04-3.06-9.88,1.34-1.67,2.59-3.82,1.47-5.56,.03-6.62-5.47-9.59-12.95-11.25-20.61Z"/>
  <path class="cls-2" d="M1013.45,316.69c2.76-8.39,8.09-14.98,13.78-21.16,9.02-9.79,18.57-19.09,29.01-27.39,1.32-1.05,2.77-3.7,4.37-2.31,1.75,1.53-.5,3.59-1.37,5.26-7.11,13.75-18.19,24.1-29.58,34.12-4.93,4.34-10.03,8.59-16.21,11.47Z"/>
  <path class="cls-2" d="M1034.99,577.99c14.19,7.72,26.05,17.72,32.23,33.19,.52,1.31,1.84,3.06,.44,4.1-1.53,1.14-2.6-.84-3.62-1.76-7.65-6.84-16.24-12.72-22.16-21.35-3-4.38-6.2-8.68-6.91-14.18h.01Z"/>
  <path class="cls-2" d="M1539.97,430.87c-2.52-15.92,1.37-30.53,9.01-44.38,1.48,15.71,1.84,31.19-9.01,44.38Z"/>
  <path class="cls-2" d="M1268.16,343.18c.07,1.04,.23,1.99-.7,2.37-1.07,.43-1.91-.33-2.66-.95-4.61-3.75-7.85-8.61-10.35-13.87-2.64-5.54-4.78-11.32-7.11-17-.37-.9-1.06-2-.24-2.78,1.11-1.06,2.17,.05,3.08,.65,4.1,2.7,7.28,6.28,9.71,10.52,3.82,6.67,6.63,13.75,8.28,21.06Z"/>
  <path class="cls-2" d="M1400.14,571.8c.08,1.25,.29,2.24-.71,2.52-.52,.15-1.37-.11-1.79-.5-1.95-1.79-3.99-3.53-5.64-5.58-6.03-7.49-9.76-16.12-12.04-25.4-.26-1.08-.86-2.41,.3-3.23,1.01-.72,1.85,.25,2.59,.88,9.84,8.36,14.17,19.73,17.29,31.31Z"/>
  <path class="cls-2" d="M1358.28,499.4c.62,.47,1.44,1.02,2.17,1.66,9.26,8.15,13.52,19.02,16.58,30.53,.24,.92,.62,2.05-.43,2.71-.81,.51-1.62-.06-2.23-.61-9.62-8.65-14.89-19.7-17.63-32.12-.22-.98-.2-2.06,1.55-2.16Z"/>
  <path class="cls-2" d="M1354.11,491.7c.11,1.26,.36,2.23-.58,2.63-1.07,.46-1.89-.34-2.62-.99-4.48-4.04-8.06-8.81-10.81-14.14-2.74-5.31-4.86-10.89-6.23-16.73-.22-.94-.62-2.09,.31-2.79,1.02-.77,1.86,.14,2.59,.77,9.86,8.34,14.2,19.7,17.33,31.25Z"/>
  <path class="cls-2" d="M1331.38,452.63c.05,1.52-.74,2.21-2.13,1.37-1.4-.85-2.73-1.92-3.85-3.12-7.46-7.99-11.86-17.55-14.24-28.12-.24-1.07-.93-2.43,.33-3.18,1.01-.6,1.8,.47,2.54,1.1,9.74,8.27,13.98,19.56,17.26,31.38,.04,.16,.05,.33,.08,.57Z"/>
  <path class="cls-2" d="M1034.98,578h.01s-.01,0-.01,0Z"/>
  <path class="cls-2" d="M1069.98,255.08s0,0,0,0,0,0,0,0Z"/>
  <path class="cls-2" d="M1315.71,71.64c38.91-25.59,81.78-42.75,125.43-58.21-38.42,26.63-81.07,44.19-125.43,58.21Z"/>
  <path class="cls-2" d="M1004,187.72c-21.4-8.29-38.85-20.58-54.51-36.79,12.54-.69,47.39,22.93,54.51,36.79Z"/>
  <path class="cls-2" d="M1254.44,101.8c-1.2-.02-2.38,.19-2.77-.99-.38-1.16,.62-1.81,1.42-2.35,15.05-10.23,30.66-19.27,48.9-22.58,1.1-.2,2.54-.76,3.2,.46,.75,1.39-.75,2.03-1.63,2.65-14.32,10.19-29.59,18.41-46.88,22.4-.81,.19-1.63,.3-2.24,.42Z"/>
  <path class="cls-2" d="M1226.01,83.85c-2.18-.62-1.14-2.27-.69-3.46,2.86-7.42,7.45-13.75,13.19-19.12,4.84-4.54,10.19-8.53,15.87-12.03,.94-.58,2.03-1.6,3.12-.58,.85,.79,.19,1.9-.25,2.76-6.99,13.49-17.5,23.67-30.07,31.91-.27,.18-.6,.28-1.16,.53Z"/>
  <path class="cls-2" d="M1108.11,64.05c.13,1.44,.27,2.41-.8,2.63-1.09,.23-1.79-.68-2.54-1.31-6.31-5.24-10.16-12.19-13.37-19.54-1.53-3.49-2.82-7.09-4.13-10.68-.43-1.19-1.25-2.71,.22-3.6,1.38-.83,2.49,.43,3.49,1.24,7.05,5.76,11.2,13.46,14.26,21.82,1.19,3.27,2.03,6.66,2.86,9.43Z"/>
  <path class="cls-2" d="M1130.95,103.68c.07,1.64,.36,2.65-.66,2.95-1.09,.33-1.79-.63-2.52-1.28-5.97-5.26-10.34-11.66-13.26-19.02-1.41-3.54-2.51-7.2-3.62-10.85-.37-1.21-1.03-2.83,.32-3.68,1.44-.91,2.42,.58,3.35,1.44,5.86,5.39,9.98,11.94,12.63,19.42,1.38,3.91,2.68,7.84,3.76,11.01Z"/>
  <path class="cls-2" d="M1008.99,191.09s0,0,0,0c0,0,0,0,0,0Z"/>
  <path class="cls-1" d="M601.05,228.09c2.68-.94,4.34-3,5.81-5.27,2.27-3.49,4.36-7.11,6.83-10.45,2.78-3.77,6.62-7.12,11.41-5.71,19.67,5.83,39.76,2.53,59.64,3.41,6.04,.27,11.9,1.29,17.62,3.27,7.93,2.75,14.53,7.37,19.75,13.89,3.06,3.83,6.74,6.89,10.75,9.63,.81,.55,1.76,1.34,2.73,.71,1.28-.83,.62-2.13,.26-3.17-1.53-4.34-4.78-7.58-7.26-11.31-1.91-2.87-5.3-6.04-3.91-9.24,1.48-3.42,5.99-1.65,9.15-1.71,33.83-.66,67.57,.73,101.29,3.66,19.89,1.73,39.87,2.91,59.87,2.26,4.99-.16,9.97-.88,14.95-.87,9.8,.03,14.62,3.78,16.75,12.46,2.37,9.66-.24,15.97-8.83,20.43-4.72,2.45-9.7,4.42-14.52,6.69-3.16,1.49-6.38,2.9-9.32,4.76-2.1,1.33-5.85,2.83-4.64,5.49,1.05,2.31,4.86,1,7.43,.63,3.52-.5,6.62-2.19,9.55-4.16,3.47-2.33,7.1-4.38,10.99-5.9,7.16-2.79,14.1-.31,18.01,6.37,2.6,4.43,3.72,9.26,3.61,14.36-.22,10.09,1.56,19.82,4.32,29.53,4.84,17.01,7.18,34.57,10.33,51.94,2.66,14.63-3.28,26.25-14.23,35.81-6.75,5.9-14.1,11.25-19.17,18.86-2.18,3.27-4.14,6.64-4.74,11.9,6.36-3.76,10.35-8.5,14.97-12.39,7.38-6.22,14.37-12.9,21.68-19.2,6.54-5.63,6.74-5.52,8.23,2.81,3.88,21.64,7.7,43.3,11.55,64.95,2.04,11.48,4.13,22.96,6.12,34.45,.24,1.36,1.36,3.16-.33,4.07-1.26,.67-2.39-.83-3.43-1.58-4.73-3.41-9.4-6.91-14.14-10.3-1.15-.82-2.46-2.57-3.88-1.48-1.69,1.29-.25,3.1,.41,4.52,1.05,2.26,2.28,4.45,3.53,6.61,2.26,3.91,4.29,7.92,5.72,12.2,2.71,8.13,.85,13.36-6.51,17.81-10.46,6.32-22,10.31-33.11,15.23-6.12,2.71-11.98,5.85-17.26,9.98-1.32,1.03-3.91,1.91-2.82,4.02,.82,1.6,3.09,.55,4.64,.15,12.19-3.08,23.61-8.02,34.6-14.14,10.33-5.75,20.51-11.81,31.67-15.93,5.42-2,6.27-1.59,7.39,4.12,9.8,49.86,19.58,99.72,29.35,149.59,1.84,9.39-.35,13.02-9.89,14.74-25.42,4.58-50.9,8.75-76.32,13.31-12.62,2.27-25.34,4.39-37.69,7.75-22.77,6.2-44.79,3.95-66.78-3.42-21.01-7.04-42.15-13.66-63.24-20.44-5.57-1.79-11.31-2.84-17.14-3.33-1.11-.09-2.58-.57-3.06,.85-.46,1.37,.93,2.02,1.87,2.6,6.11,3.82,12.73,6.54,19.51,8.9,14.16,4.93,28.97,7.77,42.97,13.24,5.3,2.07,10.34,4.62,15.39,7.16,1.29,.65,3.2,1.14,3.08,2.89-.15,2.2-2.38,2.06-3.9,2.33-17.06,3.02-34.14,5.97-51.21,8.92-44.33,7.67-88.65,15.35-132.99,22.95-2.48,.42-5.63,2.19-7.44-.48-1.7-2.51,.58-5.1,1.87-7.33,3.53-6.11,8.47-11.11,13.29-16.16,3.27-3.42,6-7.14,7.75-11.53,.49-1.23,1.03-2.66-.42-3.6-1.16-.76-2.31,0-3.22,.68-4.83,3.61-8.98,7.95-12.83,12.55-5.28,6.31-11.05,12.02-18.28,16.08-2.9,1.63-4.95,3.76-5.72,7.14-.91,4.01-3.74,6.14-7.65,6.98-26.55,5.64-52.77,12.93-79.87,15.82-6.82,.73-13.66,.71-20.47,.28-8.02-.51-10.91-5.31-7.75-12.7,1.5-3.5,3.6-6.75,5.58-10.02,1.89-3.12,1.7-5.11-2.49-5.04-8.24,.13-12.19-4.98-14.84-11.83-1.7-4.41-2.48-9.29-6.31-13.05-1.57,1.99-.56,3.75-.23,5.39,3.6,18.22-1.71,29.81-18.27,38.3-13.46,6.91-28.14,11.37-40.64,20.2-8.16,5.77-17.31,9.18-26.93,11.58-4.25,1.06-8.52,1.35-12.88,1.35-3.79,0-6.75-1.22-8.98-4.39-2.6-3.71-6.25-5.93-10.72-6.75-.98-.18-2.19-.38-2.56,.82-.2,.66,.09,1.69,.53,2.28,1.29,1.73,2.9,3.24,4.12,5.01,2.51,3.61,1.68,6.21-2.37,7.84-1.07,.43-2.23,.81-3.37,.9-21.98,1.84-43.21,8.19-65.06,10.73-2.97,.35-5.98,.35-8.97,.54-4.53,.29-5.93-1.73-4.96-6.11,3-13.67,5.84-27.37,8.75-41.06,1.04-4.89,2.17-9.76,3.16-14.66,.8-3.93,2.87-4.86,6.5-3.29,3.51,1.52,7.1,2.89,10.74,4.1,1.59,.53,3.65,2.45,4.91,.53,1-1.52-1.37-2.7-2.34-3.96-1.32-1.71-2.75-3.34-4.04-5.08-6.41-8.67-7.41-18.05-3.1-27.84,1.56-3.54,1.53-6.53-.42-9.89-3.7-6.37-2.89-13.19-1.1-19.91,9.56-35.86,18.29-71.92,25.27-108.38,.09-.49,.19-.98,.29-1.47,3.66-17.52,11.1-21.7,27.77-15.66,3.26,1.18,8.43,3.43,9.61,.77,1.35-3.04-4.09-4.6-6.77-6.48-3.86-2.71-8.58-3.57-12.95-5.19-7.28-2.69-9.94-7.52-8.94-15.17,1.3-9.93,6.27-17.4,14.47-22.87,11.91-7.95,21.58-6.99,31.76,3.1,3.9,3.87,7.75,7.81,11.68,11.65,5.01,4.9,8.68,10.53,9.85,17.56,.45,2.71,1.26,4.33,4.57,3.05,2.77-1.07,5.17,.42,7.28,2.21,3.73,3.17,6.7,6.98,9,11.26,2.91,5.41-.18,10.97-6.32,11.7-10.73,1.26-16.47-4.21-15.74-14.98,.09-1.4,1.08-3.17-.6-4.1-1.34-.74-2.49,.55-3.57,1.25-7.4,4.74-15.07,8.58-24.23,8.08-1.07-.06-2.57-.21-2.8,1.36-.16,1.09,.87,1.78,1.72,2.26,5.7,3.18,11,6.57,14.32,12.69,1.42,2.61,4.96,.84,7.48,.37,13.26-2.44,24.86,.49,34.13,10.62,4.79,5.24,7.66,11.65,10.08,18.26,5,13.65,7.52,27.99,11.66,41.87,2.72,9.12,5.77,18.1,10.97,26.18,.86,1.34,1.46,3.79,3.25,3.3,2.15-.59,1.36-3.14,1.3-4.84-.28-7.55-1.98-14.86-4.4-21.98-3.86-11.35-7.98-22.62-11.91-33.95-2.19-6.32-3.69-12.82-4.36-19.47-.57-5.62,1.09-6.92,6.65-5.65,2.82,.65,5.27,2.01,7.56,3.73,11.45,8.63,22.32,17.97,32.69,27.84,24.87,23.66,47.41,49.6,71.76,73.78,5.19,5.15,4.76,9.11-.99,13.75-6.05,4.89-13.21,7.69-20.26,10.69-7.22,3.08-14.29,6.45-20.38,11.52-1.32,1.1-3.49,2.35-2.36,4.4,.94,1.71,3.04,.79,4.61,.42,9.03-2.1,17.18-6.34,25.15-10.87,10.66-6.06,21.62-11.15,34.03-12.34,2.38-.23,4.66-.87,6.29-2.7,10.91-12.23,25.49-18.47,40.12-24.6,8.79-3.68,17.32-7.78,25.13-13.29,2.18-1.54,4.38-3.06,5.73-5.48,5.62-.38,10.47-3.22,15.69-4.87,1.69-.53,3.52-1.96,5.14-.44,1.74,1.63,.71,3.78,.11,5.64-1.35,4.19-3.98,7.6-6.71,11.01-4.87,6.08-11.33,10.92-14.45,18.36-.5,1.19-1.44,2.61-.33,3.72,1.17,1.17,2.53,.06,3.64-.54,5.66-3.04,10.18-7.42,14.4-12.2,7.15-8.1,13.9-16.75,25.16-19.66,3.16-.82,2.72-3.36,2.18-5.71-1.38-5.95,.9-10.48,5.56-13.93,2.12-1.57,4.49-2.89,6.9-3.99,20.96-9.49,41.19-20.44,61.87-30.46,29.98-14.53,59.99-29,89.96-43.53,4.03-1.95,8.32-3.55,11.34-7.11,.85-1,1.83-2.22,1.15-3.6-.79-1.6-2.35-.93-3.56-.6-2.41,.64-4.81,1.37-7.16,2.22-24.82,9.02-48.07,21.38-71.32,33.7-16.06,8.51-32.41,16.38-49.33,23.01-1.59,.62-3.68,2.08-5.03,.23-1.24-1.71,.42-3.49,1.45-4.93,1.74-2.44,3.68-4.73,5.55-7.07,1.67-2.09,3.34-4.2,4.19-6.76,.56-1.67,1.87-3.85,.05-5.05-1.94-1.28-3.26,1-4.49,2.19-10.92,10.5-21.89,20.96-32.66,31.62-18.47,18.29-40.12,24.67-65.47,18.26-16.69-4.22-32.59-10.7-48.74-16.48-27.94-10.01-55.93-19.78-85.37-24.53-1.95-.31-4-1.14-6.82,.18,10.58,6.08,21.03,10.33,31.66,14.19,24.77,8.99,50.29,15.53,75.5,23.07,10.04,3,19.36,8.12,29.91,9.64,10.47,1.51,12.1,4.16,10.03,14.44-14.59,1.53-27.46,7.76-40.06,14.73-9.48,5.24-19.02,10.33-29.11,14.34-7.41,2.95-13.66,1.31-19.24-4.02-.36-.35-.72-.69-1.07-1.05-24.82-25.59-51.23-49.55-76.58-74.6-1.7-1.68-4.5-3.11-3.67-6.04,.87-3.08,3.95-3.77,6.64-4.67,3.59-1.19,7.56,.03,12.46-1.95-6.55-3.05-11.99-5.7-17.53-8.14-19.2-8.47-37.04-19.14-52.14-33.8-9.05-8.79-16.07-19.12-18.77-31.81-1.22-5.72-.4-10.62,4.22-14.98,5.3-5.01,8.24-11.64,10.14-18.67,.34-1.27,.83-2.83-.49-3.7-1.59-1.05-2.98,.16-3.87,1.3-2.13,2.76-4,5.72-6.04,8.55-1.55,2.16-3.03,4.4-5.48,5.72-2.13,1.15-3.83,.98-4.89-1.44-.47-1.07-.92-2.15-1.34-3.23-2.33-5.92-7.38-11.83-3.6-18.32,4.58-7.88,12.49-12.25,20.94-15.31,3.02-1.1,5.98-.31,8.34,1.93,2.47,2.33,1.95,5.08,.82,7.86-.31,.75-.49,1.55-.71,2.26,1,.73,1.42,.05,1.73-.45,9.6-15.73,24.45-25.15,40.25-33.39,12.25-6.39,25.11-11.59,36.83-19.01,2.64-1.67,5.29-3.31,7.89-6.08-3.48-1.38-6.15-.14-8.68,.65-11.82,3.72-22.34,10.34-33.59,15.35-6.72,2.99-6.99,3.41-11.77-1.98-1.98-2.24-3.07-.86-4.48,.35-4.68,4-9.28,8.11-14.07,11.98-9.39,7.59-19.59,13.81-31.06,17.82-12.72,4.45-19.26,1.8-25.06-10.31-3.72-7.75-5.01-16.2-6.76-24.5-2.28-10.78-4.65-21.53-10.73-30.98-1.1-1.71-1.99-4.87-4.27-4.1-2.21,.75-1.22,3.87-1.04,5.9,1.06,11.75,5.34,22.63,9.33,33.59,3.36,9.23,6.39,18.58,9.53,27.89,1.87,5.55,2.35,11.11-.62,16.46-1.54,2.77-.49,4.08,2.1,5.38,7.03,3.53,10.61,9.29,10.54,17.29-.04,3.83,.15,7.66,.39,11.48,.18,2.93-.46,4.42-3.57,2.57-9.98-5.95-19.89-11.95-21.94-24.9-.42-2.64-2.4-3.79-4.69-4.69-3.56-1.41-7.19-2.71-10.55-4.51-9.35-5-14.29-14.95-13.01-25.51,.5-4.15,1.27-8.22,2.51-12.22,4.65-15.06,6.07-30.68,7.83-46.23,.49-4.28,2.2-7.34,7.08-7.4,3.96-.04,3.92-2.95,3.9-5.65-.09-11.17,.15-22.3,1.63-33.4,2.7-20.19,7.32-39.98,12.21-59.7,6.51-26.21,9.68-53.1,16.25-79.29,1.38-5.49,2.61-11.03,4.32-16.42,2.03-6.41,6.51-9.83,13.45-9.8,12.33,.06,24.66-.15,36.98,.12,8.89,.2,17.12,4.15,25.95,5.05,12.64,1.29,25.3,1.09,37.93,.37,12.16-.69,24.28-.89,36.42,.05,8.14,.63,16.3,.71,24.45-.19,5.15-.57,10.31-.95,15.34,.81,5.88,2.06,8.4,6.22,7.54,12.39-.44,3.13-.98,6.24-1.47,9.36,0,0,.01,.01,.01,.01Zm261.96,155.96h0c.4,3.05,1.84,5.66,3.47,8.19,7.76,12.04,18.11,21.61,29.18,30.47,1.34,1.07,3.03,3.33,4.62,1.99,1.84-1.54-.13-3.73-.99-5.36-8.24-15.7-21.22-26.57-36.28-35.29Zm-84.57-97.04c-.29,2.49,1.1,3.67,1.88,5.08,4.78,8.67,3.22,16.57-4.73,22.45-2.52,1.87-5.32,3.46-8.17,4.78-8.77,4.03-17.66,7.81-26.46,11.79-35.04,15.86-70.07,31.73-105.07,47.65-13.64,6.2-27.25,12.47-40.77,18.91-2.73,1.3-6.74,3.44-5.35,6.74,1.38,3.29,5.42,1.05,8.11,.32,9.69-2.65,18.42-7.66,27.51-11.77,49.3-22.3,98.68-44.42,147.09-68.62,4.35-2.17,8.89-3.83,13.66-4.69,9.01-1.63,17.14,.13,24.26,6.25,1.97,1.7,4.03,6.13,6.32,4.11,2.46-2.17-.92-5.63-2.32-8.36-.23-.44-.54-.84-.81-1.26-2.73-4.25-5.26-8.55-4.1-13.96,.45-2.12-.66-3.15-2.68-3.29-7.11-.48-12.26-4.57-17.38-8.99-3.19-2.75-6.08-6.18-10.98-7.15Zm131.1,141.09c-4.5-.03-5.83,.67-7.2,4.5-1.95,5.49-5.45,9.84-9.37,13.98-8.57,9.06-17.19,18.06-26.42,26.46-4.29,3.9-6.93,8.9-8.48,14.46-.26,.93-.8,2.08,.2,2.77,1,.69,1.93-.15,2.67-.77,2.44-2,4.88-4.01,7.2-6.15,8.96-8.24,15.72-18.51,24.73-26.73,12.73-11.62,23.92-10.84,34.33,2.72,3.95,5.14,7.57,10.57,12.52,14.86,2.46,2.14,5.59,5.79,8.42,3.5,2.88-2.33-.65-5.77-2.29-8.17-5.3-7.75-12.72-13.57-19.18-20.27-4.68-4.85-8.8-10.02-10.88-16.52-1.08-3.37-3.2-4.92-6.26-4.65Zm-438.21,11.27c13.82-9.42,56.84-81.43,56.06-93.52-23.57,28.8-41.79,59.99-56.06,93.52Zm-166.63,275.14c19.63-20.16,35.56-42.44,40.94-70.8-15.56,22.49-32.5,44.17-40.94,70.8Zm511.92-413.81c1.78,1.09,3.52,.08,5.18-.36,20.08-5.37,38.92-13.52,55.99-25.5,1.54-1.08,4.44-2.11,3.53-4.16-.95-2.13-3.59-.49-5.36-.03-21.08,5.37-39.82,15.67-57.72,27.69-.78,.52-1.79,1-1.62,2.36Zm-55.18,295.88c6.45-3,11.61-7.44,16.77-11.8,9.6-8.1,18.15-17.16,23.7-28.64,.68-1.41,2.27-3.2,.76-4.52-1.62-1.41-3.01,.52-4.19,1.54-9.03,7.88-17.76,16.11-25.89,24.92-4.91,5.31-9.21,11.16-11.15,18.49Zm-233.49-164.52c1.59,1.41,2.62,1.1,3.57,.93,18.69-3.48,34.96-12.3,50.38-22.95,.89-.62,2.32-1.38,1.46-2.73-.73-1.14-2.16-.53-3.26-.32-9.7,1.82-18.88,5.26-27.73,9.5-8.64,4.14-16.85,9.07-24.41,15.57Zm321.83,70.03c.15-.94,.15-1.67-.58-1.96-1.27-.5-2.27,.32-3.18,.98-13.06,9.47-24.53,20.44-32.66,34.56-.68,1.18-2.25,2.69-.67,3.96,1.16,.93,2.49-.44,3.54-1.17,9.88-6.86,19.05-14.52,26.43-24.11,2.94-3.83,5.52-7.92,7.11-12.26Zm-79.57-225.85c-.44-1.27-.87-2.89-1.53-4.4-5.54-12.59-16.17-20.31-26.84-27.99-.8-.58-1.9-1.1-2.66-.07-.8,1.08-.06,2.23,.39,3.28,5.79,13.6,17.36,21.91,28.31,30.77,1.28,1.03,2.57,1.03,2.33-1.59Zm60.11,68.35c-1.99-.03-1.76,1.33-1.34,2.4,.84,2.15,1.79,4.28,2.92,6.29,4.84,8.61,12.56,14.43,20.05,20.45,1.09,.88,2.28,2.7,3.78,1.66,1.69-1.18,.48-3.09-.08-4.55-4.52-11.78-13.66-19.28-24-25.63-.42-.26-.89-.43-1.32-.62Z"/>
  <path class="cls-1" d="M1444.16,648.01c-1.15-4.14-2.27-8.29-3.45-12.42-1.07-3.73,.24-6.05,3.9-7.35,4.42-1.57,8.97-2.54,13.56-3.41,7.06-1.33,14.03-2.9,20.5-6.19,3.37-1.71,6.75-1.99,9.82,.58,2.9,2.43,2.41,5.66,1.62,8.79-4.37,17.28-8.77,34.55-13.23,51.8-1.04,4.02-3.17,7.03-7.93,6.81-2.78-.12-3.75,1.15-2.78,3.7,3.92,10.26,2.53,20.63,.88,31.07-1.22,7.73-2.07,15.51-3.16,23.26-.28,1.97-.5,4.03-1.28,5.82-8.09,18.71-11.79,38.49-14.15,58.57-.88,7.49-2.48,14.69-5.24,21.75-6.46,16.52-9.33,34.02-13.23,51.23-1.33,5.84-2.67,11.71-4.48,17.41-1.6,5.04-1.89,9.75,.89,14.42,1.89,3.17,1.1,4.93-2.72,5.27-9.54,.85-18.51,3.95-27.59,6.79-16.68,5.21-33.36,6.4-49.61-1.78-5.25-2.64-9.85-6.19-14.09-10.25-1.27-1.21-2.19-2.98-4.76-3.22,.14,3.84,2.18,6.61,4.24,9.35,1.7,2.26,3.65,4.34,5.23,6.68,3.82,5.63,3.21,7.6-3.11,9.95-13.77,5.11-27.88,9.04-42.22,12.21-26.34,5.83-53.24,9.54-78.81,18.3-15.54,5.32-31.06,9-47.44,10.37-16.47,1.39-32.16,7.12-48.09,11.36-5.63,1.5-11.28,3.02-17.01,4.04-13.32,2.36-20.19-2.42-22.12-15.66-2.82-19.3-6.51-38.43-10.45-57.52-6.57-31.81-14.12-63.42-18.3-95.68-1.03-7.92-1.94-15.87-2.44-23.84-.33-5.27,.79-5.82,5.9-4.13,12.17,4.03,23.72,9.86,36.38,12.42,4.24,.86,8.52,1.54,12.8,2.16,1.43,.21,3.36,.62,4.05-1,.87-2.03-1.2-2.85-2.46-3.78-4.63-3.41-9.96-5.3-15.43-6.87-6.88-1.98-13.93-3.48-20.38-6.7-6.22-3.11-6.6-5.2-2.33-10.63,2.06-2.62,4.12-5.23,6.13-7.89,.59-.78,1.3-1.72,.54-2.7-.72-.94-1.83-.6-2.79-.35-3.25,.87-6.17,2.48-9.03,4.21-4.31,2.61-8.83,4.7-13.82,5.6-3.08,.56-5.99,0-6.71-3.5-4.13-20.03-10.46-39.69-10.9-60.35-.27-12.83,5.8-19.57,18.71-20.5,18.22-1.31,35.95-4.89,53.4-10.12,12.34-3.7,22.9-.86,31.94,8.41,5.22,5.35,10.08,11.13,16.34,15.39,1.28,.87,2.76,2.67,4.37,1.3,1.5-1.28,.29-3.14-.3-4.63-1.9-4.79-5.7-8.12-9.14-11.74-3.05-3.21-7.7-6.36-6.41-11.13,1.28-4.72,6.96-3.68,10.82-4.51,26.06-5.61,52.16-11.02,78.41-15.65,3.92-.69,7.71-2.12,11.62-2.92,6.12-1.25,9.08,1.09,8.73,7.24-.25,4.24,1.34,4.14,4.3,2.67,23.95-11.87,49.58-18.44,75.59-23.73,23.34-4.75,46.64-9.76,70.07-13.97,17.13-3.08,32.47,.89,44.24,14.73,.39,.46,1,.72,1.51,1.07,.3-.21,.6-.41,.9-.62Zm-57.98,253.88c1.36,0,2.03,.06,2.69-.01,1.43-.15,3.54,.5,4.03-1.11,.63-2.05-1.76-2.45-3.02-3.35-5.96-4.31-12.87-5.94-19.94-7.46-47.64-10.27-89.59-30.05-118.41-71.52-1.34-1.93-3.05-3.56-5.16-4.64-1.58-.81-3.42-2.48-5.01-1.15-1.75,1.46-.02,3.37,.64,4.98,.43,1.07,1.16,2.02,1.76,3.01,4.02,6.66,10.09,11.48,15.41,16.97,4.08,4.22,7.75,8.71,10.47,13.92,.66,1.27,1.77,2.78,.54,4.14-1.06,1.18-2.54,.31-3.75-.11-20.33-6.98-41.34-11.7-61.65-18.76-20.28-7.06-40.41-14.64-61.3-19.84-9.05-2.25-18.14-4.37-27.42-5.46-1.26-.15-2.93-.75-3.5,.92-.52,1.53,.91,2.44,2.03,3.06,2.18,1.19,4.41,2.37,6.74,3.21,34.5,12.42,69.83,22.14,104.99,32.43,24.86,7.27,48.78,16.86,70.49,31.36,9.03,6.03,17.44,12.79,25.4,20.17,1,.92,2.04,2.8,3.67,1.44,1.18-.98,.26-2.54-.34-3.68-1.09-2.06-2.4-4-3.51-6.05-1.3-2.4-2.44-4.97-.59-7.51,1.76-2.41,4.46-1.85,6.92-1.47,8.95,1.38,17.35,4.64,25.83,7.63,10.67,3.75,21.2,8.06,31.98,8.89Zm-267.41-154.94c12.29-3.08,24.07-7.56,32.88-17.44,2.96-3.32,5.55-3.56,9.01-1.05,5.3,3.84,9.88,8.38,14.18,13.28,6.04,6.88,12.19,13.7,19.64,19.11,1.8,1.31,4.33,3.78,6.12,2.22,2.27-1.99-.4-4.59-1.54-6.6-3.99-7.1-10.18-12.23-16.25-17.44-10.68-9.16-10.19-18.23,1.46-25.88,7.4-4.86,15.37-8.67,23.42-12.3,8.57-3.86,16.56-8.6,22.74-15.89,1.12-1.32,3.38-2.57,2.1-4.54-1.23-1.9-3.41-.64-5.04-.06-8.68,3.09-16.6,7.67-24.4,12.51-13.7,8.51-26.95,18.01-43.58,20.27-3.5,.48-4.54,3.07-4.51,6.18,.04,4-2.05,6.07-5.75,7.01-6.16,1.56-12.07,3.84-17.65,6.87-5.3,2.88-10.1,6.46-14.18,10.94-.51,.56-1.04,1.5-.92,2.14,.19,1.01,1.29,.72,2.27,.68Zm115.62,54.54c-.49-2.67-1.44-5.13-2.79-7.44-4.71-8.08-11.81-13.81-19.08-19.35-1.29-.98-2.64-3.47-4.5-1.81-1.49,1.33-.05,3.45,.6,5.09,4.48,11.21,13.89,17.91,22.94,24.92,1.62,1.26,2.8,.89,2.82-1.4Z"/>
  <path class="cls-1" d="M663.04,136.98c.04-15.08,8.38-25.86,23.67-31,23.23-7.8,47.04-13.55,70.66-19.96,17.04-4.62,34.12-9.13,51.04-14.16,8.32-2.47,16.01-2.12,23.69,1.79,4.15,2.11,8.18,4.52,12.73,5.75,1.27,.34,2.73,.76,3.66-.59,.79-1.14-.08-2.21-.56-3.26-4.79-10.51-3.13-14.42,8.18-17.1,10.37-2.45,20.91-4.15,31.34-6.33,4.33-.9,6,1.54,7.31,4.96,3.23,8.4,3.02,17.34,4.11,26.07,.54,4.31,1.26,8.56,2.53,12.72,2.25,7.36,1.3,9.41-6.06,11.92-2.89,.98-3.07,1.97-1.13,4.04,13.14,14.08,17.95,31.6,20.55,50.01,1.88,13.35,3.36,26.76,6.53,39.92,1.48,6.12-1.13,9.2-7.61,9.17-6.15-.03-12.29-.61-18.44-.92-26.77-1.32-53.56-1.78-80.36-1.98-37.03-.29-73.87-2.61-110.01-11.64-4.81-1.2-7.91-3.26-9.54-8.18-2.2-6.64-6.82-11.69-12.23-16.09-8.27-6.72-14.95-14.69-18.53-24.94-1.23-3.52-1.64-7.13-1.53-10.2Z"/>
  <path class="cls-1" d="M632.94,173.14c-3.26,5.32-6.15,9.71-9.88,13.56-6,6.2-13.1,10.28-21.4,12.16-14.01,3.17-27.98,3.75-41.82-1.27-6.77-2.46-13.81-3.52-21.07-3.54-24.64-.05-49.25,1.73-73.89,1.03-14.3-.4-28.59-1.42-42.92-1.09-3.02,.07-6.27-.18-7.36-3.81-1.02-3.39,.33-6.16,2.95-8.43,2.65-2.3,5.24-4.6,8.91-5.21,38.21-6.41,75.17-17.7,112.16-28.85,25.68-7.74,51.75-13.95,77.67-20.76,7.78-2.04,14.84-.56,20.92,4.93,6.06,5.48,7.71,11.83,4.49,19.34-1.96,4.58-4.52,8.89-6.7,13.38-.56,1.16-1.2,2.78,.09,3.69,1.53,1.08,2.29-.64,3.15-1.54,10.61-11.12,19.38-11.63,29.47-.04,7.59,8.72,15.89,16.51,24.56,24.03,3.7,3.2,3.43,4.68-1.11,6.62-10.79,4.59-22.12,4-33.47,3.35-8.12-.47-16.18-1.87-24.38-.97-4.54,.5-6.51-1.75-5.87-6.3,.59-4.17,2.46-7.92,4.22-11.7,1.09-2.33,2.79-4.6,1.26-8.59Z"/>
  <path class="cls-1" d="M136.12,257.07c-14.53-5.52-26.09-15.24-36.59-26.31-11.57-12.21-21.23-26.09-33.17-37.99-.9-.9-2.27-1.82-1.6-3.34,.58-1.32,1.99-.9,3.12-.84,19.64,1.12,39.3,.24,58.95,.49,7.5,.09,14.99,.01,22.49,0,10.97,0,21.77,.25,32.66,2.98,13.4,3.35,27.28,3.15,41.2,2.49,14.55-.68,29.15-2.93,43.84-.06,5.4,1.06,11.25-.27,16.9-.34,4.81-.06,9.25,1.29,12.92,4.5,1.61,1.41,3.46,3.05,2.95,5.45-.5,2.34-2.95,2.44-4.81,2.98-26.41,7.63-52.82,15.25-79.25,22.81-20.66,5.91-41.36,11.68-62.02,17.59-6.57,1.88-13.27,3.63-17.64,9.6,0,0,.02-.02,.02-.02Z"/>
  <path class="cls-1" d="M361.47,360.23c-3.1-8.18-6.25-16.35-9.3-24.55-8.12-21.85-16.04-43.77-24.41-65.52-2.4-6.24-2.62-12.66-3.59-19.04-1.29-8.48-3.29-16.74-8.23-23.87-2.7-3.89-1.79-6.76,1.23-9.61,4.54-4.29,9.98-7.18,15.54-9.86,12.14-5.83,24.96-9.21,38.34-10.52,1.98-.19,3.99-.18,5.99-.11,16.73,.52,21.31,7.25,17.72,23.48-8.57,38.78-18.87,77.18-25.82,116.33-1.39,7.81-3.08,15.61-5.95,23.04-.51,.08-1.01,.15-1.52,.23Z"/>
  <path class="cls-1" d="M1029.97,768.11c.07,12.96,.02,12.97-9.57,9.81-44.78-14.71-89.57-29.38-134.33-44.17-2.76-.91-7.3-.77-7.05-4.97,.27-4.44,4.82-3.91,7.9-4.43,37.46-6.26,74.91-12.51,112.21-19.66,13.01-2.49,17.64,.68,21.12,13.29,4.8,17.37,8.72,34.89,9.71,50.14Z"/>
  <path class="cls-1" d="M1601.9,923.9c1.85,13.99,8.3,25.83,17.12,36.57,1.01,1.23,2.97,2.23,2.3,4.1-.72,2.04-2.97,1.9-4.73,2.09-8.5,.93-16.65-.89-24.45-3.92-37.3-14.46-75.94-24.87-113.65-38.12-3.77-1.32-7.64-2.35-11.44-3.58-1.22-.4-3.11-.52-3.15-1.99-.05-1.95,2.13-1.66,3.41-2.22,.45-.2,.96-.26,1.45-.39,31-7.83,61.99-15.7,93-23.48,12.92-3.24,17.91-.88,24.19,11.07,2.09,3.98,3.96,8.09,6.23,11.96,2.22,3.78,4.96,7.16,9.74,7.92,0,0-.02-.02-.02-.02Z"/>
  <path class="cls-1" d="M324.62,542.05c-.03,6.09-6.09,10.86-12.08,9.05-3.94-1.19-7.64-3.21-11.42-4.91-1.73-.78-2.32-2.08-.73-3.46,3.75-3.24,7.2-6.98,12.11-8.57,6.15-2,12.15,1.94,12.12,7.88Z"/>
  <path class="cls-2" d="M1652.18,637.14c-.6,2.17-2.12,1.28-3.19,.92-8.39-2.83-16.35-6.55-22.97-12.57-3.18-2.89-6.06-6.12-9.03-9.25-.67-.71-1.26-1.69-.72-2.71,.59-1.1,1.74-.91,2.65-.56,12.62,4.81,23.59,12.01,32.27,22.48,.41,.5,.66,1.13,.98,1.69Z"/>
  <path class="cls-2" d="M657.04,678.97c2.08-10.28,.45-12.93-10.03-14.44-10.55-1.52-19.87-6.64-29.91-9.64-25.21-7.54-50.74-14.08-75.5-23.07-10.62-3.86-21.08-8.11-31.66-14.19,2.82-1.32,4.87-.5,6.82-.18,29.44,4.74,57.43,14.52,85.37,24.53,16.15,5.78,32.05,12.26,48.74,16.48,25.35,6.41,47,.03,65.47-18.26,10.77-10.66,21.73-21.12,32.66-31.62,1.24-1.19,2.55-3.47,4.49-2.19,1.82,1.2,.51,3.39-.05,5.05-.86,2.56-2.52,4.67-4.19,6.76-1.88,2.34-3.82,4.63-5.55,7.07-1.03,1.44-2.69,3.22-1.45,4.93,1.35,1.86,3.44,.4,5.03-.23,16.92-6.64,33.27-14.5,49.33-23.01,23.26-12.32,46.5-24.68,71.32-33.7,2.35-.85,4.74-1.58,7.16-2.22,1.22-.32,2.78-.99,3.56,.6,.68,1.37-.3,2.6-1.15,3.6-3.02,3.56-7.31,5.16-11.34,7.11-29.98,14.53-59.98,29-89.96,43.53-20.69,10.02-40.92,20.98-61.87,30.46-2.41,1.09-4.78,2.42-6.9,3.99-4.66,3.45-6.94,7.98-5.56,13.93,.55,2.36,.98,4.9-2.18,5.71-11.26,2.91-18,11.56-25.16,19.66-4.22,4.78-8.74,9.16-14.4,12.2-1.11,.6-2.47,1.71-3.64,.54-1.11-1.11-.17-2.53,.33-3.72,3.12-7.44,9.59-12.28,14.45-18.36,2.73-3.41,5.36-6.82,6.71-11.01,.6-1.86,1.63-4-.11-5.64-1.62-1.52-3.46-.1-5.14,.44-5.22,1.65-10.07,4.49-15.69,4.87h0Z"/>
  <path class="cls-2" d="M778.44,287c4.9,.97,7.79,4.4,10.98,7.15,5.12,4.42,10.27,8.51,17.38,8.99,2.01,.14,3.13,1.16,2.68,3.29-1.16,5.41,1.38,9.71,4.1,13.96,.27,.42,.58,.82,.81,1.26,1.4,2.73,4.78,6.19,2.32,8.36-2.28,2.01-4.35-2.42-6.32-4.11-7.12-6.12-15.25-7.89-24.26-6.25-4.77,.87-9.31,2.52-13.66,4.69-48.41,24.2-97.79,46.32-147.09,68.62-9.09,4.11-17.81,9.12-27.51,11.77-2.69,.74-6.73,2.97-8.11-.32-1.38-3.3,2.62-5.44,5.35-6.74,13.52-6.45,27.13-12.71,40.77-18.91,35.01-15.92,70.04-31.79,105.07-47.65,8.8-3.98,17.69-7.76,26.46-11.79,2.86-1.31,5.65-2.91,8.17-4.78,7.94-5.88,9.51-13.78,4.73-22.45-.78-1.41-2.17-2.59-1.88-5.08Z"/>
  <path class="cls-2" d="M909.53,428.09c3.06-.27,5.18,1.29,6.26,4.65,2.08,6.5,6.2,11.66,10.88,16.52,6.46,6.7,13.88,12.52,19.18,20.27,1.64,2.4,5.17,5.84,2.29,8.17-2.83,2.29-5.95-1.37-8.42-3.5-4.95-4.29-8.57-9.72-12.52-14.86-10.42-13.56-21.6-14.33-34.33-2.72-9.01,8.22-15.77,18.49-24.73,26.73-2.32,2.14-4.77,4.14-7.2,6.15-.74,.61-1.68,1.46-2.67,.77-1-.7-.46-1.84-.2-2.77,1.55-5.57,4.19-10.56,8.48-14.46,9.23-8.4,17.85-17.4,26.42-26.46,3.92-4.14,7.41-8.5,9.37-13.98,1.37-3.83,2.69-4.53,7.2-4.5Z"/>
  <path class="cls-2" d="M471.33,439.36c14.27-33.53,32.49-64.72,56.06-93.52,.78,12.09-42.23,84.1-56.06,93.52Z"/>
  <path class="cls-2" d="M304.69,714.5c8.44-26.63,25.38-48.31,40.94-70.8-5.38,28.36-21.3,50.64-40.94,70.8Z"/>
  <path class="cls-2" d="M816.61,300.69c-.18-1.36,.84-1.84,1.62-2.36,17.9-12.02,36.64-22.32,57.72-27.69,1.77-.45,4.42-2.1,5.36,.03,.91,2.05-1.98,3.08-3.53,4.16-17.07,11.98-35.91,20.13-55.99,25.5-1.66,.44-3.39,1.45-5.18,.36Z"/>
  <path class="cls-2" d="M761.44,596.57c1.94-7.33,6.25-13.18,11.15-18.49,8.13-8.8,16.85-17.03,25.89-24.92,1.18-1.03,2.58-2.96,4.19-1.54,1.51,1.32-.08,3.11-.76,4.52-5.55,11.48-14.11,20.53-23.7,28.64-5.16,4.36-10.32,8.8-16.77,11.8Z"/>
  <path class="cls-2" d="M527.95,432.05c7.57-6.5,15.77-11.42,24.41-15.57,8.85-4.24,18.03-7.68,27.73-9.5,1.1-.21,2.54-.81,3.26,.32,.86,1.35-.57,2.11-1.46,2.73-15.42,10.65-31.69,19.47-50.38,22.95-.95,.18-1.98,.48-3.57-.93Z"/>
  <path class="cls-2" d="M849.78,502.08c-1.59,4.35-4.17,8.44-7.11,12.26-7.38,9.59-16.55,17.25-26.43,24.11-1.05,.73-2.39,2.1-3.54,1.17-1.58-1.27-.02-2.77,.67-3.96,8.12-14.12,19.6-25.1,32.66-34.56,.92-.67,1.91-1.49,3.18-.98,.72,.29,.73,1.02,.58,1.96Z"/>
  <path class="cls-2" d="M863.01,384.04c15.06,8.72,28.04,19.59,36.28,35.29,.86,1.64,2.83,3.82,.99,5.36-1.59,1.33-3.29-.92-4.62-1.99-11.07-8.86-21.41-18.43-29.18-30.47-1.64-2.54-3.07-5.14-3.47-8.19h0Z"/>
  <path class="cls-2" d="M770.21,276.23c.24,2.62-1.06,2.62-2.33,1.59-10.95-8.85-22.52-17.16-28.31-30.77-.45-1.05-1.19-2.19-.39-3.28,.77-1.03,1.86-.51,2.66,.07,10.66,7.68,21.3,15.4,26.84,27.99,.66,1.51,1.1,3.13,1.53,4.4Z"/>
  <path class="cls-2" d="M830.32,344.58c.43,.2,.9,.37,1.32,.62,10.34,6.35,19.48,13.84,24,25.63,.56,1.46,1.77,3.37,.08,4.55-1.5,1.04-2.69-.78-3.78-1.66-7.49-6.02-15.21-11.84-20.05-20.45-1.13-2.01-2.07-4.14-2.92-6.29-.42-1.07-.65-2.43,1.34-2.4Z"/>
  <path class="cls-2" d="M601.05,228.09s-.01-.01-.01-.01,.01,.01,.01,.01Z"/>
  <path class="cls-2" d="M1386.18,901.89c-10.78-.83-21.31-5.14-31.98-8.89-8.48-2.98-16.88-6.24-25.83-7.63-2.46-.38-5.16-.95-6.92,1.47-1.84,2.53-.71,5.11,.59,7.51,1.11,2.05,2.42,3.99,3.51,6.05,.6,1.14,1.52,2.7,.34,3.68-1.63,1.36-2.68-.52-3.67-1.44-7.95-7.37-16.37-14.13-25.4-20.17-21.71-14.5-45.63-24.08-70.49-31.36-35.16-10.29-70.49-20.01-104.99-32.43-2.33-.84-4.56-2.01-6.74-3.21-1.12-.62-2.56-1.53-2.03-3.06,.57-1.66,2.24-1.07,3.5-.92,9.28,1.1,18.37,3.21,27.42,5.46,20.89,5.2,41.02,12.78,61.3,19.84,20.31,7.07,41.32,11.79,61.65,18.76,1.21,.41,2.69,1.28,3.75,.11,1.23-1.37,.12-2.88-.54-4.14-2.72-5.21-6.39-9.7-10.47-13.92-5.31-5.49-11.38-10.31-15.41-16.97-.6-1-1.33-1.95-1.76-3.01-.65-1.61-2.38-3.53-.64-4.98,1.59-1.33,3.43,.34,5.01,1.15,2.11,1.08,3.82,2.71,5.16,4.64,28.82,41.47,70.77,61.26,118.41,71.52,7.07,1.52,13.98,3.15,19.94,7.46,1.25,.91,3.64,1.3,3.02,3.35-.5,1.61-2.6,.96-4.03,1.11-.66,.07-1.33,.01-2.69,.01Z"/>
  <path class="cls-2" d="M1118.77,746.95c-.98,.04-2.08,.34-2.27-.68-.12-.64,.41-1.58,.92-2.14,4.08-4.48,8.87-8.06,14.18-10.94,5.59-3.03,11.49-5.32,17.65-6.87,3.7-.94,5.79-3,5.75-7.01-.03-3.12,1.01-5.71,4.51-6.18,16.63-2.26,29.87-11.77,43.58-20.27,7.8-4.84,15.72-9.42,24.4-12.51,1.64-.58,3.81-1.84,5.04,.06,1.28,1.98-.98,3.22-2.1,4.54-6.18,7.29-14.17,12.03-22.74,15.89-8.06,3.63-16.02,7.44-23.42,12.3-11.66,7.65-12.14,16.72-1.46,25.88,6.08,5.21,12.26,10.34,16.25,17.44,1.13,2.01,3.81,4.61,1.54,6.6-1.79,1.57-4.32-.91-6.12-2.22-7.46-5.42-13.6-12.23-19.64-19.11-4.3-4.9-8.89-9.44-14.18-13.28-3.46-2.51-6.05-2.27-9.01,1.05-8.8,9.88-20.59,14.36-32.88,17.44Z"/>
  <path class="cls-2" d="M1234.39,801.48c-.02,2.29-1.2,2.66-2.82,1.4-9.04-7.01-18.46-13.71-22.94-24.92-.65-1.64-2.09-3.75-.6-5.09,1.86-1.67,3.21,.82,4.5,1.81,7.27,5.54,14.37,11.28,19.08,19.35,1.35,2.31,2.3,4.78,2.79,7.44Z"/>
</svg>