<?xml version="1.0" encoding="UTF-8"?>
<svg id="Réteg_1" data-name="Réteg 1" xmlns="http://www.w3.org/2000/svg" viewBox="0 0 1716.72 1063">
  <defs>
    <style>
      .cls-1 {
        fill: #ad8080;
      }

      .cls-2 {
        fill: #fdfcfc;
      }

      .cls-3 {
        fill: #b38989;
      }

      .cls-4 {
        fill: #884343;
      }

      .cls-5 {
        fill: #8b4a4a;
      }
    </style>
  </defs>
  <path class="cls-4" d="M666,1063c5.05-4.18,11.37-5.69,17.27-7.98,25.11-9.77,51.34-15.33,77.78-20,3.5-.62,6.54-1.67,9.43-3.92,5.81-4.52,13.14-5.18,19.97-7.08,2.55-.71,5.16-1.2,7.67-2.03,12.42-4.09,17.28-11.87,15.04-24.76-2.35-13.54-5.2-26.98-9.07-40.19-3.46-11.81-9.45-22.11-18.39-30.82,12.45-3.86,10.53-3.29,10-15.2-.77-17.29-3.83-34.24-9.63-50.62-2.24-6.32-5-8.38-11.76-8.64-18.28-.71-36.55-.71-54.83,.28-15.17,.82-18.04,5.73-11.34,19.83-.19,.18-.37,.35-.55,.53-17.13-8.22-33.12-5.23-48.5,4.78-8.41,5.48-17.43,9.48-28.24,9.97,2.01-4.63,5.7-6.9,9.34-8.91,4.91-2.73,10.13-4.9,15.21-7.32,8.29-3.95,16.13-8.46,21.35-17.25-14.75-5.94-29.39-9.98-45.14-8.18-7.62,.87-14.96,2.85-21.92,6.11-1.48,.69-2.67,.81-4.11-.25-12.74-9.39-27.66-10.67-42.71-10.94-8.29-.15-16.65-.92-24.91,.41-7.56,1.22-10.21,5.13-6.95,11.87,4.46,9.22,6.17,19.62,12.6,27.99,10.01,13.03,20.57,13.82,32.13,2.07,5.61-5.7,9.53-12.82,15.33-18.38,3.29-3.15,6.89-5.68,11.69-7.2-1.2,6.67-4.63,11.85-8.92,16.41-5.7,6.06-11.81,11.73-17.57,17.73-4.74,4.95-8.63,10.52-11,17.63,15.26-.47,26.94-13.18,42.51-11.83-.24,2.3-1.78,2.5-3.14,3.04-5.23,2.1-10.36,4.39-15.03,7.63-12.58,8.72-16.08,19.83-10.94,34.26,1.08,3.02,3.32,5.64,3.26,9.06l.06-.08c-4.75-4.59-9.42-9.27-14.28-13.75-10.14-9.36-17.23-9.66-28.07-1.21-7.6,5.92-14.42,12.73-21.36,19.38-4.23,4.05-8.91,7.33-14.32,9.57l.07,.11c-.86-2.91,1.42-4.96,2.23-7.36,.97-2.86,.35-4.88-1.58-6.72-2.17-2.06-4.31-.8-6.35,.39-7.33,4.29-14.91,7.92-23.51,8.76-1.23,.12-2.63,.46-4.09-.81,2.73-4.67,6.76-7.91,11.35-10.57,4.47-2.59,9.26-4.41,14.19-5.91,15.05-4.6,28.73-12.03,41.8-20.59,9.28-6.08,11.6-11.52,8.72-22.03-3.68-13.41-7.81-26.78-16.2-38.23-9.45-12.89-22.81-18.76-38.16-21.01-8.43-1.24-16.9-1.3-25.39-1.26-28.95,.14-57.87-.74-86.78-2.04-25.07-1.13-50.12-2.57-75.18-3.88,5.19-4.85,11.43-5.88,18.23-5.23,4.2,.4,8.46,1.19,12.62-.38,3.81,.19,7.61,.54,11.42,.55,50.64,.04,101.29,.02,151.93,.02h5.92c-1.69-8.01-5.33-14.91-7-22.5,4.91,5.15,8.93,10.96,14.6,15.34,10.18,7.86,21.78,11.72,34.32,13.36,20.95,2.74,41.88-1.02,62.83-.11,1.91,.08,3.97-.6,5.76-1.37,4.53-1.94,6.8-5.66,7.33-10.46,.5-4.45-1.95-7.27-5.58-9.14-8.63-4.44-14.84-11.38-20.91-19.44,8.05,.05,13.21,4.43,18.28,8.94,5.97,5.31,12.25,9.62,20.9,8.67,4.14-.46,7.4-2.75,11.05-4.23,.26,.22,.51,.45,.77,.67-.42,1.95-.9,3.89-1.25,5.85-1.72,9.74,2.82,17.09,13.55,20.81,20.73,7.19,41.69,9.2,62.99,2.18,13.36-4.4,26.82-8.54,40.22-12.83,1.29-.41,2.52-.82,4.35-.13-3.66,8.64-15.48,8.8-18.65,18.77,6.56-3.16,13.09-1.89,19.55-2.01,3.42-.06,6.09-1.44,8.18-4.07,4.66-5.85,3.09-10.95-4.03-13.19-1.1-.35-2.19-.74-3.29-1.11,.09-.39,.05-.83,.24-.98,11.43-8.6,6.26-19.76,4.31-30.12-5.77-30.64-11.93-61.22-17.96-91.81-.12-.6-.54-1.14-.98-2.05-14.48,13.13-28.74,26.06-44,39.91,.98-6.9,3.5-11.58,6.85-15.87,4.13-5.29,9.34-9.48,14.44-13.76,8.7-7.3,16.07-15.49,18.34-27.11,1.67-8.53,0-16.87-1.67-25.18-6.97-34.62-13.96-69.23-20.97-103.83-.13-.62-.5-1.2-.91-2.15-6.18,1.67-11.62,4.74-17.14,7.59-12.23,6.31-23.95,13.59-36.73,18.85-7.09,2.92-14.32,5.21-21.91,6.36-.04-.48-.08-.96-.11-1.44,11.78-10.36,26.21-15.9,40.24-22.17,7.09-3.17,14.32-6.1,20.89-10.31,9.42-6.02,10.38-12.37,3.33-20.9-4.68-5.66-10.52-10.1-15.85-15.07-5.52-5.15-10.18-10.9-11.38-18.7,.62-.02,1.25-.04,1.87-.05,10.07,8.34,20.13,16.68,31.07,25.74-1.6-9.31-2.99-17.56-4.43-25.8-4.91-28.09-9.8-56.19-14.76-84.27-1.35-7.66-2.66-15.35-5.93-22.51-3.37-7.38-8.96-11.01-17.22-11.18-13.61-.29-26.7,2.97-39.85,5.59-7.41,1.48-14.87,1.76-22.28,2.01-8.1,.27-13.58,2.75-14.75,12.03-14.59-8.75-29.01-4.76-43.74-1.73-23.69,4.88-47.56,8.9-71.4,13.06-30.76,5.36-61.02,12.38-89.67,25.2-.71,.32-1.5,.45-2.19,.64-.31-.48-.68-.8-.62-1,2.59-8.46,1.77-9.36-6.84-7.76-19.4,3.62-38.8,7.3-58.24,10.71-3.89,.68-7.97,.47-11.96,.33-16.46-.55-17.93,7.45-15.66,20.3,1.86,10.49,8.91,16.72,19.92,19.59-3.48,5.32-4.27,11.53-11.88,13.48-8.94,2.3-17.48,6.17-26.2,9.35-.46-.46-.92-.93-1.38-1.39,1.27-4.03,4.8-5.77,8.03-7.72,12.19-7.35,13.7-9.88,11.77-20.16-2.14-11.37-10.62-20.46-20.69-22.35-12.96-2.43-26.1-1.17-38.74,.67-11.58,1.69-19.12,11.1-23.06,22.15-4.96,13.92-7.4,28.52-9.98,43.02-1.35,7.57,3.99,13.16,12.12,13.99,2.8,.28,5.64,.62,8.45-.01l-.08-.1c1.07,5.91,4.48,10.99,6.06,17.17-5.65,.02-10.82-2.07-16.28-2.11-10.8-.09-15.75,2.82-19.85,12.93-5.02,12.39-6.84,25.53-8.78,38.63-1.85,12.49-4.42,24.72-12.32,35.32-2.22-7.48-1.59-17.06,1.63-30.27,2.97-12.21,6.88-24.23,7.69-36.89,.05-.8-.06-1.6-.12-2.89-9.19,3.14-18.07,6.17-26.95,9.21-.03-1.74-.06-3.47-.1-5.21,7.1-4.23,14.28-8.34,21.3-12.7,16.55-10.28,17.61-16.44,6.15-32.33-2.8-3.87-6.35-7.21-8.35-11.66,0,0,.16-.14,.16-.14,4.21,.81,8.4,1.73,12.63,2.41,5.51,.89,9.83-.91,11.9-5.86,4.87-11.62,6.78-23.9,6.25-36.46-.2-4.63-3.48-6.84-8.11-7.1-7.22-.41-14.21,1.33-21.24,2.4-13.43,2.04-26.77,4.6-40.83,7.06,3.13,6.38,7.9,10.79,13.29,14.61,5.01,3.55,10.23,6.81,15.22,10.39,3.83,2.75,6.75,6.34,8.58,11.03-2.65,.95-3.7-1.24-4.96-2.4-13.26-12.24-28.62-20.26-46.44-23.43-15.76-2.81-31.48-1.63-47.11,.94-22.39,3.68-44.39,9.55-66.95,12.32-4.11,.5-8.25,.83-12.37,1.24,0-3.67,0-7.33,0-11,7.49-.07,15.02,.33,22.46-.31,25.31-2.17,49.85-9.18,75.02-12.34,8.21-1.03,10.03-4.89,7.87-13.16-.16-.6-.21-1.22-.34-2.07,.76,.15,1.24,.15,1.63,.34,15.32,7.32,31.24,7.79,47.67,4.81,16.96-3.08,33.33-8.95,50.49-10.88,8.48-.95,12.57-5.56,14.41-13.32,3.43-14.5,7.29-28.89,10.46-43.44,2.91-13.34,4.63-26.82,2.34-40.54-1.2-7.17-3.69-13.93-5.5-21.28,4.01,3.29,8.02,6.58,12.3,10.1,4.47-9.58,8.78-18.84,13.1-28.09,.4,.92,1.18,1.16,2.09,1.19-1.32,21.63-10.71,42.94-1.87,65.06-8.24-1.59-10.69-.63-11.97,5.3-3.96,18.32-9.27,36.29-13.79,54.46-.64,2.59-1.16,5.53,1.68,7.2,2.85,1.68,5.88,3.14,9.3,.93,5.26-3.38,11.25-4.72,17.27-6.02,7.84-1.69,16-2.35,23.08-6.58-1.76-6.26-3.41-12.15-5.06-18.04,.32-.35,.65-.7,.97-1.04,11.64,15.62,27.62,20,45.94,16.93,15.5-2.6,30.84-6.15,46.26-9.23,35.55-7.08,71.26-13.59,104.19-30.87-.11,1.36-.09,2.34-.29,3.28-1.8,8.22,1.09,11.05,9.18,8.91,2.88-.76,5.7-1.78,8.61-2.36,21.93-4.36,43.89-8.61,65.83-12.97,9.05-1.8,18.06-3.81,27.23-5.75-1.25-7.02-5.93-11.09-10.23-15.4-4.41-4.42-8.36-9.07-8.36-15.82l-.09,.08c2.3,.16,3.9,1.69,5.65,2.91,6.34,4.43,11.16,10.47,16.61,15.83,9.29,9.12,19.89,11.9,32.38,7.98,17.31-5.43,34.99-8.83,53.15-9.89,12.04-.7,18.33-7.78,18.59-19.77,.11-4.84-.36-9.62-1.28-14.37-3.33-17.05-6.57-34.12-10.97-50.95,.61-5.32-.99-9.78-5.19-13.21-1.13-3.55-.62-7.26-1-10.88-3.11-30.21-9.06-59.93-15.4-89.6-5.85-27.36-11.98-54.67-15.55-82.47-1.66-12.92-8.83-18.02-21.88-15.78-4.06,.7-8.09,1.65-12.08,2.7-25.6,6.77-50.84,15.42-77.86,14.6-.01-.36-.03-.73-.04-1.09,14.87-8.94,31.67-11.34,48.34-14.07,12.76-2.09,25.63-3.75,37.77-8.41,16.64-6.39,21.94-17.45,15.15-33.95-3.88-9.42-3.45-18.69-3.15-28.16,5.48-.59,5.19,3.58,5.84,6.82,2.16,10.71,3.72,21.57,7.93,31.75,3.69,8.93,10.36,12.94,19.72,11.62,6.06-.85,12.12-1.93,18.07-3.36,54.88-13.19,109.81-26.18,164.9-38.51C855.42,6.71,869.41,4.17,883,0,896,0,909,0,922,0c-17.82,4.34-35.62,8.77-53.47,12.98-8.37,1.98-16.89,3.31-25.24,5.34-10.69,2.6-12.25,7.05-4.65,14.98,12.43,12.96,25.36,25.43,38.17,38.02,13.64,13.41,26.74,27.34,39.99,41.13,8.45,8.79,15.02,9.76,25.89,4.2,6.47-3.31,12.65-7.32,20.14-8.08,.05,.44,.11,.88,.16,1.32-3.15,4.85-7.02,8.75-12.9,10.22-1.25,.31-2.37,1.18-3.5,1.87-7.61,4.67-8.54,9.71-3.18,16.93,4.7,6.33,10.78,11.33,16.31,16.85,21.47,21.4,43.05,42.71,64.53,64.1,15.22,15.16,30.38,30.38,45.51,45.65,3.99,4.02,7.44,8.44,7.45,15.81-7.63-6.8-14.71-12.77-21.41-19.14-26.31-25.04-51.29-51.41-76.81-77.23-17.79-18-36.29-35.25-55.18-52.12-8.5-7.59-15.16-17.2-22.98-25.58-24.57-26.31-51.43-50.33-76.28-76.37-5.52-5.78-12.51-5.4-19.58-3.73-48.22,11.39-96.76,21.29-145.13,31.98-13.82,3.05-17.57,9.02-14.9,22.94,.13,.65,.13,1.33,.29,1.97,9.64,39.13,16.94,78.73,23.6,118.45,2.25,13.41,3.31,27.03,7.12,40.15,3.26,11.2,8.25,13.88,19.7,11.72,8.46-1.59,16.47-4.81,25.44-6.83-1.43,4.88-4.86,7.09-8.32,9.12-4.58,2.69-9.43,4.92-13.93,7.71-4.02,2.49-7.04,5.98-8.33,11.25,11.94,3.79,23.75,7.48,35.52,11.3,29.46,9.55,59.39,17.63,88.54,28.12,11.52,4.15,22.52,9.64,34.34,13.14,11.9,3.52,23.68,2.21,35.5,.38,26.56-4.11,53.12-8.21,79.63-12.63,27.64-4.61,55.22-9.59,82.82-14.41,6.54-1.14,13.03-2.67,19.6-3.42,7.37-.84,13.12-3.51,15.73-11.26,6.15,2.5,11.96,5.23,18.75,3.42,6.78-1.81,11.75-6.01,16.36-10.87,14.56-15.36,30.51-29.27,45.98-43.67,2.33-2.17,3.78-2.44,5.18,.95-15.54,16.47-31.14,33.02-47.52,50.39,7.5,.02,13.58-1.92,19.72-3.11,20.01-3.87,39.98-7.94,59.96-11.96,.97-.19,1.9-.57,2.84-.88,10.16-3.37,13.19-9.31,9.02-19.19-2.87-6.8-3.62-13.72-3.29-20.92,0,0,.32,0,.32,0h.32c2.42,7.04,4.87,14.05,9.07,20.31,9.45,14.08,23.49,18.81,41.98,14.07,4.94-1.27,9.8-3.25,15.02-1.34-1.42,3.37-4.55,4.29-7.62,4.88-3.41,.65-7.02,1.41-10.39,.95-9.19-1.24-16.7,3.44-24.78,6.2-1.55,.53-2.66,1.73-2.77,3.26-.31,4.04,1.3,7.51,4.12,10.3,2.44,2.41,5.63,3.22,8.78,1.86,12.79-5.55,26.06-10.12,37.76-17.95,2.97-1.99,6.16-3.85,8.02-7.38-3.24-2.3-7.16-.22-10.22-2.11,6.41-5.78,14.52-7.31,22.55-9.11,6.45-1.44,13.93,.58,19.37-3.23,9.77-6.84,22.58-5.34,31.97-13.03,4.67-3.82,10.45-6.37,15.92-9.14,10.92-5.53,21.99-10.78,34.51-11.63-1.45,2.61-4.26,3.49-6.53,5-8.75,5.84-17.61,11.54-26.42,17.29,7.05,1.16,13.69,.25,20.33-.77,14.9-2.29,29.67-5.83,44.94-4.51,.95,.08,2.04-.01,2.89-.41,11.08-5.16,15.08-20.14,8.03-30.3-2.31,.76-4.63,1.59-7,2.28-12.19,3.58-23.93,8.59-36.33,11.5,1.1-2.64,2.49-4.76,5.63-5.58,31.09-8.12,47.88-29.5,55.38-59.65,4-16.09,5.81-32.58,9.23-48.76,1.9,0,3.8-.02,5.71-.02,2.38,13.6-1.83,26.3-5.46,39.03-2.83,9.9-5.41,19.81-6.14,30.13-.12,1.7-.13,3.31,1.05,5.25,17.26-1.82,32.68-8.3,46.2-19.45,17.15-14.14,28.28-32.89,39.52-51.56,7.45-12.37,14.74-24.85,23.14-36.62,.64-.9,1-2.13,2.64-2.48,.46,3.82-1.37,7.02-2.52,10.3-4.93,14.07-13.27,26.31-21.09,38.82-4.75,7.6-9.21,15.36-12.23,24.24,3.88,.5,7.13-1.16,10.43-2.27,10.59-3.55,20.13-9.32,29.98-14.42,9.92-5.12,20.04-9.65,31.45-10.15,0,.33,.01,.66,.01,.99-3.8,5.51-8.83,9.01-15.28,11.26-25.61,8.93-49.36,21.31-69.93,39.27-10.31,9-19.16,19.33-27.87,30.19,2.39-8.01,4.77-16.01,7.47-25.04-15.15,7.15-30.95,10.73-42.73,22.26-7.98,7.8-10.18,17.58-9.84,28.29,.07,2.16,1.18,2.62,3.03,3.12,8.52,2.29,15.86-.15,22.19-5.71,3.99-3.5,7.48-7.58,11.15-11.44,1.67-1.75,3.26-3.59,5.02-5.53,1.47,1.97,.86,3.29,.78,4.51-.62,9.09,3.45,13.05,12.58,11.68,9.84-1.48,19.66-3.11,29.43-5.01,38.58-7.5,77.03-15.74,115.94-21.43,16.11-2.36,32.3-4.15,48.46-6.16,1.55-.19,3.14-.03,6.2-.03-14.31,6.77-27.99,10.35-41.96,13.03-22.66,4.34-45.77,5.91-68.3,11.02-15.35,3.48-30.47,7.92-46.04,10.48-9.08,1.49-18.22,1.55-27.33,2.13-25.9,1.65-46.43,12.71-61.25,34.18-1.74-.95-.97-2.39-.65-3.47,.51-1.74,1.33-3.39,2.11-5.03,3-6.32,2.81-8.69-.92-10.84-5.28-3.05-11.54-2.02-14.75,2.46-1.58,2.2-2.65,4.71-3.06,7.31-1.87,11.64-3.55,23.31-5.39,35.58,9.46-6.43,10.2-19.95,21.62-24.59-.82,8.53-4.04,15.73-8.11,22.52-3.92,6.55-8.3,12.83-12.51,19.21-5.69,8.6-8.71,17.34-1.12,26.64-8.32,.92-10.92,3.13-12.69,11.28-5.45,25.11-10.86,50.22-16.12,75.37-4.18,19.96-7.99,39.99-12.26,59.93-1,4.65-3.34,9-4.89,13.54-2.71,7.96-.78,12.97,6.34,17.28,16.66,10.09,33.16,11.42,49.92-.07,7.95-5.44,16.49-9.94,26.25-11.54,2.5-.41,4.94-.49,8-.31-1.89,5.13-5.5,8.07-9.97,9.99-5.02,2.16-10.23,3.85-15.26,5.98-4.64,1.96-8.7,4.74-11.44,9.62,9.98,5.73,20.51,9.64,31.14,13.29,22.56,7.75,46,12.65,68.4,20.94,5.12,1.89,10.36,3.65,15.16,6.19,9.59,5.08,19.58,8.34,30.3,10.45,29.24,5.77,56.7,17.24,84.38,27.93,6.76,2.61,13.55,5.16,20.06,8.69-7.29-1.75-14.58-3.48-21.86-5.26-28.67-7.02-57.61-13.52-84.34-26.31-14.71-7.03-30.43-8.89-45.7-13.04-26.56-7.22-52.13-17.44-78.31-25.79-9.62-3.07-19.2-6.26-29.19-8.09-21.4-3.91-52.55,12.14-58.24,37.68-7.71,34.59-17.14,68.79-24.14,103.57-2.68,13.32-.54,25.64,4.3,37.94,4.61,11.71,11.11,22.73,13.52,35.22,2.9,15.06,9.62,28.92,13.12,43.76,.23,.97,.53,1.93,.63,2.91,.68,6.89,2.74,12.95,6.32,19.23,5.94,10.44,9.04,22.31,10.82,34.35,.22,1.46,.63,2.89,.96,4.34,1.97,4.12,3.95,8.23,5.93,12.35,2.89,7.34,8.6,10.34,16.16,10.91,7.25,.55,14.51-2.17,21.74,.13-2.75,2.95-7.17,3.2-9.94,6.11-3.31-.28-6.63-.88-9.92-.78-7.42,.24-10.52,4.06-9.54,11.37,.84,6.28,3.06,12.17,5.15,18.11,6.27,17.78,14.1,35.03,17.91,53.64,1.25,6.13,1.85,12.31,2.32,19.64-3.87-4.45-5.92-8.73-7.98-12.97-8.23-16.96-11.94-35.37-16.98-53.35-2.19-7.81-4.35-15.62-7.96-22.93-4.68-9.48-12.46-14.43-22.84-13.77-21.5,1.37-43.25-.14-64.38,5.79-9.26,2.6-16.42,6.99-18.63,17.05-1.69,0-3.38,0-5.06-.01-.68-1.61,.66-3.66-1.09-5.05,.15-2.96-1.51-4.26-4.13-5.2-1.62-.58-3.67-.16-4.89-1.81,1.17-1.15,2.24-2.43,3.53-3.44,3.03-2.37,4.69-5.23,3.39-9.09-1.35-4.02-4.88-3.3-7.97-3.35-22.31-.37-44.61-.72-66.92-1.07,2.54-4.33,6.87-4.68,11.21-5.07,4.58-.41,9.26,1.05,13.76-.76,1.98,.17,3.96,.43,5.94,.48,11.64,.33,23.28,.58,34.92,.91,13.24,.37,16.91-2.38,20.22-15.42,1.71-6.74,3.42-13.49,4.9-20.28,6.03-27.7,10.13-55.79,17.15-83.29,7.05-27.61,12.19-55.48,10.86-84.19-.04-.77-.21-1.66,.64-2.19,7.45,1.29,9.75,.06,10.34-5.88,1.78-18.03,4.43-35.84,9.41-53.36,4.54-15.97-1.52-27.52-16.4-33.96-3.36-1.45-6.81-2.6-10.43-3.19-2.06-14.32-12.7-26.5-26.22-30.08,0,3.31-.09,6.64,.02,9.96,.51,15.54,4.01,20.98,15.55,24.38-6.31,7.73-4.71,15.89-1.67,24.37,5.25,14.64,10.34,29.35,15.16,44.14,2.22,6.8,3.61,13.86,2.48,21.53-2.96-2.41-4.62-5.08-6.26-7.76-5.47-8.95-7.55-19.03-9.62-29.12-1.93-9.4-3.64-18.88-8.01-27.57-4.57-9.09-10.73-11.74-20.52-8.92-7.71,2.22-14.77,5.84-21.63,9.94-11.19,6.69-20.63,15.59-30.43,24.17-2.7-8.19-4.85-8.89-12.38-4.99-8.83,4.57-17.77,8.95-26.77,13.17-5.21,2.44-10.73,3.99-16.69,3.9,.19-1.69,1.49-1.99,2.36-2.64,10.6-7.88,22.48-13.5,34.34-19.1,21.11-9.98,41.01-21.33,52.35-43.13,.03-.06,.32,0,.48,.02l-.1-.08c.49,2.93-1.67,4.92-2.6,7.34-.95,2.47-2.38,4.94-.18,7.45,2.15,2.46,5.02,3.4,8.1,2.82,2.23-.42,4.52-1.28,6.45-2.48,4.08-2.54,8.13-5.19,11.86-8.22,5.93-4.82,6.69-8.69,3.65-15.84-1.98-4.66-4.61-9.05-5.63-14.09-10.53,2.54-10.68,15.73-20.78,19.31,.86-10.23,4.83-18.38,11.65-24.76,4.28-4.01,4.87-8.31,3.86-13.38-2.15-10.84-7.48-20.22-14.67-28.32-14.72-16.58-33.43-27.67-53.31-36.9-8.55-3.97-16.76-9.21-26.19-10.6-19.42-2.87-38.26-7.89-56.9-13.84-26.03-8.3-51.29-18.85-77.45-26.79-27.33-8.3-51.03-2.39-71.21,17.98-9.84,9.93-20,19.54-30.18,29.13-2.01,1.89-3.61,4.61-6.96,5.25-.51-11.66,11.79-16.59,13.81-27.31-1.41,.42-2.19,.6-2.93,.87-15.14,5.48-29.62,12.47-43.95,19.76-23.64,12.04-46.72,25.22-71.51,34.91-6.72,2.63-13.4,5.42-21.12,6.96,1.56-6.23,5.97-8.73,10.61-10.95,21.99-10.52,43.97-21.07,66-31.51,30.58-14.5,60.34-30.67,91.1-44.81,10.68-4.91,12.74-9.72,9.66-21.05-.11-.41,.15-.92,.28-1.58,8.57-.94,15.1-5.63,20.82-11.62,4.25-4.45,8.13-9.26,12.46-13.63,3.9-3.94,8.22-7.45,14.24-8.86-1.11,5.45-3.66,9.62-7.02,13.35-3.45,3.83-7.12,7.49-10.38,11.48-3.92,4.79-6.94,10.05-6.54,17.08,2.02-.73,3.66-1.46,5.36-1.91,5.65-1.49,10.66-5,16.7-5.24-2.73,10.07-1.08,12.55,9.33,14.49,2.92,.54,5.91,.42,8.78,1.6,16.88,6.94,34.46,11.76,51.95,16.81,26.42,7.63,52.63,15.64,77.34,28.12,6.04,3.05,19.37,2.44,24.11-5.2-.84-.92-1.67-1.95-2.62-2.85-16.09-15.44-32.25-30.81-48.28-46.32-10.65-10.3-21.19-20.71-31.65-31.2-6.06-6.09-12.77-8.04-20.77-4.28-5.25,2.47-10.62,4.7-15.75,7.4-16.84,8.86-32.99,19.35-52.55,21.55-.72-1.38,.67-1.58,1.27-2.1,10.24-8.84,22.66-13.7,34.84-18.97,13.33-5.77,26.35-12.01,35.87-23.56,1.06-1.29,2.27-1.69,3.88-1.71,8.45-.12,16.28-2.7,23.87-6.2,9.34-4.31,17.98-9.99,27.54-13.86,7.64-3.09,11.24-3.9,15.59-3.11-5,7.19-12.27,11.07-19.9,14.4-8.36,3.66-16.94,6.88-24.44,12.23-6.81,4.86-7.19,8.62-1.22,14.54,15.02,14.88,29.2,30.58,43.87,45.8,19.06,19.79,38.45,39.25,60.57,55.75,4.35,3.24,9.05,4.21,14.54,4.54-.19-12.23-3.7-23.28-7.51-34.21-4.3-12.35-9.53-24.4-12.27-37.26-1.25-5.86-2.33-11.78-1.2-18.46,8.82,11.67,13.24,24.46,16.73,37.65,3.69,13.92,6.39,28.13,12.01,41.49,5.31,12.64,13.63,22.06,27.84,24.56,7.74,1.36,15.36-.14,23.16-2.3-.8,12.08,12.17,11.29,17.46,19.09-14.02-2.65-24.19,3.69-34.18,10.63-.72-2.58,.46-4.42,.59-6.4,.29-4.55,.72-9.19-4-11.99-4.13-2.45-8.69-3.39-13.43-2.64-4.64,.73-7.75,6.75-5.45,10.71,2.07,3.58,4.36,7.1,7.03,10.25,4.64,5.46,8.15,5.97,14.11,2.57-.06,7.76,2.59,14.43,7.87,19.92,5.54,5.76,11.22,11.4,16.94,16.97,4.98,4.85,11.14,7.17,17.83,5.32,10.87-3.01,19.78-9.12,23.63-20.22,4.97-14.32,2.81-20.99-11.79-24.59-6.77-1.67-12.38-5.6-18.1-10.96,3.15,0,5.37-.34,7.42,.09,2.56,.54,4.97,1.73,7.46,2.61,13.96,4.93,20.82,1.33,24.81-13.02,.31-1.11,.64-2.23,.8-3.37,2.67-18.24,6.78-36.17,12.03-53.81,5.35-17.96,5.91-37.01,12.99-54.56,3.7-9.19,3.39-18.22-3.49-26.36,9.33-14.91,5.28-27.85-5.75-39.79-1.04-1.13-2.91-1.79-2.75-3.82l-.09,.1c7.83,1.53,14.73,5.78,22.76,7.94,4.75-22.24,9.48-44.36,14.31-66.99-2.31,0-4.12-.01-5.93,0-16.58,.12-32.5,4.57-48.66,7.43-9.3,1.64-18.74,2.56-28,4.39-6.26,1.24-6.94,4.07-2.97,9.01,1.87,2.33,4.51,4.15,5.48,7.46-7.93-.34-11.67-2.14-15.42-8.06-1.57-2.48-3.38-3.13-6.1-3.2-15.11-.37-28.59,4.53-41.19,12.41-10.15,6.34-20.47,12.32-31.89,16.18-4.88,1.65-9.46,4.04-13.77,6.89-11.42,7.58-16.92,17.8-14.76,31.81,.51,3.28,2.34,6.45,1.41,10.93-3.76-3.82-4.89-8.08-6.29-12.19-4.22-12.36-7.15-14.44-19.8-14.1-.21,0-.43-.32-.76-.59,2.66-4.73,5.64-9.34,7.93-14.27,3.67-7.93,.88-12.38-7.84-13.11-9.51-.8-18.98,.03-28.37,1.34-24.51,3.41-48.33,10.18-72.57,14.93-2.87,.56-6.17,1.82-6.29,4.86-.25,6.29-4.58,8.35-9,10.97-3.11,1.84-5.91,4.34-8.48,6.91-6,6-11.69,12.31-17.68,18.32-1.73,1.74-3.57,3.96-6.89,3.23-.18-4.15,1.57-7.35,3.86-10.12,4.35-5.25,9.08-10.17,13.48-15.37,3.83-4.53,7.01-9.46,8-16.02-66.86,11.56-133.2,23.03-200.76,34.71,11.42,7.39,22.7,11.6,34.24,15.23,14.36,4.52,29.26,7.39,42.93,14,3.9,1.88,7.92,3.64,11.68,7.54-6.74,.26-12.47-.36-17.95-2.08-22.9-7.19-45.72-14.61-68.59-21.89-19.19-6.11-38.44-9.55-58.7-4.76-30.17,7.13-60.72,12.45-91.33,17.35-11.14,1.78-22.26,3.71-33.32,5.9-6.18,1.22-8.24,4.79-7.16,10.92,.29,1.64,.47,3.29,.81,4.91,9.13,43.3,17.37,86.78,25.7,130.23,1.52,7.93,3.17,15.83,4.81,23.98,7.32-2.37,13.74-5.38,20.07-8.62,13.29-6.8,25.98-14.81,40.07-19.99,5.96-2.19,11.99-4.32,18.91-4.64-1.39,2.68-3.36,3.94-5.15,5.34-6.62,5.15-14.24,8.45-21.85,11.8-10,4.4-20.4,8-29.62,14.02-6.72,4.39-8.07,8.56-5.56,16.17,2.36,7.15,6.42,13.45,9.97,20,.96,1.78,2.42,3.58,.66,6.08-7.69-5.68-15.25-11.25-23.52-17.36,6.85,38.5,13.54,76.04,20.35,114.27,14.88-13.14,29.05-25.64,43.92-38.76-1.39,8.36-5.23,14.29-10.42,19.32-4.9,4.74-10.19,9.07-15.24,13.66-10.26,9.32-15.76,20.63-13.29,34.7,2.57,14.69,5.48,29.32,8.54,43.91,2.41,11.48,6.77,22.6,6.33,34.6-.18,5.02,.1,9.98,2,14.7,3.79,9.41,12.39,12.94,21.43,8.56,4.02-1.95,7.8-4.42,11.64-6.72,5.15-3.09,10.63-4.09,16.93-2.95-5.1,6.99-12.52,9.51-19.66,12.46-5.99,2.47-12.1,4.71-16.93,9.27-5.43,5.12-4.56,11.4-2.93,17.66,1.49,5.69,4.74,9.69,10.97,10.88,5.35,1.02,10.6,.06,15.89-.18,26.17-1.2,52.25,.84,78.26,3.08,32.23,2.77,64.49,3.13,96.79,2.87,.44,0,.87-.28,1.39-.46-1.73-10.32-12.8-15.8-13.9-27.27,2.43,1.59,4.17,2.83,5.99,3.91,6.03,3.57,9.33,9.9,14.53,14.32,12.28,10.44,26.97,11.77,42.2,11.55,16.22-.23,32.58-2.38,48.46,3.34,4.65,1.67,8.49-.96,11.28-4.58,2.42-3.15,4.34-6.68,6.61-9.96,2.09-3.03,3.88-6.42,7.97-7.99-.82,3.43-1.65,6.44-2.23,9.49-1.47,7.69,1.4,12.05,9,13.95,3.62,.9,7.36,.84,10.93,.34,11.15-1.55,22.25-.84,33.36,.16-.94,2.18-3.04,2.89-4.87,4.03-2.85,1.77-6.32-.03-9.1,1.8-9.17-2.11-18.5-2.32-27.78-1.59-13.7,1.08-25.79,5.91-34.9,16.8-3.06,3.66-5.24,7.92-8.47,12.83-.49-10.81,10.16-18.21,6.05-28.67-5.28-.49-10.16,.7-15.19,.29-10.59-.87-21.21-2.21-31.87-1.39-7.57,.58-15.14,1.59-21.24,6.91l-.34-.05c-.78-.28-1.55-.61-2.35-.83-31.77-8.67-64.32-11.84-97.06-12.78-39.42-1.13-78.88-.37-118.26-3.25-6.44-.47-8.56,2.79-7.08,9.19,1.31,5.65,2.49,11.34,3.47,17.05,2.18,12.75,3.1,25.72,6.11,38.33,3.45,14.43,9.67,27.44,21.13,38.19-1.61,.09-2.41,.1-3.21,.18-7.78,.82-10.12,4.4-7.6,11.81,2.61,7.64,2.81,15.63,3.62,23.55,.79,7.68,1.18,15.58,6.92,21.73,1.37,3.37,2.73,6.74,4.1,10.12-4.82,6.76-4.02,13.82-1.33,21.12,2.33,6.33,4.76,12.74,2.24,19.66h-5c-1.34-7.15-1.1-14.56-3.94-21.48-3.6-8.78-8.97-13.43-18.2-12.29-11.93,1.46-24.06,3.39-35.03,8.65-13.51,6.47-28.02,8.89-42.36,12.23-11.44,2.66-22.91,5.41-32.46,12.9h-28Zm688.58-362.95c-1.43,5.39-2.55,9.38-3.55,13.4-6.28,25.26-10.08,51.05-16.05,76.38-4.65,19.74-11.17,39.03-14.03,59.2-1.22,8.58,2.08,13.89,10.39,15.77,2.89,.66,5.92,1.08,8.88,1.04,18.99-.24,36.61-5.46,52.87-15.19,4.38-2.62,8.56-5.7,10.75-10.56-7.77-11.94-9.04-15.92-11.11-30.61-.64-4.54-.62-9.12-2.36-13.63-7.46-19.31-14.48-38.79-21.69-58.2-4.49-12.07-9.04-24.12-14.09-37.59ZM686.76,281.92c0,2.63-.04,4.6,0,6.58,.52,20.42,5.25,40.08,10.92,59.54,2.94,10.11,8.21,12.88,19.05,10.65,38.84-8.02,78.04-13.98,117.13-20.55,4.38-.74,4.93-2.88,4.93-6.48-50.49-16.52-100.84-32.99-152.03-49.74Zm732.43,236.09c-2.5-1.07-4.6-1.92-6.66-2.85-2.12-.95-4.15-2.11-6.31-2.94-5.11-1.95-10.04-.51-12.58,3.9-1.94,3.37-2.15,7.13,.24,10.35,2.53,3.42,8.92,4.01,13.31,1.5,4.47-2.55,7.94-6.31,12.01-9.96Z"/>
  <path class="cls-5" d="M80.94,189.03c1.84-3.08,4.93-4.12,8.12-5.15,8.47-2.73,17.12-4.99,25.12-8.97,7.01-3.49,8.81-7.64,7.06-15.43-1.67-7.41-4.19-14.53-7.31-21.45,.45-.04,.9-.09,1.35-.13,5.09,2.31,8.35,6.37,10.85,11.21,2.43,4.71,4.69,9.54,7.48,14.03,4.91,7.92,9.64,9.75,18.44,7.53,21.51-5.42,42.99-10.92,64.49-16.38,12.71-3.22,25.42-6.42,38.16-9.64-.46-1.53-1.39-1.47-2.14-1.72-17.77-5.84-35.51-11.75-53.3-17.53-26.44-8.6-52.96-16.97-79.06-26.6-8.73-3.22-17.96-4.45-27.11-.84-.77,.04-1.55,.07-2.32,.11-25.2-19.52-55.24-26.52-85.46-33.04C3.56,64.66,1.77,64.34,0,64c0-3.67,0-7.33,0-11,10.18,1.62,19.73,5.5,29.56,8.38,10.49,3.07,20.78,6.81,31.17,10.2,2.04,.66,4.15,1.18,6.26,1.55,4.15,.72,5.28-1.4,3.87-4.88-2.11-5.21-3.43-10.48-7.92-14.92-7.97-7.87-11.11-18.52-12.8-29.48l-.07,.09c8.43,6.54,14.01,15.26,16.99,25.2,4.05,13.52,13.37,22.27,24.33,29.8,12.35,8.48,26.55,12.45,40.8,16.39,41.33,11.42,81.87,25.37,122.54,38.91,9.48,3.16,19.1,4.08,28.95,3.76,1.47-.05,2.82,.16,3.52-1.85,6.26-18.18,12.78-36.3,13.59-55.8,.35-8.57-1.38-16.82-4.35-24.84,.23-.16,.43-.34,.62-.55,2.16,.87,2.86-.98,3.94-2.11,7.97-8.34,11.3-18.85,14.04-29.69,2.07-8.15,3.94-16.48,10.99-22.21-.65,7.77-3.68,14.99-5.28,22.56-6.66,31.58,.14,58.33,26.67,78.52,.37,.28,.58,.75,.91,1.19-6.28,.25-10.76-2.16-17.04-9.11-5.95-6.59-12.04-12.98-21.32-14.75-.48-.09-.97-.09-2.1-.18,3.58,9.91-.98,18.13-4.8,26.58-7.12,15.79-.62,26.35,16.75,27.43,15.71,.98,24.77-6.11,30.65-24.35,10.86,11.74,23.94,10.44,37.53,6.86,40.24-10.6,80.66-20.47,121.72-27.47,5.72-.97,11.52-1.44,17.29-2.14,.01,.36,.03,.73,.04,1.09-14.35,7.1-29.74,11.06-45.17,14.81-24.31,5.91-49.1,9.69-73.3,16.13-11.03,2.94-21.94,6.26-32.35,10.89,2.37,9.59,12.74,14.37,13.11,24.85-1.25-.66-1.83-1.92-2.73-2.86-6.56-6.78-14.07-12.05-23.12-15.13-16.16-5.49-31.88-2.84-47.29,2.65-9.01,3.21-18.23,4.69-28.47,5.86,6.13,6.86,6.56,14.24,2.81,22.02-.42,.88-.5,1.92-.75,2.88-6.39,23.99-9.21,48.95-19.57,71.86-.26,.58-.14,1.31-.24,1.97-1.32,9.37-2.44,18.78-4.01,28.11-2.36,14.05-5.32,27.97-11.97,40.78-.91-.03-1.69-.27-2.09-1.19-.57-21.57,6.63-41.82,10.36-62.67,4.36-24.38,12.61-47.75,17.26-72,1.68-8.79,2.76-17.68,2.36-27.13-6.02-.07-11.31,1.91-16.71,3.06-31.26,6.65-62.62,12.94-93.31,21.99-17.79,5.25-20.3,10.04-15.92,28.02,.68,2.78,2.29,5.41,1.84,9.07-9.46-17.5-24.26-24.13-43.03-24.25-11.35-.07-22.47,2.55-33.8,2.13Z"/>
  <path class="cls-4" d="M103.6,946.96c-1.9-10.9,0-21.65,2.75-32.01,4.65-17.57,8-35.49,13.65-52.8,1.49-4.55,1.84-8.8-2.49-12.17-4.4-3.42-8.66-2.24-12.92,.27-18.56,10.94-38.27,19.64-57.47,29.33-7.07,3.57-14.66,5.95-23.57,7.71,3.5-3.93,7.07-6.12,10.47-8.48,16.55-11.54,35.1-19.27,53.21-27.84,12-5.68,23.83-11.65,35.04-18.8,1.24-.79,2.72-1.27,3.73-3.18-7.58-2.15-15.22-3.07-22.84-3.91-24.37-2.68-48.79-2.21-73.24-1.35-9.95,.35-19.94-.47-29.91-.75,0-3.67,0-7.33,0-11,10.28,.48,20.38,2.62,30.69,3.18,19.11,1.04,38.23,1.2,57.35,1.8,7.48,.24,14.95,.85,22.43,.94,10.74,.13,18.47-4.73,22.46-14.84,4.71-11.94,6.55-24.61,8.99-37.11,3.81-19.51,7.34-39.1,15.99-57.25,.96-2.01,1.59-4.27,3.91-6.13,.33,14.41-2.6,27.78-6.17,41.02-5.06,18.75-9.35,37.62-10.9,57.04-.78,9.76,2.92,13.38,12.38,11.85,8.68-1.4,17.13-3.79,25.61-6.02,1.95-.51,3.83-1.02,5.97,.19-.15,2.58-2.26,3.36-4.01,4.46-1.96,1.23-4.03,2.31-5.53,4.19-1.66,2.09-1.42,4.44-.77,6.64,.69,2.34,2.97,1.67,4.71,1.67,19.16,.03,38.32,0,57.47,.03,1.82,0,3.64,.2,5.45,.31-.83,2.02-2.55,3.14-4.45,3.69-3.12,.9-6.35,1.43-9.54,2.11-8.43-1.39-16.92-.65-25.38-.62-17.12,.07-34.25-.82-51.37,.82-12.7,1.21-21.4,7.04-25.37,19.48-5.71,17.88-9.19,36.22-11.9,54.75-2.18,14.93-4.35,29.9-13.18,42.79-.42,0-.84-.02-1.25-.03Z"/>
  <path class="cls-2" d="M694,1063c9.55-7.49,21.02-10.24,32.46-12.9,14.34-3.33,28.85-5.76,42.36-12.23,10.97-5.25,23.1-7.18,35.03-8.65,9.24-1.13,14.6,3.52,18.2,12.29,2.84,6.92,2.6,14.33,3.94,21.48h-132Z"/>
  <path class="cls-5" d="M103.6,946.96c.42,0,.84,.02,1.25,.03-1.39,1.52-.89,3.39-.84,5.12,.44,14.71-1.38,28.81-10.63,41.01-.46,.61-.86,1.53-.79,2.25,1.97,20-4.49,38.6-9.44,57.45-.88,3.35-1.45,6.78-2.16,10.17h-6c2.03-16.28,2.91-32.74,7.98-48.53,1.52-4.74,2.96-9.61,5.71-13.72,3.04-4.55,3.47-9.29,3.38-14.47-.23-13.23,2.2-25.77,10.62-36.54,.56-.72,.62-1.84,.92-2.77Z"/>
  <path class="cls-4" d="M1159,0c-4.15,4.16-9.02,7.69-10.95,13.72-2.22,6.94-.25,13.44,1.57,19.99,1.69,6.05,3.69,12.02,3.86,18.37-3.95-.75-5.81-2.14-8.01-6.02-2.06-3.64-3.06-7.69-4.34-11.61-3.88-11.93-5.39-13.43-17.62-16.7,1.7-8.09,7-13.35,13.49-17.74h22Z"/>
  <path class="cls-5" d="M1472,1063c-.77-10.9-5.19-20.77-8.78-30.85-4.93-13.87-10.44-27.54-12.67-42.23-.53-3.47-.67-6.9-.63-10.51,2.16,.35,2.35,2.27,3.08,3.55,12.76,22.47,19.81,46.84,24,72.16,.43,2.61,.67,5.25,1,7.87h-6Z"/>
  <path class="cls-4" d="M0,201c16.79,.52,32.54-4.94,48.65-8.39,9.98-2.14,19.95-4.66,30.32-3.02,0,.18,.02,.36,.08,.53-7.84,6.24-17.27,8.75-26.74,10.83-13.55,2.98-27.22,5.45-40.85,8.08C7.57,209.78,4.06,211.96,0,212v-11Z"/>
  <path class="cls-5" d="M0,378c14.2,4.11,25.75,12.57,36.52,22.28,3.77,3.4,7.46,6.93,10.71,11.52-5.59,.53-9.82-1.71-13.8-4.19-4.21-2.62-8.15-5.69-12.08-8.73C14.97,393.96,8.17,390.01,0,389v-11Z"/>
  <path class="cls-5" d="M1186,1063c-3.77-7.85-10.32-13.34-16.41-19.21-7.2-6.93-14.48-13.77-18.01-23.51-.28-.79-.73-1.5-.03-2.74,17.55,11.61,33.45,24.52,40.44,45.46h-6Z"/>
  <path class="cls-5" d="M1272,1063c.06-10.77-.76-21.58,1.93-32.21,1.81-7.13,4.71-13.65,9.71-19.56,1.59,11.85-.63,22.99-2.99,34.13-1.23,5.82-2.75,11.61-2.66,17.64h-6Z"/>
  <path class="cls-5" d="M413,1063c13.22-18.9,24.36-29.69,35.85-34.51-1.11,6.89-5.12,11.83-9.56,16.52-4.09,4.33-8.77,8.12-12.09,13.16-.97,1.47-2.48,2.76-2.2,4.82h-12Z"/>
  <path class="cls-5" d="M325.95,1.03c.02-.34,.04-.69,.05-1.03,.33,0,.67,0,1,0-.23,.47,.09,1.5-1.05,1.03Z"/>
  <path class="cls-5" d="M830.09,1022.23c-1.37-3.37-2.73-6.74-4.1-10.12,3.23-.72,6.45-1.47,9.69-2.16,9.71-2.04,19.53-3.67,29.12-6.2,7.74-2.05,9.33-6.99,5.45-14.13-1.17-2.15-2.48-4.22-3.9-6.61,6.52-.2,11.49,3.01,16.57,5.68,8.48,4.45,16.91,5.42,26.33,2.52,16.92-5.21,34.11-9.57,51.21-14.22,23.47-6.38,47.17-11.99,70.18-19.93,22.89-7.9,30.31-29.44,17.75-50.11-4.57-7.52-11.2-13.07-17.51-18.99-5.5-5.15-10.19-10.93-10.57-19.01l.34,.05c9.85,8.42,20.19,16.31,27.99,26.91,1.45,1.97,3.55,3.51,5.54,5,7.58,5.66,14.61,5.31,21.54-1.18,2.48-2.33,4.58-5.07,7.05-7.85,.93,3.37-.12,5.96-1.4,8.45-1.44,2.8-3.1,5.49-4.61,8.26-7.4,13.59,1.39,28.25,16.91,28.47,7.36,.1,13.79-3.36,20.73-4.79,21.77-4.49,43.05-10.79,64.37-16.97,31.97-9.27,63.75-19.23,96.42-25.92,6.94-1.42,14.16-1.57,20.79-4.42,1.22,1.65,3.27,1.22,4.89,1.81,2.62,.94,4.28,2.25,4.13,5.2-10.79,1.82-21.64,3.32-32.35,5.53-28.29,5.83-55.61,15.25-83.34,23.16-23.9,6.82-48.02,12.86-72.04,19.25-1.6,.43-3.24,.77-4.78,1.35-9.3,3.55-11.82,9.77-7.81,19.01,.52,1.2,.93,2.45,1.38,3.68-.14,.13-.28,.26-.43,.38-5.29-2.35-10.19-5.47-15.67-7.49-16.32-6.02-30.68-2.88-43.31,8.83-5.64,5.22-10.62,11.02-15.02,17.34-2.94,4.21-6.35,8.04-10.66,10.96l.08,.09c.96-8.29,4.46-15.89,6.42-23.91,.23-.94,.82-1.82-.02-3.29-7.14,2.02-14.37,4.17-21.66,6.11-25.13,6.7-50.71,11.73-75.4,20.08-8.49,2.87-16.85,6.09-24.92,10.02-1.57,.77-3.55,1.04-4.43,2.91-.24,.16-.48,.34-.7,.52-11.29-1.51-22.01,1.68-32.78,4.19-12.75,2.97-24.95,7.78-37.46,11.54Z"/>
  <path class="cls-4" d="M1581.03,806.06c.3-6.99-2.76-12.55-7.67-17.15-29.16-27.37-56.8-56.28-85.14-84.48-14.88-14.8-29.46-29.9-44.57-44.48-5.9-5.69-9.23-12.68-10.62-21.77,9.83,9.61,19.03,18.49,28.1,27.49,28.15,27.93,56.3,55.86,84.35,83.89,9.07,9.06,17.83,18.42,26.72,27.67,11.05,11.49,22.96,21.01,41.04,17.22-5.63,17.21,1.58,29.03,14.07,38.78,9.6,7.49,18.39,15.55,25.73,25.55,10.72,14.59,26.45,21.13,44.17,23.16,.99,.11,2.04-.07,2.97,.19,1.06,.3,2.02,.94,3.44,1.63-20.44,1.76-40.45,1.91-60.5,.51-22.89-1.6-45.8-2.98-68.7-4.55-14.47-.99-28.92-.97-43.38,.2,.04-2.7,2.2-3.49,4.1-4.41,2.18-1.05,4.94-.52,6.86-2.39,9.57,1.86,19.24,1.1,28.87,1.11,25.14,.02,50.28-.7,75.43-.02,2.45,.07,4.96,1.44,7.81-.05-12.87-12.83-23.28-27.35-35.37-40.4-10.81-11.66-22.63-22.01-37.78-27.81l.06,.12Z"/>
  <path class="cls-5" d="M962.99,109.9c-.05-.44-.11-.88-.16-1.32,6.31-8.7,15.33-13.74,25-17.37,8.44-3.17,16.13-6.79,22.91-13.09,7.87-7.32,18.29-10.54,28.36-13.98,4.79-1.63,7.81-6,7.88-11.35,.07-5.27-2.93-10.18-7.29-11.88-13.12-5.1-24.05-13.02-32.98-25.45,13.85,3.83,25.13,9.98,33.25,20.56,5.05,6.58,11.69,8.11,19.04,8.96,7.93,.92,15.38-1.76,23.03-2.95l-.08-.08c-.24,2.13-2.01,3.37-3,5.06-4.3,7.32-3.69,11.68,3.03,16.76,3.56,2.69,7.49,4.92,11.28,7.31,10.13,6.38,20.53,12.42,27.8,22.35,.97,1.32,1.86,2.69,3.32,4.81-6.64-.99-11.8-3.41-16.86-6.08-10.67-5.63-19.83-13.39-28.91-21.18-9.38-8.04-19.7-11.42-31.81-7.85-1.56,.46-3.27,.77-4.41,2.14-9.46,11.37-22.29,16.9-36.03,20.89-1.4,.41-2.92,.67-3.97,1.91-10.34,12.31-24.53,17.68-39.4,21.81Z"/>
  <path class="cls-4" d="M1204.05,155.96c-9.78-.27-13.13,4.1-10.17,13.32,4.46,13.86,10.51,27.19,13.57,41.51,1.28,6,2.36,12.02,2.09,18.2-.19,0-.37,0-.56,.03-3.31-2.23-4.41-6.08-6.56-9.14-6.01-8.55-8.87-9.6-18.4-6.01-1.96-2.88-1.58-5.46,.73-8.02,7.14-7.9,8.03-16.37,3.69-26.23-3.65-8.3-5.73-17.27-8.78-25.85-3.64-10.23-8.57-19.76-16.94-27.55,7.2-6.04,5.93-12.82,2.47-19.99-1.86-3.85-4.08-7.64-4.32-12.1-.15-2.83-.22-5.64,2.29-8.27,3.13,4.44,4.69,9.44,6.82,14.12,3.7,8.14,7.2,16.38,10.89,24.53,5.5,12.12,13.39,22.5,23.1,31.55l.09-.09Z"/>
  <path class="cls-5" d="M1416.03,858.08c-1.98-4.12-3.95-8.23-5.93-12.35,37.08-3.5,72.04-15.72,107.42-26.18,19.25-5.68,38.65-10.64,58.56-13.4,1.62-.22,3.29-.07,4.94-.09,0,0-.06-.12-.06-.12-3.39,5.3-8.92,7.29-14.49,8.88-30.9,8.83-61.88,17.43-92.78,26.27-19.27,5.51-38.45,11.31-57.67,16.97Z"/>
  <path class="cls-4" d="M1620.83,455.07c-.59-.28-1.24-.48-1.77-.85-11.82-8.32-23.87-7.8-35.99-.8-7.02,4.06-13.7,8.8-21.98,10.09-2.6,.41-5.19,.96-8.07-.2,.96-4.48,3.88-7.2,7.6-9.22,3.96-2.15,8.36-3.07,12.61-4.41,3.64-1.15,7.14-2.67,10.33-4.82,5.62-3.79,6.5-6.65,4.34-14.45,2.93-.62,5.31,1.31,7.98,1.61,10.31,1.18,20.1-1.78,30.04-3.5,1.21-.21,2.29-1.28,3.38-2.03,24.48-16.76,51.98-26.69,79.77-35.55,.91,.69,.37,1.14,.08,1.3-21.78,12.3-43.21,25.29-66.97,33.63-3.58,1.26-7.28,2.18-10.95,3.17-11.65,3.15-15.47,10.73-10.94,21.83,.56,1.37,1.12,2.74,1.69,4.12-.38,.02-.77,.05-1.15,.07Z"/>
  <path class="cls-5" d="M920.65,134.1c-35.84,27.98-74.34,49.4-116.27,66.1,15.79-17.22,94.47-62.04,116.27-66.1Z"/>
  <path class="cls-3" d="M1542,873.13c-1.92,1.87-4.67,1.34-6.86,2.39-1.9,.92-4.06,1.7-4.1,4.41-17.56-.57-35.09,.78-52.64,.95-11.69,.12-23.42-.9-34.42-5.64,2.78-2.91,7.19-3.16,9.94-6.11,6.26,1.15,12.58,.94,18.86,.6,17.55-.96,35.1-2.68,52.64-.56,5.59,.68,11.51,.74,16.58,3.96Z"/>
  <path class="cls-5" d="M1306.09,897c1.69,0,3.38,0,5.06,.01-2.8,14.29-5.97,28.49-8.23,42.89-2.85,18.15-5.91,36.28-11.96,53.73-1.78,5.12-3.6,10.23-6.29,15.22-3.73-13.83,7.97-74.49,21.42-111.85Z"/>
  <path class="cls-4" d="M1203.96,156.04c5.45,.97,10.53,3.69,16.46,2.37,8.36-1.86,13.85-7.54,19.37-13.32,5.56-5.84,10.66-12.2,18.37-16.21,.46,6.34-2.85,10.55-6.34,14.53-3.62,4.12-7.8,7.75-11.37,11.91-7.68,8.95-7.67,15.63-.38,24.9,.69,.88,1.27,1.86,1.9,2.8,0,0,.11-.08,.11-.08-16.47-.88-34.49-14.05-38.02-26.98,0,0-.09,.09-.09,.09Z"/>
  <path class="cls-2" d="M1278.78,264.05c3.06,1.9,6.98-.19,10.22,2.11-1.85,3.53-5.05,5.4-8.02,7.38-11.7,7.82-24.97,12.39-37.76,17.95-3.15,1.37-6.34,.56-8.78-1.86-2.82-2.78-4.43-6.26-4.12-10.3,.12-1.53,1.22-2.73,2.77-3.26,8.07-2.76,15.58-7.44,24.78-6.2,3.37,.45,6.98-.3,10.39-.95,3.07-.59,6.21-1.51,7.62-4.88,.96,0,1.93,0,2.89,.01Z"/>
  <path class="cls-5" d="M1478.95,103.99c-1.9,0-3.8,.02-5.71,.02,6.89-23.4,9.57-47.74,15.77-71.29,2.77-10.54,6.32-20.8,11.65-30.39-6.08,26.56-6.34,54.07-13.69,80.36-2.05,7.32-4.14,14.66-8.02,21.3Z"/>
  <path class="cls-5" d="M1245.67,185.19c29.11,12.29,53.31,31.62,76.53,53.07-11.74,1.21-61.03-32.93-76.53-53.07Z"/>
  <path class="cls-4" d="M1650.19,93.64c18.78-8.6,37.55-17.2,56.33-25.79,2.24-1.02,4.49-2,7-3.12,1.01,1.94,1.91,3.68,3.2,6.14-20.41,9.12-40.56,18.12-60.72,27.13-2.23-1.06-3.32-3.65-5.81-4.36Z"/>
  <path class="cls-4" d="M1550.62,464.3c-17.76,13.99-37.02,24.51-61.17,27.9,19.23-14.2,38.32-25.19,61.17-27.9Z"/>
  <path class="cls-5" d="M1712.16,764.69q2.56,6.52-3.18,8.27c-12.83,3.91-25.42,8.62-38.81,10.53-6.81,.97-13.61,.56-20.65-.37,20.77-6.11,41.54-12.23,62.63-18.44Z"/>
  <path class="cls-4" d="M1112,970.15c13.23,13.03,30.07,21.6,34.31,42.25-9.12-8.8-19.34-14.55-26.84-23.46-4.28-5.09-7.2-10.8-7.47-18.78Z"/>
  <path class="cls-5" d="M1650.19,93.64c2.49,.71,3.58,3.3,5.81,4.36-11.46,10.2-24.48,16.87-40.06,17.79,0-.33,0-.66-.01-.99,2.34-5.05,6.62-8.12,11.21-10.82,7.3-4.3,15.37-6.89,23.06-10.34Z"/>
  <path class="cls-5" d="M1276.06,110.08c.38-4.54,3.38-7.79,5.82-11.2,8.69-12.11,20.14-21.4,31.89-30.36-6.95,18.97-22.05,30.5-37.78,41.46l.07,.1Z"/>
  <path class="cls-5" d="M901.03,1005.97c16.26,4.82,29.35,14.17,40.44,28.46-17.93-4.51-31.55-13.25-41.14-27.94,.22-.18,.46-.36,.7-.52Z"/>
  <path class="cls-5" d="M1465.46,343.43c18.05,4.64,31.34,13.45,41.53,28.82-17.19-5.3-30.46-14.2-41.53-28.82Z"/>
  <path class="cls-5" d="M1586.91,429.23c-16.77-4.85-29.96-13.32-39.39-27.59,12.09,.7,31.04,13.86,39.39,27.59Z"/>
  <path class="cls-5" d="M1507.95,373.05c16.3,3.61,28.83,12.61,38.74,26.89-4.99-.28-8.58-2.25-12.22-3.92-10.16-4.67-18.75-11.33-25.35-20.43-.57-.79-1.42-1.47-1.07-2.63l-.09,.09Z"/>
  <path class="cls-5" d="M762.6,223.65c-10.38,14.04-24.15,19.31-40.29,22.91,10.13-14.25,24.1-19.16,40.29-22.91Z"/>
  <path class="cls-5" d="M802.63,200.86c-10.23,13.89-23.96,19.43-40.2,22.8,10.25-14.03,24.19-19.19,40.2-22.8Z"/>
  <path class="cls-5" d="M1083.06,41.03c9.47-13.44,23.42-18.88,38.79-21.75-9.62,13.23-23.31,19.14-38.89,21.66,0,0,.09,.09,.09,.09Z"/>
  <path class="cls-4" d="M1328.95,56.41c-2.7-1.74-4.27-3.84-6.1-6.24,12.54-9.7,25.02-19.36,37.5-29.02,.29,.3,.57,.6,.86,.9-10.76,11.46-21.52,22.92-32.26,34.36Z"/>
  <path class="cls-5" d="M1208.98,229.01c.19-.03,.37-.04,.56-.03,.1,.68,.19,1.35,.29,2.03,0,0-.32,0-.32,0h-.32c-.07-.66-.14-1.33-.21-2Z"/>
  <path class="cls-5" d="M1082.04,42.05c-.08-.76,.5-.85,1.01-1.02,0,0-.09-.09-.09-.09-.33,.34-.67,.69-1,1.03,0,0,.08,.08,.08,.08Z"/>
  <path class="cls-5" d="M1621.91,456.05c.25,0,.5-.01,.75-.02,0,.16,0,.32,0,.47-.21-.18-.43-.35-.64-.53,0,0-.11,.07-.11,.07Z"/>
  <polygon class="cls-4" points="1502.47 198.67 1502.37 198.29 1502.67 198.33 1502.47 198.67"/>
  <path class="cls-5" d="M1620.83,455.07c.38-.02,.77-.05,1.15-.07,.08,.24,.19,.48,.21,.72,0,.1-.18,.22-.28,.33,0,0,.11-.07,.11-.07-.4-.3-.8-.6-1.19-.9Z"/>
  <path class="cls-4" d="M1241.96,183.03c.25,.16,.5,.32,.74,.48-.57,.21-.97,.25-.64-.56,0,0-.11,.08-.11,.08Z"/>
  <path class="cls-5" d="M1275.99,109.98c-.19,.22-.39,.44-.58,.66-.03-.16-.14-.34-.09-.47,.16-.44,.43-.46,.74-.09,0,0-.07-.1-.07-.1Z"/>
  <path class="cls-5" d="M1106.06,963.94c.42,.1,.81,.24,.5,.76-.02,.04-.6-.25-.93-.38,.14-.12,.28-.25,.42-.38Z"/>
  <path class="cls-5" d="M1508.04,372.96c-.26-.13-.52-.25-.78-.38,.69-.52,.79-.19,.68,.47,0,0,.09-.09,.09-.09Z"/>
  <path class="cls-5" d="M1020.97,993.96c-.13,.26-.26,.53-.4,.79-.5-.68-.1-.75,.48-.71,0,0-.08-.09-.08-.09Z"/>
  <path class="cls-5" d="M419.4,696.78c1.65-5.72,3.21-11.11,4.74-16.41,5.31-1.47,10.33,.84,15.54,.14,7.85-1.06,14.42-4.86,21.16-8.38,32.23-16.81,64.27-33.98,96.65-50.5,27.93-14.25,56.54-27.06,86.36-36.96,.94-.31,1.78-.93,3.13-.26-5.26,7.75-12.71,12.84-20.9,16.43-52.3,22.9-102.35,50.58-154.9,72.94-3.39,1.44-6.62,3.16-9.53,5.39-6.04,4.61-6.93,9.71-2.75,16.01,1.81,2.73,4.02,5.2,6.53,8.41-8.67,1.23-13.4-7.07-21.24-7.2-.23,5.97,2.62,11.5,2.74,17.73-4.73-1.05-6.89-4.69-9.39-7.84-6.82-8.59-8.58-9.59-18.15-9.49Z"/>
  <path class="cls-5" d="M401.04,702.06c-.45,4.99-3.23,7.01-6.72,8.69-60.63,29.33-121.24,58.71-181.85,88.07-3.58,1.73-7.26,3.28-10.74,5.19-3.67,2.02-7.41,2.59-11.74,1.65,1.73-6.41,6.66-9.37,12-11.76,8.78-3.92,17.7-7.53,26.48-11.45,36.53-16.3,71.64-35.53,107.72-52.74,21.07-10.05,42.37-19.54,64.85-27.66Z"/>
  <path class="cls-1" d="M232.04,829.77c3.18-.68,6.41-1.22,9.54-2.11,1.9-.54,3.62-1.67,4.45-3.69,21.31,.58,42.59-2.03,63.89-.91,8.88,.46,17.82,1.19,26.05,5.16-4.16,1.57-8.42,.78-12.62,.38-6.8-.64-13.04,.38-18.23,5.23-16.73,.4-33.47,1.1-50.2,1.05-7.84-.03-15.83-.84-22.87-5.11Z"/>
  <path class="cls-4" d="M423.93,675.29c-21.55-9.97-41.61-21.02-56.61-39.65,4.21-.9,6.19-.53,10.79,1.9,4.74,2.51,8.71,6.09,13.02,9.2,2.02,1.45,4.02,2.97,6.18,4.2,6.72,3.83,8.63,2.9,9.96-4.61,9.91,4.6,16.81,16.31,16.66,28.97Z"/>
  <path class="cls-5" d="M705.1,745.09c-3.33,8.29-8.85,15.16-14.63,21.76-10.87,12.4-23.52,22.94-36.19,33.47,9.62-24.99,29.66-40.64,50.23-55.83,.18,.21,.38,.41,.59,.6Z"/>
  <path class="cls-5" d="M160.89,561.71c.03,1.74,.06,3.47,.1,5.21-11,9.67-22.14,19.11-36.16,24.32-4.65,1.73-9.4,2.84-15.3,3.4,14.46-16.23,33.55-23.6,51.36-32.93Z"/>
  <path class="cls-4" d="M683.43,486.67c-16.21-10.67-30.73-21.19-35.05-40.54,13.53,11.28,28.51,21.27,35.05,40.54Z"/>
  <path class="cls-5" d="M482.13,715.36c16.71,4.12,30.05,13.1,40.8,27.98-17.67-4.79-30.94-13.89-40.8-27.98Z"/>
  <path class="cls-5" d="M252.33,554.8c17.19,4.56,30.33,14.28,41.25,27.65-11.54,.6-32.95-13.69-41.25-27.65Z"/>
  <path class="cls-5" d="M580.69,783.42c-18.2-4.76-31.39-14.12-42.66-28.93,18.17,4.75,31.31,14.29,42.66,28.93Z"/>
  <path class="cls-4" d="M167.38,678.26c-.97-16.88-1.59-33.69,10.5-48.83,1.45,18-1.81,33.99-10.5,48.83Z"/>
  <path class="cls-5" d="M607.21,400.85c13.51,8.35,25.87,17.06,29.21,34.47-13.88-8.94-28.03-22.95-29.21-34.47Z"/>
  <path class="cls-5" d="M30.03,641.02c2.74-6.86,8.28-11.03,14.35-14.54,7.49-4.33,15.73-6.65,25.25-8.85-10.37,14.26-24.92,18.98-39.7,23.32l.1,.08Z"/>
  <path class="cls-4" d="M470.84,754.17c-15.22-8.4-19.49-23.21-23.38-39.3,5.61,3.15,9.07,7.17,11.78,11.75,5.12,8.65,9.43,17.68,11.53,27.61l.08-.06Z"/>
  <path class="cls-4" d="M406.61,645.11c-10.38-5.8-21.41-25.34-21.33-37.81,10.5,6.04,20.76,24.22,21.33,37.81Z"/>
  <path class="cls-4" d="M360.84,565.31c-10.95-6.89-20.22-23.32-21.66-37.87,10.86,4.59,20.61,25.3,21.66,37.87Z"/>
  <path class="cls-4" d="M362.29,567.39c13.28,9.29,18.81,22.85,22.07,38.79-14.02-9.91-18.93-23.87-22.07-38.79Z"/>
  <path class="cls-5" d="M230,525.93c9.77-13.47,23.9-19.03,40.81-22.57-11.46,13.5-24.87,20.38-40.89,22.48,0,0,.08,.09,.08,.09Z"/>
  <path class="cls-5" d="M109.7,594.59c-10.38,14.01-23.9,19.74-40.31,22.96,10.13-14.16,24.23-18.84,40.31-22.96Z"/>
  <path class="cls-4" d="M316.05,486.5c13.45,9.94,18.91,23.4,22.21,38.46-10.06-3.63-20.26-23.1-22.21-38.46Z"/>
  <path class="cls-4" d="M392.15,433.78c.42-.61,.63-1.01,.93-1.34,.21-.22,.53-.33,1.07-.66,.28,1.34,.24,2.16-2,1.99Z"/>
  <path class="cls-5" d="M651.01,581.17c.04,.48,.08,.96,.11,1.44-.57,.37-1.46,.55-1.59-.07-.14-.71,.68-1.22,1.47-1.38Z"/>
  <path class="cls-5" d="M690.1,493.96c-.62,.02-1.25,.04-1.87,.05l.4-1.24c.49,.4,.98,.79,1.48,1.19Z"/>
  <path class="cls-4" d="M283.48,497.74l-2.11,.04c.24-.48,.48-.95,.73-1.43,.46,.46,.92,.93,1.38,1.39Z"/>
  <path class="cls-4" d="M179.98,505.02c-.24-.13-.48-.25-.71-.38,.16-.14,.32-.28,.48-.41,.13,.22,.25,.44,.39,.66,0,0-.15,.14-.15,.14Z"/>
  <path class="cls-4" d="M646.83,807.82c.3-.17,.6-.34,.9-.51-.04,.39-.09,.79-.13,1.18-.25-.22-.51-.45-.77-.67Z"/>
  <path class="cls-5" d="M29.94,640.94c-.06,.23-.12,.47-.18,.7-.72-.57,.06-.47,.28-.63,0,0-.1-.08-.1-.08Z"/>
  <path class="cls-5" d="M704.51,744.49c.37-.1,.97-.38,1.06-.26,.35,.46-.02,.72-.47,.86-.21-.19-.41-.39-.59-.6Z"/>
  <path class="cls-4" d="M470.76,754.23c.12-.04,.24-.08,.36-.12-.09,.01-.18,.02-.28,.05,0,0-.08,.07-.08,.07Z"/>
  <path class="cls-5" d="M403.74,990.26c-40.47,26.59-85.03,44.34-130.28,60.63,39.95-27.71,84.33-45.85,130.28-60.63Z"/>
  <path class="cls-5" d="M769.29,914.47c-23.16-7.75-41.66-20.28-56.83-37.87,9-1.4,41.9,20.27,56.83,37.87Z"/>
  <path class="cls-5" d="M407.32,988.56c19.12-14.38,38.62-25.35,63.14-28.64-19.5,14.21-38.8,25.62-63.14,28.64Z"/>
  <path class="cls-4" d="M492.73,978.3c-5.27,18.41-19.19,28.87-35.39,39.06,7.28-18.3,20.44-29.5,35.39-39.06Z"/>
  <path class="cls-4" d="M607.74,994.42c-13.96-10.45-19.35-24.18-22.94-40.18,14,10.22,19.69,23.92,22.94,40.18Z"/>
  <path class="cls-4" d="M630.48,1033.5c-11.37-6.69-16.46-17.71-20.3-29.56-.91-2.79-1.5-5.68-2.57-9.8,14.28,10.08,19.1,24.3,23.43,38.82-.2,.16-.39,.34-.56,.53Z"/>
  <path class="cls-4" d="M708.13,871.88c.44,.13,.87,.32,.51,.84-.07,.1-.69-.2-1.06-.31,.18-.18,.36-.36,.55-.53Z"/>
  <path class="cls-4" d="M581.95,951.07c.25-.02,.49-.04,.74-.06l-.18,.66c-.17-.22-.34-.45-.51-.67l-.06,.08Z"/>
  <path class="cls-5" d="M405.44,989.24c.09,.1,.18,.2,.27,.29-.11,.07-.23,.22-.33,.2-.1-.01-.18-.18-.27-.27,.11-.07,.22-.15,.33-.22Z"/>
  <path class="cls-4" d="M503.98,964.97c-.19,.21-.38,.41-.57,.62-.02-.15-.05-.31-.07-.46,.24-.02,.48-.03,.71-.04,0,0-.07-.11-.07-.11Z"/>
  <path class="cls-4" d="M631.04,1032.96c.21,.2,.62,.55,.61,.57-.39,.49-.79,.32-1.17-.04,.17-.19,.36-.36,.56-.53Z"/>
  <path class="cls-2" d="M1295.98,884.94c-6.63,2.85-13.85,3-20.79,4.42-32.67,6.7-64.45,16.65-96.42,25.92-21.32,6.18-42.6,12.48-64.37,16.97-6.94,1.43-13.37,4.89-20.73,4.79-15.52-.22-24.31-14.88-16.91-28.47,1.51-2.77,3.16-5.46,4.61-8.26,1.28-2.49,2.33-5.08,1.4-8.45-2.47,2.78-4.57,5.52-7.05,7.85-6.93,6.49-13.96,6.84-21.54,1.18-1.99-1.49-4.09-3.03-5.54-5-7.8-10.59-18.14-18.48-27.99-26.91,6.1-5.32,13.67-6.32,21.24-6.91,10.65-.82,21.28,.52,31.87,1.39,5.03,.41,9.91-.78,15.19-.29,4.11,10.46-6.53,17.85-6.05,28.67,3.23-4.91,5.4-9.17,8.47-12.83,9.11-10.89,21.2-15.72,34.9-16.8,9.28-.73,18.61-.53,27.78,1.59,7.52,4.38,15.85,5.02,24.27,5.33,16.59,.62,33.12-1.56,49.71-1.16,22.31,.35,44.61,.7,66.92,1.07,3.1,.05,6.63-.67,7.97,3.35,1.3,3.86-.36,6.73-3.39,9.09-1.29,1-2.36,2.28-3.53,3.44Z"/>
  <path class="cls-2" d="M1542,873.13c-5.06-3.22-10.99-3.28-16.58-3.96-17.54-2.13-35.09-.4-52.64,.56-6.28,.34-12.6,.55-18.86-.6-7.23-2.3-14.48,.41-21.74-.13-7.56-.57-13.27-3.57-16.16-10.91,19.22-5.67,38.4-11.46,57.67-16.97,30.9-8.84,61.87-17.44,92.78-26.27,5.57-1.59,11.1-3.58,14.49-8.88,15.14,5.8,26.97,16.15,37.78,27.81,12.09,13.05,22.5,27.57,35.37,40.4-2.85,1.49-5.37,.11-7.81,.05-25.14-.68-50.29,.04-75.43,.02-9.63,0-19.31,.75-28.87-1.11Z"/>
  <path class="cls-2" d="M1354.58,700.05c5.05,13.47,9.6,25.52,14.09,37.59,7.21,19.41,14.23,38.89,21.69,58.2,1.74,4.51,1.73,9.1,2.36,13.63,2.07,14.69,3.34,18.67,11.11,30.61-2.19,4.86-6.37,7.94-10.75,10.56-16.25,9.73-33.88,14.95-52.87,15.19-2.96,.04-5.99-.38-8.88-1.04-8.31-1.89-11.61-7.19-10.39-15.77,2.86-20.17,9.38-39.46,14.03-59.2,5.97-25.32,9.76-51.11,16.05-76.38,1-4.02,2.12-8,3.55-13.4Z"/>
  <path class="cls-2" d="M1059.94,384.09c19.56-2.2,35.72-12.69,52.55-21.55,5.13-2.7,10.5-4.93,15.75-7.4,8-3.76,14.7-1.8,20.77,4.28,10.46,10.49,21,20.91,31.65,31.2,16.03,15.5,32.19,30.88,48.28,46.32,.94,.91,1.78,1.93,2.62,2.85-4.74,7.64-18.07,8.25-24.11,5.2-24.71-12.48-50.92-20.5-77.34-28.12-17.49-5.05-35.07-9.87-51.95-16.81-2.87-1.18-5.86-1.06-8.78-1.6-10.41-1.94-12.06-4.42-9.33-14.49,0,0-.1,.11-.1,.11Z"/>
  <path class="cls-2" d="M686.76,281.92c51.19,16.75,101.54,33.22,152.03,49.74,0,3.61-.55,5.75-4.93,6.48-39.09,6.57-78.29,12.53-117.13,20.55-10.84,2.24-16.11-.54-19.05-10.65-5.67-19.46-10.4-39.13-10.92-59.54-.05-1.98,0-3.95,0-6.58Z"/>
  <path class="cls-2" d="M1403,218.01c12.4-2.91,24.14-7.92,36.33-11.5,2.37-.7,4.69-1.53,7-2.28,7.06,10.16,3.06,25.14-8.03,30.3-.85,.39-1.94,.49-2.89,.41-15.27-1.32-30.04,2.22-44.94,4.51-6.63,1.02-13.28,1.93-20.33,.77,8.82-5.75,17.67-11.44,26.42-17.29,2.27-1.52,5.08-2.4,6.53-5,0,0-.1,.09-.1,.09Z"/>
  <path class="cls-1" d="M1228.01,867.99c-16.59-.4-33.11,1.78-49.71,1.16-8.42-.31-16.75-.95-24.27-5.33,2.78-1.83,6.25-.03,9.1-1.8,1.83-1.14,3.94-1.84,4.87-4.03,20.87,.52,41.71-2,62.55-.81,7.6,.43,15.47,.98,22.42,4.98-4.5,1.81-9.18,.35-13.76,.76-4.34,.39-8.66,.74-11.21,5.07Z"/>
  <path class="cls-5" d="M676.01,281.81c-6.24-.39-11.68,1.94-16.98,4.86-3.92,2.16-7.75,4.53-12.07,5.84-1.4,.42-2.85,.68-5.32,1.25,5.16-6.65,9.7-12.49,14.38-18.51-4.86-4.51-10.84-6.43-16.85-8.27-6.64-2.04-13.51-3.41-19.85-6.35-4.04-1.88-7.85-4.21-11.33-8.57,10.05-.05,19.03,1.53,27.74,4.52,10.02,3.44,19.91,7.27,29.87,10.87,1.67,.6,3.27,1.73,5.21,1.15,4.21,3.43,5.81,7.89,5.19,13.21Z"/>
  <path class="cls-2" d="M1340.53,561.79c-3.55,1.42-7.1,2.84-10.66,4.26-11.55-3.41-15.04-8.85-15.55-24.38-.11-3.32-.02-6.65-.02-9.96,13.52,3.58,24.16,15.76,26.22,30.08Z"/>
  <path class="cls-2" d="M1419.19,518.02c-4.06,3.65-7.54,7.4-12.01,9.96-4.39,2.51-10.77,1.92-13.31-1.5-2.39-3.22-2.17-6.98-.24-10.35,2.54-4.41,7.47-5.85,12.58-3.9,2.16,.82,4.19,1.99,6.31,2.94,2.06,.93,4.16,1.79,6.66,2.85Z"/>
  <path class="cls-4" d="M62.29,423.37c18.11,4.53,31.4,13.49,41.66,28.81-17.05-5.38-30.39-14.2-41.66-28.81Z"/>
  <path class="cls-5" d="M185.45,258.36c-16.03-9.26-20.29-24.28-24.57-40.43,14.74,9.76,18.61,25,24.57,40.43Z"/>
  <path class="cls-5" d="M79.05,190.12c-.05-.17-.08-.35-.08-.53,.69-.21,1.38-.42,2.08-.64-.28,1.05-1.27,.88-2,1.17Z"/>
  <path class="cls-5" d="M280.36,33.66c-6.67-5.37-13.73-10.16-22.1-14.56,3.19-1.48,5.56-2.49,7.85-3.67,1.71-.88,2.81-.26,3.77,1.13,3.76,5.43,7.52,10.87,11.28,16.3-.27,.27-.53,.54-.8,.8Z"/>
  <path class="cls-5" d="M281.16,32.86c.71,.58,1.85,1,.8,2.21,0,0,.05-.07,.05-.07-.55-.45-1.1-.89-1.64-1.33,.27-.27,.53-.54,.8-.8Z"/>
  <path class="cls-5" d="M50.14,23.84c-.25-.02-.5-.04-.74-.06,.42-.77,.44,.1,.67,.16,0,0,.08-.1,.08-.1Z"/>
  <path class="cls-5" d="M281.96,35.07c.32,.03,.63,.06,.95,.09-.03,.14-.06,.28-.09,.42-.27-.19-.53-.39-.8-.58,0,0-.05,.07-.05,.07Z"/>
  <path class="cls-5" d="M296.43,55.5c-.05-.43-.27-1.17-.14-1.24,.63-.33,.62,.3,.75,.68-.18,.21-.39,.39-.62,.55Z"/>
  <polygon class="cls-5" points="295.7 52.65 295.4 52.78 295.45 52.44 295.7 52.65"/>
  <path class="cls-4" d="M90.78,98.08c.77-.04,1.55-.07,2.32-.11,12.15,10.66,18.46,24.57,22.19,39.92-.45,.04-.9,.09-1.35,.13-9.8-7.36-14.63-17.98-18.96-28.91-1.45-3.66-2.8-7.36-4.2-11.04Z"/>
  <path class="cls-5" d="M940.63,777.32c-6.01-1.81-9.61-5.25-13.25-8.54-5.94-5.37-12.13-10.01-21.63-8.54,4.09-6.43,1.75-11.51-1.64-16.51-2.5-3.68-5.2-7.35-4.79-12.25,2.11-.49,2.57,1.32,3.49,2.28,9.15,9.58,19.9,12.74,32.65,8.41,13.41-4.56,25.58-11.79,38.28-17.87,45.48-21.76,91.63-42.09,137.38-63.26,5.46-2.53,11.14-4.36,17.59-3.63-1.26,5.4-5.42,7.71-9.82,9.72-20.35,9.32-40.73,18.57-61.08,27.9-34.97,16.04-69.94,32.11-105.29,47.31-3.64,1.56-7.16,3.53-10.45,5.73-8.91,5.96-10.56,13.31-5.35,22.77,1.04,1.88,2.22,3.69,3.92,6.49Z"/>
  <path class="cls-4" d="M814.05,634.97h-11.6c-1.71-10.14-7.79-17.25-14.68-23.88-5.74-5.52-11.97-10.6-16.49-17.28-2.04-3.02-3.88-6.15-4.49-10.27,4.39,.07,7.53,2.32,10.47,4.85,3.93,3.39,6.88,7.65,9.97,11.77,1.6,2.12,3.16,4.28,4.91,6.28,8.4,9.62,16.49,10.73,27.14,3.66,8.16-5.42,14.01-13.17,20.23-20.53,5.9-6.98,12.03-13.71,20.38-18.7-.64,7.25-3.35,13.21-8.24,17.87-9.75,9.28-19.16,18.89-28.4,28.67-4.76,5.03-8.83,10.37-9.27,17.65,0,0,.08-.08,.08-.08Z"/>
  <path class="cls-5" d="M1187.97,717.98c4.96-14.12,12.02-27.26,19.19-40.33,10.25-18.69,22.26-36.22,35.72-52.75,1.22-1.5,2.54-2.92,4.13-4.17-1.07,5.42-3.79,10.12-6.12,14.94-14.3,29.56-31.11,57.54-52.29,82.75-.21-.15-.42-.3-.63-.44Z"/>
  <path class="cls-5" d="M1370.41,421.41c5.74-29.96,22.76-53.49,43.21-75.03-8.96,28.1-27.04,50.99-43.21,75.03Z"/>
  <path class="cls-5" d="M903.13,761.27c-21.45,15.12-43.76,28.51-70.4,32.52,20.49-17.19,44.37-27.09,70.4-32.52Z"/>
  <path class="cls-5" d="M957.01,465.01c-2.91,9.28-9.09,16.44-15.49,23.36-8.91,9.63-19.2,17.8-28.97,26.93,.13-12.52,25.12-40.78,44.25-50.45l.21,.16Z"/>
  <path class="cls-5" d="M1190.56,629.51c-17.36,14.66-37.12,24.08-59.74,27.22,17.75-13.74,36.92-24.42,59.74-27.22Z"/>
  <path class="cls-5" d="M906.13,522.12c-4.88,12.01-13.48,21.22-22.75,29.84-5.47,5.09-11.45,9.63-17.85,13.72,2.65-13.69,20.64-32.72,40.03-44.11,.18,.19,.37,.37,.56,.55Z"/>
  <path class="cls-5" d="M815.01,635.99c16.56,11.05,30.82,24.24,39.63,42.51-.27,.16-.5,.35-.71,.58-15.77-9.43-29.57-20.82-37.6-37.91-.75-1.6-1.93-3.16-1.35-5.15l.03-.04Z"/>
  <path class="cls-4" d="M979.01,821.98c-11.89-8.24-23.94-16.34-30.38-30.08-1.25-2.67-2.61-5.34-2.63-9.26,12.34,10.12,25.16,18.83,31.68,33.55,.8,1.8,2.43,3.61,1.26,5.9l.08-.12Z"/>
  <path class="cls-4" d="M859.56,684.45c12.02,10.92,25.58,18.85,29.89,36.16-14.21-8.99-26.82-17.73-29.89-36.16Z"/>
  <path class="cls-5" d="M1242.19,335.45c1.11,.35,1.78,.67,1.48,1.7-1.06,.24-1.55-.19-1.48-1.7Z"/>
  <path class="cls-5" d="M1188.6,718.42c-.29,.4-.58,.8-.93,1.28-.83-.81-.56-1.32,.3-1.72,.21,.14,.42,.29,.63,.44Z"/>
  <path class="cls-4" d="M1283.07,564.06c.07-.47,.15-.93,.22-1.4,.14,.09,.37,.16,.39,.26,.08,.54-.07,.97-.71,1.06,0,0,.1,.08,.1,.08Z"/>
  <path class="cls-5" d="M905.56,521.57c.35-.11,.94-.4,1.02-.3,.35,.46-.02,.71-.46,.85-.19-.18-.38-.36-.56-.55Z"/>
  <path class="cls-5" d="M854.64,678.5c.03,.38,.07,.75,.1,1.13-.27-.18-.54-.37-.82-.55,.21-.23,.45-.42,.71-.58Z"/>
  <path class="cls-4" d="M1407.06,299.94c-.26-.03-.52-.05-.77-.08,.1-.17,.2-.34,.3-.5,.13,.23,.26,.46,.38,.69l.09-.1Z"/>
  <path class="cls-5" d="M956.8,464.85c.15-.22,.29-.46,.48-.66,.02-.03,.26,.15,.4,.23-.22,.2-.45,.39-.67,.59,0,0-.21-.16-.21-.16Z"/>
  <path class="cls-5" d="M814.98,636.03c-.87,.14-.86-.5-.93-1.06,0,0-.08,.08-.08,.08,.67-.04,1.01,.28,1.04,.94,0,0-.03,.04-.03,.04Z"/>
  <path class="cls-4" d="M978.94,822.1c.22-.04,.44-.08,.66-.12-.03,.2-.06,.4-.09,.6-.17-.2-.33-.39-.5-.59,0,0-.08,.12-.08,.12Z"/>
  <path class="cls-5" d="M395.39,178.02c4.66-9.01-6.87-13.73-5.31-22.18,5.61,5.02,10.73,9.93,16.18,14.43,22.24,18.39,48.15,29.73,75.27,38.67,27.69,9.13,56.16,15.61,83.82,24.87,10.36,3.47,20.41,7.79,31,10.64,4.08,1.1,7.96,3.1,11,7.61-9.95-.52-18.9-2.51-27.83-4.58-25.57-5.91-49.96-15.58-74.79-23.81-19.45-6.44-39.51-10.82-59.52-18.23,2.33,8.07,6.72,13.71,11.7,18.99,5.02,5.33,10.77,9.97,15.06,15.98,2.39,3.35,4.63,6.79,5.15,11.55-5.88-1.93-10.14-4.88-13.59-9.74-23.9-33.66-57.48-52.95-96.37-64.15-8.6-2.47-17.26-4.7-26.08-6.27-7.57-1.34-13.55-5.82-20.36-10.6,9.8-1.18,18.35,.88,26.85,3.43,11.91,3.56,23.23,8.9,35.37,11.76,4.02,.95,8.02,2.07,12.47,1.64Z"/>
  <path class="cls-5" d="M561.96,349.98c-10.17-.62-19.16,3.24-27.71,7.94-9.16,5.04-17.9,10.82-26.9,16.15-7.83,4.63-15.89,8.77-25.71,10.67,4.07-7.65,9.89-12.57,16.51-16.71,6.34-3.98,13.23-6.88,19.95-10.12,6.73-3.25,13.47-6.58,19.08-11.62,6.33-5.69,6.62-10.74,1.4-17.39-3.32-4.22-7.58-7.46-11.43-11.14-4.23-4.04-8.22-8.27-10.69-13.66-.8-1.75-1.82-3.52-1.45-6.01,8.64,3.18,14.65,9.29,20.5,15.56,6.35,6.81,11.98,14.31,19.57,19.88,2,1.46,4.15,2.71,6.57,4.28,10.12-13.65,24.42-19.44,41.25-22.86-10.96,13.57-25.04,19.59-41.02,23.17,0,4.02,0,7.98,0,11.94,0,0,.09-.08,.09-.08Z"/>
  <path class="cls-4" d="M482.34,258.34c11.83,9.13,25.23,16.84,27.32,33.59-11.57-9.25-25.27-16.76-27.32-33.59Z"/>
  <path class="cls-5" d="M272.63,414.31c-.63-.66-.81-1.39-.26-2.48,.46,.54,.85,.99,1.23,1.44-.32,.35-.65,.7-.97,1.04Z"/>
  <polygon class="cls-5" points="271.54 410.28 271.63 410.67 271.34 410.63 271.54 410.28"/>
</svg>