<?xml version="1.0" encoding="UTF-8"?>
<svg id="Réteg_1" data-name="Réteg 1" xmlns="http://www.w3.org/2000/svg" viewBox="0 0 751.94 751.8">
  <defs>
    <style>
      .cls-1 {
        fill: #982525;
      }

      .cls-2 {
        fill: #cc8375;
      }
    </style>
  </defs>
  <path class="cls-1" d="M357.44,.07c119.98-.27,206.93,35.09,279.47,104.95,77.19,74.34,115.59,166.58,115.03,272.97-.54,102-37.62,190.93-110.37,263.45-76.33,76.1-169.74,113.04-276.72,110.21-98.01-2.58-184.02-39.01-253.88-108.79C29.65,561.66-5.63,462.44,.73,348.07,11.06,162.13,173.06-3.89,357.44,.07Zm269.13,466.71c0-13.99-.13-27.99,.07-41.98,.07-4.73-1.87-7.51-6.13-8.99-18.57-6.45-33.21-18.91-47.48-31.68-21.85-19.55-38.75-43.43-56.26-66.68-11.53-15.31-21.83-31.64-37.2-43.55-16.87-13.08-35.22-22.26-57.54-18.45-14.51,2.48-26.99,7.91-32.23,23.36-1.16,3.43-2.89,6.67-4.34,10-6.82,15.74-13.63,31.48-18.14,48.1-.76,2.79-1.8,6.21,.17,7.97,1.96,1.74,5.03-.52,7.36-1.59,18.62-8.52,36.33-5.85,53.38,4.28,11.34,6.74,20.63,16.08,29.96,25.17,13.87,13.52,25.77,28.78,36.52,44.93,16.89,25.37,35.98,48.97,57.35,70.74,10.01,10.2,20.73,19.64,31.84,28.54,10.05,8.05,21.13,14.74,33.86,18.02,4.92,1.26,7.66-.56,7.78-5.36,.19-7.62,.5-15.24,.85-22.85,.62-13.3,.17-26.64,.19-39.97Zm2-162.42c0-8.66-.01-17.32,0-25.98,0-3.24-.38-6.53-3.18-8.49-13.61-9.52-25.65-20.78-36.78-33.03-6.12-6.74-13-13.03-17.87-20.6-11.15-17.33-26.02-29.85-44.84-37.63-12.94-5.35-26.5-8.26-40.49-4.57-22.82,6.02-40.59,19.53-54.72,38.11-3.99,5.24-7.73,10.67-11.47,16.1-1.32,1.92-2.74,4.49-1.09,6.41,1.56,1.8,4.37,2.15,6.94,1.68,1.62-.3,3.22-.78,4.85-.91,25.44-1.94,45.74,9.54,64.2,25.17,16.31,13.8,28.33,31.47,41.01,48.37,16.02,21.33,32.6,42.04,52.47,59.91,9.34,8.4,19.27,16.14,30.8,21.44,6.17,2.84,9.25,1.01,9.12-5.69-.53-26.78,.97-53.52,1.04-80.29ZM231.04,205.27c-1.52-.32-3.95,.55-6.16,1.56-13.87,6.33-21.26,18.37-27.01,31.61-1.35,3.12,.07,5.62,4.2,6.04,5.85,.6,11.07,3.06,15.74,6.64,15.75,12.02,26.35,28.18,35.7,45.19,11.22,20.4,22.98,40.49,33.52,61.29,9.56,18.85,19.11,37.72,28.77,56.52,8.17,15.88,15.07,32.42,23.46,48.17,11.79,22.12,23.27,44.58,39.83,63.68,6.57,7.58,13.13,15.44,22.86,19.59,5.48,2.33,9.88,1.88,13.26-3.25,6.43-9.78,13-19.48,19.09-29.48,3.88-6.37,3.17-8.59-2.73-12.96-8.26-6.12-15.84-12.83-22.73-20.58-14.23-16.03-25.73-33.87-36.84-52.06-13.45-22.03-24.91-45.1-36.66-68.05-13.71-26.78-27.24-53.67-42.2-79.79-11.47-20.04-21.47-41-35.73-59.32-6.34-8.14-14.32-14.23-26.41-14.8Zm140.05,373.06c7.14-1.08,14.81-2.94,21.18-8.15,3.82-3.12,3.68-6.5-.02-10-6.25-5.91-12.8-11.42-18.48-18.02-19.51-22.69-33.4-48.81-46.7-75.25-14.48-28.8-27.8-58.18-42.32-86.96-12.21-24.21-25.16-48.04-38.24-71.8-8.2-14.89-17.11-29.4-30.25-40.71-11.58-9.97-27.09-10.33-32.96,5.82-4.78,13.15-8.75,26.59-11.61,40.3-1.4,6.71,.05,7.82,6.84,6.41,4.9-1.03,9.82-1.05,14.72,.42,13.24,3.98,22.26,13.36,30.29,23.86,13.07,17.09,23.97,35.53,34.37,54.36,16.41,29.71,30.93,60.27,43.84,91.64,10.43,25.35,20.35,51.07,38.21,72.46,7.76,9.3,17.76,15.24,31.13,15.61Zm24.26-219.95c-10.09-.47-18.33,3.59-26.16,8.76-8.42,5.56-9.51,8.81-4.74,17.67,11.49,21.36,23.95,42.18,38.16,61.82,9.76,13.5,19.65,27.21,34.6,35.73,7.93,4.52,13.71,6.13,21.77-.55,11.47-9.51,24-16.81,39.72-16.56,4.04,.07,5.15-2.89,2.7-6.59-4.18-6.32-8.71-12.41-12.9-18.73-15.57-23.46-31.84-46.27-53.44-64.83-11.67-10.03-24.31-16.84-39.72-16.74Zm-282.65-46.32c-.56,6.03,.26,13.61,1.02,21.2,.28,2.81,1.56,4.95,4.22,6.25,9.35,4.55,15.5,12.19,19.83,21.34,9.81,20.75,14.15,43.53,23.7,64.42,5.03,10.99,9.98,21.95,18.42,30.79,5.25,5.49,11.16,4.85,15.18-1.46,2.3-3.61,3.99-7.6,6.22-11.26,3.45-5.65,2.11-10.29-2.53-14.45-7.65-6.85-12.83-15.43-17.52-24.43-10.31-19.78-17.59-40.88-26.69-61.18-4.45-9.93-7.35-20.53-12.86-30.01-4.96-8.54-10.77-16.32-19.89-20.84-5.76-2.85-8.96-.84-9.08,5.52-.08,4.16-.01,8.32-.01,14.1Zm72.8,23.34c-2.32,0-4.17-.19-5.98,.03-7.17,.88-16.09,7.07-12.78,15.54,8.43,21.56,17.23,42.97,31.55,61.52,6.52,8.45,13.7,9.24,22.25,2.64,5.77-4.45,11.68-8.29,19.4-9.07,6.64-.68,7.38-2.74,3.97-9.04-8.82-16.25-18.47-32.04-30.43-46.17-7.32-8.65-15.58-16.59-27.98-15.45Zm-70.73,50.99c.14,5.24-1.41,11.02,2.83,15.23,10.74,10.68,15.12,24.64,20.01,38.27,5.29,14.74,9.33,29.99,18.03,43.25,8.58,13.09,18.32,12.75,25.42-.46,2.13-3.97,1.97-6.81-1.47-10.05-7.81-7.38-12.77-16.66-17.13-26.43-8.83-19.79-14.71-40.6-21.79-61-3.6-10.36-8.77-20.03-17.22-27.43-1.72-1.51-3.57-4.14-6.31-2.98-2.69,1.14-2.96,4.17-3.45,6.76-.18,.97-.08,2-.04,2.99,.36,7.28,.73,14.56,1.1,21.84Z"/>
  <path class="cls-2" d="M626.56,466.78c0,13.33,.44,26.67-.18,39.97-.35,7.62-.66,15.23-.85,22.85-.12,4.79-2.87,6.62-7.78,5.36-12.73-3.27-23.82-9.97-33.86-18.02-11.11-8.9-21.83-18.34-31.84-28.54-21.36-21.76-40.46-45.36-57.35-70.74-10.75-16.15-22.65-31.41-36.52-44.93-9.33-9.09-18.62-18.43-29.96-25.17-17.05-10.14-34.76-12.81-53.38-4.28-2.33,1.07-5.4,3.33-7.36,1.59-1.98-1.75-.93-5.17-.17-7.97,4.52-16.62,11.33-32.36,18.14-48.1,1.44-3.34,3.17-6.57,4.34-10,5.24-15.45,17.72-20.89,32.23-23.36,22.32-3.81,40.67,5.37,57.54,18.45,15.37,11.91,25.67,28.24,37.2,43.55,17.51,23.25,34.41,47.13,56.26,66.68,14.27,12.77,28.91,25.23,47.48,31.68,4.26,1.48,6.2,4.26,6.13,8.99-.21,13.99-.07,27.99-.08,41.98Z"/>
  <path class="cls-2" d="M628.57,304.35c-.07,26.77-1.57,53.51-1.04,80.29,.13,6.7-2.94,8.53-9.12,5.69-11.54-5.31-21.46-13.04-30.8-21.44-19.87-17.87-36.45-38.58-52.47-59.91-12.68-16.89-24.7-34.56-41.01-48.37-18.46-15.63-38.76-27.11-64.2-25.17-1.63,.12-3.23,.61-4.85,.91-2.58,.47-5.39,.13-6.94-1.68-1.65-1.91-.23-4.49,1.09-6.41,3.74-5.43,7.48-10.86,11.47-16.1,14.13-18.58,31.89-32.09,54.72-38.11,13.99-3.69,27.55-.78,40.49,4.57,18.81,7.78,33.69,20.31,44.84,37.63,4.87,7.57,11.75,13.87,17.87,20.6,11.13,12.25,23.17,23.51,36.78,33.03,2.79,1.95,3.18,5.24,3.18,8.49-.02,8.66,0,17.32,0,25.98Z"/>
  <path class="cls-2" d="M231.04,205.27c12.09,.57,20.08,6.66,26.41,14.8,14.26,18.32,24.26,39.28,35.73,59.32,14.96,26.13,28.49,53.01,42.2,79.79,11.74,22.95,23.2,46.02,36.66,68.05,11.11,18.19,22.61,36.03,36.84,52.06,6.88,7.76,14.47,14.47,22.73,20.58,5.9,4.37,6.61,6.59,2.73,12.96-6.09,9.99-12.66,19.69-19.09,29.48-3.37,5.13-7.78,5.58-13.26,3.25-9.74-4.15-16.29-12.02-22.86-19.59-16.57-19.11-28.04-41.56-39.83-63.68-8.4-15.75-15.3-32.29-23.46-48.17-9.67-18.8-19.22-37.67-28.77-56.52-10.55-20.8-22.3-40.89-33.52-61.29-9.36-17.01-19.96-33.17-35.7-45.19-4.68-3.57-9.9-6.03-15.74-6.64-4.13-.43-5.55-2.93-4.2-6.04,5.75-13.24,13.14-25.28,27.01-31.61,2.21-1.01,4.63-1.88,6.16-1.56Z"/>
  <path class="cls-2" d="M371.09,578.33c-13.37-.37-23.37-6.31-31.13-15.61-17.85-21.39-27.78-47.11-38.21-72.46-12.91-31.38-27.43-61.93-43.84-91.64-10.4-18.83-21.3-37.27-34.37-54.36-8.03-10.5-17.05-19.88-30.29-23.86-4.9-1.47-9.82-1.45-14.72-.42-6.79,1.42-8.24,.3-6.84-6.41,2.87-13.71,6.84-27.15,11.61-40.3,5.86-16.14,21.38-15.78,32.96-5.82,13.13,11.3,22.05,25.82,30.25,40.71,13.08,23.75,26.03,47.59,38.24,71.8,14.51,28.78,27.84,58.16,42.32,86.96,13.3,26.44,27.19,52.56,46.7,75.25,5.68,6.61,12.23,12.12,18.48,18.02,3.7,3.5,3.84,6.88,.02,10-6.37,5.21-14.04,7.07-21.18,8.15Z"/>
  <path class="cls-2" d="M395.35,358.38c15.4-.1,28.04,6.71,39.72,16.74,21.6,18.56,37.87,41.37,53.44,64.83,4.19,6.31,8.71,12.41,12.9,18.73,2.45,3.7,1.34,6.65-2.7,6.59-15.72-.26-28.25,7.04-39.72,16.56-8.05,6.68-13.83,5.07-21.77,.55-14.95-8.52-24.84-22.24-34.6-35.73-14.21-19.65-26.68-40.46-38.16-61.82-4.76-8.86-3.68-12.11,4.74-17.67,7.83-5.17,16.07-9.24,26.16-8.76Z"/>
  <path class="cls-2" d="M112.69,312.06c0-5.78-.06-9.94,.01-14.1,.11-6.36,3.32-8.38,9.08-5.52,9.12,4.52,14.93,12.3,19.89,20.84,5.51,9.48,8.41,20.08,12.86,30.01,9.11,20.3,16.38,41.39,26.69,61.18,4.69,9,9.87,17.58,17.52,24.43,4.64,4.15,5.98,8.8,2.53,14.45-2.23,3.66-3.93,7.65-6.22,11.26-4.02,6.31-9.93,6.95-15.18,1.46-8.45-8.84-13.4-19.8-18.42-30.79-9.55-20.89-13.89-43.66-23.7-64.42-4.32-9.15-10.47-16.79-19.83-21.34-2.66-1.29-3.94-3.44-4.22-6.25-.76-7.59-1.58-15.17-1.02-21.2Z"/>
  <path class="cls-2" d="M185.49,335.4c12.41-1.14,20.66,6.8,27.98,15.45,11.96,14.13,21.61,29.92,30.43,46.17,3.42,6.3,2.68,8.36-3.97,9.04-7.72,.79-13.63,4.62-19.4,9.07-8.55,6.6-15.74,5.81-22.25-2.64-14.31-18.56-23.12-39.96-31.55-61.52-3.31-8.47,5.61-14.66,12.78-15.54,1.8-.22,3.66-.03,5.98-.03Z"/>
  <path class="cls-2" d="M114.76,386.39c-.37-7.28-.75-14.56-1.1-21.84-.05-1-.15-2.03,.04-2.99,.49-2.59,.76-5.62,3.45-6.76,2.74-1.16,4.59,1.47,6.31,2.98,8.44,7.4,13.62,17.07,17.22,27.43,7.08,20.4,12.96,41.21,21.79,61,4.36,9.77,9.32,19.05,17.13,26.43,3.43,3.24,3.6,6.08,1.47,10.05-7.1,13.21-16.84,13.54-25.42,.46-8.7-13.27-12.74-28.52-18.03-43.25-4.89-13.63-9.27-27.59-20.01-38.27-4.24-4.21-2.69-10-2.83-15.23Z"/>
</svg>