<?xml version="1.0" encoding="utf-8"?>
<!-- Generator: Adobe Illustrator 27.3.1, SVG Export Plug-In . SVG Version: 6.00 Build 0)  -->
<svg version="1.1" id="Réteg_1" xmlns="http://www.w3.org/2000/svg" xmlns:xlink="http://www.w3.org/1999/xlink" x="0px" y="0px"
	 viewBox="0 0 1207.67 1080" style="enable-background:new 0 0 1207.67 1080;" xml:space="preserve">
<style type="text/css">
	.st0{fill:#C20000;}
</style>
<g>
	<path class="st0" d="M623.41,535.63c-12.03-4.7-23.96-9.39-35.91-14.03c-15.58-6.05-31.18-12.07-46.76-18.11
		c-30.2-11.71-60.4-23.44-90.6-35.15c-34.43-13.35-68.78-26.93-103.35-39.92c-12.64-4.75-25.31-9.47-37.9-14.34
		c-11.09-4.29-22.19-8.63-33.26-12.99c-9.64-3.8-19.3-7.58-29.05-11.12c-7.45-2.71-14.78-5.83-22.19-8.68
		c-10.05-3.86-20.11-7.7-30.12-11.64c-7.59-2.99-15.21-5.93-22.76-9.04c-9.6-3.96-19.44-7.36-29.15-11.08
		c-6.36-2.44-12.66-5.08-19.01-7.55c-6.34-2.47-12.8-4.64-19.05-7.3c-7.08-3-14.35-5.47-21.5-8.28c-7.1-2.79-13.89-6.22-20.15-10.51
		c-7.83-5.36-14.97-11.51-21.15-18.9c-3.56-4.25-6.93-8.67-9.6-13.35c-3.63-6.38-6.96-13.04-9.03-20.24
		c-2.05-7.14-2.82-14.37-3.36-21.73c-0.55-7.4,0.33-14.71,1.18-21.98c0.58-4.97,2.42-9.82,4.28-14.55
		c2.85-7.26,5.45-14.64,8.6-21.77c4.97-11.25,9.22-22.79,13.92-34.16c4.6-11.14,8.72-22.47,13.28-33.63
		c5.96-14.58,14.1-27.77,25.96-38.36c11.43-10.21,24.53-17.65,39.05-22.5c16.23-5.42,33-6.81,49.93-5.34
		c11.67,1.01,22.79,4.46,33.69,8.92c22.5,9.21,45.24,17.84,67.76,26.99c6.61,2.69,13.2,5.54,19.86,8.04
		c18.57,6.96,36.79,14.82,55.36,21.8c13.31,5,26.41,10.56,39.62,15.84c17.1,6.84,34.21,13.65,51.32,20.45
		c13.31,5.29,26.65,10.52,39.96,15.81c12.86,5.11,25.71,10.26,38.57,15.39c15.67,6.25,31.34,12.5,47.01,18.75
		c15.09,6.02,30.17,12.04,45.26,18.05c14.28,5.69,28.56,11.36,42.85,17.03c17.12,6.79,34.25,13.57,51.38,20.36
		c18.43,7.31,36.87,14.6,55.3,21.93c16.29,6.48,32.56,13.01,48.84,19.5c18.18,7.25,36.37,14.5,54.56,21.73
		c15.83,6.29,31.67,12.54,47.49,18.84c16.88,6.72,33.73,13.48,50.61,20.2c16.4,6.53,32.81,13.04,49.22,19.56
		c18.31,7.28,36.62,14.56,54.93,21.83c5.46,2.17,11,4.18,16.37,6.55c5.56,2.46,11.35,4.31,16.94,6.68
		c5.66,2.41,11.33,4.81,17.14,6.82c11.62,4.02,22.59,9.36,32.14,17.04c16.24,13.05,28.29,29.1,33.97,49.57
		c2.47,8.91,3.8,17.84,3.72,27.08c-0.15,15.74-0.04,31.47-0.04,47.21c0,16.32-4.22,31.45-12.31,45.63
		c-5.04,8.84-11.25,16.68-18.67,23.55c-6.62,6.14-14.06,11.21-22.03,15.5c-8.89,4.79-18.43,8-27.78,11.68
		c-6.94,2.73-13.78,5.69-20.71,8.43c-6.97,2.76-14.03,5.31-21,8.06c-6.75,2.67-13.42,5.56-20.18,8.21
		c-9.71,3.79-19.26,7.96-29.11,11.41c-7.22,2.54-14.2,5.76-21.31,8.63c-8.19,3.31-16.41,6.57-24.61,9.84
		c-5.65,2.26-11.29,4.55-16.96,6.76c-7.1,2.77-14.25,5.42-21.34,8.24c-6.75,2.68-13.39,5.63-20.16,8.24
		c-8.33,3.21-16.52,6.78-24.96,9.74c-7.34,2.58-14.4,5.95-21.63,8.85c-9.48,3.8-19.02,7.44-28.51,11.21
		c-5.66,2.25-11.26,4.66-16.93,6.89c-6.98,2.75-14.02,5.32-20.99,8.09c-6.85,2.72-13.59,5.75-20.48,8.38
		c-8.23,3.14-16.27,6.73-24.61,9.6c-5.82,2-11.49,4.48-17.17,6.88c-5.67,2.39-11.38,4.66-17.06,7c-5.86,2.41-11.73,4.82-17.68,7.02
		c-6.98,2.58-13.74,5.66-20.81,8.03c-5.84,1.95-11.45,4.55-17.16,6.87c-8.32,3.37-16.64,6.76-24.96,10.11
		c-5.64,2.27-11.3,4.52-16.96,6.72c-7.11,2.77-14.26,5.45-21.35,8.25c-6.65,2.63-13.24,5.41-19.88,8.06
		c-11.05,4.42-22,9.11-33.23,13.1c-7.21,2.57-14.19,5.77-21.3,8.64c-8.19,3.31-16.4,6.57-24.62,9.84
		c-5.54,2.2-11.09,4.37-16.64,6.55c-7.94,3.12-15.85,6.32-23.74,9.57c-10.82,4.45-21.89,8.31-32.66,12.9
		c-9.43,4.02-19.05,7.53-28.53,11.4c-14.19,5.79-28.36,11.64-42.69,17.07c-11.95,4.53-23.77,9.36-35.69,13.95
		c-12.29,4.73-24.28,10.27-36.64,14.79c-13.42,4.91-26.53,10.56-39.93,15.52c-9.77,3.61-19.39,7.67-29.03,11.63
		c-10,4.11-19.96,8.26-30.65,10.34c-5.3,1.03-10.66,1.54-16.02,1.91c-8.04,0.56-16.1-0.05-24.06-0.78
		c-7.6-0.7-15.16-2.54-22.27-5.42c-4.25-1.72-8.76-2.93-12.72-5.35c-4.28-2.61-8.7-4.98-12.83-7.84c-3.07-2.13-5.8-4.65-8.71-6.95
		c-2.95-2.32-5.75-4.8-8.21-7.59c-4.86-5.52-9.36-11.3-13.28-17.59c-5.05-8.1-7.83-17.15-11.55-25.8
		c-2.78-6.46-5.27-13.04-7.88-19.58c-4.42-11.08-8.81-22.18-13.25-33.25c-3.27-8.16-6.48-16.36-9.95-24.44
		c-2.34-5.44-4.26-11.07-5.32-16.8c-0.76-4.11-1.18-8.43-1.26-12.72c-0.13-7.54,0.23-15.05,1.08-22.52
		c0.28-2.47,1.33-4.84,1.99-7.27c2.89-10.59,7.9-20.16,14.3-29c4.91-6.77,10.67-12.74,17.15-18.11c7.46-6.19,15.49-11.4,24.24-15.45
		c4.89-2.26,10.06-3.91,15.09-5.86c10.18-3.95,20.36-7.9,30.54-11.87c8.51-3.32,17.01-6.67,25.52-9.97
		c11-4.26,22.01-8.49,33.03-12.7c7.48-2.86,14.91-5.86,22.44-8.6c6.12-2.23,12.11-4.84,18.23-7.13c7.76-2.91,15.44-6.01,23.15-9.04
		c10.29-4.04,20.56-8.13,30.87-12.14c10.4-4.05,20.83-8.02,31.24-12.04c10.31-3.98,20.63-7.92,30.9-11.99
		c10.38-4.12,20.81-8.13,31.21-12.18c10.05-3.91,20.12-7.78,30.16-11.73c10.49-4.13,20.96-8.3,31.46-12.41
		c8.08-3.16,16.18-6.27,24.28-9.39c9.47-3.64,18.96-7.23,28.42-10.89c7.75-3,15.47-6.05,23.2-9.09c7.5-2.94,14.98-5.92,22.49-8.83
		c8.66-3.36,17.35-6.66,26.01-10.01c8.79-3.4,17.55-6.85,26.34-10.25c8.89-3.44,17.79-6.84,26.7-10.24
		c4.05-1.54,8.11-3.05,12.17-4.56C622.33,536.84,623.02,536.8,623.41,535.63z"/>
</g>
</svg>
