<?xml version="1.0" encoding="UTF-8"?>
<svg id="Réteg_1" data-name="Réteg 1" xmlns="http://www.w3.org/2000/svg" viewBox="0 0 116.24 218.36">
  <defs>
    <style>
      .cls-1 {
        fill: #ae4739;
      }
    </style>
  </defs>
  <path class="cls-1" d="M116.24,123.01c-2,2.55-2.25,5.97-2.45,8.7-.45,6.07-2.55,11.59-4.52,17.05-6.28,17.37-15.99,32.79-29.38,45.55-9.84,9.37-21.04,17.05-33.49,22.67-3.76,1.7-7.69,2.14-11.37-.49-3.3-2.36-4.58-5.63-3.97-9.58,.68-4.49,3.99-6.68,7.7-8.45,12.92-6.17,24.49-14.17,33.68-25.27,22.92-27.69,29.96-59,19.5-93.42-8.47-27.87-26.85-47.7-53.12-60.23-3.55-1.69-6.76-3.8-7.63-7.97-.77-3.69,.21-6.94,3.22-9.4,3.55-2.9,7.53-2.56,11.32-.94,12.98,5.56,24.63,13.24,34.67,23.18,15.86,15.7,26.79,34.3,32.22,56.02,1.29,5.17,1.48,10.6,3.61,15.57v27Z"/>
  <path class="cls-1" d="M76.53,113.92c-.48,19.61-9.71,40.23-28.8,56.19-5.55,4.64-11.75,8.15-18.36,11-5.51,2.37-10.5,.51-13.25-4.94-2.19-4.33-.5-9.47,4.19-12.32,4.26-2.59,8.83-4.72,12.88-7.59,34.26-24.26,31.4-77.01-5.22-97.7-2.46-1.39-4.91-2.8-7.28-4.33-5.24-3.39-6.73-8.37-4.05-13.22,2.62-4.76,7.92-6.4,13.41-4.03,14.29,6.16,25.59,16,33.91,29.01,8.31,12.99,12.71,27.34,12.57,47.93Z"/>
  <path class="cls-1" d="M37.23,109.4c.36,14.5-9.9,30.33-23.64,35.65-4.66,1.8-9.55,.27-12.15-3.94-2.49-4.04-1.73-8.62,2.14-12,1.74-1.53,3.62-2.92,5.53-4.24,11.83-8.18,11.75-23.74-.15-31.98-1.91-1.32-3.72-2.79-5.5-4.28-3.78-3.15-4.12-7.06-2.02-11.2,2.08-4.1,6.42-5.81,10.95-4.63,13.82,3.59,24.92,19.94,24.85,36.62Z"/>
</svg>