<?xml version="1.0" encoding="UTF-8"?>
<svg id="Réteg_1" data-name="Réteg 1" xmlns="http://www.w3.org/2000/svg" viewBox="0 0 1025.45 1024.7">
  <defs>
    <style>
      .cls-1 {
        fill: #424242;
      }
    </style>
  </defs>
  <path class="cls-1" d="M389.8,.3c68.63-1.43,128.52,13.6,184.9,43.14,11.37,5.96,21.83,14.3,33.79,18.33,9.87,3.32,21.32,2.07,32.09,2.55,51.54,2.28,100.98,12.8,148.73,33.18,45.95,19.61,86.44,46.5,120.12,82.99,37.96,41.12,64.96,89,83.29,141.97,13.66,39.47,22.96,79.48,26.3,121.34,3.47,43.47-.98,85.63-10.15,127.95-14.97,69.07-48.71,130.14-79.24,192.7-10.54,21.61-19.51,44.06-22.73,68.33-3.43,25.9,28.02,73.99,51.19,90.29,21.12,14.86,50.75,18.7,63.18,45.08,6.06,12.86,5.75,26.54-2.53,38.62-11,16.05-26.26,21.45-45.15,15.69-35.02-10.67-64.22-31.56-89.51-56.63-30.83-30.56-50.96-67.09-56.05-112.14-5.2-46.03,11.19-85.48,29.32-125.2,20.94-45.87,43.91-90.93,62.48-137.73,11.9-29.99,16.78-62.44,19.11-95.2,3.82-53.73-7.12-104.31-25.87-154.15-18.16-48.28-44.56-90.77-83.4-124.82-31.86-27.93-68.91-46.81-109.7-58.14-9.31-2.58-10.4-1.35-6.04,4.2,3.57,4.55,7.02,9.23,10.12,14.1,20.91,32.94,37.37,67.78,48.85,105.29,14.22,46.45,18.43,93.87,15.31,141.74-2.57,39.49-11.85,77.81-26.71,114.96-19.1,47.78-45.88,89.97-81.3,127.24-39.84,41.92-86.44,72.85-140.02,94.7-56.26,22.93-114.53,30.73-174.39,27.21-42.08-2.47-82.64-12.97-121.85-29.1-50.52-20.78-95.04-50.42-132.78-89.51-42.89-44.43-73.26-96.56-92.78-155.51C1.44,462.55-2.61,410.03,1.46,357.28c3.64-47.19,17.39-92.31,38.31-135.52,21-43.36,48.73-81.32,83.19-114.14,45.1-42.95,97.83-73.7,157.9-91.35C318.01,5.36,355.68-1.55,389.8,.3Zm4.92,76.56c-14.54,1.83-29.03,4.19-43.62,5.37-31.18,2.51-55.55,48.15-41.64,76.22,11.6,23.4,27.63,42.4,49.2,56.34,13.59,8.79,27.97,22.5,45.4,14.56,33.54-15.28,61.5-37.44,76.2-73.24,5.8-14.13-1.88-51.95-12.17-59.6-22.05-16.41-47.17-18.64-73.37-19.65ZM90.41,352.11c-2.85,35.54,28.47,54.65,56.65,56.1,22.56,1.16,42.38-8.04,60-20.36,19.68-13.76,45.19-25.91,39.38-56.7-5.66-29.99-16.86-57.91-39.64-80.03-24.82-24.1-65.12-22.94-84.6,5.38-19.56,28.43-28.87,61.2-31.78,95.6Zm441.97,163.67c-16.46,1.35-34.37-1.73-44.16,10.85-23.69,30.43-33.6,66.53-24.63,104.18,5.79,24.27,22.23,45.83,50.5,44.81,43.94-1.59,74.62-30.48,101.86-60.73,20.68-22.96,15.58-48.68-4.71-70.9-21.64-23.71-51.06-25.78-78.86-28.21Zm-203.07,81.46c-1.52-6.51-2.59-13.17-4.64-19.51-6.39-19.77-10.47-43.61-30.25-52.62-29.31-13.36-97.52-5.16-120.33,29.12-10.87,16.34-18.98,34.49-8.11,53.95,14.32,25.63,38.21,41.27,63.01,55.01,25.48,14.11,52.26,27.23,78.81,2.71,19.87-18.35,27.53-41.54,21.52-68.65Zm301.55-188.96c43.92,0,68.72-23.79,67.5-58.75-.9-25.85-10.13-49.91-20.72-73.48-9.53-21.23-21.84-39.8-46.87-41.37-35.98-2.27-57.15,19.65-72.08,49.45-9.92,19.81-18.23,40.2-15.81,62.89,1.53,14.4,13.72,21.93,23.77,29.82,21.41,16.81,44.54,30.49,64.21,31.43Zm-184.14-14.06c0-26.39-22.79-51.92-46.36-51.93-38.78-.02-57.58,19.04-57.62,58.43-.02,20.39,25.83,45.56,46.79,45.56,33.85,0,57.19-21.24,57.19-52.05Z"/>
</svg>