<?xml version="1.0" encoding="UTF-8"?>
<svg id="Réteg_1" data-name="Réteg 1" xmlns="http://www.w3.org/2000/svg" viewBox="0 0 285.89 152.02">
  <defs>
    <style>
      .cls-1 {
        fill: #880308;
      }
    </style>
  </defs>
  <path class="cls-1" d="M143.19,0c.72,1.07,1.82,1.74,2.77,2.55,35.65,30.4,71.32,60.78,106.98,91.16,10.58,9.01,21.16,18.03,31.74,27.04,.39,.33,.77,.67,1.2,1.05-18.04,2.44-29.21,12.39-33.5,30.21-36.45-34.67-72.9-69.34-109.44-104.1-36.49,34.71-72.95,69.38-109.44,104.1-4.24-17.78-15.41-27.73-33.5-30.21,.89-.77,1.77-1.54,2.67-2.3C47.66,81.17,92.66,42.84,137.65,4.49c1.71-1.46,3.57-2.77,5.05-4.49h.48Z"/>
</svg>