<?xml version="1.0" encoding="UTF-8"?>
<svg id="Réteg_1" data-name="Réteg 1" xmlns="http://www.w3.org/2000/svg" viewBox="0 0 191.92 191.91">
  <defs>
    <style>
      .cls-1 {
        fill: #424242;
      }
    </style>
  </defs>
  <path class="cls-1" d="M20.37,.04c5.31,.05,9.53,.99,12.98,3.98,3.16,2.74,6.15,5.68,9.13,8.61,5.45,5.38,10.83,10.83,16.26,16.23,3.69,3.67,7.43,7.29,11.12,10.97,5.22,5.22,10.39,10.47,15.59,15.7,3.16,3.18,6.36,6.32,9.5,9.51,.78,.79,1.29,.74,2.07-.05,4.63-4.68,9.32-9.3,13.98-13.95,3.65-3.65,7.21-7.39,10.91-10.98,10.03-9.75,19.7-19.85,29.82-29.5,2.14-2.04,4.32-4.03,6.39-6.13,2.25-2.29,5.12-3.19,8.11-3.86,5.6-1.23,10.97-.46,15.69,2.72,3.63,2.44,6.79,5.55,8.41,9.82,2.33,6.15,2.09,12.22-.84,18.12-.75,1.51-1.98,2.69-3.12,3.91-6.83,7.27-13.99,14.22-21.02,21.3-5.17,5.2-10.32,10.41-15.5,15.59-4.07,4.07-8.17,8.11-12.25,12.18-3.59,3.59-7.14,7.22-10.75,10.79-.77,.76-.65,1.27,.04,1.95,2.57,2.53,5.12,5.09,7.67,7.65,3.44,3.46,6.87,6.94,10.32,10.39,3.68,3.67,7.42,7.29,11.08,10.99,9.76,9.86,19.5,19.74,29.23,29.62,1.12,1.14,2.18,2.33,3.22,3.54,1.94,2.27,2.61,5.11,3.15,7.92,.91,4.7-.02,9.2-1.99,13.51-.58,1.28-1.52,2.34-2.45,3.36-1.26,1.38-2.58,2.71-4.03,3.9-3.26,2.69-7.11,3.67-11.19,3.99-3.8,.31-7.39-.57-10.81-2.16-2.32-1.08-3.97-3.06-5.75-4.79-6.93-6.72-13.77-13.53-20.64-20.32-4.24-4.19-8.49-8.37-12.71-12.58-6.21-6.2-12.39-12.42-18.58-18.63-2.18-2.19-4.41-4.34-6.53-6.59-.83-.88-1.32-.46-1.91,.13-2.85,2.86-5.7,5.74-8.56,8.6-4.6,4.6-9.22,9.18-13.83,13.77-9.7,9.67-19.37,19.35-29.09,28.99-3.28,3.26-6.71,6.36-10.03,9.59-2.08,2.03-4.72,2.82-7.41,3.48-5.1,1.24-10.02,.46-14.66-1.8-2.79-1.36-4.97-3.6-6.86-6.02-5.57-7.16-5.68-14.91-2-22.86,1.02-2.19,3.03-3.76,4.7-5.51,7.88-8.25,16-16.26,24.05-24.35,4.28-4.3,8.59-8.58,12.87-12.88,4.24-4.27,8.46-8.57,12.7-12.85,2.82-2.85,5.65-5.69,8.51-8.49,.5-.49,.52-.71,.03-1.19-3.46-3.43-6.89-6.89-10.33-10.35-2.73-2.75-5.46-5.52-8.19-8.27-2.77-2.79-5.54-5.58-8.31-8.36-5.62-5.63-11.26-11.24-16.87-16.87-5.15-5.17-10.26-10.38-15.38-15.59C2.98,32.55,.69,28.71,.21,24.03-.42,17.78,.94,12.05,5.43,7.33,7.95,4.68,10.64,2.33,14.22,1.2,16.5,.49,18.79-.12,20.37,.04Z"/>
</svg>