<?xml version='1.0' encoding='utf-8'?>
<svg xmlns="http://www.w3.org/2000/svg" enable-background="new 0 0 118.35 72.95" version="1.1" viewBox="0 0 118.35 72.95">
<g clip-rule="evenodd" fill-rule="evenodd">
		<path d="m19.9 57.5c0.333 0.566 0.317 2.116-0.05 4.65-0.067 0.6-0.283 1.083-0.65 1.449-0.467 0.367-0.833 0.7-1.1 1-0.733 0.767-1.467 1.7-2.2 2.801-0.033 0.066-0.183 0.416-0.45 1.05-0.133 0.399-0.333 0.666-0.6 0.8-0.1 0.066-0.317 0.066-0.65 0s-0.567-0.083-0.7-0.05c-0.4 0.166-0.867 0.866-1.4 2.1-0.533 1.101-1.017 1.65-1.45 1.65-0.466 0.033-1.083-0.783-1.85-2.45-0.9-1.934-1.466-3.017-1.7-3.25-1.033 1.733-1.867 1.333-2.5-1.2-0.5-3.1-0.9-4.85-1.2-5.25-0.233-0.333-0.566-0.583-1-0.75-0.433-0.166-0.733-0.35-0.9-0.55-0.133-0.2-0.233-0.65-0.3-1.35-0.067-0.834-0.117-1.334-0.15-1.5-0.6-0.034-0.933-0.717-1-2.051-0.066-1-0.017-1.916 0.15-2.75 0.1-1.133 0.233-2 0.4-2.6 0.267-1.066 0.767-1.483 1.5-1.25 0.067 0.3 0 1.083-0.2 2.35-0.067 1.101 0.25 1.618 0.95 1.551 0.067 0.8-0.217 1.2-0.85 1.2 0.1 0.434 0.233 1.134 0.4 2.101 0.233 0.8 0.617 1.333 1.15 1.6 0.8 0.4 2.05 0.283 3.75-0.35l2.45-0.5 2.7-0.05c1.1-0.034 2-0.017 2.7 0.05 0.767 0.066 1.617 0.233 2.55 0.5 1.167 0.332 1.9 0.683 2.2 1.049z" fill="#34240C"/>
		<path d="m13.55 48.35c-0.767 0.967-1.933 1.551-3.5 1.75-1 0.101-2.133 0.134-3.4 0.101-1.367-0.066-2.45-0.217-3.25-0.45l0.35-2.15c-0.3-0.666-0.267-1.233 0.1-1.699 0.233-0.301 0.6-0.75 1.1-1.351 0.1-0.166 0.3-0.733 0.6-1.7 0.233-0.666 0.583-1.199 1.05-1.6 0.1-0.066 0.283-0.167 0.55-0.3 0.3-0.134 0.517-0.283 0.65-0.45 0.034-0.066 0.117-0.35 0.25-0.85 0.1-0.434 0.25-0.684 0.45-0.75 0.233-0.067 0.483 0 0.75 0.199 0.333 0.233 0.517 0.351 0.55 0.351 0.367 0.033 0.884-0.017 1.55-0.15 0.967-0.1 1.867 0.184 2.7 0.851 0.567 0.466 0.9 1.116 1 1.949 0.067 0.567 0.017 1.4-0.15 2.5-0.233 1.666-0.683 2.916-1.35 3.749z" fill="#34240C"/>
		<path d="m4.95 41.4c0.2 0.534 0.05 1.017-0.45 1.45-0.633 0.467-1.066 0.801-1.3 1-0.167 0.134-0.317 0.334-0.45 0.601-0.133 0.233-0.267 0.416-0.4 0.55-0.233 0.434-0.4 0.7-0.5 0.8-0.2 0.167-0.5 0-0.9-0.5-0.567-0.666-0.533-1.533 0.1-2.6 0.567-1 1.25-1.617 2.05-1.851 1-0.333 1.617-0.15 1.85 0.55z" fill="#5C3F1A"/>
		<path d="m6 40.2c-0.867-0.3-1.183-0.733-0.95-1.3 0.2-0.534 0.717-0.717 1.55-0.551 0.8 0.167 1.167 0.584 1.1 1.25-0.067 0.634-0.517 0.867-1.35 0.7l-0.35-0.099z" fill="#4B330F"/>
		<path d="m10.4 39.3c-0.767 0.066-1.15-0.166-1.15-0.7 0-0.533 0.383-0.783 1.15-0.75 0.667 0 1.034 0.217 1.1 0.65 0.033 0.434-0.3 0.7-1 0.8h-0.1z" fill="#4B330F"/>
		<path d="m13.85 38.55l0.35 0.2 0.3 0.25c0.1 0.1 0.1 0.25 0 0.45-0.4 0.133-0.683 0.1-0.85-0.101-0.167-0.199-0.1-0.465 0.2-0.799z" fill="#4B330F"/>
		<path d="m1.6 50.75c-0.1-0.2-0.133-0.55-0.1-1.05 0.033-0.467-0.033-0.816-0.2-1.05 0.567-0.601 1.034-0.601 1.4 0 0.3 0.533 0.35 1.133 0.15 1.8-0.167 0.633-0.4 0.916-0.7 0.85-0.167 0-0.35-0.184-0.55-0.55z" fill="#5C3F1A"/>
		<path d="m2.35 53.1l0.35 0.35-0.05 1.75c-0.2 0.033-0.417 0.033-0.65 0-0.033-0.733-0.05-1.117-0.05-1.15 0-0.434 0.133-0.75 0.4-0.95z" fill="#5C3F1A"/>
	<path d="m33.4 57.4c-4.633 2.267-8.283 3.399-10.95 3.399-3.1 0.033-5.267 0.017-6.5-0.05-2.6-0.1-4.733-0.417-6.4-0.95-3.633-1.1-5.6-3.717-5.9-7.85-0.3-3.834 0.767-7.283 3.2-10.351l5.2-1.449c1 0 2.117 0.416 3.35 1.25 1.3 0.866 2.4 1.333 3.3 1.399 1.2 0.101 2.8-0.184 4.8-0.85 2.1-0.733 3.65-1.101 4.65-1.101 1.5-0.033 3.667 0.25 6.5 0.851 3 0.6 5.2 0.916 6.6 0.95 1.567 0.033 3.517-0.384 5.85-1.25 2.533-0.967 4.417-1.5 5.65-1.601 0.9-0.066 2.167-0.116 3.8-0.149 1.367-0.101 2.517-0.483 3.45-1.15 0.7-0.5 1.55-1.217 2.55-2.15 0.867-0.7 1.8-1.167 2.8-1.4 1.5-0.367 3.2-1.05 5.101-2.05 1.1-0.566 2.767-1.467 5-2.7 0.2-0.1 1.649-1.034 4.35-2.8 1.667-1.133 3.15-1.816 4.45-2.05 2.6-0.5 4.316-0.883 5.15-1.15 1.666-0.567 3.55-1.983 5.649-4.25 2.667-2.934 4.45-4.717 5.351-5.35 4.1-2.934 6.949-4.883 8.55-5.85 3.467-2.033 6.6-3.25 9.399-3.65-0.833 0.833-2.316 2.017-4.449 3.55-7.101 4.967-13.051 10.367-17.851 16.2-0.3 0.367-0.783 1.117-1.45 2.25-0.6 1-1.1 1.683-1.5 2.05-1.3 1.233-3.366 2.184-6.199 2.85-3.066 0.733-5.184 1.517-6.351 2.35-1.899 1.4-5.133 4.233-9.7 8.5-4.033 3.733-7.383 6.4-10.05 8-2.167 1.301-4.883 2.2-8.15 2.7-2.3 0.334-5.133 0.483-8.5 0.45-2.566 2e-3 -6.149 1.136-10.749 3.402z" fill="#4B330F"/>
		<path d="m20 53.65c3.333 0.1 5.95 0.1 7.85 0 3.133-0.2 5.567-0.684 7.3-1.45 0.934-0.367 1.55-0.667 1.85-0.9 0.533-0.366 0.917-0.899 1.15-1.6l-5.8 0.05c1.467-0.066 3.767-0.384 6.9-0.95 2.967-0.533 5.25-0.816 6.85-0.85 1.567-0.033 2.55-0.084 2.95-0.15 0.934-0.1 1.85-0.399 2.75-0.899 0.434-0.2 1.167-0.717 2.2-1.551 0.867-0.333 1.617-0.716 2.25-1.149-0.1 0.666-0.417 1.3-0.95 1.899 0.5-0.233 1.7-0.716 3.6-1.449 1.5-0.567 2.667-1.117 3.5-1.65 0.866-0.533 2.149-1.35 3.85-2.45 1.5-0.833 4.283-2.25 8.35-4.25 3.467-2.033 5.518-4.15 6.15-6.35-1 0.333-2.133 0.966-3.4 1.9-1.699 1.2-2.766 1.917-3.199 2.15 1.467-1.367 3.149-2.6 5.05-3.7 2.433-1.433 4.366-2.066 5.8-1.9l0.1-0.95c0.567-0.133 1.584-0.3 3.051-0.5 1.3-0.2 2.232-0.367 2.8-0.5-0.134 0.1-1.217 0.816-3.25 2.15-1.366 0.833-2.116 1.483-2.25 1.95 0.167 0 0.483 0.017 0.95 0.05 0.467 0.066 0.783 0.083 0.949 0.05-0.667 0.566-1.451 0.949-2.351 1.149-1.033 0.133-1.867 0.284-2.5 0.45-0.867 0.267-1.7 0.683-2.5 1.25-0.9 0.733-1.6 1.3-2.1 1.7-1.367 1.167-2.4 2.033-3.101 2.6-1.267 1.033-2.35 1.816-3.25 2.351-0.6 0.399-1.716 0.983-3.35 1.75-1.467 0.666-2.55 1.267-3.25 1.8-1.267 1.033-2.217 1.8-2.851 2.3-1.1 0.9-2.166 1.533-3.2 1.9-0.066 0.033-1.6 0.283-4.6 0.75-2.1 0.366-3.3 0.949-3.6 1.75-2.934 0.199-5 0.416-6.2 0.649 0.333 0.334 1 0.601 2 0.8 1.033 0.2 1.733 0.417 2.1 0.65-0.833 0.066-2.5 0.05-5-0.05-2.133-0.101-3.8-0.033-5 0.2-0.933 0.166-1.983 0.55-3.15 1.149-1.7 0.867-2.65 1.351-2.85 1.45-2.2 0.967-5.017 1.45-8.45 1.45-3.933-0.2-6.883-0.283-8.85-0.25 0.6 0.233 1.45 0.583 2.55 1.05 1 0.4 1.883 0.65 2.65 0.75-3.5-0.033-5.767-0.116-6.8-0.25-2.733-0.333-4.8-1.066-6.2-2.2-0.767-0.633-1.566-1.7-2.4-3.2-0.967-1.666-1.4-2.983-1.3-3.949v-0.2c0.233-0.967 1.184-1.25 2.85-0.851-0.533-0.366-1.183-1.133-1.95-2.3 0.566-1.434 1.283-2.666 2.15-3.7l1.05-0.3c-0.133 1.967 0.633 3.917 2.3 5.851 1.6 1.833 3.367 2.949 5.3 3.35-1.2-0.134-2.2-0.217-3-0.25-1.5-0.066-2.383 0.134-2.65 0.6-0.4 0.767-0.133 1.384 0.8 1.851 0.434 0.233 1.233 0.467 2.4 0.7 1.502 0.299 3.819 0.382 6.952 0.249z" fill="#402C08"/>
		<path d="m110.2 9.35c-0.3 0.167-0.817 0.367-1.55 0.6-0.7 0.267-1.233 0.5-1.601 0.7-2.2 1.133-3.95 2.117-5.25 2.95 4.934-3.533 8.784-5.883 11.55-7.05h0.2c-0.733 0.8-1.267 1.333-1.6 1.6-0.43 0.4-1.02 0.8-1.75 1.2z" fill="#402C08"/>
		<path d="m91.3 26.15c-0.233-0.467-0.267-1.417-0.1-2.85 1.2-0.733 2.733-2.133 4.6-4.2 2.067-2.267 3.601-3.767 4.601-4.5l0.199-0.15c-1.833 1.5-2.6 2.883-2.3 4.15-3.033 3.2-5.25 5.6-6.649 7.2l-0.351 0.35z" fill="#402C08"/>
		<path d="m27.95 41.3c-0.8-0.2-1.9-0.116-3.3 0.25 1.333-0.467 2.5-0.7 3.5-0.7 1.333-0.033 3.367 0.217 6.1 0.75-2.2 0.667-4.617 1.017-7.25 1.051l1.15-0.45c0-0.101-0.067-0.401-0.2-0.901z" fill="#402C08"/>
		<polygon points="91.3 26.15 91.4 26.3 90.95 26.45" fill="#34240C"/>
		<path d="m98.3 18.6v0.1c0.767-0.767 1.267-1.367 1.5-1.8l-1.5 1.7zm-64.9 38.8c-4.633 2.267-8.283 3.399-10.95 3.399-3.1 0.033-5.267 0.017-6.5-0.05-2.6-0.1-4.733-0.417-6.4-0.95-2.366-0.699-4.05-2.149-5.05-4.349-0.9-1.967-1.133-4.233-0.7-6.8-0.1 0.966 0.333 2.283 1.3 3.949 0.833 1.5 1.633 2.567 2.4 3.2 1.4 1.134 3.467 1.867 6.2 2.2 1.033 0.134 3.3 0.217 6.8 0.25-0.767-0.1-1.65-0.35-2.65-0.75-1.1-0.467-1.95-0.816-2.55-1.05 1.967-0.033 4.917 0.05 8.85 0.25 3.434 0 6.25-0.483 8.45-1.45 0.2-0.1 1.15-0.583 2.85-1.45 1.167-0.6 2.217-0.983 3.15-1.149 1.2-0.233 2.867-0.301 5-0.2 2.5 0.1 4.167 0.116 5 0.05-0.367-0.233-1.067-0.45-2.1-0.65-1-0.199-1.667-0.466-2-0.8 1.2-0.233 3.267-0.45 6.2-0.649 0.3-0.801 1.5-1.384 3.6-1.75 3-0.467 4.534-0.717 4.6-0.75 1.034-0.367 2.1-1 3.2-1.9 0.634-0.5 1.584-1.267 2.851-2.3 0.7-0.533 1.783-1.134 3.25-1.8 1.634-0.767 2.75-1.351 3.35-1.75 0.9-0.534 1.983-1.317 3.25-2.351 0.7-0.566 1.733-1.433 3.101-2.6 0.5-0.4 1.199-0.967 2.1-1.7 0.8-0.567 1.633-0.983 2.5-1.25 0.633-0.167 1.467-0.317 2.5-0.45 0.9-0.2 1.684-0.583 2.35-1.15-0.166 0.033-0.482 0.017-0.949-0.05-0.467-0.033-0.783-0.05-0.95-0.05 0.134-0.466 0.884-1.117 2.25-1.95 2.033-1.333 3.116-2.05 3.25-2.15l0.45-0.15-0.103-0.15 0.351-0.35c1.399-1.6 3.616-4 6.649-7.2-0.3-1.267 0.467-2.65 2.3-4.15l1.2-0.85c1.3-0.833 3.05-1.817 5.25-2.95 0.367-0.2 0.9-0.433 1.601-0.7 0.732-0.233 1.25-0.434 1.55-0.6 0.733-0.4 1.316-0.8 1.75-1.2 0.333-0.267 0.866-0.8 1.6-1.6h-0.2c1.734-0.733 3.4-1.216 5-1.45-0.833 0.833-2.316 2.017-4.449 3.55-7.101 4.967-13.051 10.367-17.851 16.2-0.3 0.367-0.783 1.117-1.45 2.25-0.6 1-1.1 1.683-1.5 2.05-1.3 1.233-3.366 2.184-6.199 2.85-3.066 0.733-5.184 1.517-6.351 2.35-1.899 1.4-5.133 4.233-9.7 8.5-4.033 3.733-7.383 6.4-10.05 8-2.167 1.301-4.883 2.2-8.15 2.7-2.3 0.334-5.133 0.483-8.5 0.45-2.566 0-6.149 1.134-10.749 3.4z" fill="#34240C"/>
		<path d="m6.65 47.6c-1.667-0.4-2.617-0.117-2.85 0.85 0.233-1.134 0.534-2.184 0.9-3.15 0.767 1.167 1.417 1.933 1.95 2.3z" fill="#34240C"/>
		<path d="m32.85 47.6c-0.733 0.067-2.117 0.334-4.15 0.801-1.767 0.366-3.184 0.566-4.25 0.6-1.434 0.033-3.05-0.283-4.85-0.95-2.433-0.866-3.967-1.366-4.6-1.5 2.833 0.5 5.817 0.834 8.95 1 2.333 0.099 5.3 0.116 8.9 0.049z" fill="#402C08"/>
		<path d="m61.7 41.5c-1.134 0.733-2 1.25-2.601 1.55-0.7 0.334-1.55 0.55-2.55 0.65-2.767 0.1-4.866 0.217-6.3 0.35-2.2 0.2-4.3 0.55-6.3 1.05-0.86 0.066-1.668 0.05-2.425-0.05 0.187 0.015 0.795-0.252 1.825-0.8 1.133-0.6 1.817-0.934 2.05-1 0.967-0.233 2.833-0.5 5.6-0.8 1.6-0.134 3.817-0.55 6.65-1.25 3.034-0.767 5.267-1.233 6.7-1.4-0.499 0.266-1.382 0.834-2.649 1.7z" fill="#402C08"/>
		<path d="m57.55 39.55c-0.333 0.3-0.833 0.533-1.5 0.7-0.7 0.134-1.366 0.167-2 0.1 1.134-0.267 1.95-0.5 2.45-0.699l1.05-0.101z" fill="#402C08"/>
		<path d="m15.8 44.2c-1.555 0.132-2.538 0.115-2.95-0.05l1.15 0.5c-1.867 0-3.1-0.534-3.7-1.601 1.267 0.034 3.1 0.418 5.5 1.151z" fill="#402C08"/>
		<path d="m27.7 43.5c3.233 0.233 6.667-0.167 10.3-1.2 0.934 0.167 2.017 0.283 3.25 0.351l-1.2 0.3c-1.833 0.733-3.183 1.25-4.05 1.55-1.467 0.533-2.95 0.75-4.45 0.65-1.433-0.101-2.983-0.017-4.65 0.25-1.933 0.366-3.45 0.616-4.55 0.75-1.033 0.199-1.817 0.316-2.35 0.35-0.9 0.066-1.816-0.066-2.75-0.4-0.133-0.033-1.217-0.517-3.25-1.449h2.1c0.8-0.034 1.433 0 1.9 0.1l-2.2-0.55c1.267-0.134 2.934-0.316 5-0.55 3.1-0.202 5.4-0.252 6.9-0.152z" fill="#5C3F1A"/>
		<path d="m54.05 40.35l-7.3 1.15c2.7-1.033 4.667-1.6 5.9-1.7 0.267 0.266 0.733 0.45 1.4 0.55z" fill="#5C3F1A"/>
		<path d="m56.5 39.65c-0.5 0.199-1.316 0.433-2.45 0.699-0.667-0.1-1.133-0.283-1.4-0.55h0.1c0.9-0.099 2.15-0.149 3.75-0.149z" fill="#5C3F1A"/>
		<path d="m12.85 44.15c0.412 0.165 1.395 0.182 2.95 0.05l2.2 0.55c-0.467-0.1-1.1-0.134-1.9-0.1h-2.1l-1.15-0.5z" fill="#5C3F1A"/>
		<path d="m16.85 50.7c1.833-0.601 4.1-0.783 6.8-0.55 2.767 0.267 4.983 0.883 6.65 1.85-0.533 0.066-1.667 0.017-3.4-0.15-3.2 0.034-5.583-0.066-7.15-0.3-1.033-0.133-2-0.416-2.9-0.85z" fill="#5C3F1A"/>
		<path d="m32.35 45.95c0.633-0.066 2.517-0.117 5.65-0.15 2.233 0 4.1-0.2 5.6-0.6l0.35-0.101c1.933-0.066 4.783-0.433 8.55-1.1l4.05-0.3h0.4l-0.7 0.5v-0.15c-0.633 0.2-1.383 0.634-2.25 1.3-1.167 0.434-2.566 0.7-4.2 0.801-0.7 0.033-2.167 0.05-4.4 0.05-2.9 0.2-5.1 0.333-6.6 0.399-2.633 0.134-4.783-0.082-6.45-0.649z" fill="#5C3F1A"/>
		<path d="m56.25 44.05v0.15c-0.633 0.434-1.383 0.816-2.25 1.149 0.867-0.665 1.617-1.099 2.25-1.299z" fill="#5C3F1A"/>
		<path d="m56.55 43.7l-4.05 0.3c-3.767 0.667-6.617 1.033-8.55 1.1 2-0.5 4.1-0.85 6.3-1.05 1.434-0.133 3.533-0.25 6.3-0.35z" fill="#5C3F1A"/>
		<path d="m89.55 24.15c0.667-0.3 1.083-0.5 1.25-0.6-0.5 0.567-1.333 1.15-2.5 1.75l2.15 0.3c-0.5 0.2-1.217 0.383-2.15 0.55-1.066 0.2-1.8 0.367-2.2 0.5l-1.95 0.85c-0.834 0.333-1.434 0.467-1.801 0.4 0.2-0.133 0.467-0.383 0.801-0.75 0.333-0.367 0.583-0.617 0.75-0.75-1.334 0.1-2.566 0.434-3.7 1-0.5 0.233-1.601 0.917-3.3 2.05-0.7 0.466-1.2 0.8-1.5 1-0.467 0.333-0.9 0.7-1.301 1.1-0.3 0.333-0.816 1.184-1.55 2.55-0.6 1.133-1.167 1.85-1.7 2.15-0.199-0.6-0.316-1.017-0.35-1.25-0.467 0.033-0.867 0.233-1.2 0.6-0.399 0.4-0.683 0.633-0.85 0.7-0.567 0.2-1.267 0.333-2.101 0.4-1.066 0.1-1.766 0.183-2.1 0.25-0.467 0.1-1.5 0.649-3.1 1.649-1.267 0.767-2.284 1.034-3.05 0.801h0.05c0.7-0.233 1.317-0.534 1.85-0.9 0.7-0.5 1.55-1.217 2.55-2.15 0.867-0.7 1.8-1.167 2.8-1.4 1.5-0.367 3.2-1.05 5.101-2.05 1.1-0.566 2.767-1.467 5-2.7 0.2-0.1 1.649-1.034 4.35-2.8 1.667-1.133 3.15-1.816 4.45-2.05l0.2-0.05c2 0 3.083-0.017 3.25-0.05 0.901-0.1 1.518-0.467 1.851-1.1z" fill="#5C3F1A"/>
		<path d="m89.55 24.15c-0.333 0.633-0.95 1-1.85 1.1-0.167 0.033-1.25 0.05-3.25 0.05 2.866-0.6 4.517-0.966 4.95-1.1l0.15-0.05z" fill="#5C3F1A"/>
		<path d="m67 39.35c-0.633 0.233-1.583 0.801-2.85 1.7-1.167 0.834-2.117 1.334-2.851 1.5 0.267-0.066 0.884-0.566 1.851-1.5 1-1 1.699-1.6 2.1-1.8 1.867-0.866 3.834-1.483 5.9-1.85-0.434 0.566-1.066 1-1.9 1.3-1 0.267-1.75 0.484-2.25 0.65z" fill="#5C3F1A"/>
		<path d="m77.35 34.05c-1 0.733-1.949 1.017-2.85 0.85 0.733-0.5 1.533-1.233 2.4-2.2l1.399-1.05c0.233 0.033 0.55 0.05 0.95 0.05-0.332 0.9-0.966 1.683-1.899 2.35z" fill="#5C3F1A"/>
		<path d="m64.75 35.3c0.2-0.033 0.816-0.25 1.85-0.65 0.834-0.3 1.434-0.417 1.801-0.35l0.149 0.55c0.367-0.2 0.95-0.267 1.75-0.2-0.033 0.1-0.35 0.317-0.95 0.65-0.467 0.3-0.649 0.617-0.55 0.95 0.4-0.4 1.05-0.483 1.95-0.25-0.533 0.067-1.05 0.35-1.55 0.85-0.492 0.492-0.367 0.725 0.375 0.7-0.7 0.048-1.524 0.48-2.476 1.3-1.033 0.834-1.833 1.267-2.399 1.301-0.733 0.1-1.317-0.051-1.75-0.45-0.101-0.101-0.483-0.584-1.15-1.45l2.95-2.951z" fill="#34240C"/>
		<path d="m71.25 37.5c0.233-0.167 0.316-0.45 0.25-0.85 0.7-0.2 0.983 0.1 0.85 0.9-0.066 0.334-0.316 0.667-0.75 1-0.533 0.367-0.85 0.667-0.949 0.9l0.8 0.149c-0.101 0.5-0.533 1.051-1.3 1.65-0.801 0.6-1.45 0.866-1.95 0.8-0.067-0.399-0.083-0.666-0.05-0.8-0.467-0.066-0.783-0.017-0.95 0.15-0.3 0.366-0.533 0.583-0.7 0.649-0.2 0.134-0.633 0.15-1.3 0.05-0.601-0.066-0.983-0.166-1.15-0.3 0.134 0 0.4-0.066 0.8-0.2-0.166-0.166-0.482-0.316-0.949-0.449-0.467-0.134-0.783-0.301-0.95-0.5 0.533 0.066 1.167 0.133 1.899 0.199 0.567 0 1.15-0.116 1.75-0.35l0.5-0.35c0.067-0.034 0.234 0.017 0.5 0.149 0.134-0.066 0.351-0.316 0.65-0.75 0.233-0.333 0.517-0.45 0.85-0.35l0.15-0.351c-0.1-0.1-0.133-0.199-0.1-0.3 0.1-0.033 0.399-0.05 0.899-0.05 0.167-0.066 0.3-0.267 0.4-0.6 0.2-0.096 0.467-0.229 0.8-0.396z" fill="#34240C"/>
		<path d="m71.55 35.3c-0.231-0.281-0.497-0.514-0.8-0.7 0.267-0.267 0.65-0.333 1.15-0.2 0.1 0.267 0.1 0.5 0 0.7-0.071 0.119-0.188 0.186-0.35 0.2z" fill="#34240C"/>
		<path d="m70.55 33.95c-0.3-0.034-0.533-0.05-0.7-0.05-0.133-0.5 0.101-0.7 0.7-0.6 0.403 0.047 0.554 0.206 0.45 0.475-0.105 0.092-0.256 0.151-0.45 0.175z" fill="#34240C"/>
		<path d="m61.35 38.05c0 0.167 0.034 0.283 0.101 0.351 0.233 0.333 0.467 0.6 0.7 0.8 0.833 0.733 1.3 1.166 1.399 1.3-0.443 0.056-0.769-0.062-0.975-0.35 0.088 0.181 0.18 0.414 0.274 0.699-0.699 0.134-1.283-0.3-1.75-1.3-0.232-0.133-0.35-0.366-0.35-0.7 0.233-0.399 0.384-0.666 0.45-0.8l-0.099-0.25c0.2 0.033 0.284 0.117 0.25 0.25z" fill="#5C3F1A"/>
		<path d="m63.7 40.55c0.066 0.033 0.634-0.3 1.7-1 0.5-0.2 1.1-0.267 1.8-0.2-0.101 0.733-0.55 1.184-1.351 1.351-0.632 0.132-1.349 0.082-2.149-0.151z" fill="#5C3F1A"/>
		<path d="m69.2 36.8c0.933-0.533 1.5-0.466 1.7 0.2 0.1 0.4-0.084 0.7-0.551 0.9l-0.8 0.35c-0.966 0.5-1.5 0.767-1.6 0.8-0.7 0.2-0.817-0.083-0.351-0.85 0.269-0.5 0.802-0.967 1.602-1.4z" fill="#5C3F1A"/>
		<path d="m73.8 8c0.867-2.267 1.317-3.5 1.351-3.7 0.066-0.233 0.116-0.966 0.149-2.2 0.034-0.967 0.233-1.667 0.6-2.1 0.699 1.733 0.816 3.85 0.35 6.35-0.4 2.333-1.15 4.3-2.25 5.9-1.8 2.467-3.1 4.367-3.9 5.7-1.399 2.367-2.116 4.5-2.149 6.4 0 1.2 0.25 3.717 0.75 7.55 0.3 3.467-0.101 5.75-1.2 6.85-0.6 0.634-1.5 1-2.7 1.1-1.267 0.067-2.183-0.233-2.75-0.899-0.533-0.601-0.75-1.733-0.649-3.4 0.066-1.167 0.267-2.383 0.6-3.65 0.566-2.367 1.05-5.217 1.45-8.55 0.167-1.5 0.816-2.934 1.95-4.3 0.533-0.633 1.699-1.767 3.5-3.4 2.164-2.034 3.798-4.584 4.898-7.651z" fill="#4B330F"/>
			<path d="m68.3 18.1l0.55-0.5c-0.433 0.933-0.883 2.217-1.35 3.85-0.233 0.867-0.6 2.133-1.1 3.8l-0.15-1.55-0.45 0.55c-0.066-0.9 0.233-1.95 0.9-3.15 0.8-1.333 1.333-2.333 1.6-3z" fill="#402C08"/>
			<path d="m66.85 28.5c-0.166-1.3-0.3-2.283-0.399-2.95l0.3-0.3c0.434 1.367 0.65 2.95 0.65 4.75 0 0.5-0.084 2.067-0.25 4.7-0.834-0.167-1.384 0.367-1.65 1.6-0.233 1.134-0.833 1.483-1.8 1.05-0.101 0.367-0.333 0.733-0.7 1.101-0.4 0.366-0.633 0.616-0.7 0.75l-0.25-0.25c-0.833-0.934-0.933-2.967-0.3-6.1l0.249 0.949c0.167 1.467 0.267 2.883 0.3 4.25 0.467-0.467 0.817-1.3 1.05-2.5 0.301-1.733 0.484-2.683 0.551-2.85 0.232 0.8 0.316 1.867 0.25 3.2 0.232-0.6 0.55-1.983 0.949-4.15 0.334 0.633 0.4 1.8 0.2 3.5 0.101-0.467 0.333-1.117 0.7-1.95 0.367-0.867 0.6-1.5 0.7-1.9 0.2-0.8 0.25-1.767 0.15-2.9z" fill="#402C08"/>
			<path d="m75.4 3.1c0.199 4.2-0.334 7.1-1.601 8.7-0.26 0.357-0.727 0.841-1.399 1.45l-0.6 0.35c0.8-1.467 1.384-2.533 1.75-3.2 0.634-1.133 0.833-2.25 0.601-3.35 0.5-1.133 0.833-2.05 1-2.75l0.1-0.75 0.149-0.45z" fill="#402C08"/>
			<path d="m76.25 1l-0.85 2.1-0.05-1.6c0.067-0.6 0.25-1.1 0.55-1.5l0.35 1z" fill="#34240C"/>
			<path d="m72.35 13.3c-0.3 0.733-0.8 1.5-1.5 2.3-0.366 0.433-1.033 1.1-2 2l0.5-1.05c0.367-0.667 1.367-1.75 3-3.25z" fill="#34240C"/>
			<path d="m73.8 11.8c1.267-1.6 1.8-4.5 1.601-8.7l0.849-2.1c0.4 1.733 0.367 3.717-0.1 5.95-0.467 2.1-1.184 3.867-2.15 5.3-1.8 2.467-3.1 4.367-3.9 5.7-1.399 2.367-2.116 4.5-2.149 6.4 0 1.2 0.25 3.717 0.75 7.55 0.3 3.467-0.101 5.75-1.2 6.85-0.566 0.566-1.4 0.917-2.5 1.05-1.133 0.101-2.033-0.1-2.7-0.6 0.067-0.134 0.3-0.384 0.7-0.75 0.367-0.367 0.6-0.733 0.7-1.101 0.967 0.434 1.566 0.084 1.8-1.05 0.267-1.233 0.816-1.767 1.65-1.6 0.166-2.633 0.25-4.2 0.25-4.7 0-1.8-0.217-3.383-0.65-4.75l-0.3 0.3-0.05-0.3c0.5-1.667 0.866-2.933 1.1-3.8 0.467-1.633 0.917-2.917 1.35-3.85 0.967-0.9 1.634-1.567 2-2 0.7-0.8 1.2-1.567 1.5-2.3 0.699-0.632 1.182-1.132 1.449-1.499z" fill="#34240C"/>
			<path d="m64.25 25c0.167 0.767 0.3 1.317 0.4 1.65l-0.15-2.15 0.1-0.15c0 0.733 0.051 1.917 0.15 3.55 0.033 1.467-0.1 2.617-0.4 3.45-0.467-0.567-0.683-1.5-0.649-2.8 0.134-1.466 0.2-2.483 0.2-3.05l0.349-0.5z" fill="#402C08"/>
			<path d="m66.25 30.65c-0.333-0.3-0.5-0.783-0.5-1.45 0.033-0.833 0.05-1.434 0.05-1.8l0.25 0.95c0.266 0.6 0.333 1.367 0.2 2.3z" fill="#402C08"/>
			<path d="m66.55 18.5c1.2-0.767 1.884-1.233 2.05-1.4-0.166 0.566-0.683 1.316-1.55 2.25-1 1-1.667 1.7-2 2.1l0.7-1.25c0.267-0.7 0.533-1.267 0.8-1.7z" fill="#402C08"/>
			<path d="m62.25 34.2l-0.25-0.4-0.1-1.6 0.1-0.3c0.533-2.267 0.95-4.583 1.25-6.95-0.033 0.833-0.05 1.983-0.05 3.45-0.067 0.6-0.1 1.617-0.1 3.05-0.067 1.233-0.35 2.15-0.85 2.75z" fill="#5C3F1A"/>
			<path d="m68.6 17.1v-0.05c-0.766-0.033-1.449 0.45-2.05 1.45-0.866 0.567-1.433 1.167-1.7 1.8-0.3 0.767-0.416 2.167-0.35 4.2l-0.25 0.5c-0.166-0.767-0.283-1.65-0.35-2.65-0.167 0.167-0.301 0.433-0.4 0.8 0.167-1.267 0.684-2.467 1.55-3.6 0.567-0.8 1.467-1.767 2.7-2.9 0.334-0.167 0.85-0.35 1.55-0.55-0.133 0.267-0.366 0.6-0.7 1z" fill="#5C3F1A"/>
			<polygon points="61.9 32.2 62 33.8 61.75 32.85" fill="#5C3F1A"/>
			<path d="m64.65 26.65c-0.101-0.333-0.233-0.883-0.4-1.65l0.25-0.5 0.15 2.15z" fill="#5C3F1A"/>
			<path d="m66.55 18.5c0.601-1 1.284-1.483 2.05-1.45v0.05c-0.166 0.167-0.85 0.633-2.05 1.4z" fill="#5C3F1A"/>
</g>
</svg>