<?xml version="1.0" encoding="UTF-8"?>
<svg viewBox="0 0 1274.0804 499.75415" xmlns="http://www.w3.org/2000/svg" xmlns:xlink="http://www.w3.org/1999/xlink">
 <defs>
  <linearGradient id="a">
   <stop stop-color="#ffb142" offset="0"/>
   <stop stop-color="#c87600" offset="1"/>
  </linearGradient>
  <linearGradient id="c" x1="247.36" x2="247.36" y1="524.71" y2="538.79" gradientUnits="userSpaceOnUse" xlink:href="#a"/>
  <linearGradient id="b" x1="247.36" x2="247.36" y1="524.71" y2="538.79" gradientUnits="userSpaceOnUse" xlink:href="#a"/>
  <linearGradient id="e" x1="247.36" x2="247.36" y1="524.71" y2="538.79" gradientUnits="userSpaceOnUse" xlink:href="#a"/>
  <linearGradient id="d" x1="557.95" x2="564.74" gradientUnits="userSpaceOnUse" xlink:href="#a"/>
  <linearGradient id="m" x1="1752.2" x2="1752.2" y1="777.01" y2="783.23" gradientUnits="userSpaceOnUse" xlink:href="#a"/>
  <linearGradient id="l" x1="1752.2" x2="1752.2" y1="777.01" y2="783.23" gradientUnits="userSpaceOnUse" xlink:href="#a"/>
  <linearGradient id="k" x1="1752.2" x2="1752.2" y1="777.01" y2="783.23" gradientUnits="userSpaceOnUse" xlink:href="#a"/>
  <linearGradient id="j" x1="1752.2" x2="1752.2" y1="777.01" y2="783.23" gradientUnits="userSpaceOnUse" xlink:href="#a"/>
  <linearGradient id="i" x1="1752.2" x2="1752.2" y1="777.01" y2="783.23" gradientUnits="userSpaceOnUse" xlink:href="#a"/>
  <linearGradient id="h" x1="1752.2" x2="1752.2" y1="777.01" y2="783.23" gradientUnits="userSpaceOnUse" xlink:href="#a"/>
  <linearGradient id="g" x1="1748.4" x2="1752.1" gradientUnits="userSpaceOnUse" xlink:href="#a"/>
  <linearGradient id="f" x1="280.45" x2="327.45" gradientTransform="matrix(6.5918e-5 .16349 -.04193 .00025703 1766.5 885.24)" gradientUnits="userSpaceOnUse">
   <stop stop-color="#fff" stop-opacity=".6078" offset=".1059"/>
   <stop stop-color="#fa3535" stop-opacity="0" offset="1"/>
  </linearGradient>
 </defs>
 <g transform="matrix(3.0497 0 0 3.0497 -5040 -1903.4)">
  <g transform="matrix(.31644 0 0 .24777 1941.3 652.04)">
   <path d="m237.36 523.19a14.25 23.024 0 0 1 -28.5 0 14.25 23.024 0 1 1 28.5 0z" fill="url(#c)" stroke="#000" stroke-linecap="round" stroke-linejoin="round" stroke-width="5"/>
   <path d="m202.86 523.19a14.25 23.024 0 0 1 -28.5 0 14.25 23.024 0 1 1 28.5 0z" fill="url(#c)" stroke="#000" stroke-linecap="round" stroke-linejoin="round" stroke-width="5"/>
   <path d="m219.86 523.19a14.25 23.024 0 0 1 -28.5 0 14.25 23.024 0 1 1 28.5 0z" fill="url(#b)" stroke="#000" stroke-linecap="round" stroke-linejoin="round" stroke-width="5"/>
   <path d="m314.36 523.19a14.25 23.024 0 0 1 -28.5 0 14.25 23.024 0 1 1 28.5 0z" fill="url(#b)" stroke="#000" stroke-linecap="round" stroke-linejoin="round" stroke-width="5"/>
   <path d="m279.86 523.19a14.25 23.024 0 0 1 -28.5 0 14.25 23.024 0 1 1 28.5 0z" fill="url(#e)" stroke="#000" stroke-linecap="round" stroke-linejoin="round" stroke-width="5"/>
   <path d="m296.86 523.19a14.25 23.024 0 0 1 -28.5 0 14.25 23.024 0 1 1 28.5 0z" fill="url(#b)" stroke="#000" stroke-linecap="round" stroke-linejoin="round" stroke-width="5"/>
   <path d="m188.61 500.16c-5.8064 0-10.78 5.6304-13 13.688 18.971 5.0743 39.814 8.0342 61.719 8.4375-0.29837-12.285-6.5429-22.125-14.219-22.125-3.3009 0-6.3333 1.8275-8.75 4.875-2.4167-3.0475-5.4491-4.875-8.75-4.875-3.1858 0-6.1261 1.7048-8.5 4.5625-2.3739-2.8577-5.3142-4.5625-8.5-4.5625zm77 0c-7.6562 0-13.891 9.7905-14.219 22.031 21.881-0.70434 42.616-3.9836 61.438-9.3438-2.3472-7.5156-7.1571-12.687-12.719-12.688-3.3009 0-6.3333 1.8275-8.75 4.875-2.4167-3.0475-5.4491-4.875-8.75-4.875-3.1858 0-6.1261 1.7048-8.5 4.5625-2.3739-2.8577-5.3142-4.5625-8.5-4.5625z" fill-opacity=".3137"/>
  </g>
  <path d="m2017.4 692.94c-8.043 0.14784-14.564 2.4314-20.774 5.1607-3.6775 1.7234-7.1286 0.90567-10.614 0.47222-3.6615-1.0384-6.0766-1.5428-7.7392-1.7371-2.5213-0.28315-2.0572 2.4724-0.3115 5.5149 1.8461 2.6545 3.7526 4.7654 5.7984 5.7341 3.9653 2.457 0.8349 4.5521-0.4313 6.746-8.7385 11.926-11.626 25.625-6.3616 41.775 10.222 22.955 33.376 21.518 42.063 21.908 8.6864-0.38982 31.84 1.0474 42.063-21.908 5.2648-16.15 2.377-29.849-6.3615-41.775-1.2662-2.1939-4.3966-4.2891-0.4312-6.746 2.0457-0.96868 3.9523-3.0796 5.7984-5.7341 1.7457-3.0424 2.2098-5.798-0.3115-5.5149-1.6626 0.19426-4.0777 0.69874-7.7392 1.7371-3.486 0.43345-6.9372 1.2511-10.614-0.47222-6.6232-2.9112-13.602-5.3156-22.403-5.1607-0.5501-0.01-1.0931-0.01-1.6293 0z" fill="#784421" stroke="#000" stroke-width="1.9374"/>
  <path d="m2042.9 761.87c-7.85-1.0027-0.6657 4.4054-1.8694 6.3609-4.7585-1.6086-2.9453 3.7167-5.0971 5.1961-4.0773-0.14991-4.7138 2.6768-7.558 3.5042-3.4368-1.3108-5.9709 1.2853-9.2521 1.2853s-5.2229-2.4943-9.2522-1.2853c-2.8442-0.82745-3.4806-3.5523-7.558-3.5042-2.1517-1.4794-1.8198-7.1102-5.0971-5.1961-1.2037-1.9555 4.3514-7.7709-1.8695-6.3609 0-2.2557 6.5904-6.4419 1.8695-6.3608 1.2037-1.9555 7.2407-3.4113 5.0971-5.1962 4.3036-2.9587 10.248-4.7895 16.81-4.7895s12.506 1.8308 16.81 4.7895c-3.1804 1.0721 3.8934 3.2407 5.0971 5.1962-5.3134-0.183 1.8694 4.105 1.8694 6.3608z" fill="#fff" stroke="#000" stroke-linecap="round" stroke-linejoin="round" stroke-width="1.3"/>
  <path d="m2051.9 734.76c-4.9461 6.3743 1.1767 26.463-5.1184 29.847-20.018 10.763-48.133 12.131-66.693-3.4181-0.8131-0.68113-1.1687-1.6203-1.5174-2.6825-4.0412-12.31 13.977-17.282 8.4587-20.69-0.3599-0.22236-13.368 8.6077-11.557 12.004 1.4987 2.8116-0.4107 2.8096-0.2059 3.1284 0.2201 0.34262 0.7144 3.8763 1.6066 5.4588 0.2313 0.50306 0.307 0.85098 0.4513 1.1186-0.068 0.19151 2.4513 4.4336 2.2312 4.3707 11.421 10.89 25.356 14.891 41.142 14.891 18.503 0 30.274-5.2193 42.356-19.673l-11.154-24.356z" fill-opacity=".3137" fill-rule="evenodd" opacity=".662"/>
  <path d="m1986.5 741.24c-1.0519 9.7451-14.724 5.4548-26.807 10.992-0.1757 0.0805-0.3511 0.16312-0.5261 0.24787 1.5923-2.4967 4.5878-17.678-0.2095-14.384 0.7949-0.63475 1.6476-1.2494 2.5616-1.8378 14.519-9.3465 25.461-6.4521 24.981 4.9814z" fill="#784421" fill-rule="evenodd" stroke="#000" stroke-width="2"/>
  <g transform="matrix(.31063 0 0 .31063 1845.1 660.69)">
   <path d="m561.59 245.84c-7.2559 0-15.143 8.0678-14.827 13.163s12.934 26.326 15.774 26.326 13.881-20.806 13.565-26.751-9.7796-13.163-14.512-12.739z" fill-opacity=".3137" fill-rule="evenodd"/>
   <path d="m516.69 141.45c-30.86 0-55.924 28.979-55.924 64.686s25.064 64.686 55.924 64.686c18.135 0 34.229-10.019 44.445-25.52 10.216 15.512 26.344 25.52 44.487 25.52 30.86 0 55.924-28.979 55.924-64.686s-25.064-64.686-55.924-64.686c-18.141 0-34.271 10.011-44.487 25.52-10.216-15.497-26.312-25.52-44.445-25.52z" fill="#fff" stroke="#000" stroke-linecap="round" stroke-width="4.94"/>
   <g transform="matrix(.988 0 0 .988 373.74 106.88)">
    <path d="m184.55 110.17a16.387 16.387 0 1 1 -32.774 0 16.387 16.387 0 1 1 32.774 0z" stroke="#000" stroke-linecap="round" stroke-width="5"/>
    <path d="m166.5 104.43a4.25 4.25 0 0 1 -8.5 0 4.25 4.25 0 1 1 8.5 0z" fill="#fff"/>
   </g>
   <g transform="matrix(.988 0 0 .988 373.74 106.88)">
    <path d="m226.05 110.17a16.387 16.387 0 1 1 -32.774 0 16.387 16.387 0 1 1 32.774 0z" stroke="#000" stroke-linecap="round" stroke-width="5"/>
    <path d="m208 104.43a4.25 4.25 0 0 1 -8.5 0 4.25 4.25 0 1 1 8.5 0z" fill="#fff"/>
   </g>
   <path d="m559.89 240.15c-7.4312 0-15.509 7.4458-15.185 12.148s13.247 24.297 16.155 24.297 14.216-19.202 13.893-24.688-10.016-12.148-14.862-11.756z" fill="url(#d)" fill-rule="evenodd" stroke="#000" stroke-width="4.0004"/>
   <path d="m569.21 157.54c10.026-24.288 26.936-27.576 26.936-27.576s-9.4051 12.669-0.88662 9.1449c13.19-5.4572 55.129 11.644 55.129 11.644s-55.566-12.934-81.178 6.7866z" fill="#fff" fill-rule="evenodd" stroke="#000" stroke-linejoin="round" stroke-width="3.7761"/>
   <path d="m552.56 157.54c-10.026-24.288-26.936-27.576-26.936-27.576s9.4051 12.669 0.88662 9.1449c-13.19-5.4572-55.129 11.644-55.129 11.644s55.566-12.934 81.178 6.7866z" fill="#fff" fill-rule="evenodd" stroke="#000" stroke-linejoin="round" stroke-width="3.7761"/>
  </g>
  <path d="m2056.4 730.78c-11.75 4.2252 3.4591 22.992-9.2365 39.368-2.3467 3.0268 14.133 0.51062 19.959-16.262 5.6657-16.311 0.2766-26.264-10.722-23.106z" fill="#784421" fill-rule="evenodd" stroke="#000" stroke-width="2"/>
  <path d="m2060.2 730.19-0.3053 8e-3c3.9594 3.1907 5.6351 10.574 3.61 20.843-2.6922 13.651-13.085 19.54-16.539 19.851 1.1216 1.5939 14.891-1.9845 20.111-17.012 4.9575-14.272 1.446-23.678-6.8765-23.69z" fill-opacity=".3137" fill-rule="evenodd"/>
  <g transform="matrix(.40494 0 0 .29243 1800.8 627.03)">
   <path d="m237.36 523.19a14.25 23.024 0 0 1 -28.5 0 14.25 23.024 0 1 1 28.5 0z" fill="url(#c)" stroke="#000" stroke-linecap="round" stroke-linejoin="round" stroke-width="5"/>
   <path d="m202.86 523.19a14.25 23.024 0 0 1 -28.5 0 14.25 23.024 0 1 1 28.5 0z" fill="url(#c)" stroke="#000" stroke-linecap="round" stroke-linejoin="round" stroke-width="5"/>
   <path d="m219.86 523.19a14.25 23.024 0 0 1 -28.5 0 14.25 23.024 0 1 1 28.5 0z" fill="url(#b)" stroke="#000" stroke-linecap="round" stroke-linejoin="round" stroke-width="5"/>
   <path d="m314.36 523.19a14.25 23.024 0 0 1 -28.5 0 14.25 23.024 0 1 1 28.5 0z" fill="url(#b)" stroke="#000" stroke-linecap="round" stroke-linejoin="round" stroke-width="5"/>
   <path d="m279.86 523.19a14.25 23.024 0 0 1 -28.5 0 14.25 23.024 0 1 1 28.5 0z" fill="url(#e)" stroke="#000" stroke-linecap="round" stroke-linejoin="round" stroke-width="5"/>
   <path d="m296.86 523.19a14.25 23.024 0 0 1 -28.5 0 14.25 23.024 0 1 1 28.5 0z" fill="url(#b)" stroke="#000" stroke-linecap="round" stroke-linejoin="round" stroke-width="5"/>
   <path d="m188.61 500.16c-5.8064 0-10.78 5.6304-13 13.688 18.971 5.0743 39.814 8.0342 61.719 8.4375-0.29837-12.285-6.5429-22.125-14.219-22.125-3.3009 0-6.3333 1.8275-8.75 4.875-2.4167-3.0475-5.4491-4.875-8.75-4.875-3.1858 0-6.1261 1.7048-8.5 4.5625-2.3739-2.8577-5.3142-4.5625-8.5-4.5625zm77 0c-7.6562 0-13.891 9.7905-14.219 22.031 21.881-0.70434 42.616-3.9836 61.438-9.3438-2.3472-7.5156-7.1571-12.687-12.719-12.688-3.3009 0-6.3333 1.8275-8.75 4.875-2.4167-3.0475-5.4491-4.875-8.75-4.875-3.1858 0-6.1261 1.7048-8.5 4.5625-2.3739-2.8577-5.3142-4.5625-8.5-4.5625z" fill-opacity=".3137"/>
  </g>
  <path d="m1899.1 645.85c-10.355 0.2408-18.752 3.96-26.746 8.4051-4.7347 2.8068-9.1779 1.475-13.666 0.7691-4.714-1.6912-7.8235-2.5127-9.9642-2.8292-3.2459-0.4612-2.6486 4.0269-0.4011 8.982 2.3769 4.3233 4.8317 7.7612 7.4655 9.3389 5.1054 4.0015 1.0749 7.4138-0.5553 10.987-11.251 19.424-15.392 31.862-8.6135 58.165 13.161 37.386 42.972 35.045 54.155 35.68 11.184-0.6349 40.994 1.706 54.155-35.68 6.7783-26.304 3.4834-38.742-7.7673-58.165-1.6302-3.5732-5.6607-6.9855-0.5553-10.987 2.6338-1.5777 5.0886-5.0156 7.4655-9.3389 2.2475-4.9551 2.8449-9.4432-0.4011-8.982-2.1407 0.3165-5.2502 1.138-9.9641 2.8292-4.4882 0.7059-8.9315 2.0377-13.666-0.7691-8.5272-4.7414-17.512-8.6574-28.844-8.4051-0.7083-0.016-1.4074-0.016-2.0977 0z" fill="#784421" stroke="#000" stroke-width="2.2108"/>
  <path d="m1931 744.3c-9.9925-1.8718-0.8474 8.2239-2.3796 11.874-6.0571-3.0029-3.7492 6.9383-6.4883 9.6999-5.19-0.2798-6.0001 4.997-9.6204 6.5418-4.3748-2.4471-7.6007 2.3992-11.777 2.3992s-6.6482-4.6562-11.777-2.3992c-3.6202-1.5448-4.4304-6.6315-9.6204-6.5418-2.7391-2.7616-2.3165-13.273-6.4883-9.6999-1.5322-3.6504 5.539-14.506-2.3797-11.874 0-4.2111 8.3891-12.026 2.3797-11.874 1.5322-3.6505 9.2169-6.3682 6.4883-9.7001 5.478-5.5232 13.044-8.9409 21.398-8.9409 7.6894 0 14.712 2.896 20.052 7.6646 0.4612 0.4117 0.9098 0.8373 1.3451 1.2763-0.8583 0.4244-1.1298 0.9407-1.0103 1.5258 0.4445 2.1744 6.2912 5.2979 7.4986 8.1743-6.7635-0.3416 2.3796 7.6631 2.3796 11.874z" fill="#fff" stroke="#000" stroke-linecap="round" stroke-linejoin="round" stroke-width="1.8931"/>
  <path d="m1942.1 710.8c-6.1986 9.2413 10.776 27.714-8.1853 40.183-24.771 16.29-60.412 17.938-83.769-4.6478-1.0231-0.9893 0.1146 0.5004-0.3241-1.0425-5.0855-17.881 19.646-27.22 12.702-32.171-0.4529-0.3229-18.88 14.621-16.602 19.555 1.8861 4.0838-0.5169 4.0809-0.2591 4.544 0.277 0.4976 0.8991 5.6303 2.0217 7.929 0.2912 0.7306 0.3862 1.236 0.568 1.6247-0.085 0.2783 3.5603 6.1229 3.2835 6.0315 13.584 16.719 30.742 22.735 51.298 21.946 23.267-0.8929 33.597-5.0811 48.802-26.075l4.1778-10.742-13.714-27.136z" fill-opacity=".3137" fill-rule="evenodd"/>
  <path d="m1864 712.77c4.9097 16.358-28.098 14.895-35.78 42.174-1.4201 5.0422-12.056-15.126 1.6509-35.174 13.329-19.496 28.657-21.664 34.129-6.9997z" fill="#784421" fill-rule="evenodd" stroke="#000" stroke-width="2.2108"/>
  <path d="m1845.7 704.82c-5.1186 2.3514-10.644 7.3325-15.861 14.963-13.706 20.048-3.0741 40.217-1.6541 35.175 0.6073-2.1563 1.3732-4.14 2.2657-5.9601-2.5445-5.9919-4.1883-19.358 4.9236-32.685 3.3782-4.9411 6.8842-8.7697 10.326-11.493zm12.454 20.404c-2.4679 1.4584-5.0988 2.9996-7.7381 4.7751 2.8268-1.678 5.5001-3.2038 7.7381-4.7751z" fill-opacity=".3137" fill-rule="evenodd"/>
  <path d="m1747.8 776.33a6.3017 10.182 0 0 1 -12.603 0 6.3017 10.182 0 1 1 12.603 0z" fill="url(#m)" stroke="#000" stroke-linecap="round" stroke-linejoin="round" stroke-width="2.2111"/>
  <path d="m1732.5 776.33a6.3017 10.182 0 0 1 -12.603 0 6.3017 10.182 0 1 1 12.603 0z" fill="url(#l)" stroke="#000" stroke-linecap="round" stroke-linejoin="round" stroke-width="2.2111"/>
  <path d="m1740.1 776.33a6.3017 10.182 0 0 1 -12.603 0 6.3017 10.182 0 1 1 12.603 0z" fill="url(#k)" stroke="#000" stroke-linecap="round" stroke-linejoin="round" stroke-width="2.2111"/>
  <path d="m1781.8 776.33a6.3017 10.182 0 0 1 -12.603 0 6.3017 10.182 0 1 1 12.603 0z" fill="url(#j)" stroke="#000" stroke-linecap="round" stroke-linejoin="round" stroke-width="2.2108"/>
  <path d="m1766.6 776.33a6.3017 10.182 0 0 1 -12.603 0 6.3017 10.182 0 1 1 12.603 0z" fill="url(#i)" stroke="#000" stroke-linecap="round" stroke-linejoin="round" stroke-width="2.2111"/>
  <path d="m1774.1 776.33a6.3018 10.182 0 0 1 -12.604 0 6.3018 10.182 0 1 1 12.604 0z" fill="url(#h)" stroke="#000" stroke-linecap="round" stroke-linejoin="round" stroke-width="2.2111"/>
  <path d="m1726.2 766.15c-2.5677 0-4.7673 2.4898-5.7489 6.0529 8.3895 2.244 17.607 3.5529 27.294 3.7313-0.1319-5.4327-2.8934-9.7842-6.2879-9.7842-1.4597 0-2.8007 0.8081-3.8694 2.1559-1.0688-1.3478-2.4098-2.1559-3.8694-2.1559-1.4089 0-2.7092 0.7539-3.759 2.0176-1.0498-1.2637-2.3501-2.0176-3.7589-2.0176zm34.051 0c-3.3858 0-6.1429 4.3296-6.2879 9.7427 9.6761-0.3115 18.846-1.7616 27.169-4.132-1.0381-3.3236-3.1652-5.6107-5.6246-5.6107-1.4598 0-2.8008 0.8081-3.8695 2.1559-1.0687-1.3478-2.4097-2.1559-3.8695-2.1559-1.4088 0-2.7091 0.7539-3.7588 2.0176-1.0499-1.2637-2.3501-2.0176-3.7589-2.0176z" fill-opacity=".3137"/>
  <path d="m1823.3 698.46a73.216 73.216 0 0 1 -146.43 0 73.216 73.216 0 1 1 146.43 0z" fill="#784421" stroke="#000" stroke-linecap="round" stroke-width="2.2111"/>
  <path d="m1786.2 735.07c-11.719-2.1773-0.9938 9.5658-2.7907 13.812-7.1036-3.4929-4.397 8.0706-7.6092 11.283-6.0867-0.3255-7.0368 5.8123-11.283 7.6092-5.1305-2.8464-8.9135 2.7908-13.812 2.7908s-7.7969-5.4161-13.812-2.7908c-4.246-1.7969-5.1961-7.7136-11.283-7.6092-3.2123-3.2122-2.7167-15.439-7.6093-11.283-1.7968-4.246 6.496-16.874-2.7907-13.812 0-4.8983 9.8383-13.988 2.7907-13.812 1.797-4.2461 10.809-7.4072 7.6093-11.283 6.4245-6.4245 15.298-10.4 25.095-10.4s18.67 3.9755 25.095 10.4c-4.7477 2.3278 5.8122 7.0367 7.6092 11.283-7.932-0.3973 2.7907 8.9135 2.7907 13.812z" fill="#fff" stroke="#000" stroke-linecap="round" stroke-linejoin="round" stroke-width="2.2111"/>
  <path d="m1814.7 664.16c0.8759 4.5251 1.3406 9.1918 1.3406 13.972 0 1.6495-0.059 3.2836-0.1659 4.906-1.624-0.081-3.3513 0.01-5.1961 0.2764-14.969 3.1594 1.5325 20.137-12.976 43.283-0.8295 0.9384-1.6826 1.8554-2.5585 2.75-13.294 13.578-31.83 22.001-52.319 22.001-13.432 0-26.017-3.6294-36.843-9.95-10.472-24.518 3.5715-51.15-14.884-55.748-20.391-3.6817-28.289 15.237-15.105 43.587 7.2794 15.652 19.335 23.34 28.206 26.326 12.543 10.083 28.476 16.114 45.812 16.114 20.32 0 38.72-8.287 51.989-21.669 7.7184-3.8551 10.413-12.781 16.375-24.527 11.15-21.966 14.903-36.603 3.4697-41.184-1.4018-7.1358-3.8323-13.904-7.1448-20.135z" fill-opacity=".3137" fill-rule="evenodd"/>
  <g transform="matrix(.37426 -.24168 .23556 .38399 1501.2 613.74)" fill-rule="evenodd">
   <path d="m484.36 497.25c-48.111 17.3 14.163 94.143-37.819 161.19-9.6084 12.393 57.868 2.0908 81.723-66.585 23.198-66.786 1.1324-107.54-43.904-94.607z" fill="#784421" stroke="#000" stroke-width="5"/>
   <path transform="translate(162.18 366.2)" d="m337.94 128.66c-0.41261-6e-4 -0.83163 0.0205-1.25 0.0312 16.212 13.065 23.073 43.297 14.781 85.344-11.023 55.895-53.577 80.008-67.719 81.281 4.5921 6.5264 60.971-8.1258 82.344-69.656 20.299-58.438 5.9208-96.95-28.156-97z" fill-opacity=".3137"/>
  </g>
  <path d="m1801.1 678.09c5.9208-2.0382 12.038 3.3537 13.207 6.2707-5.9755-1.5267-8.7205-1.9572-10.268-0.6106 0.6662 1.491 7.6982 2.9815 9.878 12.768-5.4962-3.8105-9.8631-8.2146-11.618-6.4048 1.2743 2.2261 2.7415 6.4111 1.7528 10.561-3.1582-4.1677-6.3852-8.5696-9.3493-8.6888" fill="#784421" fill-rule="evenodd" stroke="#000" stroke-linecap="round" stroke-linejoin="round" stroke-width="2.2111"/>
  <path d="m1729.7 641.95c-13.813 0-25.031 12.971-25.031 28.953s11.219 28.953 25.031 28.953c8.1172 0 15.32-4.4845 19.893-11.422 4.5725 6.9429 11.792 11.422 19.912 11.422 13.812 0 25.031-12.971 25.031-28.953s-11.219-28.953-25.031-28.953c-8.1199 0-15.34 4.4808-19.912 11.422-4.5728-6.9363-11.777-11.422-19.893-11.422z" fill="#fff" stroke="#000" stroke-linecap="round" stroke-width="2.2111"/>
  <path d="m1750.4 690.99c-4.1074 0-8.572 4.5669-8.3934 7.4512s7.3219 14.903 8.929 14.903 7.8577-11.778 7.679-15.143-5.536-7.4514-8.2146-7.211z" fill-opacity=".3137" fill-rule="evenodd"/>
  <path d="m1749.4 686.3c-4.1074 0-8.5718 4.1154-8.3933 6.7146s7.3219 13.429 8.9291 13.429 7.8575-10.614 7.679-13.646-5.536-6.7146-8.2148-6.498z" fill="url(#g)" fill-rule="evenodd" stroke="#000" stroke-width="2.2111"/>
  <path d="m1748 672.86a7.2468 7.2468 0 0 1 -14.494 0 7.2468 7.2468 0 1 1 14.494 0z" stroke="#000" stroke-linecap="round" stroke-width="2.2111"/>
  <path d="m1755.7 646.82c5.8709-14.222 15.772-16.147 15.772-16.147s-5.5073 7.4184-0.5193 5.3547c7.7236-3.1955 32.281 6.8183 32.281 6.8183s-32.536-7.5735-47.534 3.974z" fill="#fff" fill-rule="evenodd" stroke="#000" stroke-linejoin="round" stroke-width="2.2111"/>
  <path d="m1742.3 645.49c-5.8709-14.222-15.772-16.147-15.772-16.147s5.5072 7.4184 0.5192 5.3548c-7.7237-3.1955-32.281 6.8183-32.281 6.8183s32.536-7.5736 47.534 3.9739z" fill="#fff" fill-rule="evenodd" stroke="#000" stroke-linejoin="round" stroke-width="2.2111"/>
  <path d="m1766.4 672.86a7.2468 7.2468 0 0 1 -14.494 0 7.2468 7.2468 0 1 1 14.494 0z" stroke="#000" stroke-linecap="round" stroke-width="2.2111"/>
  <path d="m1740.1 670.32a1.8794 1.8794 0 0 1 -3.7589 0 1.8794 1.8794 0 1 1 3.7589 0z" fill="#fff"/>
  <path d="m1758.4 670.32a1.8795 1.8795 0 0 1 -3.759 0 1.8795 1.8795 0 1 1 3.759 0z" fill="#fff"/>
  <g transform="matrix(.36524 0 0 .36524 1696 613.73)">
   <path d="m561.59 245.84c-7.2559 0-15.143 8.0678-14.827 13.163s12.934 26.326 15.774 26.326 13.881-20.806 13.565-26.751-9.7796-13.163-14.512-12.739z" fill-opacity=".3137" fill-rule="evenodd"/>
   <path d="m516.69 141.45c-30.86 0-55.924 28.979-55.924 64.686s25.064 64.686 55.924 64.686c18.135 0 34.229-10.019 44.445-25.52 10.216 15.512 26.344 25.52 44.487 25.52 30.86 0 55.924-28.979 55.924-64.686s-25.064-64.686-55.924-64.686c-18.141 0-34.271 10.011-44.487 25.52-10.216-15.497-26.312-25.52-44.445-25.52z" fill="#fff" stroke="#000" stroke-linecap="round" stroke-width="4.94"/>
   <g transform="matrix(.988 0 0 .988 373.74 106.88)">
    <path d="m184.55 110.17a16.387 16.387 0 1 1 -32.774 0 16.387 16.387 0 1 1 32.774 0z" stroke="#000" stroke-linecap="round" stroke-width="5"/>
    <path d="m166.5 104.43a4.25 4.25 0 0 1 -8.5 0 4.25 4.25 0 1 1 8.5 0z" fill="#fff"/>
   </g>
   <g transform="matrix(.988 0 0 .988 373.74 106.88)">
    <path d="m226.05 110.17a16.387 16.387 0 1 1 -32.774 0 16.387 16.387 0 1 1 32.774 0z" stroke="#000" stroke-linecap="round" stroke-width="5"/>
    <path d="m208 104.43a4.25 4.25 0 0 1 -8.5 0 4.25 4.25 0 1 1 8.5 0z" fill="#fff"/>
   </g>
   <path d="m559.89 240.15c-7.4312 0-15.509 7.4458-15.185 12.148s13.247 24.297 16.155 24.297 14.216-19.202 13.893-24.688-10.016-12.148-14.862-11.756z" fill="url(#d)" fill-rule="evenodd" stroke="#000" stroke-width="4.0004"/>
   <path d="m569.21 157.54c10.026-24.288 26.936-27.576 26.936-27.576s-9.4051 12.669-0.88662 9.1449c13.19-5.4572 55.129 11.644 55.129 11.644s-55.566-12.934-81.178 6.7866z" fill="#fff" fill-rule="evenodd" stroke="#000" stroke-linejoin="round" stroke-width="3.7761"/>
   <path d="m552.56 157.54c-10.026-24.288-26.936-27.576-26.936-27.576s9.4051 12.669 0.88662 9.1449c-13.19-5.4572-55.129 11.644-55.129 11.644s55.566-12.934 81.178 6.7866z" fill="#fff" fill-rule="evenodd" stroke="#000" stroke-linejoin="round" stroke-width="3.7761"/>
  </g>
  <path d="m1668.2 695.27c-1.5265 7.2992-0.5743 17.102 3.441 28.662 10.549 30.37 40.387 34.93 36.138 29.449-1.8171-2.3438-3.3258-4.7205-4.5605-7.1032-8.3809-2.0083-23.901-10.78-30.914-30.97-2.6001-7.4853-3.9154-14.231-4.1043-20.038zm31.522 2.8054c-0.3905 3.7748-0.8209 7.7883-1.0089 11.995 0.4393-4.3297 0.9196-8.3762 1.0089-11.995z" fill-opacity=".3137" fill-rule="evenodd"/>
  <path d="m1691.1 682.09c21.276 7.6505-6.2634 41.632 16.724 71.283 4.2491 5.4806-25.591 0.9246-36.14-29.446-10.259-29.534-0.5008-47.556 19.415-41.837z" fill="#784421" fill-rule="evenodd" stroke="#000" stroke-width="2.2111"/>
  <path d="m1698.8 678.09c-5.9208-2.0382-12.038 3.3537-13.207 6.2707 5.9754-1.5267 8.7204-1.9572 10.268-0.6106-0.6664 1.491-7.6984 2.9815-9.8782 12.768 5.4963-3.8105 9.8632-8.2146 11.618-6.4048-1.2743 2.2261-2.7415 6.4111-1.7527 10.561 3.1581-4.1677 6.3851-8.5696 9.3493-8.6888" fill="#784421" fill-rule="evenodd" stroke="#000" stroke-linecap="round" stroke-linejoin="round" stroke-width="2.2111"/>
  <path d="m1695.2203,674.00692c-.13-.013-.3225.074-.5527.2901-1.2672,1.7747-2.3392,3.4193-4.2979,4.3809-2.4366,1.3623-3.6771,3.7968-4.1182,6.6057-.1115.8356.01,1.5645.1244,2.3493 .1557,1.5373.7333,1.6365-.8845,2.8883-2.4442-3.4799-5.0491-6.1893-4.0352-12.6725l-3.455,1.3681c-.034,4.0269-.3912,3.1873 1.2852,7.4902 .01.02.041.034.013.042-5.3527-1.3956-4.5526,1.7695 1.6307,2.7915 .031,0 .057.047.069.069 1.6376,1.8833 3.1033,3.9081 4.0215,6.2741-.92-.2301-2.4918-.5691-2.6395-.8431-4.9028-5.3476-10.506-2.776-15.5884,1.1332-.5705.261-.8124.5754-.6633.9536 .09.2269.3347.4835.7601.7324 1.3091.858 2.6026,1.6198 3.897,2.6809 3.245,2.0235 7.848,1.4386 10.641-1.1331 .4221-.5303.8615-1.0431 1.3129-1.5616 .5936-.7075 2.1251.4104 3.0541.8844 .2768,1.6102.3365,3.3819.042,5.3758-.051.2512-.1.508-.1382.7878 0,.02-.01.07-.028.055-7.2756-5.5847-3.1154,1.5732-.5114,3.828 .023.02.03.052.027.083-.288,4.481.6832,8.9559 2.985,14.3722 1.0549,2.3878 1.3815,2.7058 2.9851,4.7954 .034.043.1385.1841.069.1935-6.4918.933-2.4379,1.6702 2.8606,3.7313 .065.025.061.087.097.1381 3.1204,4.6797 4.0303,9.227 8.2066,13.0405-1.3348-5.048-3.4921-11.2648-3.7499-13.082-1.674-2.6452-3.2701-5.2333-5.8939-8.1949-1.3518-1.903-2.2859-4.6226-2.9159-7.504-.014-.07-.072-.1522-.028-.2211 2.2915-3.5534 6.2359-8.4222-.7325-4.6295-.06.032-.062-.043-.069-.097-.455-2.9741-.1917-3.4114-.042-5.6936 .6972-6.2548-.4345-9.9694-2.0176-12.8245 .4362-.5429.7435-.9405 1.4095-1.4234 .7063-.5118 1.2954-.9699 3.0266-1.1332 2.1404-.1855 4.1452-1.829 5.4173-4.2426 .3427-.6663.624-1.6717.7185-2.7086 .2605-1.3913-.2699-2.4589-.9121-3.593-.7717-1.3432-1.3832-3.0833-1.3405-4.4775 .2755-.7495.2447-1.2711-.042-1.2991l.0001.0001zm9.2894,81.0456c.79,3.4291 1.3476,6.8677 1.6721,10.1988l4.6157.7325-.304-2.0591c-.591-2.9921-1.2294-5.9461-1.9486-8.8722h-4.0352z" fill="#89a02c" stroke="#060606" stroke-linecap="round" stroke-linejoin="round" stroke-width="1.5419"/>
  <path d="m1687.1 690.92c3.7768-3.7654 6.3074-8.5438 7.4461-14.454-1.8549 5.2709-3.9408 10.375-7.4461 14.454z" fill="#2d4320"/>
  <path d="m1682.9 696.7c-3.6427-0.8034-8.6723-0.6809-15.251 0.4761 5.7162-0.608 11.2-1.0506 15.251-0.4761z" fill="#2d4320"/>
  <path d="m1672.5153,647.57432c-.6859.1741-.9261,1.061-1.2871,1.7567-.3283.2632-.859.977-1.3518,1.6095-.6795.6298-1.304,1.2705-.8912,2.4231-.5298-.4841-1.1609-.77-1.761-.5025-.9091.4053-1.4149-.3382-1.9901-.4403-3.4898-.6194-3.0421,2.7993-3.4585,4.2348-.08,1.0413-.1763,2.1365-.2626,3.1967l-.1261-.1251c-3.9149.9662-2.27,3.3132-5.0577,5.6449-1.0365,1.1666-2.3431,2.2209-1.4075,4.1876 3.7693,4.2734 2.9059,9.3322 10.3224,6.6289 1.3994-.4108 2.4298-.7205 3.218-.977-.072.081-.1488.1622-.2152.2438-1.7362,2.3613-.092,4.056 2.5092,4.6178 2.1915.4108 5.1343-.1018 6.367.3836 2.334,1.0753 2.9621-.5682 4.1643-1.2845 2.718-1.8271 6.8454-4.188 5.0592-7.1827 .2835.072.609.1416.9813.2086 1.0026.1074 3.9564.023 4.5223-2.538 .3815-1.2761 2.1002-3.5151 2.834-4.0337 .8639-.881 5.05-2.5179 2.9267-4.3884-1.1462-1.253-2.2398-1.6637-3.1018-2.2439-.315-.2121-.5096-.4612-.7393-.8654-1.9508-3.4867-3.8997-3.1477-5.8532-2.9012 .028-.1535.052-.3033.076-.4543 .1851-1.2785.3078-2.5662.5236-3.8358 .077-1.1777-1.0763-2.2158-2.2955-1.9637-.8497.058-1.2941-.2432-1.1995-1.0287 .2118-1.6493-1.1771-1.0851-1.8707-.868-1.3822.5347-2.7393,1.7078-4.0902,3.0777-.5222-.2626-1.1231-.4447-1.9076-.4971l-.01-.1307c-.083-1.2249-.8293-1.7637-2.0602-1.2589-.3788.3171-.7086.1973-.9969-.2123-.7126-.4611-1.2034-.5744-1.5713-.4815z" stroke="#000" stroke-width="4.0797"/>
  <path d="m1686.9549,655.32342c2.2738-.1269 4.5484-1.258 6.8194,2.8006 .2297.4042.4193.6538.7344.8659 .8619.5802 1.9594.9966 3.1055,2.2495 2.1233,1.8706-2.066,3.5038-2.9299,4.3848-.7338.5185-2.4501,2.7574-2.8315,4.0335-.5659,2.5614-3.5241,2.6445-4.5267,2.5373-3.0304-.5459-2.8734-1.2431-3.4588-2.1274l3.0876-14.7442z" fill="#e52e33" stroke="#6e4747" stroke-width=".06851"/>
  <path d="m1686.4717,655.23872c-3.3643-1.5023-6.3364.036-8.5668,1.67-3.791,3.9842.6051,7.232 2.5598,10.6994 .1343,3.3883 6.087,4.3902 8.5057,1.5869 .8903-1.1077 1.8328-4.1353 2.2298-5.6174 1.457-2.174 2.6232-5.3369-1.4046-7.0184-1.7122-.6488-2.1693-.3685-3.3239-1.3205z" fill="#b30e24" stroke="#6e4747" stroke-width=".06851"/>
  <path d="m1683.6 669.52c6.7504 4.1975 1.0804 7.3452-2.344 9.6471-1.2021 0.7164-1.8324 2.3642-4.1664 1.2889-1.2326-0.4853-4.1716 0.027-6.363-0.3839-2.601-0.5619-4.2452-2.2577-2.509-4.619 1.7538-2.1516 5.5297-4.2557 4.4472-4.0461l10.935-1.887z" fill="#e52e33" stroke="#6e4747" stroke-width=".06851"/>
  <path d="m1670 651.95 8.103-1.9387 1.8489 7.7276-9.5865 1.2682-0.3654-7.0571z" fill="#800000" stroke="#6e4747" stroke-linejoin="round" stroke-width=".06851"/>
  <path d="m1669.2758,676.11522c-.5987-2.0137.4835-3.5942 1.5645-4.7471 1.3149,3.4343 3.4601,4.8216 5.1275,4.444 2.5038-.567 4.0161-.2417.1312,3.16-.6877.4286-1.6193.2825-2.4812.4051-2.7005.583-3.2061-1.4854-4.342-3.262z" fill="#b30e24" stroke="#6e4747" stroke-width=".06851"/>
  <path d="m1673.5 671.98c-3.8576 2.5872-0.2404 1.8637-8.2109 4.2039-7.4165 2.7033-6.5586-2.3571-10.328-6.6305-0.9355-1.9666 0.3748-3.0221 1.4112-4.1887 2.7877-2.3317 1.1416-4.6811 5.0564-5.6473l12.071 12.263z" fill="#e52e33" stroke="#6e4747" stroke-width=".06851"/>
  <path d="m1659.5 662.7c2.4453-2.339 5.7471-2.4996 8.4156-2.302 5.0168 1.1392 2.3336 5.0499 1.9462 8.1342 1.2283 2.3065-5.2028 4.8347-8.5078 3.9342-1.2467-0.382-1.8605-1.5103-2.81-2.3378-1.2749-1.1289-2.444-2.5277-1.1495-4.7629 1.2905-1.1135 1.4402-1.5727 2.1055-2.6657z" fill="#b30e24" stroke="#6e4747" stroke-width=".06851"/>
  <path d="m1676.1149,664.52312c-3.8576,2.5871 2.7282,4.0068-5.2423,6.347-7.8001,2.565-9.4693-1.5069-10.0759-3.37-.1183-.3631-.8317-.7859.1605-1.3646 .402-.2344.5307-.3904.4944-1.037-.3427-1.7677.084-5.3373.3234-8.4424 .4164-1.4356-.031-4.8534 3.4586-4.234 .5753.1021 1.0841.8402 1.9932.435 .7752-.3455 1.6051.237 2.1966.9696l6.6915,10.6964z" fill="#b30e24" stroke="#6e4747" stroke-width=".06851"/>
  <path d="m1664.7347,663.76932c1.3322-1.6245 3.2476-1.6142 4.8084-1.3653 2.9639,1.0325 1.5543,3.8032 1.4488,6.0557 .8045,1.7434-2.8401,3.3519-4.7985,2.5615-.7404-.3293-1.1415-1.1827-1.7262-1.8278-.7859-.8796-1.5207-1.9533-.8535-3.5465 .7078-.7683.777-1.1001 1.1217-1.8778z" fill="#800000" stroke="#6e4747" stroke-width=".06851"/>
  <path d="m1676 672.5-0.7904 0.012c3.8379-3.8753 7.6679-7.7554 12.219-11.193 1.1515 2.8356-2.8592 13.232-11.428 11.182z" fill="#e52e33" stroke="#6e4747" stroke-linejoin="round" stroke-width=".06851"/>
  <path d="m1679.3257,656.52422-.3735-6.2613c1.3864-1.4168 2.78-2.6388 4.1988-3.1877 .6938-.2171 2.0817-.7825 1.8698.867-.095.7854.3518,1.0878 1.2017,1.0302 1.2191-.2521 2.3741.7882 2.2971,1.9659-.216,1.2697-.3401,2.5546-.525,3.8332-.437,2.7892-1.6266,6.0928-1.5112,6.0933l-3.6078,2.8342-3.5499-7.1748z" fill="#b30e24" stroke="#6e4747" stroke-linejoin="round" stroke-width=".06851"/>
  <path d="m1672.1 660.18 10.316-7.0659c3.3318 3.0812 3.1333 5.8796 2.6665 8.6566l-5.0821 4.8874c-2.6335-2.1594-6.8203-3.5377-7.9006-6.4781z" fill="#e52e33" stroke="#6e4747" stroke-linejoin="round" stroke-width=".06851"/>
  <path d="m1681.3 664.37c-0.7015-3.5064-4.6312-5.3463-3.5882-6.3055 1.33-1.2231-2.0945-0.021 1.9432-2.7841 2.9881-0.8248 3.2319 5.6807 3.4419 7.9835-0.01 1.1688-0.8676 1.9458-1.7969 1.1061z" fill="#b30e24" stroke="#6e4747" stroke-width=".06851"/>
  <path d="m1666.1332,659.71782c10.7641,6.7978 15.4262.7633 15.6262,4.9151l-3.3322,2.6749c-.3413,4.1574-2.2932,4.9321-5.917,4.6222-1.1549-.1575-3.0053-1.1851-3.5589-1.9893-.9469-1.0858-4.4184-4.7894-2.9205-10.0561-.018-.075.028-.149.1024-.1668z" fill="#e52e33" stroke="#6e4747" stroke-width=".06851"/>
  <path d="m1673.3421,670.38322c1.8771-2.7136 1.0591-6.4902 2.3841-6.2777 1.7839.2861-1.281-1.6574 3.3893-.1997 6.931-1.6058-2.4004,6.0276-4.134,7.6483-.3129.2311-.4469.2349-.8018.2896-1.1042.1702-1.6597-.07-1.3534-.7246 .1345-.2692.3381-.4946.5158-.7359z" fill="#b30e24" stroke="#6e4747" stroke-width=".06851"/>
  <path d="m1680.1381,672.34232c-1.8348.4566-3.1257-.3668-4.0395-1.1897-.158-.988.2673-2.1574 2.3466-2.4216 1.1268-.1432 2.1573-.8288 2.0678-1.4851-.2599-1.9068.1724-3.0587 2.8016-.1013 .3122.5235.094,1.2331.1191,1.8896 .2553,2.0564-1.6187,2.4424-3.2956,3.3081z" fill="#b30e24" stroke="#6e4747" stroke-width=".06851"/>
  <path d="m1683.6733,662.82732c.4099-.2124 1.7445-1.6198 1.8306-1.6143 2.9277-3.0436 2.9975-2.2826 3.2494-1.2865-.055.7776-1.268.9845-1.5374,1.7388 .1546,1.2403-.8325,1.5337-1.5568,2.0452-.7442.4935-1.5204.9386-1.8862,2.0053-.094.8221.2883,1.6435-1.0219,2.4669 .018.075-.932.084-1.0066.1024-.9834.113-1.7239.4396-1.8808,1.409 .077.654-1.5573,1.6128-1.6585,1.1901 .088-1.0777-1.6768,2.1254-2.8018,1.8438-1.4291-.056-1.7533-1.0908-.4123-2.2972 .9927-.9208 2.6891-1.343 3.4279-3.0715 .4597-1.0756 1.6598-1.6495 2.7075-2.2279 .8895-.4669.3884-1.5121 2.5469-2.3041z" fill="#e52e33" stroke="#6e4747" stroke-linejoin="round" stroke-width=".06851"/>
  <path d="m1668.3669,653.85392c.3654-.335.6917-.5023.7992.2705-.099,2.0836.4605,3.9385 1.1685,5.7418l-3.1274-.9056c.1222-1.5976-.5119-2.8959 1.1597-5.1067z" fill="#b30e24" stroke="#6e4747" stroke-linejoin="round" stroke-width=".06851"/>
  <path d="m1665.3831,656.97372c1.5276,1.3771 3.3522,2.6049 5.6194,3.6101 .5317.3366 1.0426.3222 1.639.3197 .9004.058 1.5413.4449 2.1493,1.2823 .7987.7983 1.6576.4262 2.5025.3207 .6597.028 1.3211.038 1.9647.2517l1.474.1889c1.8617-.098 1.3463.5986-.068,1.5951-.9331.4751-4.1268,1.2493-5.6649,1.3568-1.0033.1415-1.949-.2467-2.855-1.0009-.433-.4933-2.1583-2.5233-2.8849-2.4692-1.3636.4481-1.6024-.8616-2.2428-1.5153-.8921-.8025-1.5101-1.7474-2.194-2.6583-.7825-.9853-.7327-2.7157.5606-1.2822z" fill="#e52e33" stroke="#6e4747" stroke-width=".06851"/>
  <path d="m1675.6419,649.69882c3.3996-.3804 4.0749,1.0413 6.0556,2.2226 .6512.1298 1.105.349.3115,1.1323-1.0954,3.1705-4.0569,1.7186-4.745,1.3508-1.3969-1.0359-1.0814-3.1372-1.6221-4.7057z" fill="#b30e24" stroke="#6e4747" stroke-linejoin="round" stroke-width=".06851"/>
  <path d="m1672.0118,659.13422c.4599-.8454 1.4932-.9203 2.3031-1.2954 .6059-.2342.9481-.6306 1.303-1.0193 .5475-.5872 1.0171-.8775 1.3835-1.0147 .4612-.08.6905-.1718.9835-.528 .4387-.4442.8269-.6697 1.1714-.7082 .3462-.01.7057-.521 1.0691-1.1848 .2104-.3976.3821-.8295.9708-.8918 .4688-.1728.7191-.4798.8264-.8746 .5225-1.2139 1.5125-.6388 2.1189-.2641 .2144.1677.6845.3516-.138.7239-.3567.1144-.681.2779-.7649.8056-.3365.5355-.2989,1.2821-1.3239,1.6322-.2272.077-.3115.1375-.5441.3352-.1739.2645-.6672.4545-1.2099.6332-.3928.1222-.9403.7926-1.5355,1.6385-.8851.9176-1.4307,2.0436-3.7893,2.0568-.8695-.1012-1.7939.1351-1.9056,1.1138 .019.3774-.011.4914-.3472.6659-.7051.2812-.8388-1.0601-.5713-1.8242z" fill="#b30e24" stroke="#6e4747" stroke-linejoin="round" stroke-width=".06851"/>
  <path d="m1670.747,649.97692c1.0091-.8107.8096-3.5639 3.3433-1.9245 .2883.4094.6126.5306.9913.2135 1.2309-.505 1.98.038 2.0638,1.2627l.2012,2.8715c.015,1.4493-2.2101,1.8447-4.0777,1.7917-1.7819-.051-1.7489-.289-1.8108-1.2427-.8738-.697-.9562-1.7591-.7111-2.9722z" fill="#b30e24" stroke="#6e4747" stroke-linejoin="round" stroke-width=".06851"/>
  <path d="m1669.8782,650.93982c1.0168-1.305 2.2022-2.9882 1.4148-.2451-1.5562,3.066-.8314,5.1388-.6074,8.2145-.065.7395-.2049,1.1001-.5759.301-.4054-1.9377-.9188-5.0423-1.1224-5.8354-.4229-1.1614.2087-1.8027.8908-2.4351z" fill="#b30e24" stroke="#6e4747" stroke-linejoin="round" stroke-width=".06851"/>
  <path d="m1671.372,651.61152c.4609-.5148 1.0022-.2165 1.4219-.1145 .5231.083 1.0831.1331 1.8119.043 .4261-.067.7487.2616-.076.3974-.722.2157-1.6609.3152-2.0972.684-.3605.3234-.7952.2324-.9228.1507-.416-.3728-.3334-.7642-.1372-1.16z" fill="#b30e24" stroke="#6e4747" stroke-linejoin="round" stroke-width=".06851"/>
  <path d="m1670.3852,652.61152c-.592-1.0614.3825-.6538.799-.234l3.1553,3.1161c.5285.4249.8505,1.5234.1205.987-1.1032-.8305-4.9866-2.8545-3.9753-1.797 .2536.2651-.2508,1.9432-.7717,1.6481-.092-.1268-.083-2.0148.26-2.3041 .251-.2121-.14-.6603.203-.943 .277-.1695.3473-.163.2093-.4731z" fill="#b30e24" stroke="#6e4747" stroke-linejoin="round" stroke-width=".06851"/>
  <g transform="matrix(.9563 -.2924 .2924 .9563 -124.07 603.33)" fill-rule="evenodd">
   <path d="m1947 701.92c-13.727 8.1788 9.9637 28.036-1.9818 51.708-2.208 4.3755 17.878-2.8123 21.097-25.304 3.1308-21.873-6.0709-33.058-19.115-26.403z" fill="#784421" stroke="#000" stroke-width="2.2108"/>
   <path d="m1951.7 700.25-0.3817 0.084c5.7534 3.0404 9.6626 11.906 9.6282 25.3-0.046 17.805-11.661 27.742-15.924 28.977 1.7984 1.7281 18.22-6.1318 21.104-26.284 2.7395-19.139-3.9699-30.096-14.427-28.077z" fill-opacity=".3137"/>
  </g>
  <g transform="matrix(1.045 0 0 .98027 41.884 -262.83)">
   <path d="m1771.5 911.22c-3.5496 1.1724-5.5021 2.6874-6.102 4.794-3.943 13.43 6.6728 21.182 15.361 23.072 9.1236-4.0925 15.768-13.488 15.422-20.49-0.2615-3.5425-0.8448-6.1908-4.8191-7.5889-6.4172 1.0916-14.985 1.2506-19.861 0.21237" fill="#da0000" stroke="#000" stroke-miterlimit="0" stroke-width="1.8885"/>
   <path d="m1747.1 921.24c2.4465-1.4992 4.8432-1.9654 7.5619-1.4328 17.366 3.3293 23.648 12.449 23.41 18.079-7.5916 3.4088-20.869 3.2497-29.226 0.1724-4.2031-1.6049-7.2326-3.0213-7.7677-5.8161 3.1813-3.1336 5.8602-7.8518 6.0217-11.002" fill="#da0000" stroke="#000" stroke-miterlimit="0" stroke-width="2.0692"/>
   <path d="m1747.1 921.42c-0.02 0.6259-0.2709 1.0104-0.2571 1.7883 5.7817-0.39298 21.845 2.1935 29.762 11.664l0.2933-0.86217c-10.426-10.797-25.186-13.383-29.798-12.59"/>
   <path d="m1741.6 931.74c0.512-0.46714 0.6523-0.88738 1.3167-1.4466 3.883 3.5098 19.52 10.067 32.732 6.7512l0.3584 0.86216c-15.232 2.9844-31.713-3.0171-34.408-6.1667"/>
   <path d="m1764.2 935.74c-0.7436 0.3532-9.663-0.091-17.546-3.7835-5.3096-1.8243 2.4794-4.6573 5.3261-10.725 11.036 2.7751 17.208 3.2592 21.671 10.93-3.9407-4.7049-9.6456-6.0233-15.211-5.6427-1.2808 0.0893-0.5325 1.7033-1.6499 2.592-1.4525 1.1551-4.4798 1.7572-3.0116 3.0978 3.2201 2.5507 6.2458 3.2465 10.422 3.5315" fill="#fff" fill-opacity=".2667"/>
   <path d="m1777.3 932.75h-0.5861c-0.096 3.2828-0.1145 3.1767-0.03 6.4596l0.5947 0.0663c-0.1001-3.1303-0.1086-3.1038 0.021-6.5259"/>
   <path d="m1782.4 928.21c-1.6438-1.5924-2.3119 8.8344-4.9071 8.5267s1.7794-8.9985-0.085-8.6732c-3.2389 1.009-2.6982 9.0882-0.103 9.3958s7.1188-7.6316 5.0952-9.2494" fill="#b50000" stroke="#ba0000" stroke-miterlimit="0" stroke-width=".05813"/>
   <path d="m1790.3 910.98c-0.6217 0.1507-1.1653 0.15009-1.912 0.35231 4.0286 2.9438 4.3537 6.9158 3.2907 14.593l1.8426-0.33412c1.263-7.7326 0.9503-11.113-3.2213-14.611"/>
   <path d="m1781.7 934.86c0.8952-0.20459 13.606-9.6551 12.479-17.668 0.1871-4.8762-14.407-0.85875-24.567-3.7803-2.5414 10.28 0.1108 14.026 8.7157 22.947-4.6454-6.252-8.0313-11.307-4.5615-14.617 0.782-0.86216 3.4538-3.7935 6.8586 1.4458 5.262-5.1862 6.9726-1.7906 7.168-0.5173 1.9488 4.0921-4.3041 9.2581-6.0928 12.19" fill="#fff" fill-opacity=".2667"/>
   <path d="m1811.6 921.24c-2.4465-1.4992-4.8431-1.9654-7.5619-1.4328-17.366 3.3293-23.648 12.449-23.41 18.079 7.5917 3.4088 20.869 3.2497 29.226 0.17241 4.2031-1.605 7.2326-3.0213 7.7677-5.8161-3.1812-3.1336-5.8603-7.8518-6.0217-11.002" fill="#da0000" stroke="#000" stroke-miterlimit="0" stroke-width="1.922"/>
   <path d="m1771.8 911.07c0.5864 0.22548 1.124 0.2918 1.8245 0.58361-4.5288 2.4141-5.5877 6.3004-5.9625 14.02l-1.7594-0.55708c0.1873-7.7993 1.124-11.102 5.8974-14.047"/>
   <path d="m1791 934.35c-2.3816-2.8963-5.955 1.8242-12.097 1.8242s-9.0649-4.2244-11.552-1.7548c-0.7345 1.7335 5.5563 2.3149 11.698 2.3149s12.223-1.0081 11.95-2.3842" fill="#b50000" stroke="#ba0000" stroke-miterlimit="0" stroke-width=".07754"/>
   <path d="m1811.6 921.42c0.02 0.62592 0.2708 1.0104 0.257 1.7883-5.7817-0.39299-21.845 2.1935-29.762 11.664l-0.2932-0.86216c10.426-10.797 25.186-13.383 29.798-12.59"/>
   <path d="m1817.1 931.74c-0.512-0.46712-0.6523-0.88737-1.3167-1.4466-3.883 3.5098-19.52 10.067-32.732 6.7512l-0.3584 0.86217c15.232 2.9844 31.713-3.0171 34.408-6.1667"/>
   <path d="m1776.9 932.74h4.5505c1.0853 0 1.9651 1.0425 1.9651 2.3285v1.8394c0 1.286-0.8798 2.3285-1.9651 2.3285h-4.5505c-1.0852 0-1.9649-1.0425-1.9649-2.3285v-1.8394c0-1.286 0.8797-2.3285 1.9649-2.3285" fill="#b50000" stroke="#ba0000" stroke-miterlimit="0" stroke-width=".11884"/>
   <path d="m1794.5 935.74c0.7436 0.3532 9.663-0.091 17.546-3.7835 5.3096-1.8243-2.4794-4.6573-5.3261-10.725-11.036 2.7751-17.208 3.2592-21.671 10.93 3.9407-4.7049 9.6456-6.0233 15.211-5.6427 1.2808 0.0893 0.5325 1.7033 1.65 2.592 1.4524 1.1552 4.4798 1.7572 3.0115 3.0978-3.22 2.5507-6.2459 3.2465-10.422 3.5315" fill="#fff" fill-opacity=".2667"/>
   <path d="m1781.4054,932.74614h.5862c.096,3.28285.1144,3.17674.03,6.45959l-.5947.0663c.1001-3.13031.1086-3.10379-.021-6.52591"/>
   <path d="m1777.4 932.75h-0.6938c-0.1143 3.2828-0.1217 3.2431-0.022 6.5259h0.6763c-0.118-3.1303-0.1147-3.1038 0.039-6.5259"/>
   <path d="m1777.6 932.73h3.4171c1.3662 0 2.4737 0.73194 2.4737 1.6348v3.2697c0 0.90291-1.1075 1.6349-2.4737 1.6349h-3.4171c-1.3663 0-2.4738-0.73195-2.4738-1.6349v-3.2697c0-0.90291 1.1075-1.6348 2.4738-1.6348" fill="url(#f)"/>
  </g>
  <path d="m2052.6 730.96c3.6179-1.2454 7.3556 2.0493 8.0701 3.8317-3.6513-0.93287-5.3286-1.1959-6.274-0.37309 0.4071 0.91106 4.7039 1.8218 6.0359 7.8015-3.3584-2.3284-6.0268-5.0195-7.0992-3.9136 0.7786 1.3602 1.6751 3.9175 1.071 6.453-1.9298-2.5466-3.9016-5.2364-5.7128-5.3092" fill="#784421" fill-rule="evenodd" stroke="#000" stroke-linecap="round" stroke-linejoin="round" stroke-width="1.151"/>
  <path d="m1985.1 730.96c-3.6179-1.2454-7.3556 2.0493-8.0701 3.8317 3.6513-0.93287 5.3286-1.1959 6.274-0.37309-0.4071 0.91106-4.7039 1.8218-6.0359 7.8015 3.3584-2.3284 6.0268-5.0195 7.0992-3.9136-0.7786 1.3602-1.6751 3.9175-1.071 6.453 1.9298-2.5466 3.9016-5.2364 5.7128-5.3092" fill="#784421" fill-rule="evenodd" stroke="#000" stroke-linecap="round" stroke-linejoin="round" stroke-width="1.151"/>
 </g>
</svg>
