<?xml version="1.0" encoding="UTF-8"?>
<svg viewBox="0 0 377.91574 369.67596" xmlns="http://www.w3.org/2000/svg" xmlns:xlink="http://www.w3.org/1999/xlink">
 <defs>
  <linearGradient id="b">
   <stop stop-color="#ffb142" offset="0"/>
   <stop stop-color="#c87600" offset="1"/>
  </linearGradient>
  <linearGradient id="c" x1=".44094" x2=".66688" xlink:href="#b"/>
  <linearGradient id="a" x2="0" y1=".53309" y2=".83886" xlink:href="#b"/>
 </defs>
 <path d="m194 330.65c0 12.716-6.38 23.024-14.25 23.024s-14.25-10.308-14.25-23.024 6.3799-23.024 14.25-23.024 14.25 10.308 14.25 23.024z" fill="url(#a)" stroke="#000" stroke-linecap="round" stroke-linejoin="round" stroke-width="2.8687"/>
 <path d="m159.5 330.65c0 12.716-6.38 23.024-14.25 23.024s-14.25-10.308-14.25-23.024 6.3799-23.024 14.25-23.024 14.25 10.308 14.25 23.024z" fill="url(#a)" stroke="#000" stroke-linecap="round" stroke-linejoin="round" stroke-width="2.8687"/>
 <path d="m176.5 330.65c0 12.716-6.38 23.024-14.25 23.024s-14.25-10.308-14.25-23.024 6.3799-23.024 14.25-23.024 14.25 10.308 14.25 23.024z" fill="url(#a)" stroke="#000" stroke-linecap="round" stroke-linejoin="round" stroke-width="2.8687"/>
 <path d="m271 330.65c0 12.716-6.3799 23.024-14.25 23.024s-14.25-10.308-14.25-23.024 6.3799-23.024 14.25-23.024 14.25 10.308 14.25 23.024z" fill="url(#a)" stroke="#000" stroke-linecap="round" stroke-linejoin="round" stroke-width="2.8687"/>
 <path d="m236.5 330.65c0 12.716-6.38 23.024-14.25 23.024s-14.25-10.308-14.25-23.024 6.3799-23.024 14.25-23.024 14.25 10.308 14.25 23.024z" fill="url(#a)" stroke="#000" stroke-linecap="round" stroke-linejoin="round" stroke-width="2.8687"/>
 <path d="m253.5 330.65c0 12.716-6.38 23.024-14.25 23.024s-14.25-10.308-14.25-23.024 6.3799-23.024 14.25-23.024 14.25 10.308 14.25 23.024z" fill="url(#a)" stroke="#000" stroke-linecap="round" stroke-linejoin="round" stroke-width="2.8687"/>
 <path d="m145.25 307.62c-5.8064 0-10.78 5.6303-13 13.688 18.971 5.0743 39.814 8.0342 61.719 8.4375-0.29837-12.285-6.5429-22.125-14.219-22.125-3.3009 0-6.3333 1.8275-8.75 4.875-2.4167-3.0475-5.4491-4.875-8.75-4.875-3.1858 0-6.126 1.7048-8.5 4.5625-2.374-2.8577-5.3142-4.5625-8.5-4.5625zm77 0c-7.6562 0-13.891 9.7905-14.219 22.031 21.881-0.70435 42.616-3.9836 61.438-9.3438-2.3472-7.5156-7.1571-12.688-12.719-12.688-3.3009 0-6.3333 1.8275-8.75 4.875-2.4167-3.0475-5.4491-4.875-8.75-4.875-3.1858 0-6.126 1.7048-8.5 4.5625-2.374-2.8577-5.3142-4.5625-8.5-4.5625z" fill-opacity=".31372"/>
 <path d="m364.66 154.56c0 91.439-74.126 165.56-165.56 165.56s-165.56-74.126-165.56-165.56 74.126-165.56 165.56-165.56 165.56 74.126 165.56 165.56z" fill="#784421" stroke="#000" stroke-linecap="round" stroke-width="5"/>
 <path d="m280.93 237.35c-26.5-4.9236-2.2474 21.631-6.3107 31.233-16.063-7.8984-9.9427 18.25-17.207 25.514-13.764-0.73608-15.912 13.143-25.514 17.207-11.602-6.4366-20.156 6.3107-31.233 6.3107s-17.631-12.247-31.233-6.3107c-9.6016-4.0634-11.75-17.443-25.514-17.207-7.2639-7.2639-6.1432-34.912-17.207-25.514-4.0634-9.6016 14.689-38.156-6.3107-31.233 0-11.076 22.247-31.631 6.3107-31.233 4.0634-9.6016 24.443-16.75 17.207-25.514 14.528-14.528 34.594-23.517 56.747-23.517s42.219 8.9896 56.747 23.517c-10.736 5.2639 13.143 15.912 17.207 25.514-17.937-0.89842 6.3107 20.156 6.3107 31.233z" fill="#fff" stroke="#000" stroke-linecap="round" stroke-linejoin="round" stroke-width="4.4118"/>
 <path d="m345.38 77c1.9806 10.232 3.0312 20.785 3.0312 31.594 0 3.7299-0.13178 7.4251-0.375 11.094-3.6726-0.18282-7.5783 0.01904-11.75 0.625-35.215 7.4987-20.173 51.664-29.344 97.875-30.342 34.329-74.709 55.969-124.09 55.969-30.373 0-58.832-8.2072-83.312-22.5-23.679-55.443 8.0762-115.66-33.656-126.06-46.11-8.3254-63.97 34.456-34.156 98.562 16.461 35.394 43.723 52.78 63.781 59.531 28.363 22.8 64.392 36.438 103.59 36.438 45.95 0 87.557-18.739 117.56-49 17.454-8.7175 36.862-24.595 50.344-51.156 25.212-49.671 20.385-87.078-5.4688-97.438-3.1699-16.136-8.666-31.442-16.156-45.531z" fill-opacity=".31372" fill-rule="evenodd"/>
 <path d="m65.737 117.54c48.111 17.3-14.163 94.143 37.819 161.19 9.6084 12.393-57.868 2.0908-81.723-66.585-23.198-66.786-1.1324-107.54 43.904-94.607z" fill="#784421" fill-rule="evenodd" stroke="#000" stroke-width="5"/>
 <path d="m332.18 117.54c-48.111 17.3 14.163 94.143-37.819 161.19-9.6084 12.393 57.868 2.0908 81.723-66.585 23.198-66.786 1.1323-107.54-43.904-94.607z" fill="#784421" fill-rule="evenodd" stroke="#000" stroke-width="5"/>
 <path d="m314.5 108.5c13.389-4.609 27.221 7.5839 29.865 14.18-13.512-3.4523-19.72-4.4258-23.218-1.3807 1.5067 3.3714 17.408 6.7419 22.337 28.871-12.429-8.6166-22.304-18.576-26.272-14.483 2.8816 5.0339 6.1995 14.497 3.9636 23.881-7.1415-9.4244-14.439-19.378-21.142-19.648" fill="#784421" fill-rule="evenodd" stroke="#000" stroke-linecap="round" stroke-linejoin="round" stroke-width="5"/>
 <path d="m153.14 26.764c-31.234 0-56.603 29.331-56.603 65.472s25.369 65.472 56.603 65.472c18.356 0 34.644-10.141 44.985-25.829 10.34 15.7 26.664 25.829 45.027 25.829 31.234 0 56.603-29.331 56.603-65.472s-25.369-65.472-56.603-65.472c-18.361 0-34.687 10.133-45.027 25.829-10.341-15.685-26.631-25.829-44.985-25.829z" fill="#fff" stroke="#000" stroke-linecap="round" stroke-width="5"/>
 <path d="m199.84 137.67c-9.288 0-19.384 10.327-18.98 16.85s16.557 33.699 20.191 33.699 17.768-26.633 17.364-34.243-12.519-16.85-18.576-16.306z" fill-opacity=".31372" fill-rule="evenodd"/>
 <path d="m197.72 127.06c-9.288 0-19.384 9.3062-18.98 15.184s16.557 30.368 20.191 30.368 17.768-24 17.364-30.857-12.519-15.184-18.576-14.694z" fill="url(#c)" fill-rule="evenodd" stroke="#000" stroke-width="5"/>
 <path d="m194.55 96.665c0.00395 9.0532-7.3339 16.394-16.387 16.394s-16.391-7.3411-16.387-16.394 7.334-16.394 16.387-16.394 16.391 7.3412 16.387 16.394z" stroke="#000" stroke-linecap="round" stroke-width="3.1693"/>
 <path d="m83.143 108.5c-13.389-4.609-27.221 7.5839-29.865 14.18 13.512-3.4523 19.72-4.4258 23.218-1.3807-1.5067 3.3714-17.408 6.7419-22.337 28.871 12.429-8.6166 22.304-18.576 26.272-14.483-2.8816 5.0339-6.1995 14.497-3.9636 23.881 7.1415-9.4244 14.439-19.378 21.142-19.648" fill="#784421" fill-rule="evenodd" stroke="#000" stroke-linecap="round" stroke-linejoin="round" stroke-width="5"/>
 <path d="m211.97 37.783c13.276-32.16 35.666-36.513 35.666-36.513s-12.453 16.775-1.174 12.109c17.465-7.2259 72.997 15.418 72.997 15.418s-73.574-17.126-107.49 8.9862z" fill="#fff" fill-rule="evenodd" stroke="#000" stroke-linejoin="round" stroke-width="5"/>
 <path d="m181.53 34.783c-13.276-32.16-35.666-36.513-35.666-36.513s12.453 16.775 1.174 12.109c-17.465-7.2259-72.997 15.418-72.997 15.418s73.574-17.126 107.49 8.9862z" fill="#fff" fill-rule="evenodd" stroke="#000" stroke-linejoin="round" stroke-width="5"/>
 <path d="m236.05 96.665c0.00395 9.0532-7.3339 16.394-16.387 16.394s-16.391-7.3411-16.387-16.394 7.334-16.394 16.387-16.394 16.391 7.3412 16.387 16.394z" stroke="#000" stroke-linecap="round" stroke-width="3.1693"/>
 <path d="m176.5 90.926c0 2.3472-1.9028 4.25-4.25 4.25s-4.25-1.9028-4.25-4.25 1.9028-4.25 4.25-4.25 4.25 1.9028 4.25 4.25z" fill="#fff"/>
 <path d="m218 90.926c0 2.3472-1.9028 4.25-4.25 4.25s-4.25-1.9028-4.25-4.25 1.9028-4.25 4.25-4.25 4.25 1.9028 4.25 4.25z" fill="#fff"/>
 <path d="m347.94 115.16c-0.4126-6e-4 -0.83164 0.02054-1.25 0.03125 16.212 13.065 23.073 43.297 14.781 85.344-11.023 55.895-53.577 80.008-67.719 81.281 4.5921 6.5264 60.971-8.1258 82.344-69.656 20.299-58.438 5.9208-96.95-28.156-97z" fill-opacity=".31372" fill-rule="evenodd"/>
 <path d="m14.062 147.34c-3.4518 16.506-1.2985 38.673 7.7812 64.812 23.855 68.676 91.327 78.987 81.719 66.594-4.1089-5.2998-7.5204-10.675-10.312-16.062-18.952-4.5414-54.048-24.376-69.906-70.031-5.8796-16.927-8.8539-32.18-9.2812-45.312zm71.281 6.3438c-0.88285 8.5361-1.8562 17.612-2.2812 27.125 0.99329-9.7906 2.0794-18.941 2.2812-27.125z" fill-opacity=".31372" fill-rule="evenodd"/>
</svg>
