<?xml version="1.0" encoding="UTF-8"?>
<svg viewBox="0 0 468.3652 500.03848" xmlns="http://www.w3.org/2000/svg" xmlns:xlink="http://www.w3.org/1999/xlink">
 <defs>
  <linearGradient id="a">
   <stop stop-color="#ffb142" offset="0"/>
   <stop stop-color="#c87600" offset="1"/>
  </linearGradient>
  <linearGradient id="c" x1="405.04" x2="405.04" y1="687.57" y2="698.75" gradientUnits="userSpaceOnUse" xlink:href="#a"/>
  <linearGradient id="b" x1="405.04" x2="405.04" y1="687.57" y2="698.75" gradientUnits="userSpaceOnUse" xlink:href="#a"/>
  <linearGradient id="f" x1="405.04" x2="405.04" y1="687.57" y2="698.75" gradientUnits="userSpaceOnUse" xlink:href="#a"/>
  <linearGradient id="e" x1="405.04" x2="405.04" y1="687.57" y2="698.75" gradientUnits="userSpaceOnUse" xlink:href="#a"/>
  <linearGradient id="d" x1="398.14" x2="404.88" gradientUnits="userSpaceOnUse" xlink:href="#a"/>
 </defs>
 <g transform="matrix(1.5609 0 0 1.5609 -391.81 -602.96)">
  <path d="m397.11 686.36a11.312 18.277 0 0 1 -22.624 0 11.312 18.277 0 1 1 22.624 0z" fill="url(#c)" stroke="#000" stroke-linecap="round" stroke-linejoin="round" stroke-width="3.9691"/>
  <path d="m369.72 686.36a11.312 18.277 0 0 1 -22.624 0 11.312 18.277 0 1 1 22.624 0z" fill="url(#c)" stroke="#000" stroke-linecap="round" stroke-linejoin="round" stroke-width="3.9691"/>
  <path d="m383.21 686.36a11.312 18.277 0 0 1 -22.624 0 11.312 18.277 0 1 1 22.624 0z" fill="url(#b)" stroke="#000" stroke-linecap="round" stroke-linejoin="round" stroke-width="3.9691"/>
  <path d="m458.23 686.36a11.312 18.277 0 0 1 -22.624 0 11.312 18.277 0 1 1 22.624 0z" fill="url(#b)" stroke="#000" stroke-linecap="round" stroke-linejoin="round" stroke-width="3.9691"/>
  <path d="m430.84 686.36a11.312 18.277 0 0 1 -22.624 0 11.312 18.277 0 1 1 22.624 0z" fill="url(#f)" stroke="#000" stroke-linecap="round" stroke-linejoin="round" stroke-width="3.9691"/>
  <path d="m444.34 686.36a11.312 18.277 0 0 1 -22.624 0 11.312 18.277 0 1 1 22.624 0z" fill="url(#e)" stroke="#000" stroke-linecap="round" stroke-linejoin="round" stroke-width="3.9691"/>
  <path d="m358.41 668.08c-4.6093 0-8.5577 4.4695-10.32 10.866 15.06 4.0281 31.606 6.3777 48.994 6.6979-0.23688-9.752-5.1939-17.563-11.287-17.563-2.6204 0-5.0276 1.4507-6.946 3.8699-1.9184-2.4192-4.3256-3.8699-6.946-3.8699-2.529 0-4.863 1.3534-6.7475 3.6218-1.8845-2.2685-4.2186-3.6218-6.7475-3.6218zm61.125 0c-6.0777 0-11.027 7.772-11.287 17.489 17.369-0.55912 33.83-3.1622 48.771-7.4173-1.8633-5.9661-5.6815-10.072-10.097-10.072-2.6204 0-5.0276 1.4507-6.946 3.8699-1.9184-2.4192-4.3256-3.8699-6.946-3.8699-2.529 0-4.863 1.3534-6.7475 3.6218-1.8845-2.2685-4.2186-3.6218-6.7475-3.6218z" fill-opacity=".3137"/>
  <path d="m411.47 388.19c-3.0115-0.0538-5.7638 1.6164-7.2812 4.25-3.1112-2.2926-7.4466-2.2897-10.438 0.375-2.8334 2.5244-3.4543 6.5406-1.875 9.8125-3.3946-0.0619-6.424 0.13942-9.125 0.53125 0.0794-1.4548 0.17106-2.9074 0.34375-4.5a1.5593 1.5593 0 0 0 -2.3125 -1.5312c-0.86923 0.47145-1.6878 0.93518-2.5 1.4062-0.91792-0.48189-1.9015-0.70697-2.9688-0.75 0.24445-3.171-1.5374-6.2394-4.6875-7.2812-0.70145-0.232-1.4252-0.36251-2.125-0.375-2.4619-0.0439-4.7116 1.263-6.0312 3.3438-2.622-1.748-6.1405-1.6857-8.5938 0.5-2.4887 2.2174-2.9217 5.7686-1.4062 8.5938-1.156 0.56559-2.0941 1.332-2.7812 2.375-1.595-0.61496-3.2134-1.2244-4.2188-1.5938a1.5593 1.5593 0 0 0 -0.625 -0.0937 1.5593 1.5593 0 0 0 -1.75 -0.625c-0.47019 0.14649-0.9051 0.32229-1.3438 0.46875-0.80955-0.25732-1.6535-0.4071-2.5312-0.40625 0.39306-3.8077-1.7238-7.5323-5.5-8.7812-0.79118-0.26167-1.6461-0.4463-2.5-0.46875-0.3409-9e-3 -0.60396 0.0145-0.8125 0.0312-2.706 0.21899-5.1199 1.8231-6.5 4.2188-3.1054-2.2556-7.3976-2.2776-10.375 0.375-2.8153 2.5083-3.4309 6.4898-1.9062 9.75-2.2595-0.34265-4.5769-0.66776-7.25-0.8125a1.5593 1.5593 0 0 0 -1.375 2.4688c0.91247 1.2828 1.128 3.4639 0.96875 6-0.12607 2.0082-0.3305 4.1228-0.40625 6.1875-2.9574 0.0399-5.8957 0.0549-7.5938 0.0937a1.5593 1.5593 0 0 0 -1.2188 2.4688c2.2735 3.1325 4.4118 5.5754 6.5312 7.7812-2.1416 1.9616-4.2997 3.6569-5.9062 4.0625a1.5593 1.5593 0 0 0 -0.5625 2.75c2.4173 1.8418 4.5916 3.1257 6.7812 4.4375-1.4508 0.74896-2.8425 1.4992-4.4688 2.2188a1.5593 1.5593 0 0 0 -0.1875 2.7812c9.8022 5.9676 17.746 7.413 23.938 5.7188 0.84449 1.1981 1.9402 2.2236 3.4375 2.7188 1.7984 0.59481 3.6292 0.28761 5.2188-0.46875 3.3528 1.9119 7.3608 2.671 11.594 2.4688 0.60714 4.184 3.0912 7.8374 7.5312 10.25 5.0045 2.7194 12.281 4.1268 22.156 4.0938a1.5593 1.5593 0 0 0 1.1562 -2.625c-1.7103-1.8571-3.1618-3.5814-4.5-5.3438 0.43726-0.29159 0.88164-0.55836 1.3125-0.875 8.9593 7.1448 16.445 10.045 22.5 9.0312 0.0949 0.0385 0.16232 0.0544 0.28125 0.0937 2.672 0.88374 5.4738 0.0402 7.3125-1.875 3.3286 2.7953 7.0818 4.6516 11.125 4.9062 4.3834 0.27606 8.9661-1.3596 13.25-5.0938 3.0515 0.31148 5.9872-0.82482 8.0312-3.0312 4.0578 1.3546 7.687 1.8624 10.812 1.2812 2.8394-0.52791 5.1406-2.0664 7-4.0938 4.0907 3.128 8.672 4.9896 13.375 4.6875 4.7705-0.30638 9.4412-2.94 13.5-7.9688 0.60463 0.40926 1.1118 0.91416 1.8438 1.1562 3.6949 1.222 7.5875-0.37766 9.5938-3.5312l0.53125 0.0312c3.0844 1.9933 7.2038 1.8594 10.062-0.6875 0.1205-0.10735 0.2273-0.22816 0.34375-0.34375 1.8368-0.42572 3.7279-0.96922 5.75-1.6562a1.5593 1.5593 0 0 0 0.4375 -2.7188c-1.3745-1.0147-2.6563-2.0172-3.875-3.0312 2.3976-0.79506 4.8571-1.7078 7.5938-2.9688a1.5593 1.5593 0 0 0 0.0312 -2.8125c-1.1431-0.57585-2.4865-1.955-3.7812-3.6562 0.0708-0.76433 0.16345-1.5374 0-2.3438 2.2081-1.5305 4.4862-3.213 6.9688-5.4062a1.5593 1.5593 0 0 0 -0.6562 -2.6561c-1.6327-0.40336-4.4851-1.0377-7.3438-1.7188 0.14642-0.79726 0.33476-1.5817 0.4375-2.4062 0.95155-1.2429 1.4994-2.8117 1.1562-4.4688-0.0713-0.34453-0.22296-0.58904-0.34375-0.875 0.41128-1.8088 1.0021-3.2795 1.9062-4.0938a1.5593 1.5593 0 0 0 -0.78125 -2.6875c-2.7906-0.4654-5.3309-0.75328-7.7188-0.90625-0.49708-0.39858-0.97612-0.81664-1.625-1.0312-1.8085-0.59815-3.6362-0.0846-5.0625 1-0.9651 0.0677-1.8978 0.18007-2.7812 0.3125-0.96381-2.5186-2.1079-5.145-3.625-8.0625a1.5593 1.5593 0 0 0 -2.75 0c-0.74465 1.4086-1.504 2.6306-2.25 3.875-0.51557-0.46153-0.97257-0.94666-1.5312-1.4062-0.98599-2.6881-3.4596-4.4585-6.2812-4.5938 0.18844-3.1382-1.6056-6.1579-4.7188-7.1875-0.90611-0.29968-1.8666-0.45155-2.8125-0.375-2.1941 0.17756-4.1764 1.4314-5.375 3.3125-2.6169-1.7077-6.0958-1.6386-8.5312 0.53125-1.4038 1.2507-2.034 2.9451-2.1875 4.6875-1.7531 1.0536-3.6546 2.089-5.4375 3.2188-1.693-2.4063-3.3578-4.8138-4.3438-6.1875a1.5593 1.5593 0 0 0 -2.75 0.375c-1.1377 3.1832-1.8258 5.9497-2.4375 8.625-1.4399-0.59188-2.8221-1.0546-4.1562-1.4688 0.70572-1.3042 1.397-2.6092 2.25-4a1.5593 1.5593 0 0 0 -1.4375 -2.375c-0.97057 0.0533-1.8286 0.13611-2.7188 0.21875-0.89452-3.8231-4.3165-6.3155-8.125-6.3125 0.43439-3.8414-1.6913-7.6153-5.5-8.875-0.81259-0.26875-1.6465-0.42282-2.4688-0.4375z" stroke="#000" stroke-linecap="round" stroke-linejoin="round" stroke-width="3.7882"/>
  <g transform="matrix(.7619 .22288 -.22288 .7619 -383.21 -60.604)">
   <path d="m1176.2 262.83c-0.3802 5.5663-7.5914 10.317-11 14.875-3.5932-2.8213-6.9015-5.575-8.8438-7.0938-0.328 5.5851-0.2253 10.396 0.2188 14.562-4.4398 0.38055-8.901 0.50754-11.844-0.875 1.1746 4.9453 2.5277 9.2172 4.0312 12.875-3.0979-0.4601-6.2307-1.2743-9.5312-2.1875 9.9952 28.488 27.248 29.95 40.625 19.156 6.2304 9.037 19.418 9.0755 39.844-4.4375-3.7803-0.94679-7.3219-1.8691-10.563-3.1875 2.7585-4.9934 3.9182-13.827 8.875-16.625-7.1135-2.8781-13.234-4.5338-18.406-5.1562 0.8318-2.4828 1.9029-4.9627 3.0625-7.5625-4.6114 0.865-8.619 1.9009-12.125 3.0625-2.673-5.2011-7.3406-11.004-14.344-17.406z" fill="#aad400" stroke="#000" stroke-linecap="round" stroke-linejoin="round" stroke-width="4.772"/>
   <g transform="matrix(-.31212 .94619 .86859 .38002 851.87 -82.829)">
    <path d="m208.41 434.28c14.426-2.3461 13.563 16.454 20.385 21.712-13.506 18.211-29.838 17.914-40.911-15.026 6.0662 1.6784 14.797-6.008 20.526-6.6861z" fill="#aad400" stroke="#61b334" stroke-linecap="round" stroke-linejoin="round" stroke-width=".487"/>
    <path d="m193.31 443.39c7.8133 4.4328 15.616 9.3066 23.456 12.62-5.2532-0.33869-12.37 0.95668-18.883 1.7229 3.8892-0.89269 8.3651-1.5762 11.124-2.872-3.8661-3.8075-10.449-7.6471-15.698-11.471z" fill="#668000"/>
   </g>
   <g transform="matrix(.97864 .18695 -.0899 .94381 1000.6 -167.31)">
    <path d="m211.17 436.48c14.426-2.3461 10.807 14.257 17.628 19.515-13.506 18.211-29.838 17.914-40.911-15.026 6.0662 1.6784 17.553-3.8106 23.283-4.4886z" fill="#aad400" stroke="#61b334" stroke-linecap="round" stroke-linejoin="round" stroke-width=".487"/>
    <path d="m193.31 443.39c7.8133 4.4328 15.616 9.3066 23.456 12.62-5.2532-0.33869-12.37 0.95668-18.883 1.7229 3.8892-0.89269 8.3651-1.5762 11.124-2.872-3.8661-3.8075-10.449-7.6471-15.698-11.471z" fill="#668000"/>
   </g>
   <g transform="matrix(.89587 .35735 -.36432 .95544 1148.7 -218.15)">
    <path d="m216.63 447.5c14.426-2.3461 5.3442 3.2396 12.166 8.4976-13.506 18.211-29.838 17.914-40.911-15.026 6.0662 1.6784 23.016 7.2066 28.745 6.5285z" fill="#aad400" stroke="#61b334" stroke-linecap="round" stroke-linejoin="round" stroke-width=".487"/>
    <path d="m209.1 451.95c4.1511 1.9783 8.2714 4.2028 12.501 5.5558-2.9398 0.1415-7.0212 1.3104-10.733 2.1466 2.241-0.74173 4.8005-1.4038 6.4275-2.299-1.963-1.878-5.4546-3.6032-8.1953-5.4034z" fill="#668000"/>
   </g>
   <g transform="matrix(-.71916 .68956 -.71738 -.61986 1669.5 433.37)">
    <path d="m208.41 434.28c14.426-2.3461 13.563 16.454 20.385 21.712-13.506 18.211-29.838 17.914-40.911-15.026 6.0662 1.6784 14.797-6.008 20.526-6.6861z" fill="#aad400" stroke="#61b334" stroke-linecap="round" stroke-linejoin="round" stroke-width=".487"/>
    <path d="m193.31 443.39c7.8133 4.4328 15.616 9.3066 23.456 12.62-5.2532-0.33869-12.37 0.95668-18.883 1.7229 3.8892-0.89269 8.3651-1.5762 11.124-2.872-3.8661-3.8075-10.449-7.6471-15.698-11.471z" fill="#668000"/>
   </g>
   <path d="m1202.7 276.9c-24.38 4.5731-32.88 13.555-30.094 23.719-4.0583-2.7939-9.0509-4.6352-16.031-3.5-5.7296 0.67809-11.246-0.7278-17.312-2.4062 9.9952 28.488 27.248 29.95 40.625 19.156 6.2304 9.037 19.418 9.0755 39.844-4.4375-6.2009-1.5532-11.743-3.062-16.406-6.3125-2.1384-1.6289-4.1509-2.7415-6.0313-3.4375 0.5343-1.8149 0.8109-3.9508 0.7188-6.5312 0.058-5.5588 2.1934-10.658 4.6875-16.25z" fill="#aad400" stroke="#61b334" stroke-linecap="round" stroke-linejoin="round" stroke-width=".47228"/>
   <path d="m1183.1 290.92c-0.4834 4.1527 0.5436 9.511-2.5326 13.123 2.1258-2.7236 8.4481-9.4749 11.831-10.661-3.2377 0.32499-7.7404 4.96-8.6817 5.5463 0.1366-3.4937-0.2584-6.1399-0.6163-8.0084z" fill="#668000"/>
   <path d="m1204.1 310.16c-4.6152-0.0812-14.837-1.1324-19.42-2.8875 2.4615 1.6255 5.2829 4.8983 8.2738 6.7795-1.4-1.8196-3.416-3.4326-4.4205-4.8586 2.8797 0.46662 12.272 1.4234 15.566 0.9666z" fill="#668000"/>
   <path d="m1158.1 304.43c4.128 2.2512 10.613 6.1617 14.9 6.8185-2.8157 1.0518-6.8928 2.2519-10.733 2.1466 2.2475-0.72978 5.2573-0.56633 6.4275-2.299-2.7634-1.3687-7.8811-4.8484-10.594-6.6661z" fill="#668000"/>
  </g>
  <g transform="matrix(.614 -.50315 .50315 .614 -550.18 838.97)">
   <path d="m1176.2 262.83c-0.3802 5.5663-7.5914 10.317-11 14.875-3.5932-2.8213-6.9015-5.575-8.8438-7.0938-0.328 5.5851-0.2253 10.396 0.2188 14.562-4.4398 0.38055-8.901 0.50754-11.844-0.875 1.1746 4.9453 2.5277 9.2172 4.0312 12.875-3.0979-0.4601-6.2307-1.2743-9.5312-2.1875 9.9952 28.488 27.248 29.95 40.625 19.156 6.2304 9.037 19.418 9.0755 39.844-4.4375-3.7803-0.94679-7.3219-1.8691-10.563-3.1875 2.7585-4.9934 3.9182-13.827 8.875-16.625-7.1135-2.8781-13.234-4.5338-18.406-5.1562 0.8318-2.4828 1.9029-4.9627 3.0625-7.5625-4.6114 0.865-8.619 1.9009-12.125 3.0625-2.673-5.2011-7.3406-11.004-14.344-17.406z" fill="#aad400" stroke="#000" stroke-linecap="round" stroke-linejoin="round" stroke-width="4.772"/>
   <g transform="matrix(-.31212 .94619 .86859 .38002 851.87 -82.829)">
    <path d="m208.41 434.28c14.426-2.3461 13.563 16.454 20.385 21.712-13.506 18.211-29.838 17.914-40.911-15.026 6.0662 1.6784 14.797-6.008 20.526-6.6861z" fill="#aad400" stroke="#61b334" stroke-linecap="round" stroke-linejoin="round" stroke-width=".487"/>
    <path d="m193.31 443.39c7.8133 4.4328 15.616 9.3066 23.456 12.62-5.2532-0.33869-12.37 0.95668-18.883 1.7229 3.8892-0.89269 8.3651-1.5762 11.124-2.872-3.8661-3.8075-10.449-7.6471-15.698-11.471z" fill="#668000"/>
   </g>
   <g transform="matrix(.97864 .18695 -.0899 .94381 1000.6 -167.31)">
    <path d="m211.17 436.48c14.426-2.3461 10.807 14.257 17.628 19.515-13.506 18.211-29.838 17.914-40.911-15.026 6.0662 1.6784 17.553-3.8106 23.283-4.4886z" fill="#aad400" stroke="#61b334" stroke-linecap="round" stroke-linejoin="round" stroke-width=".487"/>
    <path d="m193.31 443.39c7.8133 4.4328 15.616 9.3066 23.456 12.62-5.2532-0.33869-12.37 0.95668-18.883 1.7229 3.8892-0.89269 8.3651-1.5762 11.124-2.872-3.8661-3.8075-10.449-7.6471-15.698-11.471z" fill="#668000"/>
   </g>
   <g transform="matrix(.89587 .35735 -.36432 .95544 1148.7 -218.15)">
    <path d="m216.63 447.5c14.426-2.3461 5.3442 3.2396 12.166 8.4976-13.506 18.211-29.838 17.914-40.911-15.026 6.0662 1.6784 23.016 7.2066 28.745 6.5285z" fill="#aad400" stroke="#61b334" stroke-linecap="round" stroke-linejoin="round" stroke-width=".487"/>
    <path d="m209.1 451.95c4.1511 1.9783 8.2714 4.2028 12.501 5.5558-2.9398 0.1415-7.0212 1.3104-10.733 2.1466 2.241-0.74173 4.8005-1.4038 6.4275-2.299-1.963-1.878-5.4546-3.6032-8.1953-5.4034z" fill="#668000"/>
   </g>
   <g transform="matrix(-.71916 .68956 -.71738 -.61986 1669.5 433.37)">
    <path d="m208.41 434.28c14.426-2.3461 13.563 16.454 20.385 21.712-13.506 18.211-29.838 17.914-40.911-15.026 6.0662 1.6784 14.797-6.008 20.526-6.6861z" fill="#aad400" stroke="#61b334" stroke-linecap="round" stroke-linejoin="round" stroke-width=".487"/>
    <path d="m193.31 443.39c7.8133 4.4328 15.616 9.3066 23.456 12.62-5.2532-0.33869-12.37 0.95668-18.883 1.7229 3.8892-0.89269 8.3651-1.5762 11.124-2.872-3.8661-3.8075-10.449-7.6471-15.698-11.471z" fill="#668000"/>
   </g>
   <path d="m1202.7 276.9c-24.38 4.5731-32.88 13.555-30.094 23.719-4.0583-2.7939-9.0509-4.6352-16.031-3.5-5.7296 0.67809-11.246-0.7278-17.312-2.4062 9.9952 28.488 27.248 29.95 40.625 19.156 6.2304 9.037 19.418 9.0755 39.844-4.4375-6.2009-1.5532-11.743-3.062-16.406-6.3125-2.1384-1.6289-4.1509-2.7415-6.0313-3.4375 0.5343-1.8149 0.8109-3.9508 0.7188-6.5312 0.058-5.5588 2.1934-10.658 4.6875-16.25z" fill="#aad400" stroke="#61b334" stroke-linecap="round" stroke-linejoin="round" stroke-width=".47228"/>
   <path d="m1183.1 290.92c-0.4834 4.1527 0.5436 9.511-2.5326 13.123 2.1258-2.7236 8.4481-9.4749 11.831-10.661-3.2377 0.32499-7.7404 4.96-8.6817 5.5463 0.1366-3.4937-0.2584-6.1399-0.6163-8.0084z" fill="#668000"/>
   <path d="m1204.1 310.16c-4.6152-0.0812-14.837-1.1324-19.42-2.8875 2.4615 1.6255 5.2829 4.8983 8.2738 6.7795-1.4-1.8196-3.416-3.4326-4.4205-4.8586 2.8797 0.46662 12.272 1.4234 15.566 0.9666z" fill="#668000"/>
   <path d="m1158.1 304.43c4.128 2.2512 10.613 6.1617 14.9 6.8185-2.8157 1.0518-6.8928 2.2519-10.733 2.1466 2.2475-0.72978 5.2573-0.56633 6.4275-2.299-2.7634-1.3687-7.8811-4.8484-10.594-6.6661z" fill="#668000"/>
  </g>
  <g transform="matrix(.78707 .10337 -.10337 .78707 -487.57 62.646)">
   <path d="m1176.2 262.83c-0.3802 5.5663-7.5914 10.317-11 14.875-3.5932-2.8213-6.9015-5.575-8.8438-7.0938-0.328 5.5851-0.2253 10.396 0.2188 14.562-4.4398 0.38055-8.901 0.50754-11.844-0.875 1.1746 4.9453 2.5277 9.2172 4.0312 12.875-3.0979-0.4601-6.2307-1.2743-9.5312-2.1875 9.9952 28.488 27.248 29.95 40.625 19.156 6.2304 9.037 19.418 9.0755 39.844-4.4375-3.7803-0.94679-7.3219-1.8691-10.563-3.1875 2.7585-4.9934 3.9182-13.827 8.875-16.625-7.1135-2.8781-13.234-4.5338-18.406-5.1562 0.8318-2.4828 1.9029-4.9627 3.0625-7.5625-4.6114 0.865-8.619 1.9009-12.125 3.0625-2.673-5.2011-7.3406-11.004-14.344-17.406z" fill="#aad400" stroke="#000" stroke-linecap="round" stroke-linejoin="round" stroke-width="4.772"/>
   <g transform="matrix(-.31212 .94619 .86859 .38002 851.87 -82.829)">
    <path d="m208.41 434.28c14.426-2.3461 13.563 16.454 20.385 21.712-13.506 18.211-29.838 17.914-40.911-15.026 6.0662 1.6784 14.797-6.008 20.526-6.6861z" fill="#aad400" stroke="#61b334" stroke-linecap="round" stroke-linejoin="round" stroke-width=".487"/>
    <path d="m193.31 443.39c7.8133 4.4328 15.616 9.3066 23.456 12.62-5.2532-0.33869-12.37 0.95668-18.883 1.7229 3.8892-0.89269 8.3651-1.5762 11.124-2.872-3.8661-3.8075-10.449-7.6471-15.698-11.471z" fill="#668000"/>
   </g>
   <g transform="matrix(.97864 .18695 -.0899 .94381 1000.6 -167.31)">
    <path d="m211.17 436.48c14.426-2.3461 10.807 14.257 17.628 19.515-13.506 18.211-29.838 17.914-40.911-15.026 6.0662 1.6784 17.553-3.8106 23.283-4.4886z" fill="#aad400" stroke="#61b334" stroke-linecap="round" stroke-linejoin="round" stroke-width=".487"/>
    <path d="m193.31 443.39c7.8133 4.4328 15.616 9.3066 23.456 12.62-5.2532-0.33869-12.37 0.95668-18.883 1.7229 3.8892-0.89269 8.3651-1.5762 11.124-2.872-3.8661-3.8075-10.449-7.6471-15.698-11.471z" fill="#668000"/>
   </g>
   <g transform="matrix(.89587 .35735 -.36432 .95544 1148.7 -218.15)">
    <path d="m216.63 447.5c14.426-2.3461 5.3442 3.2396 12.166 8.4976-13.506 18.211-29.838 17.914-40.911-15.026 6.0662 1.6784 23.016 7.2066 28.745 6.5285z" fill="#aad400" stroke="#61b334" stroke-linecap="round" stroke-linejoin="round" stroke-width=".487"/>
    <path d="m209.1 451.95c4.1511 1.9783 8.2714 4.2028 12.501 5.5558-2.9398 0.1415-7.0212 1.3104-10.733 2.1466 2.241-0.74173 4.8005-1.4038 6.4275-2.299-1.963-1.878-5.4546-3.6032-8.1953-5.4034z" fill="#668000"/>
   </g>
   <g transform="matrix(-.71916 .68956 -.71738 -.61986 1669.5 433.37)">
    <path d="m208.41 434.28c14.426-2.3461 13.563 16.454 20.385 21.712-13.506 18.211-29.838 17.914-40.911-15.026 6.0662 1.6784 14.797-6.008 20.526-6.6861z" fill="#aad400" stroke="#61b334" stroke-linecap="round" stroke-linejoin="round" stroke-width=".487"/>
    <path d="m193.31 443.39c7.8133 4.4328 15.616 9.3066 23.456 12.62-5.2532-0.33869-12.37 0.95668-18.883 1.7229 3.8892-0.89269 8.3651-1.5762 11.124-2.872-3.8661-3.8075-10.449-7.6471-15.698-11.471z" fill="#668000"/>
   </g>
   <path d="m1202.7 276.9c-24.38 4.5731-32.88 13.555-30.094 23.719-4.0583-2.7939-9.0509-4.6352-16.031-3.5-5.7296 0.67809-11.246-0.7278-17.312-2.4062 9.9952 28.488 27.248 29.95 40.625 19.156 6.2304 9.037 19.418 9.0755 39.844-4.4375-6.2009-1.5532-11.743-3.062-16.406-6.3125-2.1384-1.6289-4.1509-2.7415-6.0313-3.4375 0.5343-1.8149 0.8109-3.9508 0.7188-6.5312 0.058-5.5588 2.1934-10.658 4.6875-16.25z" fill="#aad400" stroke="#61b334" stroke-linecap="round" stroke-linejoin="round" stroke-width=".47228"/>
   <path d="m1183.1 290.92c-0.4834 4.1527 0.5436 9.511-2.5326 13.123 2.1258-2.7236 8.4481-9.4749 11.831-10.661-3.2377 0.32499-7.7404 4.96-8.6817 5.5463 0.1366-3.4937-0.2584-6.1399-0.6163-8.0084z" fill="#668000"/>
   <path d="m1204.1 310.16c-4.6152-0.0812-14.837-1.1324-19.42-2.8875 2.4615 1.6255 5.2829 4.8983 8.2738 6.7795-1.4-1.8196-3.416-3.4326-4.4205-4.8586 2.8797 0.46662 12.272 1.4234 15.566 0.9666z" fill="#668000"/>
   <path d="m1158.1 304.43c4.128 2.2512 10.613 6.1617 14.9 6.8185-2.8157 1.0518-6.8928 2.2519-10.733 2.1466 2.2475-0.72978 5.2573-0.56633 6.4275-2.299-2.7634-1.3687-7.8811-4.8484-10.594-6.6661z" fill="#668000"/>
  </g>
  <g transform="matrix(.75561 -.24333 .24333 .75561 -594.7 481.68)">
   <path d="m1176.2 262.83c-0.3802 5.5663-7.5914 10.317-11 14.875-3.5932-2.8213-6.9015-5.575-8.8438-7.0938-0.328 5.5851-0.2253 10.396 0.2188 14.562-4.4398 0.38055-8.901 0.50754-11.844-0.875 1.1746 4.9453 2.5277 9.2172 4.0312 12.875-3.0979-0.4601-6.2307-1.2743-9.5312-2.1875 9.9952 28.488 27.248 29.95 40.625 19.156 6.2304 9.037 19.418 9.0755 39.844-4.4375-3.7803-0.94679-7.3219-1.8691-10.563-3.1875 2.7585-4.9934 3.9182-13.827 8.875-16.625-7.1135-2.8781-13.234-4.5338-18.406-5.1562 0.8318-2.4828 1.9029-4.9627 3.0625-7.5625-4.6114 0.865-8.619 1.9009-12.125 3.0625-2.673-5.2011-7.3406-11.004-14.344-17.406z" fill="#aad400" stroke="#000" stroke-linecap="round" stroke-linejoin="round" stroke-width="4.772"/>
   <g transform="matrix(-.31212 .94619 .86859 .38002 851.87 -82.829)">
    <path d="m208.41 434.28c14.426-2.3461 13.563 16.454 20.385 21.712-13.506 18.211-29.838 17.914-40.911-15.026 6.0662 1.6784 14.797-6.008 20.526-6.6861z" fill="#aad400" stroke="#61b334" stroke-linecap="round" stroke-linejoin="round" stroke-width=".487"/>
    <path d="m193.31 443.39c7.8133 4.4328 15.616 9.3066 23.456 12.62-5.2532-0.33869-12.37 0.95668-18.883 1.7229 3.8892-0.89269 8.3651-1.5762 11.124-2.872-3.8661-3.8075-10.449-7.6471-15.698-11.471z" fill="#668000"/>
   </g>
   <g transform="matrix(.97864 .18695 -.0899 .94381 1000.6 -167.31)">
    <path d="m211.17 436.48c14.426-2.3461 10.807 14.257 17.628 19.515-13.506 18.211-29.838 17.914-40.911-15.026 6.0662 1.6784 17.553-3.8106 23.283-4.4886z" fill="#aad400" stroke="#61b334" stroke-linecap="round" stroke-linejoin="round" stroke-width=".487"/>
    <path d="m193.31 443.39c7.8133 4.4328 15.616 9.3066 23.456 12.62-5.2532-0.33869-12.37 0.95668-18.883 1.7229 3.8892-0.89269 8.3651-1.5762 11.124-2.872-3.8661-3.8075-10.449-7.6471-15.698-11.471z" fill="#668000"/>
   </g>
   <g transform="matrix(.89587 .35735 -.36432 .95544 1148.7 -218.15)">
    <path d="m216.63 447.5c14.426-2.3461 5.3442 3.2396 12.166 8.4976-13.506 18.211-29.838 17.914-40.911-15.026 6.0662 1.6784 23.016 7.2066 28.745 6.5285z" fill="#aad400" stroke="#61b334" stroke-linecap="round" stroke-linejoin="round" stroke-width=".487"/>
    <path d="m209.1 451.95c4.1511 1.9783 8.2714 4.2028 12.501 5.5558-2.9398 0.1415-7.0212 1.3104-10.733 2.1466 2.241-0.74173 4.8005-1.4038 6.4275-2.299-1.963-1.878-5.4546-3.6032-8.1953-5.4034z" fill="#668000"/>
   </g>
   <g transform="matrix(-.71916 .68956 -.71738 -.61986 1669.5 433.37)">
    <path d="m208.41 434.28c14.426-2.3461 13.563 16.454 20.385 21.712-13.506 18.211-29.838 17.914-40.911-15.026 6.0662 1.6784 14.797-6.008 20.526-6.6861z" fill="#aad400" stroke="#61b334" stroke-linecap="round" stroke-linejoin="round" stroke-width=".487"/>
    <path d="m193.31 443.39c7.8133 4.4328 15.616 9.3066 23.456 12.62-5.2532-0.33869-12.37 0.95668-18.883 1.7229 3.8892-0.89269 8.3651-1.5762 11.124-2.872-3.8661-3.8075-10.449-7.6471-15.698-11.471z" fill="#668000"/>
   </g>
   <path d="m1202.7 276.9c-24.38 4.5731-32.88 13.555-30.094 23.719-4.0583-2.7939-9.0509-4.6352-16.031-3.5-5.7296 0.67809-11.246-0.7278-17.312-2.4062 9.9952 28.488 27.248 29.95 40.625 19.156 6.2304 9.037 19.418 9.0755 39.844-4.4375-6.2009-1.5532-11.743-3.062-16.406-6.3125-2.1384-1.6289-4.1509-2.7415-6.0313-3.4375 0.5343-1.8149 0.8109-3.9508 0.7188-6.5312 0.058-5.5588 2.1934-10.658 4.6875-16.25z" fill="#aad400" stroke="#61b334" stroke-linecap="round" stroke-linejoin="round" stroke-width=".47228"/>
   <path d="m1183.1 290.92c-0.4834 4.1527 0.5436 9.511-2.5326 13.123 2.1258-2.7236 8.4481-9.4749 11.831-10.661-3.2377 0.32499-7.7404 4.96-8.6817 5.5463 0.1366-3.4937-0.2584-6.1399-0.6163-8.0084z" fill="#668000"/>
   <path d="m1204.1 310.16c-4.6152-0.0812-14.837-1.1324-19.42-2.8875 2.4615 1.6255 5.2829 4.8983 8.2738 6.7795-1.4-1.8196-3.416-3.4326-4.4205-4.8586 2.8797 0.46662 12.272 1.4234 15.566 0.9666z" fill="#668000"/>
   <path d="m1158.1 304.43c4.128 2.2512 10.613 6.1617 14.9 6.8185-2.8157 1.0518-6.8928 2.2519-10.733 2.1466 2.2475-0.72978 5.2573-0.56633 6.4275-2.299-2.7634-1.3687-7.8811-4.8484-10.594-6.6661z" fill="#668000"/>
  </g>
  <path d="m413.45322,390.06173c-3.56199-1.17807-7.40499.75467-8.58303,4.31662-.0564.17056-.10629.34148-.1486.51299-.10693-.14061-.21902-.27997-.33849-.4141-2.49572-2.80122-6.79033-3.04709-9.59151-.55138s-3.04925,6.78962-.55353,9.59084c.11987.13455.2437.26244.37151.38519-.17552.0223-.35103.0491-.52718.0856-3.67384.76074-6.035,4.35574-5.27427,8.02952s4.3551,6.03707 8.02885,5.27633c.17591-.0364.34897-.0815.51869-.1306-.0683.16292-.13019.32986-.18663.50041-1.17804,3.56196.75469,7.40496 4.3166,8.58303s7.40498-.75467 8.58302-4.31663c.0564-.16983.10574-.34008.14789-.51087 .10645.13977.2183.27793.33714.41129 2.49572,2.80121 6.79032,3.04709 9.5915.55139s3.04925-6.78964.55354-9.59085c-.11971-.13435-.24458-.2605-.37223-.38308 .17584-.0223.35143-.0512.5279-.0877 3.67383-.76074 6.035-4.35575 5.27427-8.02952s-4.3551-6.03707-8.02885-5.27634c-.17488.0362-.34706.0804-.51583.1292 .0683-.16227.12971-.32847.18583-.4983 1.17812-3.56196-.75461-7.40496-4.31659-8.58303z" fill="#80e5ff" stroke="#000" stroke-width="1.167"/>
  <path d="m370.11721,391.94839c-2.90335-.96024-6.03572.61513-6.99601,3.51847-.046.13902-.0866.27833-.12106.41813-.0872-.1146-.17853-.2282-.27593-.33753-2.03427-2.28326-5.53481-2.48367-7.81809-.44943s-2.4854,5.5342-.45114,7.81746c.0977.10967.19862.21392.30285.31397-.14305.0182-.28618.0401-.42978.0698-2.99448.62007-4.91903,3.55035-4.29897,6.54484s3.54976,4.92079 6.54423,4.3007c.14345-.0297.28451-.0664.4228-.10645-.0556.1328-.10614.26887-.1521.40789-.96022,2.90333.61513,6.03576 3.51848,6.996s6.03571-.61513 6.996-3.51847c.046-.13843.0861-.2772.12051-.41641 .0868.11393.17797.22654.27482.33524 2.03418,2.28326 5.53473,2.48368 7.81801.44943s2.4854-5.53421.45114-7.81746c-.0976-.10951-.19933-.21233-.30333-.31224 .14329-.0182.28642-.0418.43026-.0715 2.99448-.62007 4.91911-3.55034 4.29897-6.54483s-3.54976-4.92079-6.54423-4.30073c-.14257.0295-.28292.0656-.42049.10531 .0556-.13226.10573-.26773.15154-.40616 .96021-2.90334-.61514-6.03576-3.51848-6.996z" fill="#f95" stroke="#000" stroke-width=".95122"/>
  <path d="m410.49629,399.00029c-1.80207-.59602-3.74639.38181-4.3424,2.18394-.0286.0863-.054.17276-.0754.25953l-.17131-.20951c-1.26266-1.41723-3.43545-1.54162-4.85267-.27896s-1.54273,3.43511-.28006,4.85234c.0603.0681.12328.13278.18798.19489-.0888.0113-.17758.0248-.26673.0433-1.85867.38488-3.0533,2.20371-2.66845,4.0624s2.20342,3.05438 4.06209,2.66949l.26244-.0661c-.0341.0824-.0659.16689-.0945.25318-.59601,1.80211.38183,3.74642 2.18398,4.34245s3.74639-.38182 4.34247-2.18393c.0286-.0859.0532-.17206.0746-.25847 .054.0707.11042.14062.17052.20808 1.26266,1.41724 3.43544,1.54163 4.85267.27897s1.54272-3.43511.28006-4.85235c-.0603-.068-.12376-.13179-.1883-.19381l.26705-.0444c1.85874-.38488 3.05329-2.20372 2.66845-4.06241s-2.20335-3.05437-4.0621-2.66948l-.26093.0653c.0341-.0821.0659-.16618.094-.2521 .59608-1.80212-.38175-3.74643-2.1839-4.34246z" fill="#2ad4ff"/>
  <path d="m409.51654,401.96219c-1.219-.40316-2.53413.25827-2.93732,1.47724-.019.0583-.0365.11686-.0508.17555-.0365-.0481-.0746-.0958-.11582-.14171-.85408-.95863-2.32385-1.04278-3.28248-.18869s-1.04349,2.32355-.18941,3.28218c.0413.046.0834.0898.12717.13182l-.18043.0293c-1.25727.26033-2.0653,1.49061-1.80493,2.74786s1.49033,2.06601 2.7476,1.80568c.0603-.0125.11947-.0279.1775-.0447-.023.0557-.0445.11289-.0635.17126-.40318,1.21897.25831,2.53413 1.47724,2.93729s2.53413-.25827 2.93732-1.47724c.019-.0581.0365-.11638.0508-.17483 .0365.0479.0746.0951.11535.14075 .85407.95864 2.32377,1.04278 3.28239.18869s1.04357-2.32355.18949-3.28218c-.0413-.046-.0837-.0891-.12741-.1311l.18068-.03c1.25726-.26033 2.0653-1.49062 1.80492-2.74786s-1.49041-2.06601-2.74759-1.80568l-.17655.0442c.023-.0556.0444-.11241.0635-.17053 .40311-1.21898-.25831-2.53413-1.47723-2.93729z" fill="#006680"/>
  <path d="m532.58 546.57a131.43 131.43 0 0 1 -262.86 0 131.43 131.43 0 1 1 262.86 0z" fill="#784421" stroke="#000" stroke-linecap="round" stroke-width="3.9691"/>
  <path d="m367.70706,397.99071c-1.46889-.48582-3.05369.31122-3.53951,1.78012-.023.0703-.0437.14082-.0611.21154-.0437-.058-.0903-.11545-.13963-.17077-1.0292-1.15517-2.80023-1.25657-3.95541-.22738s-1.25742,2.79996-.22822,3.95514c.0492.0555.10049.10823.1532.15884l-.21743.0353c-1.51502.31371-2.48872,1.79624-2.175,3.31126s1.79595,2.48959 3.31097,2.17587c.0722-.015.14392-.0336.21386-.0538l-.077.20636c-.48582,1.4689.31126,3.0537 1.78016,3.53952s3.05369-.31122 3.53952-1.78012c.023-.07.0437-.14024.0611-.21067 .0437.0576.09.11461.139.16961 1.0292,1.15519 2.80023,1.25657 3.95541.22738s1.2575-2.79995.2283-3.95512c-.0492-.0554-.1009-.10743-.15353-.15798l.21767-.0362c1.51502-.31372 2.48881-1.79625 2.17509-3.31127s-1.79604-2.48961-3.31098-2.17588c-.0722.0149-.1432.0332-.21274.0533l.077-.20549c.48582-1.46891-.31126-3.0537-1.78016-3.53952z" fill="#f60"/>
  <path d="m466.11 612.29c-21.036-3.9084-1.784 17.171-5.0096 24.793-12.751-6.27-7.8928 14.487-13.659 20.254-10.926-0.58434-12.632 10.433-20.254 13.659-9.2096-5.1096-16.001 5.0096-24.793 5.0096s-13.996-9.7223-24.793-5.0096c-7.6219-3.2256-9.3274-13.846-20.254-13.659-5.7663-5.7663-4.8766-27.714-13.659-20.254-3.2256-7.622 11.661-30.289-5.0096-24.793 0-8.7928 17.661-25.11 5.0096-24.793 3.2256-7.622 19.403-13.297 13.659-20.254 11.532-11.533 27.461-18.669 45.047-18.669s33.514 7.1362 45.047 18.669c-8.5226 4.1786 10.433 12.632 13.659 20.254-14.239-0.71319 5.0096 16.001 5.0096 24.793z" fill="#fff" stroke="#000" stroke-linecap="round" stroke-linejoin="round" stroke-width="3.9691"/>
  <g transform="matrix(.79383 0 0 .79383 251.04 413.16)" fill-rule="evenodd">
   <path d="m322.18 131.04c-48.111 17.3 14.163 94.143-37.819 161.19-9.6084 12.393 57.868 2.0908 81.723-66.585 23.198-66.786 1.1324-107.54-43.904-94.607z" fill="#784421" stroke="#000" stroke-width="5"/>
   <path d="m337.94 128.66c-0.41261-6e-4 -0.83163 0.0205-1.25 0.0312 16.212 13.065 23.073 43.297 14.781 85.344-11.023 55.895-53.577 80.008-67.719 81.281 4.5921 6.5264 60.971-8.1258 82.344-69.656 20.299-58.438 5.9208-96.95-28.156-97z" fill-opacity=".3137"/>
  </g>
  <path d="m492.77 510.01c10.628-3.6588 21.609 6.0203 23.708 11.256-10.726-2.7405-15.654-3.5133-18.431-1.096 1.1961 2.6763 13.819 5.3519 17.732 22.919-9.8662-6.8401-17.705-14.746-20.856-11.497 2.2875 3.996 4.9213 11.508 3.1464 18.957-5.6691-7.4814-11.462-15.383-16.783-15.597" fill="#784421" fill-rule="evenodd" stroke="#000" stroke-linecap="round" stroke-linejoin="round" stroke-width="3.9691"/>
  <path d="m364.67 445.12c-24.795 0-44.933 23.284-44.933 51.973s20.138 51.973 44.933 51.973c14.571 0 27.502-8.0501 35.71-20.504 8.2079 12.463 21.166 20.504 35.744 20.504 24.795 0 44.933-23.284 44.933-51.973s-20.139-51.973-44.933-51.973c-14.576 0-27.536 8.0436-35.744 20.504-8.2087-12.451-21.141-20.504-35.71-20.504z" fill="#fff" stroke="#000" stroke-linecap="round" stroke-width="3.9691"/>
  <path d="m327.75 402.66a1.3601 1.3601 0 0 0 -1.0312 0.5c-2.4294 2.8908-4.4252 5.5881-6.0312 8.125a1.3601 1.3601 0 0 0 1.4688 2.0312c3.3462-0.78935 5.8053-0.70348 7.5625-0.0937s2.9013 1.72 3.6875 3.3125c1.5724 3.1851 1.4254 8.5215 0.15625 14.094s-3.5888 11.373-5.9062 15.625c-1.1587 2.1259-2.3158 3.844-3.2812 4.9375-0.46989 0.53221-0.89965 0.90796-1.1875 1.0938-0.15148-0.19313-0.3506-0.41009-0.4375-0.59375a1.3601 1.3601 0 0 0 -2.5625 0.84375c0.12899 0.65402 0.3659 1.2241 0.75 1.6875 0.18515 0.22336 0.45322 0.26285 0.6875 0.40625a1.3601 1.3601 0 0 0 0 0.0312 1.3601 1.3601 0 0 0 0.0625 0.0937c0.69686 0.70333 1.5695 1.349 2.6875 1.7188 1.7986 0.59487 3.6196 0.28226 5.1875-0.5 3.3788 1.9454 7.4139 2.6686 11.719 2.4375 0.53471 4.2188 2.9911 7.8794 7.4688 10.312 4.9578 2.694 12.207 4.1267 22.062 4.0938a1.3601 1.3601 0 0 0 1 -2.2812c-1.7558-1.9066-3.2574-3.7114-4.625-5.5312 0.54221-0.35459 1.0892-0.69752 1.625-1.0938 9.0528 7.2448 16.553 10.168 22.562 9.0938 0.0874 0.0391 0.11035 0.0476 0.25 0.0937 2.6379 0.87244 5.3762-0.0147 7.1562-1.9375 3.3486 2.8612 7.148 4.744 11.219 5 4.3507 0.27364 8.8871-1.3562 13.156-5.0938 3.0592 0.34265 6.008-0.82839 8.0312-3.0625 4.09 1.3834 7.7582 1.8684 10.875 1.2812 2.8659-0.5399 5.1509-2.085 7-4.1562 4.093 3.168 8.7111 5.0462 13.406 4.75 4.7577-0.3001 9.4101-2.9147 13.469-8 0.62547 0.43022 1.1844 0.93843 1.9375 1.1875 3.7949 1.2551 7.7789-0.5363 9.625-3.9375 3.0423 2.3876 7.3902 2.4718 10.375-0.1875s3.3959-6.9831 1.375-10.281c3.5979-1.437 5.8741-5.1741 5.0625-9.0938s-4.3772-6.4524-8.25-6.3438c0.54721-3.8301-1.5472-7.6506-5.3438-8.9062-0.7941-0.26264-1.6037-0.42317-2.4062-0.4375-3.0223-0.054-5.7938 1.6776-7.25 4.375-3.0412-2.3599-7.3704-2.4304-10.344 0.21875-0.44798 0.39911-0.69263 0.907-1.0312 1.375-7e-3 -0.24173 9e-3 -0.4422 0-0.6875a1.3601 1.3601 0 0 0 -2.1562 -1.0312c-1.3883 1.0394-3.7614 2.9008-6.1875 4.75-1.3479-1.6233-2.8911-3.2134-4.2812-4.7812-1.697-1.914-2.9217-3.7816-3-5.4375a1.3601 1.3601 0 0 0 -2.25 -0.96875c-4.0733 3.5698-6.9367 6.881-9.25 10.062-0.71742-3.126-2.8666-5.8598-6.125-6.9375-0.93494-0.30922-1.8842-0.48344-2.8125-0.5-0.19523-4e-3 -0.46904 0.0119-0.78125 0.0312-3.3369 0.20598-6.2904 2.2296-7.8125 5.3125-3.5447-2.9578-8.7343-3.0977-12.281 0.0625-1.423 1.2678-2.3182 2.8778-2.7812 4.5938-1.5359-2.1861-2.8339-4.3078-2.7188-6.0312a1.3601 1.3601 0 0 0 -2.125 -1.2188c-5.8474 4.0493-9.9394 7.9137-12.75 11.656-2.482-1.171-5.158-2.3077-8.375-3.375a1.3601 1.3601 0 0 0 -1.75 1.6564c0.47716 1.6308 0.84147 3.1415 1.1875 4.6562-2.5251 0.0673-5.3511 0.43746-8.4062 1a1.3601 1.3601 0 0 0 -0.8125 -1.4688c-3.1222-1.3042-5.917-2.2176-8.5625-2.9688 0.33773-4.6684-0.2148-10.292-1.9688-17.188a1.3601 1.3601 0 0 0 -2.4062 -0.46875c-0.86423 1.1384-2.4825 1.9434-4.5312 2.5312-1.2667 0.36342-2.6996 0.64709-4.0938 0.9375 1.1156-2.5048 2.2381-5.0154 3.2188-8.1875a1.3601 1.3601 0 0 0 -1.9062 -1.625c-2.3477 1.1084-4.5007 1.9904-6.6562 2.75-0.55658-2.0062-1.3023-4.0529-1.9375-6.0312-0.79974-2.4907-1.1442-4.7337-0.53125-6.3125a1.3601 1.3601 0 0 0 -1.6875 -1.8125c-5.1765 1.6128-9.2737 3.4596-12.688 5.4375-0.48657-1.4608-0.95832-2.9245-1.4062-4.5625a1.3601 1.3601 0 0 0 -1.3125 -1.0312z" stroke="#000" stroke-linecap="round" stroke-linejoin="round" stroke-width="3.7882"/>
  <path d="m401.74 533.17c-7.3731 0-15.387 8.1981-15.067 13.376s13.143 26.752 16.028 26.752 14.105-21.142 13.784-27.183-9.9376-13.376-14.746-12.944z" fill-opacity=".3137" fill-rule="evenodd"/>
  <path d="m400.06 524.74c-7.373 0-15.387 7.3875-15.067 12.053s13.143 24.107 16.028 24.107 14.105-19.052 13.784-24.495-9.9376-12.053-14.746-11.664z" fill="url(#d)" fill-rule="evenodd" stroke="#000" stroke-width="3.9691"/>
  <g transform="matrix(.79383 0 0 .79383 251.04 413.16)" fill-rule="evenodd">
   <path d="m55.736 131.04c48.111 17.3-14.163 94.143 37.819 161.19 9.6084 12.393-57.868 2.0908-81.723-66.585-23.198-66.786-1.1324-107.54 43.904-94.607z" fill="#784421" stroke="#000" stroke-width="5"/>
   <path d="m4.0625 160.84c-3.4518 16.506-1.2985 38.673 7.7812 64.812 23.855 68.676 91.327 78.987 81.719 66.594-4.1089-5.2998-7.5204-10.675-10.312-16.062-18.952-4.5414-54.048-24.376-69.906-70.031-5.8796-16.927-8.8539-32.18-9.2812-45.312zm71.281 6.3438c-0.88285 8.5361-1.8562 17.612-2.2812 27.125 0.99329-9.7906 2.0794-18.941 2.2812-27.125z" fill-opacity=".3137"/>
  </g>
  <path d="m309.11 510.01c-10.628-3.6588-21.609 6.0203-23.708 11.256 10.726-2.7405 15.654-3.5133 18.431-1.096-1.1961 2.6763-13.819 5.3519-17.732 22.919 9.8662-6.8401 17.705-14.746 20.856-11.497-2.2875 3.996-4.9213 11.508-3.1464 18.957 5.6691-7.4814 11.462-15.383 16.783-15.597" fill="#784421" fill-rule="evenodd" stroke="#000" stroke-linecap="round" stroke-linejoin="round" stroke-width="3.9691"/>
  <path d="m412.25 447.72c10.539-25.529 28.312-28.985 28.312-28.985s-9.8858 13.317-0.93196 9.6123c13.864-5.7361 57.947 12.239 57.947 12.239s-58.405-13.595-85.327 7.1335z" fill="#fff" fill-rule="evenodd" stroke="#000" stroke-linejoin="round" stroke-width="3.9691"/>
  <g transform="matrix(-.48981 -.6247 -.6247 .48981 1245.9 1022.8)">
   <path d="m1176.2 262.83c-0.3802 5.5663-7.5914 10.317-11 14.875-3.5932-2.8213-6.9015-5.575-8.8438-7.0938-0.328 5.5851-0.2253 10.396 0.2188 14.562-4.4398 0.38055-8.901 0.50754-11.844-0.875 1.1746 4.9453 2.5277 9.2172 4.0312 12.875-3.0979-0.4601-6.2307-1.2743-9.5312-2.1875 9.9952 28.488 27.248 29.95 40.625 19.156 6.2304 9.037 19.418 9.0755 39.844-4.4375-3.7803-0.94679-7.3219-1.8691-10.563-3.1875 2.7585-4.9934 3.9182-13.827 8.875-16.625-7.1135-2.8781-13.234-4.5338-18.406-5.1562 0.8318-2.4828 1.9029-4.9627 3.0625-7.5625-4.6114 0.865-8.619 1.9009-12.125 3.0625-2.673-5.2011-7.3406-11.004-14.344-17.406z" fill="#aad400" stroke="#000" stroke-linecap="round" stroke-linejoin="round" stroke-width="4.772"/>
   <g transform="matrix(-.31212 .94619 .86859 .38002 851.87 -82.829)">
    <path d="m208.41 434.28c14.426-2.3461 13.563 16.454 20.385 21.712-13.506 18.211-29.838 17.914-40.911-15.026 6.0662 1.6784 14.797-6.008 20.526-6.6861z" fill="#aad400" stroke="#61b334" stroke-linecap="round" stroke-linejoin="round" stroke-width=".487"/>
    <path d="m193.31 443.39c7.8133 4.4328 15.616 9.3066 23.456 12.62-5.2532-0.33869-12.37 0.95668-18.883 1.7229 3.8892-0.89269 8.3651-1.5762 11.124-2.872-3.8661-3.8075-10.449-7.6471-15.698-11.471z" fill="#668000"/>
   </g>
   <g transform="matrix(.97864 .18695 -.0899 .94381 1000.6 -167.31)">
    <path d="m211.17 436.48c14.426-2.3461 10.807 14.257 17.628 19.515-13.506 18.211-29.838 17.914-40.911-15.026 6.0662 1.6784 17.553-3.8106 23.283-4.4886z" fill="#aad400" stroke="#61b334" stroke-linecap="round" stroke-linejoin="round" stroke-width=".487"/>
    <path d="m193.31 443.39c7.8133 4.4328 15.616 9.3066 23.456 12.62-5.2532-0.33869-12.37 0.95668-18.883 1.7229 3.8892-0.89269 8.3651-1.5762 11.124-2.872-3.8661-3.8075-10.449-7.6471-15.698-11.471z" fill="#668000"/>
   </g>
   <g transform="matrix(.89587 .35735 -.36432 .95544 1148.7 -218.15)">
    <path d="m216.63 447.5c14.426-2.3461 5.3442 3.2396 12.166 8.4976-13.506 18.211-29.838 17.914-40.911-15.026 6.0662 1.6784 23.016 7.2066 28.745 6.5285z" fill="#aad400" stroke="#61b334" stroke-linecap="round" stroke-linejoin="round" stroke-width=".487"/>
    <path d="m209.1 451.95c4.1511 1.9783 8.2714 4.2028 12.501 5.5558-2.9398 0.1415-7.0212 1.3104-10.733 2.1466 2.241-0.74173 4.8005-1.4038 6.4275-2.299-1.963-1.878-5.4546-3.6032-8.1953-5.4034z" fill="#668000"/>
   </g>
   <g transform="matrix(-.71916 .68956 -.71738 -.61986 1669.5 433.37)">
    <path d="m208.41 434.28c14.426-2.3461 13.563 16.454 20.385 21.712-13.506 18.211-29.838 17.914-40.911-15.026 6.0662 1.6784 14.797-6.008 20.526-6.6861z" fill="#aad400" stroke="#61b334" stroke-linecap="round" stroke-linejoin="round" stroke-width=".487"/>
    <path d="m193.31 443.39c7.8133 4.4328 15.616 9.3066 23.456 12.62-5.2532-0.33869-12.37 0.95668-18.883 1.7229 3.8892-0.89269 8.3651-1.5762 11.124-2.872-3.8661-3.8075-10.449-7.6471-15.698-11.471z" fill="#668000"/>
   </g>
   <path d="m1202.7 276.9c-24.38 4.5731-32.88 13.555-30.094 23.719-4.0583-2.7939-9.0509-4.6352-16.031-3.5-5.7296 0.67809-11.246-0.7278-17.312-2.4062 9.9952 28.488 27.248 29.95 40.625 19.156 6.2304 9.037 19.418 9.0755 39.844-4.4375-6.2009-1.5532-11.743-3.062-16.406-6.3125-2.1384-1.6289-4.1509-2.7415-6.0313-3.4375 0.5343-1.8149 0.8109-3.9508 0.7188-6.5312 0.058-5.5588 2.1934-10.658 4.6875-16.25z" fill="#aad400" stroke="#61b334" stroke-linecap="round" stroke-linejoin="round" stroke-width=".47228"/>
   <path d="m1183.1 290.92c-0.4834 4.1527 0.5436 9.511-2.5326 13.123 2.1258-2.7236 8.4481-9.4749 11.831-10.661-3.2377 0.32499-7.7404 4.96-8.6817 5.5463 0.1366-3.4937-0.2584-6.1399-0.6163-8.0084z" fill="#668000"/>
   <path d="m1204.1 310.16c-4.6152-0.0812-14.837-1.1324-19.42-2.8875 2.4615 1.6255 5.2829 4.8983 8.2738 6.7795-1.4-1.8196-3.416-3.4326-4.4205-4.8586 2.8797 0.46662 12.272 1.4234 15.566 0.9666z" fill="#668000"/>
   <path d="m1158.1 304.43c4.128 2.2512 10.613 6.1617 14.9 6.8185-2.8157 1.0518-6.8928 2.2519-10.733 2.1466 2.2475-0.72978 5.2573-0.56633 6.4275-2.299-2.7634-1.3687-7.8811-4.8484-10.594-6.6661z" fill="#668000"/>
  </g>
  <path d="m496.01646,414.74763c-2.11745-.70031-4.40193.44863-5.10225,2.56607-.0333.10139-.0635.20299-.0884.30496-.0635-.0836-.13019-.16643-.20123-.24616-1.48359-1.66523-4.03662-1.81138-5.70183-.32779s-1.81263,4.03618-.32904,5.7014c.0714.08.14487.15601.22084.22898-.10431.0133-.20862.0292-.3134.0509-2.1839.45223-3.58755,2.58932-3.1353,4.77325s2.58891,3.58881 4.77281,3.13658c.10462-.0217.2075-.0485.30832-.0776-.0405.0968-.077.19608-.1109.29748-.70031,2.11744.44867,4.40197 2.56605,5.10228s4.40201-.44862 5.10233-2.56608c.0333-.10096.0627-.20216.0879-.30368 .0635.0831.12979.16521.20045.2445 1.48358,1.66521 4.03661,1.81137 5.70182.32777s1.81263-4.03619.32904-5.7014c-.0714-.0799-.14543-.15486-.22132-.22773 .10455-.0132.20894-.0305.31388-.0521 2.1839-.45223 3.58755-2.58932 3.13531-4.77326s-2.58891-3.5888-4.77281-3.13658c-.104.0215-.2064.0478-.30666.0769 .0405-.0965.077-.19526.1105-.29622 .70032-2.11746-.44867-4.40197-2.56613-5.1023z" fill="#80e5ff" stroke="#000" stroke-width=".69374"/>
  <path d="m467.01341,398.68264c-2.90335-.96025-6.03571.61512-6.996,3.51846-.046.13902-.0866.27834-.12106.41814-.0872-.11461-.17853-.22821-.27594-.33754-2.03426-2.28326-5.5348-2.48367-7.81801-.44943s-2.4854,5.5342-.45121,7.81746c.0977.10967.19869.21392.30284.31397-.14304.0182-.28617.0401-.4297.0698-2.99447.62007-4.91911,3.55035-4.29905,6.54485s3.54984,4.92079 6.54432,4.30071c.14336-.0297.28443-.0664.42271-.10645-.0556.1328-.10605.26887-.1521.40789-.96021,2.90333.61514,6.03576 3.51849,6.996s6.03579-.61513 6.996-3.51848c.046-.13843.0861-.2772.12058-.4164 .0867.11392.1779.22653.27475.33524 2.03426,2.28325 5.53472,2.48367 7.81801.44943s2.48539-5.53421.45113-7.81747c-.0976-.10951-.19933-.21233-.30332-.31224 .14329-.0182.28641-.0418.43025-.0715 2.99448-.62007 4.91912-3.55035 4.29906-6.54484s-3.54984-4.92079-6.54432-4.30073c-.14257.0295-.28292.0656-.42041.10531 .0556-.13226.10566-.26773.15146-.40616 .9603-2.90334-.61513-6.03576-3.51848-6.996z" fill="#eaf" stroke="#000" stroke-width=".95122"/>
  <path d="m388.09 445.33c-10.539-25.529-28.312-28.985-28.312-28.985s9.8858 13.317 0.93195 9.6123c-13.864-5.7361-57.947 12.239-57.947 12.239s58.405-13.595 85.327 7.1335z" fill="#fff" fill-rule="evenodd" stroke="#000" stroke-linejoin="round" stroke-width="3.9691"/>
  <path d="m367.06383,400.24951c-.99356-.32862-2.06554.21051-2.39419,1.20409-.0159.0476-.0294.0953-.0413.14309-.0302-.0392-.0611-.0781-.0944-.11551-.69619-.78138-1.89416-.84996-2.67552-.1538s-.85051,1.89392-.1544,2.6753c.0333.0376.0683.0732.10367.10745-.0492.006-.0979.0137-.14709.0239-1.02476.2122-1.68339,1.215-1.4712,2.23979s1.21479,1.68399 2.23954,1.47179l.14472-.0364c-.019.0454-.0365.092-.0524.13959-.32865.99359.21052,2.06557 1.20407,2.39419s2.06554-.21052 2.39419-1.2041c.0159-.0474.0294-.0949.0413-.14251 .0294.0391.0611.0776.0941.11473 .6961.78138 1.89407.84997 2.67543.1538s.85059-1.89391.1544-2.67529c-.0333-.0375-.0683-.0726-.10383-.10687 .0492-.006.098-.0143.14726-.0245 1.02483-.2122 1.68347-1.215 1.47128-2.23978s-1.21488-1.684-2.23963-1.4718l-.14392.036c.019-.0453.0365-.0916.0516-.139 .32864-.99358-.21045-2.06555-1.20408-2.39417z" fill="#a40"/>
  <g transform="matrix(.79383 0 0 .79383 251.04 413.16)">
   <path d="m184.55 110.17a16.387 16.387 0 1 1 -32.774 0 16.387 16.387 0 1 1 32.774 0z" stroke="#000" stroke-linecap="round" stroke-width="5"/>
   <path d="m166.5 104.43a4.25 4.25 0 0 1 -8.5 0 4.25 4.25 0 1 1 8.5 0z" fill="#fff"/>
  </g>
  <g transform="matrix(.79383 0 0 .79383 251.04 413.16)">
   <path d="m226.05 110.17a16.387 16.387 0 1 1 -32.774 0 16.387 16.387 0 1 1 32.774 0z" stroke="#000" stroke-linecap="round" stroke-width="5"/>
   <path d="m208 104.43a4.25 4.25 0 0 1 -8.5 0 4.25 4.25 0 1 1 8.5 0z" fill="#fff"/>
  </g>
  <g transform="matrix(.66352 .43578 -.43578 .66352 -303.54 -265.6)">
   <path d="m1176.2 262.83c-0.3802 5.5663-7.5914 10.317-11 14.875-3.5932-2.8213-6.9015-5.575-8.8438-7.0938-0.328 5.5851-0.2253 10.396 0.2188 14.562-4.4398 0.38055-8.901 0.50754-11.844-0.875 1.1746 4.9453 2.5277 9.2172 4.0312 12.875-3.0979-0.4601-6.2307-1.2743-9.5312-2.1875 9.9952 28.488 27.248 29.95 40.625 19.156 6.2304 9.037 19.418 9.0755 39.844-4.4375-3.7803-0.94679-7.3219-1.8691-10.563-3.1875 2.7585-4.9934 3.9182-13.827 8.875-16.625-7.1135-2.8781-13.234-4.5338-18.406-5.1562 0.8318-2.4828 1.9029-4.9627 3.0625-7.5625-4.6114 0.865-8.619 1.9009-12.125 3.0625-2.673-5.2011-7.3406-11.004-14.344-17.406z" fill="#aad400" stroke="#000" stroke-linecap="round" stroke-linejoin="round" stroke-width="4.772"/>
   <g transform="matrix(-.31212 .94619 .86859 .38002 851.87 -82.829)">
    <path d="m208.41 434.28c14.426-2.3461 13.563 16.454 20.385 21.712-13.506 18.211-29.838 17.914-40.911-15.026 6.0662 1.6784 14.797-6.008 20.526-6.6861z" fill="#aad400" stroke="#61b334" stroke-linecap="round" stroke-linejoin="round" stroke-width=".487"/>
    <path d="m193.31 443.39c7.8133 4.4328 15.616 9.3066 23.456 12.62-5.2532-0.33869-12.37 0.95668-18.883 1.7229 3.8892-0.89269 8.3651-1.5762 11.124-2.872-3.8661-3.8075-10.449-7.6471-15.698-11.471z" fill="#668000"/>
   </g>
   <g transform="matrix(.97864 .18695 -.0899 .94381 1000.6 -167.31)">
    <path d="m211.17 436.48c14.426-2.3461 10.807 14.257 17.628 19.515-13.506 18.211-29.838 17.914-40.911-15.026 6.0662 1.6784 17.553-3.8106 23.283-4.4886z" fill="#aad400" stroke="#61b334" stroke-linecap="round" stroke-linejoin="round" stroke-width=".487"/>
    <path d="m193.31 443.39c7.8133 4.4328 15.616 9.3066 23.456 12.62-5.2532-0.33869-12.37 0.95668-18.883 1.7229 3.8892-0.89269 8.3651-1.5762 11.124-2.872-3.8661-3.8075-10.449-7.6471-15.698-11.471z" fill="#668000"/>
   </g>
   <g transform="matrix(.89587 .35735 -.36432 .95544 1148.7 -218.15)">
    <path d="m216.63 447.5c14.426-2.3461 5.3442 3.2396 12.166 8.4976-13.506 18.211-29.838 17.914-40.911-15.026 6.0662 1.6784 23.016 7.2066 28.745 6.5285z" fill="#aad400" stroke="#61b334" stroke-linecap="round" stroke-linejoin="round" stroke-width=".487"/>
    <path d="m209.1 451.95c4.1511 1.9783 8.2714 4.2028 12.501 5.5558-2.9398 0.1415-7.0212 1.3104-10.733 2.1466 2.241-0.74173 4.8005-1.4038 6.4275-2.299-1.963-1.878-5.4546-3.6032-8.1953-5.4034z" fill="#668000"/>
   </g>
   <g transform="matrix(-.71916 .68956 -.71738 -.61986 1669.5 433.37)">
    <path d="m208.41 434.28c14.426-2.3461 13.563 16.454 20.385 21.712-13.506 18.211-29.838 17.914-40.911-15.026 6.0662 1.6784 14.797-6.008 20.526-6.6861z" fill="#aad400" stroke="#61b334" stroke-linecap="round" stroke-linejoin="round" stroke-width=".487"/>
    <path d="m193.31 443.39c7.8133 4.4328 15.616 9.3066 23.456 12.62-5.2532-0.33869-12.37 0.95668-18.883 1.7229 3.8892-0.89269 8.3651-1.5762 11.124-2.872-3.8661-3.8075-10.449-7.6471-15.698-11.471z" fill="#668000"/>
   </g>
   <path d="m1202.7 276.9c-24.38 4.5731-32.88 13.555-30.094 23.719-4.0583-2.7939-9.0509-4.6352-16.031-3.5-5.7296 0.67809-11.246-0.7278-17.312-2.4062 9.9952 28.488 27.248 29.95 40.625 19.156 6.2304 9.037 19.418 9.0755 39.844-4.4375-6.2009-1.5532-11.743-3.062-16.406-6.3125-2.1384-1.6289-4.1509-2.7415-6.0313-3.4375 0.5343-1.8149 0.8109-3.9508 0.7188-6.5312 0.058-5.5588 2.1934-10.658 4.6875-16.25z" fill="#aad400" stroke="#61b334" stroke-linecap="round" stroke-linejoin="round" stroke-width=".47228"/>
   <path d="m1183.1 290.92c-0.4834 4.1527 0.5436 9.511-2.5326 13.123 2.1258-2.7236 8.4481-9.4749 11.831-10.661-3.2377 0.32499-7.7404 4.96-8.6817 5.5463 0.1366-3.4937-0.2584-6.1399-0.6163-8.0084z" fill="#668000"/>
   <path d="m1204.1 310.16c-4.6152-0.0812-14.837-1.1324-19.42-2.8875 2.4615 1.6255 5.2829 4.8983 8.2738 6.7795-1.4-1.8196-3.416-3.4326-4.4205-4.8586 2.8797 0.46662 12.272 1.4234 15.566 0.9666z" fill="#668000"/>
   <path d="m1158.1 304.43c4.128 2.2512 10.613 6.1617 14.9 6.8185-2.8157 1.0518-6.8928 2.2519-10.733 2.1466 2.2475-0.72978 5.2573-0.56633 6.4275-2.299-2.7634-1.3687-7.8811-4.8484-10.594-6.6661z" fill="#668000"/>
  </g>
  <g transform="matrix(-.78661 -.10677 -.10677 .78661 1359.2 347.02)">
   <path d="m1176.2 262.83c-0.3802 5.5663-7.5914 10.317-11 14.875-3.5932-2.8213-6.9015-5.575-8.8438-7.0938-0.328 5.5851-0.2253 10.396 0.2188 14.562-4.4398 0.38055-8.901 0.50754-11.844-0.875 1.1746 4.9453 2.5277 9.2172 4.0312 12.875-3.0979-0.4601-6.2307-1.2743-9.5312-2.1875 9.9952 28.488 27.248 29.95 40.625 19.156 6.2304 9.037 19.418 9.0755 39.844-4.4375-3.7803-0.94679-7.3219-1.8691-10.563-3.1875 2.7585-4.9934 3.9182-13.827 8.875-16.625-7.1135-2.8781-13.234-4.5338-18.406-5.1562 0.8318-2.4828 1.9029-4.9627 3.0625-7.5625-4.6114 0.865-8.619 1.9009-12.125 3.0625-2.673-5.2011-7.3406-11.004-14.344-17.406z" fill="#aad400" stroke="#000" stroke-linecap="round" stroke-linejoin="round" stroke-width="4.772"/>
   <g transform="matrix(-.31212 .94619 .86859 .38002 851.87 -82.829)">
    <path d="m208.41 434.28c14.426-2.3461 13.563 16.454 20.385 21.712-13.506 18.211-29.838 17.914-40.911-15.026 6.0662 1.6784 14.797-6.008 20.526-6.6861z" fill="#aad400" stroke="#61b334" stroke-linecap="round" stroke-linejoin="round" stroke-width=".487"/>
    <path d="m193.31 443.39c7.8133 4.4328 15.616 9.3066 23.456 12.62-5.2532-0.33869-12.37 0.95668-18.883 1.7229 3.8892-0.89269 8.3651-1.5762 11.124-2.872-3.8661-3.8075-10.449-7.6471-15.698-11.471z" fill="#668000"/>
   </g>
   <g transform="matrix(.97864 .18695 -.0899 .94381 1000.6 -167.31)">
    <path d="m211.17 436.48c14.426-2.3461 10.807 14.257 17.628 19.515-13.506 18.211-29.838 17.914-40.911-15.026 6.0662 1.6784 17.553-3.8106 23.283-4.4886z" fill="#aad400" stroke="#61b334" stroke-linecap="round" stroke-linejoin="round" stroke-width=".487"/>
    <path d="m193.31 443.39c7.8133 4.4328 15.616 9.3066 23.456 12.62-5.2532-0.33869-12.37 0.95668-18.883 1.7229 3.8892-0.89269 8.3651-1.5762 11.124-2.872-3.8661-3.8075-10.449-7.6471-15.698-11.471z" fill="#668000"/>
   </g>
   <g transform="matrix(.89587 .35735 -.36432 .95544 1148.7 -218.15)">
    <path d="m216.63 447.5c14.426-2.3461 5.3442 3.2396 12.166 8.4976-13.506 18.211-29.838 17.914-40.911-15.026 6.0662 1.6784 23.016 7.2066 28.745 6.5285z" fill="#aad400" stroke="#61b334" stroke-linecap="round" stroke-linejoin="round" stroke-width=".487"/>
    <path d="m209.1 451.95c4.1511 1.9783 8.2714 4.2028 12.501 5.5558-2.9398 0.1415-7.0212 1.3104-10.733 2.1466 2.241-0.74173 4.8005-1.4038 6.4275-2.299-1.963-1.878-5.4546-3.6032-8.1953-5.4034z" fill="#668000"/>
   </g>
   <g transform="matrix(-.71916 .68956 -.71738 -.61986 1669.5 433.37)">
    <path d="m208.41 434.28c14.426-2.3461 13.563 16.454 20.385 21.712-13.506 18.211-29.838 17.914-40.911-15.026 6.0662 1.6784 14.797-6.008 20.526-6.6861z" fill="#aad400" stroke="#61b334" stroke-linecap="round" stroke-linejoin="round" stroke-width=".487"/>
    <path d="m193.31 443.39c7.8133 4.4328 15.616 9.3066 23.456 12.62-5.2532-0.33869-12.37 0.95668-18.883 1.7229 3.8892-0.89269 8.3651-1.5762 11.124-2.872-3.8661-3.8075-10.449-7.6471-15.698-11.471z" fill="#668000"/>
   </g>
   <path d="m1202.7 276.9c-24.38 4.5731-32.88 13.555-30.094 23.719-4.0583-2.7939-9.0509-4.6352-16.031-3.5-5.7296 0.67809-11.246-0.7278-17.312-2.4062 9.9952 28.488 27.248 29.95 40.625 19.156 6.2304 9.037 19.418 9.0755 39.844-4.4375-6.2009-1.5532-11.743-3.062-16.406-6.3125-2.1384-1.6289-4.1509-2.7415-6.0313-3.4375 0.5343-1.8149 0.8109-3.9508 0.7188-6.5312 0.058-5.5588 2.1934-10.658 4.6875-16.25z" fill="#aad400" stroke="#61b334" stroke-linecap="round" stroke-linejoin="round" stroke-width=".47228"/>
   <path d="m1183.1 290.92c-0.4834 4.1527 0.5436 9.511-2.5326 13.123 2.1258-2.7236 8.4481-9.4749 11.831-10.661-3.2377 0.32499-7.7404 4.96-8.6817 5.5463 0.1366-3.4937-0.2584-6.1399-0.6163-8.0084z" fill="#668000"/>
   <path d="m1204.1 310.16c-4.6152-0.0812-14.837-1.1324-19.42-2.8875 2.4615 1.6255 5.2829 4.8983 8.2738 6.7795-1.4-1.8196-3.416-3.4326-4.4205-4.8586 2.8797 0.46662 12.272 1.4234 15.566 0.9666z" fill="#668000"/>
   <path d="m1158.1 304.43c4.128 2.2512 10.613 6.1617 14.9 6.8185-2.8157 1.0518-6.8928 2.2519-10.733 2.1466 2.2475-0.72978 5.2573-0.56633 6.4275-2.299-2.7634-1.3687-7.8811-4.8484-10.594-6.6661z" fill="#668000"/>
  </g>
  <path d="m464.60327,405.96843c-1.4689-.48582-3.0537.31121-3.53952,1.78012-.023.0703-.0437.14082-.0611.21154-.0437-.058-.0903-.11546-.13956-.17077-1.0292-1.15518-2.80023-1.25657-3.95548-.22738s-1.25743,2.79995-.22823,3.95513c.0492.0555.1005.10823.15321.15885l-.21743.0353c-1.51502.31371-2.48873,1.79624-2.17501,3.31126s1.79596,2.48961 3.31098,2.17589c.0722-.015.14392-.0336.21393-.0538l-.077.20637c-.48582,1.4689.31118,3.05369 1.78008,3.53952s3.0537-.31122 3.53952-1.78012c.023-.07.0437-.14025.0611-.21068 .0437.0576.09.11462.139.16961 1.02919,1.15519 2.80022,1.25658 3.95548.22739s1.25742-2.79995.22823-3.95514c-.0492-.0554-.1009-.10743-.15353-.15798l.21775-.0362c1.51502-.31371 2.48873-1.79625 2.17501-3.31127s-1.79596-2.4896-3.31098-2.17588c-.0722.0149-.14313.0332-.21275.0533l.077-.20549c.48583-1.46891-.31118-3.0537-1.78008-3.53952z" fill="#c0f"/>
  <g transform="matrix(-.79365 -.01665 -.01665 .79365 1390.6 233.7)">
   <path d="m1176.2 262.83c-0.3802 5.5663-7.5914 10.317-11 14.875-3.5932-2.8213-6.9015-5.575-8.8438-7.0938-0.328 5.5851-0.2253 10.396 0.2188 14.562-4.4398 0.38055-8.901 0.50754-11.844-0.875 1.1746 4.9453 2.5277 9.2172 4.0312 12.875-3.0979-0.4601-6.2307-1.2743-9.5312-2.1875 9.9952 28.488 27.248 29.95 40.625 19.156 6.2304 9.037 19.418 9.0755 39.844-4.4375-3.7803-0.94679-7.3219-1.8691-10.563-3.1875 2.7585-4.9934 3.9182-13.827 8.875-16.625-7.1135-2.8781-13.234-4.5338-18.406-5.1562 0.8318-2.4828 1.9029-4.9627 3.0625-7.5625-4.6114 0.865-8.619 1.9009-12.125 3.0625-2.673-5.2011-7.3406-11.004-14.344-17.406z" fill="#aad400" stroke="#000" stroke-linecap="round" stroke-linejoin="round" stroke-width="4.772"/>
   <g transform="matrix(-.31212 .94619 .86859 .38002 851.87 -82.829)">
    <path d="m208.41 434.28c14.426-2.3461 13.563 16.454 20.385 21.712-13.506 18.211-29.838 17.914-40.911-15.026 6.0662 1.6784 14.797-6.008 20.526-6.6861z" fill="#aad400" stroke="#61b334" stroke-linecap="round" stroke-linejoin="round" stroke-width=".487"/>
    <path d="m193.31 443.39c7.8133 4.4328 15.616 9.3066 23.456 12.62-5.2532-0.33869-12.37 0.95668-18.883 1.7229 3.8892-0.89269 8.3651-1.5762 11.124-2.872-3.8661-3.8075-10.449-7.6471-15.698-11.471z" fill="#668000"/>
   </g>
   <g transform="matrix(.97864 .18695 -.0899 .94381 1000.6 -167.31)">
    <path d="m211.17 436.48c14.426-2.3461 10.807 14.257 17.628 19.515-13.506 18.211-29.838 17.914-40.911-15.026 6.0662 1.6784 17.553-3.8106 23.283-4.4886z" fill="#aad400" stroke="#61b334" stroke-linecap="round" stroke-linejoin="round" stroke-width=".487"/>
    <path d="m193.31 443.39c7.8133 4.4328 15.616 9.3066 23.456 12.62-5.2532-0.33869-12.37 0.95668-18.883 1.7229 3.8892-0.89269 8.3651-1.5762 11.124-2.872-3.8661-3.8075-10.449-7.6471-15.698-11.471z" fill="#668000"/>
   </g>
   <g transform="matrix(.89587 .35735 -.36432 .95544 1148.7 -218.15)">
    <path d="m216.63 447.5c14.426-2.3461 5.3442 3.2396 12.166 8.4976-13.506 18.211-29.838 17.914-40.911-15.026 6.0662 1.6784 23.016 7.2066 28.745 6.5285z" fill="#aad400" stroke="#61b334" stroke-linecap="round" stroke-linejoin="round" stroke-width=".487"/>
    <path d="m209.1 451.95c4.1511 1.9783 8.2714 4.2028 12.501 5.5558-2.9398 0.1415-7.0212 1.3104-10.733 2.1466 2.241-0.74173 4.8005-1.4038 6.4275-2.299-1.963-1.878-5.4546-3.6032-8.1953-5.4034z" fill="#668000"/>
   </g>
   <g transform="matrix(-.71916 .68956 -.71738 -.61986 1669.5 433.37)">
    <path d="m208.41 434.28c14.426-2.3461 13.563 16.454 20.385 21.712-13.506 18.211-29.838 17.914-40.911-15.026 6.0662 1.6784 14.797-6.008 20.526-6.6861z" fill="#aad400" stroke="#61b334" stroke-linecap="round" stroke-linejoin="round" stroke-width=".487"/>
    <path d="m193.31 443.39c7.8133 4.4328 15.616 9.3066 23.456 12.62-5.2532-0.33869-12.37 0.95668-18.883 1.7229 3.8892-0.89269 8.3651-1.5762 11.124-2.872-3.8661-3.8075-10.449-7.6471-15.698-11.471z" fill="#668000"/>
   </g>
   <path d="m1202.7 276.9c-24.38 4.5731-32.88 13.555-30.094 23.719-4.0583-2.7939-9.0509-4.6352-16.031-3.5-5.7296 0.67809-11.246-0.7278-17.312-2.4062 9.9952 28.488 27.248 29.95 40.625 19.156 6.2304 9.037 19.418 9.0755 39.844-4.4375-6.2009-1.5532-11.743-3.062-16.406-6.3125-2.1384-1.6289-4.1509-2.7415-6.0313-3.4375 0.5343-1.8149 0.8109-3.9508 0.7188-6.5312 0.058-5.5588 2.1934-10.658 4.6875-16.25z" fill="#aad400" stroke="#61b334" stroke-linecap="round" stroke-linejoin="round" stroke-width=".47228"/>
   <path d="m1183.1 290.92c-0.4834 4.1527 0.5436 9.511-2.5326 13.123 2.1258-2.7236 8.4481-9.4749 11.831-10.661-3.2377 0.32499-7.7404 4.96-8.6817 5.5463 0.1366-3.4937-0.2584-6.1399-0.6163-8.0084z" fill="#668000"/>
   <path d="m1204.1 310.16c-4.6152-0.0812-14.837-1.1324-19.42-2.8875 2.4615 1.6255 5.2829 4.8983 8.2738 6.7795-1.4-1.8196-3.416-3.4326-4.4205-4.8586 2.8797 0.46662 12.272 1.4234 15.566 0.9666z" fill="#668000"/>
   <path d="m1158.1 304.43c4.128 2.2512 10.613 6.1617 14.9 6.8185-2.8157 1.0518-6.8928 2.2519-10.733 2.1466 2.2475-0.72978 5.2573-0.56633 6.4275-2.299-2.7634-1.3687-7.8811-4.8484-10.594-6.6661z" fill="#668000"/>
  </g>
  <path d="m494.25869,420.06128c-1.07127-.35432-2.22708.22697-2.58137,1.29826-.0167.0513-.0317.10271-.0444.15428l-.10185-.12453c-.75056-.8425-2.04228-.91644-2.88477-.16585s-.91703,2.04206-.16647,2.88455l.11177.11585c-.0524.006-.10557.0148-.1586.0258-1.10493.2288-1.81501,1.31003-1.58623,2.41495s1.30982,1.81571 2.41475,1.5869c.0532-.0109.10494-.0245.15598-.0392l-.0564.1505c-.35436,1.07129.22696,2.22711 1.29823,2.58143s2.22716-.22698 2.58145-1.29826c.0167-.0511.0317-.10229.0444-.15366l.10137.1237c.75065.84249 2.04228.91645 2.88477.16584s.91711-2.04205.16647-2.88454l-.11193-.11522 .15876-.0264c1.10493-.22879 1.81509-1.31003 1.58631-2.41495s-1.3099-1.81571-2.41475-1.58691c-.0524.0109-.10438.0242-.15519.0388l.0564-.14986c.35437-1.07131-.22695-2.22711-1.29822-2.58143z" fill="#2ad4ff"/>
  <path d="m490.28614,425.59632c-3.56199-1.17807-7.40499.75467-8.58303,4.31662-.0564.17056-.10629.34147-.1486.51299-.10693-.14061-.21902-.27998-.33849-.4141-2.49571-2.80122-6.79032-3.04709-9.5915-.55139s-3.04925,6.78963-.55354,9.59085c.11987.13454.24371.26244.37151.38519-.17551.0223-.35103.0491-.52726.0856-3.67375.76074-6.03491,4.35575-5.27419,8.02953s4.3551,6.03707 8.02885,5.27633c.17592-.0364.34897-.0815.51861-.1306-.0683.16291-.13011.32986-.18655.50041-1.17804,3.56195.75469,7.40496 4.3166,8.58302s7.40498-.75466 8.58302-4.31662c.0564-.16984.10574-.34008.14789-.51087 .10646.13977.21831.27792.33714.41129 2.49572,2.80121 6.79033,3.04709 9.59151.55138s3.04925-6.78963.55353-9.59084c-.11971-.13435-.24458-.2605-.37222-.38308 .17583-.0223.35142-.0512.52789-.0877 3.67376-.76074 6.035-4.35574 5.27427-8.02952s-4.35509-6.03707-8.02885-5.27634c-.17488.0362-.34706.0804-.51583.1292 .0683-.16227.12971-.32847.18584-.4983 1.17812-3.56196-.75462-7.40496-4.3166-8.58303z" fill="#ffe680" stroke="#000" stroke-width="1.167"/>
  <path d="m493.67626,421.82202c-.72461-.23967-1.50645.15353-1.7461.87816-.0111.0347-.0214.0695-.0302.10436-.0214-.0287-.0444-.0569-.0691-.0842-.50773-.56987-1.38142-.61989-1.95131-.11217s-.6203,1.38127-.11257,1.95114l.0754.0784-.10725.0175c-.74739.15476-1.22773.88612-1.07302,1.63351s.886,1.22817 1.63339,1.0734l.10549-.0265c-.0135.0331-.0262.0671-.0381.1018-.23966.72464.15353,1.50645.87813,1.74612s1.50645-.15354 1.74619-.87817c.0111-.0345.0214-.0692.0302-.10393 .0214.0285.0445.0565.0683.0837 .50765.56987 1.38134.61989 1.95123.11217s.62038-1.38126.11264-1.95114l-.0754-.078 .1074-.0179c.74739-.15476 1.22774-.88612 1.07294-1.63351s-.88599-1.22816-1.63338-1.07341l-.10494.0263c.0135-.0331.0262-.0668.0381-.10138 .23974-.72464-.15352-1.50644-.87813-1.74611z" fill="#006680"/>
  <path d="m463.80468,408.38267c-.99364-.32863-2.06562.2105-2.39419,1.20408-.0159.0476-.0294.0953-.0413.1431-.0302-.0392-.0611-.0781-.0945-.11551-.69611-.78138-1.89407-.84997-2.67552-.15381s-.8505,1.89393-.1544,2.67531c.0333.0375.0683.0732.10368.10744-.0492.006-.098.0137-.1471.0239-1.02475.2122-1.68339,1.21501-1.4712,2.23979s1.21479,1.68399 2.23963,1.4718l.14463-.0364c-.019.0454-.0365.092-.0516.13959-.32856.99358.21053,2.06556 1.20408,2.39418s2.06562-.21051 2.39419-1.20409c.0159-.0474.0294-.0949.0413-.14251 .0294.0391.0611.0776.0941.11472 .69619.78138 1.89408.84997 2.67552.15381s.85051-1.89392.1544-2.6753c-.0333-.0375-.0683-.0726-.10383-.10686 .0492-.006.098-.0143.14725-.0245 1.02475-.2122 1.68339-1.215 1.4712-2.23979s-1.21479-1.68399-2.23962-1.47179l-.14384.036c.019-.0453.0365-.0916.0516-.139 .32857-.99359-.21052-2.06556-1.20407-2.39418z" fill="#405"/>
  <path d="m487.32921,434.53488c-1.80207-.59602-3.74639.38181-4.3424,2.18394-.0286.0863-.054.17276-.0754.25953l-.17131-.20951c-1.26266-1.41723-3.43545-1.54163-4.85267-.27896s-1.54272,3.43511-.28006,4.85234c.0603.0681.12328.13278.18798.19488-.0888.0113-.17766.0249-.26673.0433-1.85875.38488-3.0533,2.20372-2.66845,4.06241s2.20343,3.05437 4.0621,2.66949l.26244-.066c-.0341.0824-.0659.16689-.0945.25317-.59601,1.80212.38183,3.74643 2.18398,4.34246s3.74639-.38182 4.34247-2.18393c.0286-.0859.0532-.17207.0746-.25847 .054.0707.11043.14061.17052.20808 1.26266,1.41724 3.43545,1.54163 4.85267.27897s1.54272-3.43512.28006-4.85235c-.0603-.068-.12376-.13179-.1883-.19382l.26705-.0444c1.85875-.38488 3.0533-2.20372 2.66845-4.06242s-2.20335-3.05437-4.0621-2.66948l-.26093.0653c.0341-.0821.0659-.16618.094-.2521 .59609-1.80212-.38175-3.74643-2.1839-4.34246z" fill="#ffd42a"/>
  <path d="m471.08987,407.7949c-3.5619-1.17807-7.4049.75467-8.58302,4.31662-.0564.17055-.10621.34147-.14853.51299-.10692-.14061-.21901-.27998-.33856-.4141-2.49564-2.80122-6.79033-3.04709-9.59151-.55139s-3.04917,6.78963-.55353,9.59085c.11995.13454.2437.26244.37151.38519-.17544.0223-.35103.0491-.52718.0856-3.67376.76073-6.035,4.35575-5.27419,8.02953s4.35502,6.03707 8.02877,5.27633c.17591-.0364.34897-.0815.51869-.1306-.0683.16291-.13019.32986-.18663.50041-1.17804,3.56195.75469,7.40496 4.31668,8.58302s7.4049-.75466 8.58302-4.31663c.0564-.16983.10566-.34007.14789-.51086 .10637.13977.21822.27792.33706.41129 2.49571,2.80121 6.79032,3.04709 9.59158.55138s3.04917-6.78963.55346-9.59084c-.11971-.13435-.24458-.26051-.37215-.38308 .17584-.0223.35135-.0512.5279-.0877 3.67375-.76074 6.03491-4.35575 5.27419-8.02952s-4.35502-6.03707-8.02885-5.27634c-.17488.0362-.34707.0804-.51583.1292 .0683-.16227.12971-.32847.18591-.49831 1.17804-3.56195-.75469-7.40495-4.31668-8.58302z" fill="#ffb380" stroke="#000" stroke-width="1.167"/>
  <path d="m468.75475,418.90953c-1.80215-.59602-3.74647.38181-4.34248,2.18394-.0286.0863-.054.17276-.0754.25953l-.17123-.20951c-1.26266-1.41723-3.43553-1.54162-4.85275-.27896s-1.54264,3.43511-.27998,4.85234c.0603.0681.12328.13279.1879.19489-.0888.0113-.17758.0248-.26673.0433-1.85866.38488-3.0533,2.20372-2.66837,4.06241s2.20335,3.05437 4.06202,2.66949l.26244-.0661c-.0341.0824-.0659.16689-.0944.25318-.59608,1.80211.38183,3.74642 2.1839,4.34245s3.74647-.38182 4.34248-2.18393c.0286-.0859.0532-.17207.0746-.25847 .054.0707.11042.14062.17051.20808 1.26266,1.41724 3.43553,1.54163 4.85275.27897s1.54264-3.43512.27998-4.85235c-.0603-.0679-.12368-.13179-.18829-.19382l.26712-.0444c1.85867-.38488 3.0533-2.20372 2.66837-4.06242s-2.20335-3.05437-4.06201-2.66948l-.26101.0653c.0341-.0821.0659-.16618.0941-.2521 .59601-1.80212-.38183-3.74643-2.18398-4.34246z" fill="#f95"/>
  <path d="m486.34947,437.49678c-1.219-.40316-2.53414.25827-2.93732,1.47724-.0191.0583-.0365.11686-.0508.17555-.0365-.0481-.0746-.0958-.11582-.14171-.85408-.95864-2.32385-1.04278-3.28248-.18869s-1.04348,2.32355-.1894,3.28218c.0413.046.0834.0898.12717.13182l-.18044.0293c-1.25726.26033-2.0653,1.49062-1.80493,2.74787s1.49034,2.06601 2.7476,1.80567c.0603-.0125.11939-.0279.1775-.0447-.023.0557-.0444.11289-.0635.17125-.40318,1.21898.25824,2.53414 1.47724,2.9373s2.53413-.25827 2.93732-1.47724c.019-.0581.0365-.11639.0508-.17484 .0365.0479.0746.0951.11535.14076 .85408.95863 2.32377,1.04278 3.2824.18869s1.04348-2.32355.1894-3.28218c-.0413-.046-.0837-.0892-.12733-.1311l.18068-.03c1.25718-.26034 2.0653-1.49063 1.80493-2.74787s-1.49042-2.06601-2.7476-1.80568l-.17655.0442c.023-.0556.0445-.11241.0635-.17053 .4031-1.21898-.25831-2.53413-1.47724-2.93729z" fill="#a80"/>
  <path d="m467.77493,421.87143c-1.219-.40316-2.53414.25827-2.93732,1.47724-.019.0583-.0365.11686-.0508.17555-.0365-.0481-.0746-.0958-.11582-.14171-.85408-.95863-2.32377-1.04278-3.2824-.18869s-1.04356,2.32355-.18948,3.28218c.0413.046.0834.0898.12717.13182l-.18044.0293c-1.25726.26033-2.0653,1.49062-1.80492,2.74787s1.49041,2.06601 2.74759,1.80567c.0603-.0125.11947-.0279.1775-.0447-.023.0557-.0445.11289-.0635.17125-.40311,1.21898.25831,2.53414 1.47723,2.9373s2.53414-.25827 2.93732-1.47724c.019-.0581.0365-.11638.0508-.17483 .0365.0479.0746.0951.11534.14075 .85408.95863 2.32385,1.04278 3.28248.18869s1.04348-2.32355.18941-3.28218c-.0413-.046-.0838-.0892-.12741-.1311l.18067-.03c1.25727-.26033 2.0653-1.49062 1.80493-2.74787s-1.49033-2.06601-2.7476-1.80568l-.17655.0442c.023-.0556.0445-.11241.0635-.17053 .40318-1.21898-.25823-2.53413-1.47723-2.93729z" fill="#520" stroke="#504" stroke-width=".14438"/>
  <path d="m334.56841,425.69521c-2.90335-.96024-6.03571.61513-6.99601,3.51846-.046.13903-.0866.27834-.12106.41814-.0872-.11461-.17853-.2282-.27593-.33753-2.03426-2.28326-5.53481-2.48367-7.81801-.44943s-2.4854,5.5342-.45122,7.81746c.0977.10967.1987.21391.30285.31397-.14305.0182-.28617.0401-.4297.0698-2.99456.62007-4.91911,3.55035-4.29905,6.54484s3.54984,4.9208 6.54431,4.30072c.14337-.0297.28443-.0664.42272-.10646-.0556.1328-.10606.26887-.1521.4079-.96021,2.90333.61514,6.03576 3.51848,6.99599s6.03579-.61513 6.99601-3.51847c.046-.13843.0861-.2772.12058-.4164 .0867.11392.1779.22653.27474.33524 2.03427,2.28325 5.53473,2.48367 7.81802.44942s2.48539-5.53421.45113-7.81746c-.0976-.10951-.19933-.21234-.30332-.31225 .14328-.0182.28641-.0417.43025-.0715 2.99448-.62007 4.91911-3.55036 4.29905-6.54484s-3.54983-4.9208-6.54431-4.30073c-.14257.0295-.28292.0656-.42049.10531 .0556-.13226.10574-.26773.15154-.40616 .96021-2.90334-.61514-6.03576-3.51848-6.99601z" fill="#80e5ff" stroke="#000" stroke-width=".95122"/>
  <g transform="matrix(.09708 .03211 -.03211 .09708 317.33 331.85)">
   <path d="m796.82 532.87c-52.723 0-95.469 42.746-95.469 95.469 0 2.5244 0.0889 5.0249 0.28125 7.5-2.0472-1.4041-4.1576-2.7691-6.3438-4.0312-45.66-26.362-104.04-10.691-130.41 34.969s-10.722 104.04 34.938 130.41c2.1931 1.2662 4.4094 2.4263 6.6562 3.5-2.2429 1.0722-4.467 2.2048-6.6562 3.4688-45.66 26.362-61.299 84.747-34.938 130.41s84.747 61.33 130.41 34.969c2.1862-1.2622 4.2965-2.6271 6.3438-4.0312-0.19238 2.4751-0.28125 4.9756-0.28125 7.5 0 52.723 42.746 95.469 95.469 95.469s95.469-42.746 95.469-95.469c0-2.5138-0.0905-5.0038-0.28125-7.4688 2.0364 1.3954 4.1387 2.745 6.3125 4 45.66 26.362 104.04 10.691 130.41-34.969s10.722-104.04-34.938-130.41c-2.1898-1.2643-4.4128-2.3964-6.6562-3.4688 2.2476-1.074 4.4625-2.2334 6.6562-3.5 45.66-26.362 61.299-84.747 34.938-130.41s-84.747-61.33-130.41-34.969c-2.1738 1.255-4.2761 2.6046-6.3125 4 0.19078-2.4649 0.28125-4.9549 0.28125-7.4688 0-52.723-42.746-95.469-95.469-95.469z" fill="#ddafe9" stroke="#000" stroke-width="16.4"/>
   <path d="m796.81 665.18c-26.675 0-48.301 21.626-48.301 48.301 0 1.2772 0.045 2.5423 0.1423 3.7945-1.0358-0.71039-2.1035-1.401-3.2095-2.0396-23.101-13.337-52.64-5.4089-65.977 17.692s-5.4247 52.64 17.676 65.977c1.1096 0.64062 2.2309 1.2275 3.3676 1.7708-1.1348 0.54245-2.26 1.1155-3.3676 1.755-23.101 13.337-31.013 42.876-17.676 65.977s42.876 31.029 65.977 17.692c1.1061-0.63859 2.1738-1.3292 3.2095-2.0396-0.0973 1.2522-0.1423 2.5173-0.1423 3.7945 0 26.675 21.627 48.301 48.301 48.301s48.301-21.627 48.301-48.301c0-1.2718-0.0458-2.5316-0.1423-3.7787 1.0303 0.70596 2.0939 1.3888 3.1937 2.0238 23.101 13.337 52.64 5.4089 65.977-17.692s5.4247-52.64-17.676-65.977c-1.1079-0.63966-2.2326-1.2124-3.3676-1.755 1.1371-0.54336 2.2577-1.13 3.3676-1.7708 23.101-13.337 31.013-42.876 17.676-65.977s-42.876-31.029-65.977-17.692c-1.0998 0.63496-2.1634 1.3178-3.1937 2.0237 0.0965-1.2471 0.1423-2.5069 0.1423-3.7787 0-26.675-21.627-48.301-48.301-48.301z" fill="#ffd5f6"/>
   <path d="m796.81 709.02c-18.043 0-32.671 14.628-32.671 32.671 0 0.86391 0.0304 1.7196 0.0962 2.5666-0.70061-0.48051-1.4228-0.94762-2.171-1.3796-15.626-9.0215-35.606-3.6586-44.628 11.967s-3.6693 35.606 11.956 44.628c0.75054 0.43332 1.509 0.83032 2.2779 1.1978-0.76756 0.36692-1.5287 0.75451-2.2779 1.1871-15.626 9.0215-20.978 29.002-11.956 44.628s29.002 20.989 44.628 11.967c0.74816-0.43195 1.4704-0.89907 2.171-1.3796-0.0658 0.84702-0.0962 1.7027-0.0962 2.5667 0 18.043 14.628 32.671 32.671 32.671s32.671-14.628 32.671-32.671c0-0.86029-0.031-1.7124-0.0962-2.556 0.6969 0.47752 1.4164 0.9394 2.1603 1.3689 15.626 9.0215 35.606 3.6586 44.628-11.967s3.6693-35.606-11.956-44.628c-0.74941-0.43267-1.5102-0.82009-2.2779-1.1871 0.76917-0.36754 1.5272-0.76432 2.2779-1.1978 15.626-9.0215 20.978-29.002 11.956-44.628s-29.002-20.989-44.628-11.967c-0.7439 0.42949-1.4634 0.89136-2.1603 1.3689 0.0653-0.84354 0.0962-1.6957 0.0962-2.556 0-18.043-14.628-32.671-32.671-32.671z" fill="#672178" stroke="#504" stroke-width="2.029"/>
  </g>
  <path d="m332.15827,432.981c-1.4689-.48582-3.0537.31122-3.53952,1.78013-.023.0703-.0437.14081-.0611.21154-.0437-.058-.0903-.11546-.13955-.17077-1.0292-1.15518-2.80031-1.25658-3.95549-.22739s-1.25742,2.79996-.22822,3.95514c.0492.0555.1005.10823.15321.15884l-.21743.0353c-1.51502.31371-2.48873,1.79624-2.17501,3.31126s1.79595,2.4896 3.31097,2.17588c.0722-.015.14392-.0336.21386-.0538-.0286.0672-.054.13603-.077.20636-.48582,1.4689.31126,3.0537 1.78016,3.53952s3.0537-.31122 3.53952-1.78011c.023-.07.0437-.14025.0611-.21068 .0437.0576.09.11461.139.16961 1.0292,1.15519 2.80023,1.25657 3.95541.22738s1.2575-2.79995.2283-3.95513c-.0492-.0554-.10089-.10743-.15352-.15798l.21774-.0362c1.51502-.31371 2.48873-1.79625 2.17501-3.31127s-1.79595-2.4896-3.31097-2.17588c-.0722.0149-.14313.0332-.21275.0533l.077-.20549c.48582-1.4689-.31118-3.05369-1.78016-3.53952z" fill="#2ad4ff"/>
  <path d="m333.22017,395.33733c-3.56198-1.17807-7.40498.75467-8.58302,4.31662-.0564.17055-.1063.34147-.14861.51299-.10693-.14061-.21902-.27998-.33849-.4141-2.49571-2.80122-6.79032-3.04709-9.59158-.55139s-3.04917,6.78963-.55346,9.59085c.11987.13454.24371.26244.37151.38519-.17551.0223-.35111.0491-.52726.0856-3.67375.76073-6.03491,4.35575-5.27419,8.02953s4.35502,6.03707 8.02886,5.27633c.17591-.0364.34896-.0815.5186-.13061-.0683.16292-.13018.32986-.18655.50042-1.17812,3.56195.7547,7.40496 4.3166,8.58302s7.40499-.75467 8.58303-4.31663c.0564-.16983.10573-.34007.14789-.51086 .10637.13977.2183.27792.33713.41129 2.49564,2.80121 6.79033,3.04709 9.59151.55138s3.04917-6.78963.55353-9.59084c-.11971-.13435-.24457-.26051-.37222-.38308 .17583-.0223.35143-.0512.52789-.0877 3.67376-.76074 6.035-4.35575 5.2742-8.02953s-4.35502-6.03706-8.02878-5.27633c-.17488.0362-.34714.0804-.51583.1292 .0683-.16227.12971-.32847.18584-.49831 1.17812-3.56195-.7547-7.40495-4.3166-8.58302z" fill="#ffe680" stroke="#000" stroke-width="1.167"/>
  <path d="m330.26324,404.27589c-1.80207-.59603-3.74639.38181-4.3424,2.18393-.0286.0863-.054.17277-.0754.25954l-.17131-.20951c-1.26266-1.41724-3.43545-1.54163-4.85267-.27897s-1.54272,3.43512-.28006,4.85235c.0603.0681.12328.13278.18798.19488-.0888.0113-.17766.0248-.26673.0433-1.85874.38488-3.0533,2.20372-2.66845,4.06241s2.20343,3.05437 4.0621,2.66948l.26236-.066c-.0341.0824-.0659.16688-.0944.25317-.596,1.80212.38183,3.74643 2.18398,4.34245s3.74639-.38181 4.3424-2.18393c.0286-.0859.0532-.17206.0746-.25847 .054.0707.1105.14062.17059.20809 1.26266,1.41724 3.43545,1.54163 4.85267.27897s1.54272-3.43512.28006-4.85236c-.0603-.0679-.12376-.13179-.18829-.19381l.26704-.0444c1.85875-.38488 3.0533-2.20372 2.66845-4.06243s-2.20343-3.05436-4.06209-2.66947l-.26102.0653c.0341-.0821.0659-.16618.0941-.2521 .59601-1.80213-.38183-3.74643-2.1839-4.34246z" fill="#ffd42a"/>
  <path d="m329.2835,407.23779c-1.219-.40316-2.53414.25827-2.93732,1.47724-.019.0583-.0365.11686-.0508.17555-.0365-.0481-.0746-.0958-.11582-.14171-.85416-.95864-2.32385-1.04278-3.28248-.1887s-1.04348,2.32355-.1894,3.28219c.0413.046.0834.0898.12709.13182l-.18036.0293c-1.25726.26034-2.0653,1.49063-1.805,2.74788s1.49041,2.06601 2.74767,1.80567c.0603-.0125.11939-.0279.1775-.0447-.023.0557-.0444.11289-.0635.17125-.40319,1.21898.25823,2.53414 1.47723,2.9373s2.53414-.25827 2.93732-1.47724c.019-.0581.0365-.11639.0508-.17484 .0365.0479.0746.0951.11534.14076 .85408.95863 2.32377,1.04278 3.2824.18869s1.04348-2.32355.18941-3.28218c-.0413-.046-.0837-.0892-.12733-.13111l.18067-.03c1.25719-.26034 2.06522-1.49063 1.80493-2.74788s-1.49042-2.066-2.74768-1.80567l-.17647.0442c.023-.0556.0445-.11242.0635-.17053 .4031-1.21898-.25831-2.53413-1.47724-2.93729z" fill="#a80"/>
  <path d="m331.35968,435.39524c-.99364-.32862-2.06562.21051-2.39419,1.20409-.0159.0476-.0294.0952-.0413.14309-.0302-.0392-.0611-.0781-.0945-.11551-.69619-.78138-1.89408-.84996-2.67552-.1538s-.85051,1.89392-.1544,2.6753c.0333.0376.0683.0732.10367.10745-.0492.006-.0979.0137-.14709.0239-1.02475.2122-1.68339,1.215-1.4712,2.23979s1.21479,1.68399 2.23962,1.47179l.14464-.0364c-.019.0454-.0365.092-.0516.13958-.32857.99359.21052,2.06557 1.20408,2.39419s2.06562-.21052 2.39418-1.2041c.0159-.0474.0294-.0949.0413-.1425 .0294.0391.0611.0776.0941.11472 .69619.78138 1.89407.84997 2.67552.1538s.8505-1.89391.1544-2.67529c-.0333-.0375-.0683-.0726-.10384-.10687 .0492-.006.098-.0143.14726-.0245 1.02475-.21219 1.68339-1.215 1.4712-2.23978s-1.2148-1.68399-2.23963-1.4718l-.14384.036c.0191-.0453.0365-.0916.0516-.139 .32857-.99358-.21052-2.06555-1.20416-2.39417z" fill="#006680"/>
  <path d="m436.00547,426.08176c-4.26643-1.41107-8.86952.90393-10.28055,5.17036-.0675.20429-.12733.409-.17798.61443-.12812-.16841-.26236-.33535-.40548-.496-2.98932-3.35523-8.13332-3.64973-11.48852-.66044s-3.65224,8.13247-.663,11.48771c.1436.16114.29189.31434.44502.46136-.21021.0267-.42049.0589-.63149.10252-4.40035.91121-7.2286,5.21722-6.31736,9.6176s5.2164,7.23106 9.61674,6.31985c.21069-.0437.41803-.0976.62125-.15642-.0818.19515-.1559.3951-.22346.59939-1.41111,4.26642.90393,8.86949 5.17036,10.28056s8.86944-.90393 10.28055-5.17038c.0675-.20342.12661-.40734.1771-.61189 .12741.1674.26141.33288.40374.49263 2.98932,3.35522 8.13332,3.64973 11.48859.66042s3.65225-8.13247.66293-11.48768c-.14337-.16092-.29292-.31203-.44582-.45885 .21061-.0267.42089-.0613.63237-.10508 4.40034-.91119 7.22851-5.21721 6.31728-9.61757s-5.2164-7.23108-9.61675-6.31989c-.20949.0434-.41573.0964-.61783.15475 .0814-.19436.15535-.39344.22266-.59686 1.41103-4.26641-.90393-8.86947-5.17035-10.28054z" fill="#faa" stroke="#000" stroke-width="1.3978"/>
  <path d="m432.46372,436.78816c-2.15849-.71391-4.48735.45732-5.20124,2.61588-.0341.10337-.0643.20694-.0901.31085-.0651-.0852-.13273-.16966-.20513-.25095-1.5124-1.69752-4.11496-1.8465-5.81249-.33413s-1.84779,4.11452-.33539,5.81204c.073.0815.14765.15904.22513.23342-.10637.0135-.21274.0297-.31951.0519-2.22629.461-3.65717,2.63956-3.19611,4.86586s2.63908,3.65845 4.86545,3.19744c.10661-.0221.21147-.0494.31427-.0791-.0413.0987-.0794.1999-.11304.30325-.71389,2.15854.45733,4.48739 2.6159,5.2013s4.48735-.45734 5.20124-2.61588c.0341-.10284.0643-.20608.0898-.30958 .0643.0847.13225.16842.20425.24924 1.51241,1.69754 4.11497,1.84653 5.81249.33414s1.84779-4.1145.33539-5.81203c-.0722-.0815-.1482-.15787-.22552-.23215 .10661-.0135.21298-.0311.31991-.0533 2.22629-.461 3.65716-2.63957 3.19619-4.86587s-2.63916-3.65845-4.86545-3.19743c-.10606.0219-.21037.0487-.31261.0783 .0413-.0984.0786-.19904.11264-.30196 .71389-2.15855-.45732-4.48739-2.61582-5.20131z" fill="#f55"/>
  <path d="m431.29013,440.33587c-1.46001-.4829-3.03528.30933-3.51817,1.76939-.023.0699-.0437.13997-.0611.21028-.0437-.0576-.0898-.11479-.13876-.16974-1.02301-1.14824-2.7834-1.24903-3.93167-.22601s-1.24988,2.7831-.22688,3.93132c.0492.0552.0999.10756.15226.1579l-.21608.0352c-1.50589.31183-2.47373,1.78544-2.16191,3.29135s1.78516,2.47461 3.29105,2.16279c.0722-.0149.14305-.0333.21259-.0536l-.0762.20511c-.48289,1.46008.30935,3.03533 1.76944,3.51824s3.03528-.30935 3.51817-1.7694c.023-.0696.0437-.13942.0611-.20942 .0437.0574.0895.11397.13821.16858 1.023,1.14824 2.78339,1.24903 3.93159.22601s1.24988-2.78308.22687-3.93132c-.0492-.055-.10018-.10673-.15257-.15703l.2164-.0359c1.50589-.31182 2.4738-1.78542 2.16199-3.29134s-1.78516-2.47461-3.29106-2.16278c-.0714.0148-.14233.033-.21147.0529 .0278-.0666.0532-.13464.0762-.20426 .48288-1.46006-.30936-3.03531-1.76945-3.51822z" fill="#800000"/>
  <path d="m401.8257,442.30894c-2.90334-.96024-6.03571.61512-6.996,3.51846-.046.13903-.0866.27833-.12106.41814-.0872-.11461-.17853-.22821-.27593-.33753-2.03427-2.28327-5.53481-2.48367-7.81802-.44944s-2.48539,5.53421-.45121,7.81747c.0977.10967.19862.21391.30285.31397-.14305.0182-.28618.0401-.42978.0698-2.99448.62008-4.91904,3.55036-4.29898,6.54485s3.54976,4.9208 6.54432,4.30071c.14336-.0297.28443-.0664.42271-.10645-.0556.1328-.10613.26887-.15209.40789-.96022,2.90334.61513,6.03577 3.51848,6.99601s6.03579-.61513 6.996-3.51848c.046-.13842.0861-.27719.12051-.4164 .0868.11392.17797.22654.27482.33524 2.03418,2.28326 5.53472,2.48368 7.81801.44943s2.4854-5.53422.45113-7.81747c-.0976-.10951-.19933-.21234-.30332-.31225 .14329-.0182.28642-.0417.43026-.0715 2.99447-.62008 4.91911-3.55036 4.29897-6.54484s-3.54976-4.9208-6.54424-4.30073c-.14257.0295-.28292.0656-.42049.10531 .0556-.13226.10574-.26774.15155-.40616 .96021-2.90334-.61514-6.03576-3.51849-6.99601z" fill="#fea" stroke="#000" stroke-width=".95122"/>
  <path d="m399.41556,449.59473c-1.4689-.48582-3.05369.31122-3.53952,1.78012-.023.0703-.0437.14082-.0611.21154-.0437-.058-.0903-.11545-.13964-.17077-1.02911-1.15517-2.80022-1.25657-3.9554-.22738s-1.25742,2.79996-.22823,3.95514c.0492.0555.1005.10823.15321.15884l-.21743.0353c-1.51502.31371-2.48873,1.79624-2.17501,3.31126s1.79596,2.4896 3.31098,2.17588c.0722-.015.14392-.0336.21386-.0538l-.077.20636c-.48583,1.4689.31126,3.0537 1.78015,3.53952s3.0537-.31122 3.53952-1.78012c.023-.07.0437-.14024.0611-.21067 .0437.0576.09.11461.139.16961 1.0292,1.15518 2.80023,1.25657 3.9554.22738s1.25751-2.79995.22831-3.95513c-.0492-.0554-.1009-.10743-.15353-.15798l.21775-.0362c1.51502-.31371 2.48873-1.79625 2.17501-3.31127s-1.79596-2.4896-3.31098-2.17588c-.0722.0149-.14313.0332-.21274.0533l.077-.20549c.48582-1.46891-.31126-3.05369-1.78016-3.53952z" fill="#fc0"/>
  <path d="m398.61689,452.00897c-.99355-.32862-2.06554.21051-2.39418,1.20409-.0159.0476-.0294.0953-.0413.14309-.0302-.0392-.0611-.0781-.0944-.11551-.69618-.78138-1.89415-.84996-2.67551-.1538s-.85051,1.89392-.1544,2.6753c.0333.0376.0683.0732.10367.10745-.0492.006-.098.0137-.1471.0239-1.02475.2122-1.68339,1.215-1.4712,2.23979s1.2148,1.68399 2.23963,1.47179l.14463-.0364c-.019.0454-.0365.092-.0516.13959-.32865.99359.21052,2.06557 1.20407,2.39419s2.06562-.21052 2.39419-1.2041c.0159-.0474.0294-.0949.0413-.14251 .0294.0391.0611.0776.0941.11473 .6961.78138 1.89407.84997 2.67543.1538s.85059-1.89391.1544-2.67529c-.0333-.0375-.0683-.0726-.10375-.10687 .0492-.006.098-.0143.14725-.0245 1.02476-.2122 1.6834-1.215 1.47121-2.23978s-1.21488-1.684-2.23963-1.4718l-.14392.036c.019-.0453.0365-.0916.0516-.139 .32864-.99358-.21045-2.06555-1.20408-2.39417z" fill="#806600"/>
 </g>
</svg>
