<?xml version="1.0" encoding="UTF-8"?>
<svg viewBox="0 0 358.14304 499.98947" xmlns="http://www.w3.org/2000/svg" xmlns:xlink="http://www.w3.org/1999/xlink">
 <defs>
  <linearGradient id="a">
   <stop stop-color="#ffb142" offset="0"/>
   <stop stop-color="#c87600" offset="1"/>
  </linearGradient>
  <linearGradient id="b" x1="2477.6" x2="2477.6" y1="380.57" y2="394.65" gradientUnits="userSpaceOnUse" xlink:href="#a"/>
  <linearGradient id="c" x1="2477.6" x2="2477.6" y1="380.57" y2="394.65" gradientUnits="userSpaceOnUse" xlink:href="#a"/>
  <linearGradient id="e" x1="2477.6" x2="2477.6" y1="380.57" y2="394.65" gradientUnits="userSpaceOnUse" xlink:href="#a"/>
  <linearGradient id="d" x1="2468.9" x2="2477.4" gradientUnits="userSpaceOnUse" xlink:href="#a"/>
 </defs>
 <g transform="matrix(.94751 0 0 .94751 -2163.7 116.66)">
  <path d="m2467.6 379.05a14.25 23.024 0 0 1 -28.5 0 14.25 23.024 0 1 1 28.5 0z" fill="url(#b)" stroke="#000" stroke-linecap="round" stroke-linejoin="round" stroke-width="5"/>
  <path d="m2433.1 379.05a14.25 23.024 0 0 1 -28.5 0 14.25 23.024 0 1 1 28.5 0z" fill="url(#b)" stroke="#000" stroke-linecap="round" stroke-linejoin="round" stroke-width="5"/>
  <path d="m2450.1 379.05a14.25 23.024 0 0 1 -28.5 0 14.25 23.024 0 1 1 28.5 0z" fill="url(#c)" stroke="#000" stroke-linecap="round" stroke-linejoin="round" stroke-width="5"/>
  <path d="m2544.6 379.05a14.25 23.024 0 0 1 -28.5 0 14.25 23.024 0 1 1 28.5 0z" fill="url(#e)" stroke="#000" stroke-linecap="round" stroke-linejoin="round" stroke-width="5"/>
  <path d="m2510.1 379.05a14.25 23.024 0 0 1 -28.5 0 14.25 23.024 0 1 1 28.5 0z" fill="url(#b)" stroke="#000" stroke-linecap="round" stroke-linejoin="round" stroke-width="5"/>
  <path d="m2527.1 379.05a14.25 23.024 0 0 1 -28.5 0 14.25 23.024 0 1 1 28.5 0z" fill="url(#c)" stroke="#000" stroke-linecap="round" stroke-linejoin="round" stroke-width="5"/>
  <path d="m2418.9 356.02c-5.8064 0-10.78 5.6304-13 13.688 18.971 5.0743 39.814 8.0342 61.719 8.4375-0.2984-12.285-6.5429-22.125-14.219-22.125-3.3009 0-6.3333 1.8275-8.75 4.875-2.4167-3.0475-5.4491-4.875-8.75-4.875-3.1858 0-6.1261 1.7049-8.5 4.5625-2.374-2.8576-5.3143-4.5625-8.5-4.5625zm77 0c-7.6562 0-13.891 9.7905-14.219 22.031 21.881-0.7044 42.616-3.9836 61.438-9.3438-2.3472-7.5156-7.1571-12.688-12.719-12.688-3.3009 0-6.3333 1.8275-8.75 4.875-2.4167-3.0475-5.4491-4.875-8.75-4.875-3.1858 0-6.1261 1.7049-8.5 4.5625-2.374-2.8576-5.3143-4.5625-8.5-4.5625z" fill-opacity=".3137"/>
  <path d="m2638.3 202.96a165.56 165.56 0 0 1 -331.13 0 165.56 165.56 0 1 1 331.13 0z" fill="#784421" stroke="#000" stroke-linecap="round" stroke-width="5"/>
  <path d="m2409.4 360.68c-5.8064 0-1.227 11.722-3.4467 19.78 18.971 5.0743 39.814 8.0342 61.719 8.4375-0.2984-12.285-6.5429-22.125-14.219-22.125-3.3009 0-6.3333 1.8275-8.75 4.875-2.4167-3.0475-5.4491-4.875-8.75-4.875-3.1858 0-6.1261 1.7049-8.5 4.5625-2.374-2.8576-14.868-10.654-18.053-10.654zm86.553 6.092c-7.6562 0-13.891 9.7905-14.219 22.031 21.881-0.7044 42.616-3.9836 61.438-9.3438-2.3472-7.5156 5.5806-16.841 0.019-16.841-3.3009 0-19.071 5.9811-21.488 9.0286-2.4167-3.0475-5.4491-4.875-8.75-4.875-3.1858 0-6.1261 1.7049-8.5 4.5625-2.374-2.8576-5.3143-4.5625-8.5-4.5625z" fill-opacity=".3137"/>
  <path d="m2554.6 285.74c-26.5-4.9236-2.2474 21.631-6.3107 31.233-16.063-7.8984-9.9427 18.25-17.207 25.514-13.764-0.7361-15.912 13.143-25.514 17.207-11.602-6.4367-20.156 6.3107-31.233 6.3107s-17.631-12.247-31.233-6.3107c-9.6016-4.0634-11.75-17.443-25.514-17.207-7.2639-7.2639-6.1433-34.912-17.207-25.514-4.0634-9.6016 14.689-38.156-6.3107-31.233 0-11.076 22.247-31.631 6.3107-31.233 4.0634-9.6015 24.443-16.75 17.207-25.514 14.528-14.528 34.594-23.517 56.746-23.517s42.219 8.9895 56.746 23.517c-10.736 5.2638 13.143 15.912 17.207 25.514-17.937-0.8984 6.3107 20.156 6.3107 31.233z" fill="#fff" stroke="#000" stroke-linecap="round" stroke-linejoin="round" stroke-width="5"/>
  <path d="m2316.4 148.33c2.6975-7.0025 5.3886-13.674 9.4149-21.772l38.991 75.323c5.9133 10.186 7.7496 9.3677 18.294 12.994 52.971 14.866 104.57 29.37 187.74-4.8976 12.43-41.333 31.087-59.992 50.622-78.995 3.8927 6.6301 6.4158 14.53 7.2235 18.096-15.107 17.57-30.258 30.096-41.358 74.708 5.7786 25.986 9.8544 73.535-14.471 131.06-60.652 31.304-132.81 35.542-203.8-1.2977-14.353-38.192-26.82-100.77-23.472-140.44z" fill="#454837" stroke="#000" stroke-linecap="round" stroke-linejoin="round" stroke-width="5"/>
  <path d="m2596.2 95.356c-61.798-72.302-169.73-61.825-249.26 2.7412 83.198-40.943 168.67-43.771 249.26-2.7412z" fill-opacity=".3137"/>
  <path d="m2426.8 75.161c-31.234 0-56.603 29.331-56.603 65.472s25.369 65.472 56.603 65.472c18.356 0 34.644-10.141 44.985-25.83 10.34 15.7 26.664 25.83 45.027 25.83 31.234 0 56.603-29.332 56.603-65.472s-25.369-65.472-56.603-65.472c-18.361 0-34.687 10.133-45.027 25.83-10.341-15.685-26.631-25.83-44.985-25.83z" fill="#fff" stroke="#000" stroke-linecap="round" stroke-width="5"/>
  <g transform="translate(2283.6 34.897)">
   <path d="m184.55 110.17a16.387 16.387 0 1 1 -32.774 0 16.387 16.387 0 1 1 32.774 0z" stroke="#000" stroke-linecap="round" stroke-width="5"/>
   <path d="m166.5 104.43a4.25 4.25 0 0 1 -8.5 0 4.25 4.25 0 1 1 8.5 0z" fill="#fff"/>
  </g>
  <g transform="translate(2283.6 34.897)">
   <path d="m226.05 110.17a16.387 16.387 0 1 1 -32.774 0 16.387 16.387 0 1 1 32.774 0z" stroke="#000" stroke-linecap="round" stroke-width="5"/>
   <path d="m208 104.43a4.25 4.25 0 0 1 -8.5 0 4.25 4.25 0 1 1 8.5 0z" fill="#fff"/>
  </g>
  <g transform="translate(2283.6 34.897)" fill-rule="evenodd">
   <path d="m55.736 131.04c48.111 17.3-14.163 94.143 37.819 161.19 9.6084 12.393-57.868 2.0908-81.723-66.585-23.198-66.786-1.1324-107.54 43.904-94.607z" fill="#784421" stroke="#000" stroke-width="5"/>
   <path d="m4.0625 160.84c-3.4518 16.506-1.2985 38.673 7.7812 64.812 23.855 68.676 91.327 78.987 81.719 66.594-4.1089-5.2998-7.5204-10.675-10.312-16.062-18.952-4.5414-54.048-24.376-69.906-70.031-5.8796-16.927-8.8539-32.18-9.2812-45.312zm71.281 6.3438c-0.88285 8.5361-1.8562 17.612-2.2812 27.125 0.99329-9.7906 2.0794-18.941 2.2812-27.125z" fill-opacity=".3137"/>
  </g>
  <path d="m2356.8 156.89c-13.389-4.609-27.221 7.5838-29.865 14.18 13.512-3.4523 19.72-4.4258 23.218-1.3807-1.5068 3.3714-17.408 6.7419-22.337 28.871 12.429-8.6166 22.304-18.576 26.272-14.483-2.8815 5.0338-6.1995 14.497-3.9635 23.881 7.1415-9.4245 14.439-19.378 21.142-19.648" fill="#784421" fill-rule="evenodd" stroke="#000" stroke-linecap="round" stroke-linejoin="round" stroke-width="5"/>
  <path d="m2375.1 236.39c61.43 16.45 132.07 21.463 194.73-0.5538 5.8643 34.054-13.699 97.43-19.66 110.47-57.573 19.271-96.706 19.914-154.85 1.6614-9.9678-34.556-27.196-76.932-20.214-111.58z" fill="#ececec" stroke="#000" stroke-linecap="round" stroke-linejoin="round" stroke-width="5.4329"/>
  <path d="m2401.7 171.18c-3.4966 0.1657-4.5481 8.7953-1.5 17.25 1.8933 0.2864 3.8008 0.8241 5.6875 1.625-7.5727-3.0456-17.25-1.3023-24.219 6.3125-14.582 18.014-39.069 67.037-32.187 141.5 0.069 0.749 0.1427 1.4961 0.2187 2.25 71.294 49.395 141.95 54.477 225.75 14.094-0.066-2.7295 1.6619-12.724 4.25-26.281l6.5-33.125c9.5642-48.241 21.357-107.91 16.594-107.91-6.7184 2.2747-27.394-13.782-23.5-1.3799 1.4562 4.6383-6.3334 8.2011-5.1418 13.128 7.4148 30.657 8.7631 65.882-7.7019 92.971l-11.719-1.875-21.25-3.4063c-4.9885-0.8913-5.4665 1.1118-5.9688 4.0938l-101.53-13.688c-0.5823-9.8528-10.116-19.655-23.156-20.344 0.5237-1.9135 1.032-3.8337 1.5937-5.75 0.1544-0.5261 0.2681-1.0452 0.4376-1.5626 2.5064-7.6647 5.4874-17.202 8.7812-26.344 0.171-0.4746 0.359-0.9341 0.5312-1.4063 2.3945-6.5297 4.8037-10.618 2.9688-18-1.1644-4.7845-3.7695-8.5004-7.1562-11 0.8474 0.5929 1.6867 1.2315 2.5 2 10.812-0.4017 21.892-10.459 4.1562-12 4.2757-11.776-6.8845-9.2518-8.8125-5.3124-2.44-4.2353-4.5357-5.9192-6.125-5.8438zm-1.9375 97.25c2.46 1.6447 5.4318 5.8672 4.7812 10.094l-0.6562 4.2187c-0.7457 4.5944-5.5975 7.8864-8.4062 8.3125-0.049 0.01-0.1067-0.01-0.1563 0 1.1444-7.3696 2.643-14.939 4.4375-22.625zm22 26.312 101.97 19.344c-0.444 3.2437 1.3925 5.0878 4.9374 5.6563l11.094 1.7813c-34.84 24.327-107.79 29.738-152.6 0.499 0.074-6.6453 0.5293-13.738 1.3438-21.125l6.5737 2.3134c10.974 3.0653 21.642-1.2693 26.688-8.4687z" fill-opacity=".3137"/>
  <g transform="translate(-30.173 -989.15)">
   <path d="m2438.9 1022.8 128.67-22.113c13.22 27.846 34.539 54.577 45.204 68.969-68.687-41.434-172.66-32.366-224.98 6.8826 5.3958-22.619 24.67-43.533 51.103-53.739z" fill="#fff"/>
   <path d="m2432.9 1027c-2.2205-13.554 3.8864-25.437 7.3257-12.063 9.2745 15.039-40.608 37.532 16.156 33.23-1.6015-1.8927-9.2242 1.0398-9.2539 1.037 2.0394 0.7876 16.705-1.9488 19.939-18.178 1.9-8.8525 13.689-7.4436 14.89 3.144 2.4118 11.752-14.707 11.393-21.216 12.694-17.055-0.4615-61.262 15.81-74.638 29.417 2.1716-17.347 32.436-29.488 29.352-54.011z" fill="#dbdbdb"/>
   <path d="m2414.9 1020 161.78-13.07c11.082 22.996 11.453 39.168 45.814 70.002-25.504-28.214-153.78-59.71-241.46 3.1523 23.192-28.01 36.058-48.113 33.87-60.084z" fill="none" stroke="#000" stroke-linecap="round" stroke-linejoin="round" stroke-width="5"/>
   <path d="m2433.3 916.73c50.135-77.575 178.66-52.776 153.82 11.182 72.641 16.226 75.917 140.31-50.099 90.251-21.267 7.4492-42.423 15.132-74.571-0.2298-116.81 51.138-161.89-117.55-29.151-101.2z" fill="#fff"/>
   <path d="m2484.8 877.6c-15.78 12.592-22.408 20.931-32.236 38.715-1.9401 3.6388-1.5491 4.351-5.8534 4.1313-5.5472-0.2909-9.4616-1.4726-11.988-1.9455 13.787-14.147 20.582-32.121 50.078-40.901z" fill="#dbdbdb"/>
   <path d="m2341 957.83c3.037-19.526 28.995-44.633 65.07-42.138-79.864 21.354-50.01 87.058 1.2872 100.9 18.32 4.9425 40.658 2.2911 59.978-4.0443 25.92-8.681 50.686-11.253 9.9794 4.0068-40.547 15.083-96.816 22.61-122.55-6.8434-15.469-11.3-15.206-36.804-13.768-51.878z" fill="#dbdbdb"/>
   <path d="m2553.7 1015.7c-3.5217-8.0265 6.3932-8.5272 12.866-5.2371 11.644 7.3871 25.139 13.973 59.707 11.444l-32.477 7.5646c-34.188-5.0906-37.516-9.44-40.096-13.772z" fill="#dbdbdb"/>
   <path d="m2527.5 979.33c-10.109-4.5694-6.1729-10.877 1.4355-12.301 29.444-3.8966 48.457-13.483 57.402-41.421l2.5027 5.6539c-15.552 41.694-45.21 53.727-61.34 48.068z" fill="#dbdbdb"/>
   <path d="m2523.7 866.03c-32.6 0.4004-68.868 15.314-89.895 48.713-37.691-4.8091-63.821 3.0304-79.284 16.971-15.673 14.13-20.3 34.2-15.727 52.764s18.367 35.767 39.71 44.175c15.49 6.102 35.24 5.8083 57.678-0.1566-0.3119-2.8347-1.1018-3.5291-2.0426-3.2644-21.175 5.4887-39.532 5.6931-53.822 0.064-19.945-7.8573-32.951-24.035-37.274-41.582s0.064-36.334 14.617-49.453 39.402-20.815 76.956-15.72c0.8933 0.1261 1.8555-0.2853 2.2737-0.9724 20.19-33.033 55.47-47.461 86.89-47.833 4.4887-0.053 8.8794 0.1872 13.156 0.6945 17.104 2.0293 31.996 8.4406 41.225 18.267s12.982 23.046 7.6875 39.405c-0.3194 0.9829 0.5069 2.1229 1.6783 2.3153 16.989 2.9393 30.136 12.592 38.573 24.842s12.059 27.082 9.9613 39.984-9.7126 23.745-23.848 28.825c-10.43 3.7481-24.665 4.3532-43.129-0.133-5.1295-1.6222-1.7765 3.4186 1.3335 4.1292 18.004 4.0345 32.416 3.4039 43.474-0.5696 15.672-5.6319 24.193-17.889 26.446-31.742s-1.5684-29.419-10.503-42.392c-8.5771-12.455-22.022-22.493-39.331-26.093 4.7386-16.503 0.7512-30.548-8.9597-40.887-10.072-10.724-26.02-17.498-44.014-19.633-4.4982-0.5337-9.1215-0.7756-13.832-0.7177z"/>
  </g>
  <path d="m2455.2 83.179c-13.276-32.16-35.666-36.513-35.666-36.513s12.453 16.775 1.174 12.109c-17.465-7.2258-72.997 15.418-72.997 15.418s73.574-17.126 107.49 8.9861z" fill="#fff" fill-rule="evenodd" stroke="#000" stroke-linejoin="round" stroke-width="5"/>
  <path d="m2485.6 86.179c13.276-32.16 35.666-36.513 35.666-36.513s-12.453 16.775-1.1739 12.109c17.465-7.2258 72.997 15.418 72.997 15.418s-73.574-17.126-107.49 8.9861z" fill="#fff" fill-rule="evenodd" stroke="#000" stroke-linejoin="round" stroke-width="5"/>
  <path d="m2473.5 186.07c-9.288 0-19.384 10.327-18.98 16.85s16.557 33.699 20.191 33.699 17.768-26.633 17.364-34.243-12.519-16.85-18.576-16.306z" fill-opacity=".3137" fill-rule="evenodd"/>
  <path d="m2471.3 175.46c-9.288 0-19.384 9.3062-18.98 15.184s16.557 30.368 20.191 30.368 17.768-24 17.364-30.857-12.519-15.184-18.576-14.694z" fill="url(#d)" fill-rule="evenodd" stroke="#000" stroke-width="5"/>
  <path d="m2335.3486,254.86176c-.8847.17-1.4729.3665-1.604.5946-.4462.7686 6.7044,1.3942 11.34,2.2122 2.3639.4171 4.8463.8031 7.3826,1.1589 .3359-1.4347.6746-2.8472 1.0309-4.2395l-8.4059-.3576c-1.956-.081-7.0861.1374-9.7436.6314zm-5.4883,26.4166c-.1838.035-.2701.098-.2467.2065 .2165,1.0311 7.9251,3.9428 10.4391,4.6447l7.5654,2.1102c.1426-1.4311.296-2.8234.4609-4.2254-2.3845-.4163-4.7129-.8282-6.966-1.1435-4.0791-.5705-9.9697-1.8588-11.2527-1.5925z" fill-opacity=".3137"/>
  <g transform="matrix(.98203 -.18872 .18872 .98203 82.89 513.45)">
   <path d="m2263.3057,168.07523c-.9009,0-1.5156.082-1.6874.2812-.5833.6706 6.3208,2.6344 10.7187,4.3125 2.2427.8557 4.6077,1.7033 7.0313,2.5313 .6006-1.3455 1.1998-2.6687 1.8124-3.9688l-8.1874-1.9375c-1.9056-.44841-6.9847-1.2023-9.6876-1.2187zm-10.375,24.90619c-.1871-4e-005-.2837.045-.2812.1563 .018,1.05341 7.0386,5.3675 9.375,6.5312l7.0312,3.5c.4101-1.37849.8235-2.71679 1.25-4.0625-2.2631-.85879-4.4719-1.70269-6.625-2.4375-3.8981-1.33009-9.4398-3.7069-10.75-3.6875z" fill="#b3b3b3" stroke="#000" stroke-linecap="round" stroke-linejoin="round" stroke-width="5"/>
   <path d="m2311.9 113.97c14.132-10.518 32.701-2.8287 33.5 13.523 0.4089 7.5954-2.719 11.149-6.3027 17.109-0.2586 0.4312-0.5167 0.8639-0.7742 1.2977-4.9598 8.3558-9.6986 17.139-13.606 24.193-0.2637 0.4763-0.4723 0.9833-0.723 1.4707-13.076 25.424-22.324 51.475-26.285 73.132-2.8246 15.446-4.5515 23.938-7.6861 27.638-7.1264 10.434-24.46 12.385-33.142-0.892-5.0287-8.0489-4.2625-13.849-3.5028-22.341 0.068-0.7548 0.1388-1.5063 0.2122-2.2548 7.2945-74.424 40.59-117.94 58.31-132.88z" fill="#a40" stroke="#000" stroke-linecap="round" stroke-linejoin="round" stroke-width="5"/>
   <path d="m2335.4 140c-31.812 50.408-38.18 76.482-41.765 97.737-4.0252 55.98-25.077 32.457-19.393-7.3515 8.1178-40.827 19.426-70.599 42.695-99.534 20.07-23.403 27.668-5.6416 18.463 9.1481z" fill="#b74900"/>
   <path d="m2263.8 289.44c-0.9919 4.272 6.054 13.284 10.174 1.4521 14.042 9.5373 12.677-3.4809 5.4716-10.9-4.783-4.6867-13.935-4.6026-16.814-2.579-9.3492 6.9091-12.32 17.178 1.1689 12.027z" fill="#a40" stroke="#000" stroke-linecap="round" stroke-linejoin="round" stroke-width="5"/>
   <path d="m2341.3 99.895c2.6367-3.5045 14.069-3.8936 7.6482 6.864 17.126 4.8607 4.3521 12.672-6.3415 11.026-3.0656-4.2604-6.9682-6.7058-10.954-8.1159-2.0331-12.913 4.5372-24.557 9.6474-9.774z" fill="#a40" stroke="#000" stroke-linecap="round" stroke-linejoin="round" stroke-width="5"/>
   <path d="m2336 142.01c-1.8947 2.7172-2.9536-0.7504-5.6065-3.5259-8.2647-8.6467-11.559-9.0692-15.757-10.988-3.4919-1.5959-7.6575-1.6851-5.7627-4.4022s5.569-2.437 9.1047-0.9404c5.9025 2.4985 11.225 6.0364 15.757 10.988 2.5924 2.832 4.1592 6.1514 2.2645 8.8685z" fill="#803300"/>
   <path d="m2325.9 159.57c-2.0226 2.8927-3.1485-0.79591-5.9745-3.7466-8.8042-9.1927-12.316-9.6393-16.791-11.677-3.7217-1.6949-8.1629-1.7861-6.1403-4.6788s5.9399-2.598 9.7083-1.0088c6.2911 2.6532 11.962 6.4127 16.791 11.677 2.7615 3.011 4.4291 6.5414 2.4065 9.4342z" fill="#803300"/>
   <path d="m2317 177.66c-1.6764 3.1062-3.2192-0.4283-6.3659-3.0343-9.8032-8.1188-13.343-8.1585-18.023-9.6681-3.892-1.2555-8.3143-0.8351-6.6379-3.9413s5.6017-3.2641 9.5279-2.1189c6.5545 1.9117 12.621 4.9939 18.023 9.668 3.0895 2.6733 5.1523 5.9884 3.4759 9.0946z" fill="#803300"/>
   <path d="m2310.9 196.98c-1.2036 3.5466-3.4158 0.011-7.1325-2.3053-11.579-7.2155-15.261-6.7449-20.379-7.6728-4.2571-0.7717-8.775 0.316-7.5715-3.2306s5.251-4.2831 9.5245-3.6338c7.1345 1.0841 13.964 3.4836 20.379 7.6727 3.669 2.3959 6.383 5.6232 5.1795 9.1698z" fill="#803300"/>
   <path d="m2302 216.7c-1.3289 3.2699-3.2467-0.076-6.6579-2.3247-10.628-7.0054-14.151-6.6601-18.967-7.6522-4.0054-0.8252-8.3557 0.073-7.0268-3.1966s5.2138-3.8536 9.2412-3.1419c6.7234 1.1882 13.089 3.5929 18.966 7.6523 3.3617 2.3217 5.7725 5.3931 4.4436 8.6631z" fill="#803300"/>
   <path d="m2315.2 175.1c-7.8979-0.6704-7.037 6.4745-4 8.375 3.1539 1.4996 5.8968 3.0584 8.0626 4.7187 2.2543 1.7283 4.9072 6.9286 3.3437 11.312l-1.4375 4.0313c-1.5994 4.3712-6.9739 6.6741-9.8125 6.5625-3.0222-0.11881-6.5288-0.7833-10.344-1.8125-7.2179-2.2164-8.7005 5.2141-2.8438 8.4688l10.5 5.2187c10.199 5.0814 21.468 2.8366 27.781-3.2813l134.69 53.375 9.125-24.531-136.25-45.75c1.298-9.8648-6.3561-21.41-19.219-24.438z" fill="#b3b3b3" stroke="#000" stroke-linecap="round" stroke-linejoin="round" stroke-width="5"/>
   <g transform="matrix(1 -.00163 .00163 1 682.15 -723.11)" stroke="#000">
    <path d="m1849.1 1024.5c8.7785 3.2087 18.428-1.2748 21.636-10.053s-1.2737-18.43-10.052-21.639l-10.704-3.9123-65.744-24.03-20.225-7.3925c-5.312-2.05-5.7205 0.56339-7.043 3.966l-7.6717 20.989c-1.3428 3.3321 0.091 5.6264 3.6172 6.9156l19.738 7.2147 65.744 24.03z" fill="#af4600" stroke-width="5"/>
    <path transform="matrix(-.13043 -.04767 .04767 -.13043 2019.6 1176.5)" d="m1594.6 729.17c0 35.902-29.104 65.007-65.006 65.007s-65.007-29.104-65.007-65.007 29.104-65.007 65.007-65.007 65.006 29.104 65.006 65.007z" fill="#fff" stroke-width="36.005"/>
   </g>
   <path d="m2296.7 236.47c-1.5347 3.0948-3.3782 0.079-6.8278-1.85-10.747-6.0098-14.433-5.5272-19.403-6.2259-4.134-0.58111-8.7067 0.4527-7.1719-2.6421s5.608-3.815 9.7702-3.3402c6.9485 0.7928 13.468 2.7305 19.403 6.2259 3.3946 1.9991 5.7643 4.7375 4.2295 7.8323z" fill="#803300"/>
   <path d="m2294.1 254.39c-0.8419 3.3502-3.2842 0.7952-7.0651-0.3565-11.779-3.588-15.278-2.333-20.283-1.9592-4.1631 0.31091-8.4115 2.2931-7.5697-1.0572s4.669-4.9199 8.837-5.3407c6.9582-0.70231 13.74-0.19461 20.283 1.9593 3.742 1.2319 6.6396 3.404 5.7977 6.7543z" fill="#803300"/>
  </g>
  <g transform="translate(2283.6 34.897)" fill-rule="evenodd">
   <path d="m322.18 131.04c-48.111 17.3 14.163 94.143-37.819 161.19-9.6084 12.393 57.868 2.0908 81.723-66.585 23.198-66.786 1.1324-107.54-43.904-94.607z" fill="#784421" stroke="#000" stroke-width="5"/>
   <path d="m337.94 128.66c-0.41261-6e-4 -0.83163 0.0205-1.25 0.0312 16.212 13.065 23.073 43.297 14.781 85.344-11.023 55.895-53.577 80.008-67.719 81.281 4.5921 6.5264 60.971-8.1258 82.344-69.656 20.299-58.438 5.9208-96.95-28.156-97z" fill-opacity=".3137"/>
  </g>
  <path d="m2588.1 156.89c13.389-4.609 27.221 7.5838 29.865 14.18-13.512-3.4523-19.72-4.4258-23.218-1.3807 1.5067 3.3714 17.408 6.7419 22.337 28.871-12.429-8.6166-22.304-18.576-26.272-14.483 2.8816 5.0338 6.1995 14.497 3.9635 23.881-7.1414-9.4245-14.439-19.378-21.142-19.648" fill="#784421" fill-rule="evenodd" stroke="#000" stroke-linecap="round" stroke-linejoin="round" stroke-width="5"/>
 </g>
</svg>
